<svg width="1440" height="372" viewBox="0 0 1440 372" fill="none" xmlns="http://www.w3.org/2000/svg">
<g opacity="1">
<path d="M983.461 120.967H1047.09V322.538H983.461V120.967Z" fill="#CFDBF3"/>
<path d="M993.856 106.514H1036.7V191.229H993.856V106.514Z" fill="#CFDBF3"/>
<path d="M1003.4 97.3506H1027.17V144.334H1003.4V97.3506Z" fill="#CFDBF3"/>
<path d="M1007.18 121.494H1023.39V89.4783H1017.54H1011.75H1007.18V121.494Z" fill="#CFDBF3"/>
<path d="M1016.35 107.554H1018.11V75.5262H1017.48H1016.85H1016.35V107.554Z" fill="#CFDBF3"/>
<path d="M1012.46 96.4855H1014.22V64.4574H1013.59H1012.96H1012.46V96.4855Z" fill="#CFDBF3"/>
<path d="M981.775 120.453H1048.79V122.597H981.775V120.453Z" fill="#CFDBF3"/>
<path d="M992.312 105.486H1038.27V107.554H992.312V105.486Z" fill="#CFDBF3"/>
<path d="M1002.41 96.4856H1028.9V98.0651H1002.41V96.4856Z" fill="#CFDBF3"/>
<path opacity="0.29" d="M1030.78 109.949H1032.76V118.824H1030.78V109.949Z" fill="#CFDBF3"/>
<path opacity="0.29" d="M1025.26 109.949H1027.25V118.824H1025.26V109.949Z" fill="#CFDBF3"/>
<path opacity="0.29" d="M1019.77 109.949H1021.75V118.824H1019.77V109.949Z" fill="#CFDBF3"/>
<path opacity="0.29" d="M1014.25 109.949H1016.24V118.824H1014.25V109.949Z" fill="#CFDBF3"/>
<path opacity="0.29" d="M1008.74 109.949H1010.72V118.824H1008.74V109.949Z" fill="#CFDBF3"/>
<path opacity="0.29" d="M1003.23 109.949H1005.21V118.824H1003.23V109.949Z" fill="#CFDBF3"/>
<path opacity="0.29" d="M997.715 109.949H999.699V118.824H997.715V109.949Z" fill="#CFDBF3"/>
<path d="M1036.7 129.003H1041.52V139.532H1036.7V129.003Z" fill="#CFDBF3"/>
<path opacity="0.29" d="M1027.17 129.003H1031.99V139.532H1027.17V129.003Z" fill="#CFDBF3"/>
<path d="M1017.64 129.003H1022.46V139.532H1017.64V129.003Z" fill="#CFDBF3"/>
<path d="M1008.11 129.003H1012.93V139.532H1008.11V129.003Z" fill="#CFDBF3"/>
<path d="M998.597 129.003H1003.4V139.532H998.597V129.003Z" fill="#CFDBF3"/>
<path d="M989.068 129.003H993.872V139.532H989.068V129.003Z" fill="#CFDBF3"/>
<path d="M1036.7 145.424H1041.52V155.954H1036.7V145.424Z" fill="#CFDBF3"/>
<path d="M1027.17 145.424H1031.99V155.954H1027.17V145.424Z" fill="#CFDBF3"/>
<path d="M1017.64 145.424H1022.46V155.954H1017.64V145.424Z" fill="#CFDBF3"/>
<path opacity="0.29" d="M1008.11 145.424H1012.93V155.954H1008.11V145.424Z" fill="#CFDBF3"/>
<path d="M998.597 145.424H1003.4V155.954H998.597V145.424Z" fill="#CFDBF3"/>
<path d="M989.068 145.424H993.872V155.954H989.068V145.424Z" fill="#CFDBF3"/>
<path d="M1036.7 161.833H1041.52V172.363H1036.7V161.833Z" fill="#CFDBF3"/>
<path d="M1027.17 161.833H1031.99V172.363H1027.17V161.833Z" fill="#CFDBF3"/>
<path d="M1017.64 161.833H1022.46V172.363H1017.64V161.833Z" fill="#CFDBF3"/>
<path d="M1008.11 161.833H1012.93V172.363H1008.11V161.833Z" fill="#CFDBF3"/>
<path opacity="0.29" d="M998.597 161.833H1003.4V172.363H998.597V161.833Z" fill="#CFDBF3"/>
<path opacity="0.29" d="M989.068 161.833H993.872V172.363H989.068V161.833Z" fill="#CFDBF3"/>
<path opacity="0.29" d="M1036.7 178.242H1041.52V188.772H1036.7V178.242Z" fill="#CFDBF3"/>
<path d="M1027.17 178.242H1031.99V188.772H1027.17V178.242Z" fill="#CFDBF3"/>
<path d="M1017.64 178.242H1022.46V188.772H1017.64V178.242Z" fill="#CFDBF3"/>
<path d="M1008.11 178.242H1012.93V188.772H1008.11V178.242Z" fill="#CFDBF3"/>
<path d="M998.597 178.242H1003.4V188.772H998.597V178.242Z" fill="#CFDBF3"/>
<path d="M989.068 178.242H993.872V188.772H989.068V178.242Z" fill="#CFDBF3"/>
<path d="M1036.7 194.663H1041.52V205.193H1036.7V194.663Z" fill="#CFDBF3"/>
<path opacity="0.29" d="M1027.17 194.663H1031.99V205.193H1027.17V194.663Z" fill="#CFDBF3"/>
<path d="M1017.64 194.663H1022.46V205.193H1017.64V194.663Z" fill="#CFDBF3"/>
<path opacity="0.29" d="M1008.11 194.663H1012.93V205.193H1008.11V194.663Z" fill="#CFDBF3"/>
<path d="M998.597 194.663H1003.4V205.193H998.597V194.663Z" fill="#CFDBF3"/>
<path d="M989.068 194.663H993.872V205.193H989.068V194.663Z" fill="#CFDBF3"/>
<path d="M1036.7 211.072H1041.52V221.602H1036.7V211.072Z" fill="#CFDBF3"/>
<path d="M1027.17 211.072H1031.99V221.602H1027.17V211.072Z" fill="#CFDBF3"/>
<path d="M1017.64 211.072H1022.46V221.602H1017.64V211.072Z" fill="#CFDBF3"/>
<path d="M1008.11 211.072H1012.93V221.602H1008.11V211.072Z" fill="#CFDBF3"/>
<path d="M998.597 211.072H1003.4V221.602H998.597V211.072Z" fill="#CFDBF3"/>
<path opacity="0.29" d="M989.068 211.072H993.872V221.602H989.068V211.072Z" fill="#CFDBF3"/>
<path d="M1036.7 227.494H1041.52V238.024H1036.7V227.494Z" fill="#CFDBF3"/>
<path opacity="0.29" d="M1027.17 227.494H1031.99V238.024H1027.17V227.494Z" fill="#CFDBF3"/>
<path opacity="0.29" d="M1017.64 227.494H1022.46V238.024H1017.64V227.494Z" fill="#CFDBF3"/>
<path d="M1008.11 227.494H1012.93V238.024H1008.11V227.494Z" fill="#CFDBF3"/>
<path d="M998.597 227.494H1003.4V238.024H998.597V227.494Z" fill="#CFDBF3"/>
<path d="M989.068 227.494H993.872V238.024H989.068V227.494Z" fill="#CFDBF3"/>
<path d="M1036.7 243.903H1041.52V254.433H1036.7V243.903Z" fill="#CFDBF3"/>
<path d="M1027.17 243.903H1031.99V254.433H1027.17V243.903Z" fill="#CFDBF3"/>
<path d="M1017.64 243.903H1022.46V254.433H1017.64V243.903Z" fill="#CFDBF3"/>
<path d="M1008.11 243.903H1012.93V254.433H1008.11V243.903Z" fill="#CFDBF3"/>
<path opacity="0.29" d="M998.597 243.903H1003.4V254.433H998.597V243.903Z" fill="#CFDBF3"/>
<path d="M989.068 243.903H993.872V254.433H989.068V243.903Z" fill="#CFDBF3"/>
<path d="M1036.7 260.324H1041.52V270.854H1036.7V260.324Z" fill="#CFDBF3"/>
<path opacity="0.29" d="M1027.17 260.324H1031.99V270.854H1027.17V260.324Z" fill="#CFDBF3"/>
<path d="M1017.64 260.324H1022.46V270.854H1017.64V260.324Z" fill="#CFDBF3"/>
<path d="M1008.11 260.324H1012.93V270.854H1008.11V260.324Z" fill="#CFDBF3"/>
<path d="M998.597 260.324H1003.4V270.854H998.597V260.324Z" fill="#CFDBF3"/>
<path d="M989.068 260.324H993.872V270.854H989.068V260.324Z" fill="#CFDBF3"/>
<path d="M1036.7 276.733H1041.52V287.263H1036.7V276.733Z" fill="#CFDBF3"/>
<path d="M1027.17 276.733H1031.99V287.263H1027.17V276.733Z" fill="#CFDBF3"/>
<path d="M1017.64 276.733H1022.46V287.263H1017.64V276.733Z" fill="#CFDBF3"/>
<path opacity="0.29" d="M1008.11 276.733H1012.93V287.263H1008.11V276.733Z" fill="#CFDBF3"/>
<path d="M998.597 276.733H1003.4V287.263H998.597V276.733Z" fill="#CFDBF3"/>
<path opacity="0.29" d="M989.068 276.733H993.872V287.263H989.068V276.733Z" fill="#CFDBF3"/>
<path opacity="0.29" d="M1036.7 293.155H1041.52V303.685H1036.7V293.155Z" fill="#CFDBF3"/>
<path d="M1027.17 293.155H1031.99V303.685H1027.17V293.155Z" fill="#CFDBF3"/>
<path opacity="0.29" d="M1017.64 293.155H1022.46V303.685H1017.64V293.155Z" fill="#CFDBF3"/>
<path d="M1008.11 293.155H1012.93V303.685H1008.11V293.155Z" fill="#CFDBF3"/>
<path d="M998.597 293.155H1003.4V303.685H998.597V293.155Z" fill="#CFDBF3"/>
<path d="M989.068 293.155H993.872V303.685H989.068V293.155Z" fill="#CFDBF3"/>
<path d="M1129.61 128.639H1231.9V298.445H1129.61V128.639Z" fill="#CFDBF3"/>
<path d="M1126.71 125.718H1234.81V130.519H1126.71V125.718Z" fill="#CFDBF3"/>
<path d="M1133.04 119.576H1228.46V142.391H1133.04V119.576Z" fill="#CFDBF3"/>
<path d="M1183.37 110.237H1221.15V135.158H1183.37V110.237Z" fill="#CFDBF3"/>
<path d="M1199.29 117.257H1221.15V104.145H1205.48L1199.29 117.257Z" fill="#CFDBF3"/>
<path d="M1210.22 93.2515H1212.35V122.472H1210.22V93.2515Z" fill="#CFDBF3"/>
<path d="M1209.39 91.7597C1209.39 92.0597 1209.5 92.353 1209.71 92.6024C1209.92 92.8518 1210.22 93.0462 1210.56 93.161C1210.91 93.2758 1211.3 93.3059 1211.66 93.2474C1212.03 93.1888 1212.37 93.0444 1212.64 92.8323C1212.91 92.6201 1213.09 92.3498 1213.16 92.0556C1213.24 91.7614 1213.2 91.4564 1213.05 91.1793C1212.91 90.9021 1212.67 90.6652 1212.35 90.4986C1212.04 90.3319 1211.67 90.2429 1211.29 90.2429C1210.79 90.2429 1210.3 90.4027 1209.95 90.6872C1209.59 90.9716 1209.39 91.3574 1209.39 91.7597Z" fill="#CFDBF3"/>
<path d="M282.558 311.369H394.529L408.5 61.6996L282.558 82.5085V311.369Z" fill="#CFDBF3"/>
<path d="M771.063 168.79V85.3165H788.625V62.9657H794.894V30.1729H829.467V6.06717H832.538V30.1729H839.311V0H842.382V30.1729H864.228V85.3165H875.522V168.79H885.192V320.82H764.259V168.79H771.063Z" fill="#CFDBF3"/>
<path d="M37.0537 308.272H1374.86V333.594H37.0537V308.272Z" fill="#CFDBF3"/>
<path d="M587.38 327.389H646.618L623.543 232.984H587.38V327.389Z" fill="#CFDBF3"/>
<path d="M18.2158 331.074H1422.86V371H18.2158V331.074Z" fill="#CFDBF3"/>
<path d="M635.923 152.682V110.851H654.95V94.9187H665.125V81.5433H668.7V58.6034H669.614V81.5433H673.189V94.9187H683.364V110.851H702.249V152.682H706.171V228.647H735.436V315.23H706.171H676.906H632.143V152.682H635.923Z" fill="#CFDBF3"/>
<path d="M526.614 200.743H618.676V202.072H614.518V325.985H530.772V202.072H526.614V200.743Z" fill="#CFDBF3"/>
<path d="M946.431 231.605H1028.07V334.823H946.431V231.605Z" fill="#CFDBF3"/>
<path d="M1040.37 284.493H1180.75V334.823H1040.37V284.493Z" fill="#CFDBF3"/>
<path d="M1074.69 172.037H1105.51V295.637H1074.69V172.037Z" fill="#CFDBF3"/>
<path d="M1097.1 139.069H1098.71V206.284H1097.1V139.069Z" fill="#CFDBF3"/>
<path d="M1091.89 144.158H1093.49V211.373H1091.89V144.158Z" fill="#CFDBF3"/>
<path d="M1084.3 164.39H1103.13V180.95H1084.3V164.39Z" fill="#CFDBF3"/>
<path d="M992.234 250.083H1045.86V334.823H992.234V250.083Z" fill="#CFDBF3"/>
<path d="M832.538 160.417H933.216V334.823H832.538V160.417Z" fill="#CFDBF3"/>
<path d="M842.43 154.412H923.325V183.457H842.43V154.412Z" fill="#CFDBF3"/>
<path d="M824.726 164.064H941.013V166.108H824.726V164.064Z" fill="#CFDBF3"/>
<path d="M904.014 246.736H951.455V334.81H904.014V246.736Z" fill="#CFDBF3"/>
<path d="M1236.79 243.389H1291.23V334.81H1236.79V243.389Z" fill="#CFDBF3"/>
<path d="M1165.14 218.543H1273.62V334.81H1165.14V218.543Z" fill="#CFDBF3"/>
<path d="M1162.36 214.081H1279.95V218.544H1162.36V214.081Z" fill="#CFDBF3"/>
<path d="M1221.15 201.984H1268.81V225.563H1221.15V201.984Z" fill="#CFDBF3"/>
<path d="M1197.57 201.984H1205.58V216.325H1197.57V201.984Z" fill="#CFDBF3"/>
<path d="M1180.75 201.984H1189.56V216.325H1180.75V201.984Z" fill="#CFDBF3"/>
<path d="M1264.01 299.46H1320.85V334.823H1264.01V299.46Z" fill="#CFDBF3"/>
<path d="M1315.39 284.493H1342.31V334.823H1315.39V284.493Z" fill="#CFDBF3"/>
<path d="M1328.87 317.135H1374.86V334.81H1328.87V317.135Z" fill="#CFDBF3"/>
<path d="M275.644 295.637H842.43V334.823H275.644V295.637Z" fill="#CFDBF3"/>
<path d="M320.895 187.167C322.613 187.167 324.268 187.683 325.527 188.613C326.786 189.543 327.556 190.818 327.684 192.181L335.653 191.981C335.653 191.354 335.653 190.727 335.653 190.113C335.64 182.334 337.335 174.613 340.662 167.299L333.984 165.343C333.311 166.569 332.092 167.553 330.56 168.104C329.029 168.655 327.295 168.735 325.694 168.327C324.094 167.92 322.74 167.054 321.895 165.898C321.049 164.742 320.773 163.377 321.12 162.068C321.466 160.759 322.41 159.599 323.769 158.812C325.128 158.025 326.806 157.668 328.477 157.809C330.148 157.949 331.695 158.578 332.817 159.574C333.939 160.57 334.557 161.862 334.551 163.199C334.549 163.735 334.448 164.267 334.252 164.779L340.914 166.734C344.76 158.55 350.594 151.049 358.082 144.659L352.869 140.773C351.589 141.739 349.887 142.27 348.124 142.252C346.36 142.234 344.675 141.67 343.427 140.679C342.178 139.688 341.464 138.348 341.437 136.945C341.41 135.542 342.071 134.185 343.281 133.164C344.491 132.143 346.153 131.538 347.915 131.477C349.677 131.416 351.399 131.904 352.715 132.838C354.032 133.772 354.838 135.078 354.964 136.478C355.09 137.878 354.525 139.261 353.389 140.335L358.602 144.221C359.138 143.769 359.689 143.318 360.177 142.879C367.928 136.687 377.133 131.768 387.268 128.401L384.402 122.848C382.712 123.272 380.881 123.155 379.298 122.521C377.715 121.888 376.505 120.788 375.925 119.455C375.346 118.123 375.442 116.663 376.194 115.386C376.945 114.109 378.293 113.116 379.951 112.617C381.608 112.119 383.444 112.155 385.069 112.717C386.694 113.28 387.979 114.324 388.651 115.629C389.323 116.934 389.329 118.396 388.668 119.704C388.007 121.012 386.73 122.064 385.11 122.635L388.009 128.113C397.064 125.196 406.691 123.567 416.454 123.299L416.139 115.703H415.919C414.169 115.602 412.537 114.965 411.366 113.926C410.195 112.887 409.575 111.527 409.639 110.132C409.702 108.737 410.443 107.416 411.705 106.447C412.967 105.478 414.653 104.936 416.407 104.936C418.161 104.936 419.846 105.478 421.109 106.447C422.371 107.416 423.112 108.737 423.175 110.132C423.238 111.527 422.619 112.887 421.448 113.926C420.277 114.965 418.645 115.602 416.895 115.703L417.21 123.324H419.557C428.933 123.312 438.245 124.554 447.105 126.997L449.861 120.792C448.292 120.283 447.017 119.328 446.285 118.112C445.552 116.896 445.414 115.506 445.899 114.214C446.383 112.922 447.454 111.819 448.904 111.121C450.353 110.423 452.077 110.18 453.74 110.438C455.403 110.696 456.886 111.438 457.9 112.518C458.913 113.599 459.385 114.941 459.223 116.283C459.061 117.626 458.278 118.872 457.025 119.78C455.771 120.687 454.139 121.191 452.444 121.193C451.811 121.197 451.18 121.129 450.57 120.993L447.829 127.26C458.54 130.305 468.354 135.061 476.669 141.237L481.646 136.887C480.432 135.842 479.778 134.46 479.825 133.037C479.871 131.614 480.613 130.261 481.894 129.266C483.174 128.272 484.891 127.715 486.68 127.713C488.469 127.711 490.189 128.265 491.472 129.256C492.756 130.248 493.503 131.599 493.554 133.022C493.605 134.446 492.956 135.828 491.745 136.877C490.535 137.925 488.858 138.556 487.072 138.635C485.286 138.714 483.531 138.236 482.181 137.301L477.22 141.526L478.905 142.779C485.815 148.276 491.474 154.685 495.632 161.72L501.933 159.401C501.692 158.845 501.569 158.26 501.57 157.671C501.577 156.341 502.2 155.059 503.321 154.071C504.441 153.084 505.98 152.46 507.643 152.32C509.306 152.179 510.975 152.532 512.331 153.311C513.687 154.089 514.634 155.239 514.991 156.538C515.348 157.838 515.09 159.198 514.265 160.355C513.441 161.513 512.109 162.388 510.525 162.813C508.94 163.237 507.215 163.181 505.678 162.656C504.142 162.131 502.904 161.172 502.201 159.965L495.9 162.272C500.458 170.222 503.001 178.81 503.382 187.543L511.493 187.33C511.592 185.932 512.371 184.62 513.667 183.672C514.962 182.725 516.67 182.216 518.429 182.255C520.187 182.295 521.858 182.878 523.084 183.882C524.311 184.886 524.997 186.231 524.997 187.631C524.997 189.031 524.311 190.376 523.084 191.38C521.858 192.384 520.187 192.968 518.429 193.007C516.67 193.046 514.962 192.538 513.667 191.59C512.371 190.642 511.592 189.33 511.493 187.932L503.382 188.145C503.382 188.759 503.382 189.399 503.382 190.013C503.393 197.787 501.704 205.503 498.389 212.815L505.051 214.77C505.724 213.545 506.943 212.562 508.473 212.01C510.004 211.459 511.737 211.379 513.337 211.785C514.938 212.192 516.292 213.056 517.138 214.211C517.984 215.366 518.262 216.73 517.917 218.039C517.573 219.348 516.632 220.508 515.274 221.296C513.917 222.085 512.241 222.444 510.57 222.306C508.899 222.167 507.352 221.541 506.228 220.547C505.104 219.554 504.483 218.264 504.484 216.927C504.486 216.387 504.587 215.851 504.784 215.334L498.121 213.379C494.28 221.569 488.446 229.075 480.953 235.467L486.166 239.352C487.469 238.333 489.22 237.759 491.046 237.752C492.873 237.745 494.631 238.306 495.946 239.315C497.26 240.325 498.028 241.702 498.085 243.155C498.143 244.608 497.485 246.022 496.253 247.095C495.02 248.167 493.31 248.815 491.487 248.899C489.663 248.984 487.87 248.498 486.49 247.546C485.11 246.594 484.251 245.251 484.096 243.803C483.941 242.354 484.503 240.915 485.662 239.791L480.496 235.918L478.921 237.259C473.676 241.432 467.767 245.039 461.343 247.989L502.39 308.273H509.761V309.99H513.383V313.412H325.731V309.99H329.29V308.273H336.662L377.723 248.027C372.203 245.489 367.062 242.461 362.398 239.001L355.736 244.655C356.943 245.489 357.743 246.634 357.998 247.89C358.253 249.145 357.945 250.433 357.129 251.526C356.312 252.62 355.039 253.451 353.532 253.873C352.024 254.296 350.378 254.284 348.88 253.839C347.383 253.394 346.129 252.545 345.338 251.44C344.547 250.334 344.27 249.043 344.553 247.791C344.837 246.539 345.664 245.406 346.89 244.59C348.117 243.774 349.664 243.327 351.262 243.326C352.648 243.323 354.001 243.66 355.137 244.291L361.847 238.588C361.28 238.162 360.713 237.735 360.161 237.334C353.254 231.832 347.604 225.414 343.466 218.368L336.063 221.088C336.195 221.524 336.264 221.969 336.268 222.417C336.272 223.772 335.64 225.08 334.494 226.083C333.349 227.086 331.773 227.711 330.077 227.837C328.382 227.962 326.689 227.577 325.331 226.759C323.973 225.941 323.049 224.748 322.741 223.415C322.432 222.082 322.761 220.706 323.664 219.556C324.566 218.407 325.976 217.567 327.616 217.203C329.257 216.839 331.009 216.977 332.528 217.589C334.048 218.201 335.224 219.244 335.827 220.512L343.151 217.817C338.6 209.869 336.063 201.286 335.685 192.558L327.699 192.758C327.662 193.822 327.232 194.854 326.462 195.725C325.692 196.595 324.617 197.266 323.371 197.653C322.125 198.04 320.763 198.126 319.456 197.9C318.148 197.674 316.954 197.147 316.021 196.384C315.088 195.621 314.459 194.656 314.211 193.61C313.964 192.564 314.109 191.483 314.629 190.502C315.149 189.521 316.021 188.684 317.135 188.096C318.25 187.507 319.558 187.193 320.895 187.192V187.167ZM337.89 190.063C337.89 190.665 337.89 191.317 337.89 191.868L361.39 191.266C361.39 190.865 361.39 190.464 361.39 190.013C361.38 184.657 362.547 179.341 364.839 174.306L342.789 167.825C339.539 174.954 337.881 182.48 337.89 190.063ZM362.556 191.229L414.974 189.875C414.99 189.607 415.049 189.342 415.147 189.085L365.926 174.669C363.681 179.605 362.535 184.814 362.54 190.063C362.54 190.452 362.54 190.79 362.556 191.229ZM476.543 188.885L424.125 190.238C424.106 190.505 424.053 190.77 423.967 191.028L473.188 205.457C475.42 200.519 476.561 195.311 476.559 190.063C476.559 189.662 476.558 189.273 476.543 188.885ZM415.966 187.794L377.708 159.276C372.698 163.581 368.783 168.616 366.178 174.105L415.399 188.521C415.539 188.265 415.713 188.021 415.919 187.794H415.966ZM416.486 187.355C416.78 187.142 417.108 186.961 417.462 186.816L397.553 148.169C390.255 150.602 383.673 154.218 378.227 158.787L416.486 187.355ZM418.171 186.578C418.449 186.513 418.734 186.467 419.021 186.44L417.32 144.722C410.775 144.923 404.322 146.021 398.247 147.969L418.171 186.578ZM419.746 186.415C420.06 186.426 420.372 186.464 420.675 186.528L438.111 147.167C432.135 145.511 425.853 144.664 419.526 144.659H418.045L419.746 186.415ZM421.321 186.729C421.664 186.856 421.987 187.016 422.282 187.205L458.13 156.756C452.525 152.628 445.938 149.436 438.757 147.367L421.321 186.729ZM422.896 187.619C423.127 187.812 423.327 188.027 423.495 188.258L471.109 170.708C468.078 165.606 463.885 160.995 458.745 157.107L422.896 187.619ZM423.81 188.809C423.936 189.075 424.016 189.354 424.046 189.637L476.511 188.283C476.239 182.422 474.527 176.66 471.471 171.322L423.81 188.809ZM423.652 191.592C423.536 191.806 423.388 192.008 423.211 192.194L423.526 192.645L461.328 220.85C466.334 216.543 470.249 211.508 472.857 206.021L423.652 191.592ZM424.676 194.325L448.459 229.149C453.036 227.001 457.213 224.356 460.871 221.289L424.676 194.325ZM422.093 193.072C421.93 193.158 421.762 193.238 421.589 193.31L441.513 231.919C443.427 231.28 445.293 230.556 447.105 229.75L422.093 193.072ZM420.896 193.535C420.612 193.6 420.323 193.647 420.03 193.673L421.731 235.391C428.292 235.206 434.763 234.112 440.852 232.157L420.896 193.535ZM419.51 235.429H420.975L419.274 193.711C418.96 193.699 418.648 193.661 418.344 193.598L400.908 232.959C406.905 234.612 413.21 235.447 419.557 235.429H419.51ZM417.636 193.385C417.386 193.293 417.144 193.188 416.911 193.072L391.915 229.75C394.567 230.93 397.338 231.933 400.2 232.746L417.636 193.385ZM413.43 195.666L380.874 223.382C383.862 225.583 387.135 227.524 390.639 229.174L413.43 195.666ZM414.848 193.573L415.793 192.194C415.698 192.081 415.604 191.968 415.525 191.856L367.911 209.343C370.932 214.446 375.12 219.058 380.259 222.944L414.848 193.573ZM415.21 191.304C415.085 191.037 415.001 190.759 414.958 190.477L362.54 191.83C362.819 197.696 364.536 203.462 367.596 208.804L415.21 191.304ZM441.986 232.746L450.932 250.095C453.665 249.194 456.332 248.168 458.918 247.024L447.688 230.54C445.839 231.358 443.936 232.095 441.986 232.746ZM441.293 232.984C435.093 234.976 428.506 236.096 421.825 236.294L422.581 255.009C432.073 254.738 441.432 253.151 450.239 250.321L441.293 232.984ZM421.069 236.319H419.494C413.062 236.326 406.675 235.478 400.593 233.812L392.718 251.499C401.332 253.865 410.382 255.069 419.494 255.059H421.762L421.069 236.319ZM399.869 233.599C396.951 232.762 394.122 231.739 391.411 230.54L380.181 247.024C383.982 248.698 387.949 250.124 392.041 251.286L399.869 233.599ZM343.009 167.311L365.06 173.792C367.716 168.187 371.712 163.045 376.826 158.649L359.642 145.838C352.385 152.06 346.734 159.356 343.009 167.311ZM361.815 144.108C361.28 144.534 360.744 144.96 360.24 145.361L377.408 158.198C382.962 153.536 389.672 149.844 397.112 147.355L388.166 130.018C378.304 133.29 369.35 138.078 361.815 144.108ZM388.859 129.792L397.821 147.141C404.019 145.143 410.607 144.019 417.289 143.82L416.517 125.117C407.025 125.378 397.665 126.96 388.859 129.792ZM419.557 125.067H417.273L418.045 143.769H419.62C426.052 143.761 432.44 144.609 438.521 146.277L446.396 128.602C437.761 126.238 428.689 125.044 419.557 125.067ZM447.073 128.827L439.198 146.502C446.524 148.618 453.245 151.879 458.965 156.092L475.062 142.416C466.992 136.42 457.468 131.8 447.073 128.84V128.827ZM477.346 144.108L475.771 142.854L459.674 156.531C464.92 160.494 469.193 165.2 472.274 170.407L493.664 162.548C489.62 155.69 484.097 149.449 477.346 144.108ZM493.884 163.074L472.495 170.934C475.615 176.395 477.365 182.288 477.645 188.283L501.161 187.669C500.792 179.169 498.319 170.812 493.884 163.074ZM501.208 190.063C501.208 189.449 501.208 188.809 501.208 188.245L477.708 188.86C477.708 189.261 477.708 189.662 477.708 190.113C477.697 195.476 476.508 200.796 474.196 205.833L496.247 212.301C499.514 205.175 501.193 197.649 501.208 190.063ZM496.089 212.802L474.038 206.334C471.38 211.937 467.378 217.076 462.257 221.464L479.394 234.276C486.681 228.063 492.355 220.765 496.089 212.802ZM477.346 236.018L478.921 234.764L461.753 221.953C458.012 225.093 453.739 227.802 449.058 230.001L460.288 246.485C466.525 243.605 472.26 240.086 477.346 236.018ZM338.473 308.273H500.704L460.02 248.616C457.359 249.783 454.619 250.833 451.814 251.763L454.681 257.328C455.348 257.159 456.044 257.07 456.744 257.065C458.43 257.061 460.057 257.553 461.313 258.448C462.569 259.342 463.365 260.575 463.546 261.908C463.728 263.242 463.283 264.582 462.296 265.669C461.31 266.757 459.853 267.515 458.205 267.799C456.558 268.082 454.837 267.869 453.375 267.202C451.913 266.535 450.813 265.461 450.287 264.187C449.761 262.912 449.846 261.528 450.527 260.301C451.207 259.074 452.435 258.091 453.972 257.541L451.121 251.988C442.066 254.907 432.439 256.541 422.676 256.814L422.912 262.493C424.702 262.571 426.383 263.202 427.597 264.252C428.812 265.302 429.464 266.687 429.414 268.113C429.365 269.539 428.619 270.894 427.334 271.889C426.049 272.884 424.327 273.441 422.534 273.441C420.741 273.441 419.019 272.884 417.734 271.889C416.449 270.894 415.703 269.539 415.654 268.113C415.604 266.687 416.256 265.302 417.47 264.252C418.685 263.202 420.366 262.571 422.156 262.493L421.92 256.802H419.573C410.193 256.812 400.877 255.575 392.009 253.141L389.568 258.67C391.084 259.237 392.284 260.229 392.939 261.456C393.593 262.684 393.655 264.06 393.113 265.322C392.572 266.584 391.464 267.642 390.003 268.294C388.542 268.946 386.83 269.147 385.195 268.857C383.56 268.567 382.116 267.807 381.141 266.723C380.166 265.638 379.728 264.306 379.911 262.98C380.094 261.655 380.884 260.43 382.131 259.54C383.378 258.649 384.994 258.157 386.67 258.156C387.415 258.153 388.155 258.251 388.859 258.444L391.3 252.941C387.095 251.746 383.019 250.283 379.109 248.566L338.473 308.273ZM378.905 246.435L390.151 229.951C386.553 228.262 383.194 226.27 380.133 224.009L363.942 237.685C368.482 241.042 373.486 243.977 378.857 246.435H378.905ZM361.863 236.018L363.438 237.272L379.535 223.608C374.297 219.639 370.025 214.935 366.934 209.731L345.545 217.578C349.581 224.431 355.087 230.671 361.815 236.018H361.863ZM345.261 217.039L366.651 209.18C363.536 203.731 361.786 197.85 361.5 191.868L338 192.47C338.359 200.957 340.81 209.305 345.214 217.039H345.261Z" fill="#CFDBF3"/>
<path d="M216.926 232.759H304.452V334.823H216.926V232.759Z" fill="#CFDBF3"/>
<path d="M142.22 272.434H229.747V334.233H142.22V272.434Z" fill="#CFDBF3"/>
<path d="M520.062 263.358H569.156V315.23H520.062V263.358Z" fill="#CFDBF3"/>
<path d="M198.797 135.697H260.696V334.823H198.797V135.697Z" fill="#CFDBF3"/>
<path d="M96.8585 334.823H178.51V218.543H116.594L96.8585 334.823Z" fill="#CFDBF3"/>
<path d="M61.1045 308.272H132.612V334.81H61.1045V308.272Z" fill="#CFDBF3"/>
<path d="M212.657 94.0913H214.799V148.207H212.657V94.0913Z" fill="#CFDBF3"/>
<path d="M205.459 105.712H207.601V159.827H205.459V105.712Z" fill="#CFDBF3"/>
<path d="M219.193 113.183H221.335V167.299H219.193V113.183Z" fill="#CFDBF3"/>
<path d="M146.095 209.155H175.312V227.469H146.095V209.155Z" fill="#CFDBF3"/>
<path d="M149.276 202.624H172.099V212.915H149.276V202.624Z" fill="#CFDBF3"/>
<path d="M128.88 214.52H134.487V221.915H128.88V214.52Z" fill="#CFDBF3"/>
<path d="M118.894 207.763H126.895V221.903H118.894V207.763Z" fill="#CFDBF3"/>
<path d="M495.192 180.611H569.408V371H495.192V180.611Z" fill="#CFDBF3"/>
<path d="M489.647 181.739H574.953V183.67H489.647V181.739Z" fill="#CFDBF3"/>
<path d="M491.963 208.49H572.653V210.408H491.963V208.49Z" fill="#CFDBF3"/>
<path d="M491.963 234.388H572.653V236.306H491.963V234.388Z" fill="#CFDBF3"/>
<path d="M491.963 260.287H572.653V262.205H491.963V260.287Z" fill="#CFDBF3"/>
<path d="M491.963 286.185H572.653V288.103H491.963V286.185Z" fill="#CFDBF3"/>
<path d="M491.963 312.083H572.653V314.001H491.963V312.083Z" fill="#CFDBF3"/>
<path d="M491.963 337.982H572.653V339.899H491.963V337.982Z" fill="#CFDBF3"/>
<path d="M486.828 176.487H577.772V181.752H486.828V176.487Z" fill="#CFDBF3"/>
<path opacity="0.29" d="M555.012 189.925H562.73V205.131H555.012V189.925Z" fill="#CFDBF3"/>
<path d="M537.766 189.925H545.483V205.131H537.766V189.925Z" fill="#CFDBF3"/>
<path d="M520.519 189.925H528.236V205.131H520.519V189.925Z" fill="#CFDBF3"/>
<path d="M503.272 189.925H510.989V205.131H503.272V189.925Z" fill="#CFDBF3"/>
<path d="M555.012 214.795H562.73V230.001H555.012V214.795Z" fill="#CFDBF3"/>
<path opacity="0.29" d="M537.766 214.795H545.483V230.001H537.766V214.795Z" fill="#CFDBF3"/>
<path d="M520.519 214.795H528.236V230.001H520.519V214.795Z" fill="#CFDBF3"/>
<path d="M503.272 214.795H510.989V230.001H503.272V214.795Z" fill="#CFDBF3"/>
<path d="M555.012 240.694H562.73V255.899H555.012V240.694Z" fill="#CFDBF3"/>
<path d="M537.766 240.694H545.483V255.899H537.766V240.694Z" fill="#CFDBF3"/>
<path d="M520.519 240.694H528.236V255.899H520.519V240.694Z" fill="#CFDBF3"/>
<path opacity="0.29" d="M503.272 240.694H510.989V255.899H503.272V240.694Z" fill="#CFDBF3"/>
<path d="M555.012 266.592H562.73V281.798H555.012V266.592Z" fill="#CFDBF3"/>
<path opacity="0.29" d="M537.766 266.592H545.483V281.798H537.766V266.592Z" fill="#CFDBF3"/>
<path opacity="0.29" d="M520.519 266.592H528.236V281.798H520.519V266.592Z" fill="#CFDBF3"/>
<path d="M503.272 266.592H510.989V281.798H503.272V266.592Z" fill="#CFDBF3"/>
<path opacity="0.29" d="M555.012 292.49H562.73V307.696H555.012V292.49Z" fill="#CFDBF3"/>
<path d="M537.766 292.49H545.483V307.696H537.766V292.49Z" fill="#CFDBF3"/>
<path d="M520.519 292.49H528.236V307.696H520.519V292.49Z" fill="#CFDBF3"/>
<path d="M503.272 292.49H510.989V307.696H503.272V292.49Z" fill="#CFDBF3"/>
<path d="M555.012 318.389H562.73V333.594H555.012V318.389Z" fill="#CFDBF3"/>
<path d="M537.766 318.389H545.483V333.594H537.766V318.389Z" fill="#CFDBF3"/>
<path opacity="0.29" d="M520.519 318.389H528.236V333.594H520.519V318.389Z" fill="#CFDBF3"/>
<path d="M503.272 318.389H510.989V333.594H503.272V318.389Z" fill="#CFDBF3"/>
<path d="M555.012 344.287H562.73V359.492H555.012V344.287Z" fill="#CFDBF3"/>
<path opacity="0.29" d="M537.766 344.287H545.483V359.492H537.766V344.287Z" fill="#CFDBF3"/>
<path d="M520.519 344.287H528.236V359.492H520.519V344.287Z" fill="#CFDBF3"/>
<path opacity="0.29" d="M503.272 344.287H510.989V359.492H503.272V344.287Z" fill="#CFDBF3"/>
<path d="M539.482 169.229H564.73V179.119H539.482V169.229Z" fill="#CFDBF3"/>
<path d="M537.766 168.941H566.432V170.633H537.766V168.941Z" fill="#CFDBF3"/>
<path d="M675.788 371H774.639V190.113L675.788 170.859V371Z" fill="#CFDBF3"/>
<path d="M770.307 186.929H778.986V371.013H770.307V186.929Z" fill="#CFDBF3"/>
<path d="M745.579 181.739H754.273V371H745.579V181.739Z" fill="#CFDBF3"/>
<path d="M720.882 176.349H729.561V371H720.882V176.349Z" fill="#CFDBF3"/>
<path d="M696.153 171.962H704.832V371H696.153V171.962Z" fill="#CFDBF3"/>
<path d="M671.441 167.286H680.12V371H671.441V167.286Z" fill="#CFDBF3"/>
<path opacity="0.29" d="M756.526 202.373H768.055V216.35H756.526V202.373Z" fill="#CFDBF3"/>
<path opacity="0.29" d="M731.797 202.373H743.327V216.35H731.797V202.373Z" fill="#CFDBF3"/>
<path d="M707.085 202.373H718.614V216.35H707.085V202.373Z" fill="#CFDBF3"/>
<path opacity="0.29" d="M682.372 202.373H693.901V216.35H682.372V202.373Z" fill="#CFDBF3"/>
<path d="M756.526 226.717H768.055V240.694H756.526V226.717Z" fill="#CFDBF3"/>
<path d="M731.797 226.717H743.327V240.694H731.797V226.717Z" fill="#CFDBF3"/>
<path opacity="0.29" d="M707.085 226.717H718.614V240.694H707.085V226.717Z" fill="#CFDBF3"/>
<path opacity="0.29" d="M682.372 226.717H693.901V240.694H682.372V226.717Z" fill="#CFDBF3"/>
<path opacity="0.29" d="M756.526 251.061H768.055V265.038H756.526V251.061Z" fill="#CFDBF3"/>
<path opacity="0.29" d="M731.797 251.061H743.327V265.038H731.797V251.061Z" fill="#CFDBF3"/>
<path opacity="0.29" d="M707.085 251.061H718.614V265.038H707.085V251.061Z" fill="#CFDBF3"/>
<path d="M682.372 251.061H693.901V265.038H682.372V251.061Z" fill="#CFDBF3"/>
<path opacity="0.29" d="M756.526 275.392H768.055V289.369H756.526V275.392Z" fill="#CFDBF3"/>
<path d="M731.797 275.392H743.327V289.369H731.797V275.392Z" fill="#CFDBF3"/>
<path opacity="0.29" d="M707.085 275.392H718.614V289.369H707.085V275.392Z" fill="#CFDBF3"/>
<path opacity="0.29" d="M682.372 275.392H693.901V289.369H682.372V275.392Z" fill="#CFDBF3"/>
<path opacity="0.29" d="M756.526 299.736H768.055V313.713H756.526V299.736Z" fill="#CFDBF3"/>
<path opacity="0.29" d="M731.797 299.736H743.327V313.713H731.797V299.736Z" fill="#CFDBF3"/>
<path d="M707.085 299.736H718.614V313.713H707.085V299.736Z" fill="#CFDBF3"/>
<path opacity="0.29" d="M682.372 299.736H693.901V313.713H682.372V299.736Z" fill="#CFDBF3"/>
<path d="M756.526 324.08H768.055V338.057H756.526V324.08Z" fill="#CFDBF3"/>
<path d="M731.797 324.08H743.327V338.057H731.797V324.08Z" fill="#CFDBF3"/>
<path opacity="0.29" d="M707.085 324.08H718.614V338.057H707.085V324.08Z" fill="#CFDBF3"/>
<path opacity="0.29" d="M682.372 324.08H693.901V338.057H682.372V324.08Z" fill="#CFDBF3"/>
<path opacity="0.29" d="M756.526 348.424H768.055V362.401H756.526V348.424Z" fill="#CFDBF3"/>
<path d="M731.797 348.424H743.327V362.401H731.797V348.424Z" fill="#CFDBF3"/>
<path opacity="0.29" d="M707.085 348.424H718.614V362.401H707.085V348.424Z" fill="#CFDBF3"/>
<path d="M682.372 348.424H693.901V362.401H682.372V348.424Z" fill="#CFDBF3"/>
<path d="M1056.65 198.775V200.655H1059.02V206.008H1017.64V371H1085.52V214.607V206.008V200.655H1087.98V198.775H1056.65Z" fill="#CFDBF3"/>
<path d="M882.861 273.725H941.013V371.013H882.861V273.725Z" fill="#CFDBF3"/>
<path d="M1147.17 251.424H1194.44V371.013H1147.17V251.424Z" fill="#CFDBF3"/>
<path d="M1105.04 276.332H1156.54V371H1105.04V276.332Z" fill="#CFDBF3"/>
<path d="M1156.53 246.623H1177.43V260.939H1156.53V246.623Z" fill="#CFDBF3"/>
<path d="M1098.09 274.778H1153V278.275H1098.09V274.778Z" fill="#CFDBF3"/>
<path d="M1052.83 316.934H1110.57V371H1052.83V316.934Z" fill="#CFDBF3"/>
<path d="M1250.23 272.96H1297.2V371H1250.23V272.96Z" fill="#CFDBF3"/>
<path d="M1276.17 321.823H1337.96V371H1276.17V321.823Z" fill="#CFDBF3"/>
<path d="M1367.35 313.776H1406V371H1367.35V313.776Z" fill="#CFDBF3"/>
<path d="M1283.51 353.074H1374.86V371H1283.51V353.074Z" fill="#CFDBF3"/>
<path d="M1394.17 347.283H1441V371H1394.17V347.283Z" fill="#CFDBF3"/>
<path d="M1177.44 334.823H1250.23V371H1177.44V334.823Z" fill="#CFDBF3"/>
<path d="M923.309 355.418H1036.7V371H923.309V355.418Z" fill="#CFDBF3"/>
<path d="M722.284 355.418H835.672V371H722.284V355.418Z" fill="#CFDBF3"/>
<path d="M927.735 309.651H970.829L989.052 363.203H927.735V309.651Z" fill="#CFDBF3"/>
<path d="M906.613 231.731H907.81V291.136H906.613V231.731Z" fill="#CFDBF3"/>
<path d="M900.203 251.838H901.809V286.899H900.203V251.838Z" fill="#CFDBF3"/>
<path d="M888.594 258.043H910.393V275.392H888.594V258.043Z" fill="#CFDBF3"/>
<path d="M885.208 256.702H914.079V258.256H885.208V256.702Z" fill="#CFDBF3"/>
<path d="M822.993 320.82H893.446V371H822.993V320.82Z" fill="#CFDBF3"/>
<path d="M791.208 265.589H836.476V362.401H791.208V265.589Z" fill="#CFDBF3"/>
<path d="M587.38 283.791H659.691V371H587.38V283.791Z" fill="#CFDBF3"/>
<path d="M599.917 338.872H682.372V371.013H599.917V338.872Z" fill="#CFDBF3"/>
<path d="M537.766 359.505H591.381V371.013H537.766V359.505Z" fill="#CFDBF3"/>
<path d="M421.636 338.872H508.8V371.013H421.636V338.872Z" fill="#CFDBF3"/>
<path d="M474.086 371H365.611V254.733H474.086V371Z" fill="#CFDBF3"/>
<path d="M476.873 254.733H359.279V250.271H476.873V254.733Z" fill="#CFDBF3"/>
<path d="M418.076 261.728H370.415V238.149H418.076V261.728Z" fill="#CFDBF3"/>
<path d="M441.655 252.502H433.654V238.162H441.655V252.502Z" fill="#CFDBF3"/>
<path d="M458.477 252.502H449.672V238.162H458.477V252.502Z" fill="#CFDBF3"/>
<path d="M291.032 371H205.176L205.176 201.194H291.032V371Z" fill="#CFDBF3"/>
<path d="M293.489 203.075H202.75V198.274H293.489V203.075Z" fill="#CFDBF3"/>
<path d="M288.166 214.946H208.074V192.131H288.166V214.946Z" fill="#CFDBF3"/>
<path d="M245.922 207.713H214.201V182.792H245.922V207.713Z" fill="#CFDBF3"/>
<path d="M232.55 189.825H214.201V176.7H227.368L232.55 189.825Z" fill="#CFDBF3"/>
<path d="M223.383 195.027H221.604V165.807H223.383V195.027Z" fill="#CFDBF3"/>
<path d="M224.076 164.29C224.014 164.52 223.872 164.732 223.665 164.901C223.459 165.069 223.197 165.188 222.91 165.244C222.623 165.3 222.321 165.29 222.04 165.216C221.76 165.142 221.511 165.007 221.322 164.825C221.134 164.644 221.014 164.423 220.975 164.19C220.936 163.957 220.981 163.719 221.104 163.505C221.227 163.291 221.423 163.109 221.67 162.979C221.918 162.85 222.206 162.778 222.501 162.773C222.96 162.814 223.38 162.995 223.674 163.278C223.967 163.561 224.112 163.924 224.076 164.29Z" fill="#CFDBF3"/>
<path d="M178.51 300.902H216.941V371H178.51V300.902Z" fill="#CFDBF3"/>
<path d="M282.574 266.717H326.392V371H282.574V266.717Z" fill="#CFDBF3"/>
<path d="M304.452 371H366.194V315.23L314.091 333.594L304.452 371Z" fill="#CFDBF3"/>
<path d="M96.8584 340.714H191.126V371H96.8584V340.714Z" fill="#CFDBF3"/>
<path d="M76.9181 250.083H131.683V371H76.9181V250.083Z" fill="#CFDBF3"/>
<path d="M-1 348.424H89.7236V371H-1V348.424Z" fill="#CFDBF3"/>
<path d="M74.4138 247.864H134.487V251.825H74.4138V247.864Z" fill="#CFDBF3"/>
<path d="M84.2581 230.803H85.4551V255.172H84.2581V230.803Z" fill="#CFDBF3"/>
<path d="M92.2594 233.887H93.4565V253.43H92.2594V233.887Z" fill="#CFDBF3"/>
<path d="M56.6472 295.637H81.0605V351.031H46.236L56.6472 295.637Z" fill="#CFDBF3"/>
<g opacity="0.52">
<path opacity="0.52" d="M1185.98 257.479H1189.56V260.324H1185.98V257.479Z" fill="white"/>
<path opacity="0.52" d="M1178.8 257.479H1182.38V260.324H1178.8V257.479Z" fill="white"/>
<path opacity="0.52" d="M1185.98 264.16H1189.56V267.006H1185.98V264.16Z" fill="white"/>
<path opacity="0.52" d="M1178.8 264.16H1182.38V267.006H1178.8V264.16Z" fill="white"/>
<path opacity="0.52" d="M1185.98 270.628H1189.56V273.474H1185.98V270.628Z" fill="white"/>
<path opacity="0.52" d="M1170.81 257.479H1174.39V260.324H1170.81V257.479Z" fill="white"/>
</g>
<path opacity="0.5" d="M925.293 171.962H927.735V182.705H925.293V171.962Z" fill="white"/>
<path opacity="0.5" d="M916.883 171.962H919.324V182.705H916.883V171.962Z" fill="white"/>
<path opacity="0.5" d="M908.472 171.962H910.913V182.705H908.472V171.962Z" fill="white"/>
<path opacity="0.5" d="M900.061 171.962H902.502V182.705H900.061V171.962Z" fill="white"/>
<path opacity="0.5" d="M891.65 171.962H894.092V182.705H891.65V171.962Z" fill="white"/>
<path opacity="0.5" d="M883.239 171.962H885.681V182.705H883.239V171.962Z" fill="white"/>
<path opacity="0.5" d="M874.844 171.962H877.286V182.705H874.844V171.962Z" fill="white"/>
<path opacity="0.5" d="M866.434 171.962H868.875V182.705H866.434V171.962Z" fill="white"/>
<path opacity="0.5" d="M858.022 171.962H860.464V182.705H858.022V171.962Z" fill="white"/>
<path opacity="0.5" d="M849.612 171.962H852.053V182.705H849.612V171.962Z" fill="white"/>
<path opacity="0.5" d="M841.201 171.962H843.642V182.705H841.201V171.962Z" fill="white"/>
<path opacity="0.5" d="M925.293 186.929H927.735V197.672H925.293V186.929Z" fill="white"/>
<path opacity="0.5" d="M916.883 186.929H919.324V197.672H916.883V186.929Z" fill="white"/>
<path opacity="0.5" d="M908.472 186.929H910.913V197.672H908.472V186.929Z" fill="white"/>
<path opacity="0.5" d="M900.061 186.929H902.502V197.672H900.061V186.929Z" fill="white"/>
<path opacity="0.5" d="M891.65 186.929H894.092V197.672H891.65V186.929Z" fill="white"/>
<path opacity="0.5" d="M883.239 186.929H885.681V197.672H883.239V186.929Z" fill="white"/>
<path opacity="0.5" d="M874.844 186.929H877.286V197.672H874.844V186.929Z" fill="white"/>
<path opacity="0.5" d="M866.434 186.929H868.875V197.672H866.434V186.929Z" fill="white"/>
<path opacity="0.5" d="M858.022 186.929H860.464V197.672H858.022V186.929Z" fill="white"/>
<path opacity="0.5" d="M849.612 186.929H852.053V197.672H849.612V186.929Z" fill="white"/>
<path opacity="0.5" d="M841.201 186.929H843.642V197.672H841.201V186.929Z" fill="white"/>
<path opacity="0.5" d="M925.293 201.884H927.735V212.627H925.293V201.884Z" fill="white"/>
<path opacity="0.5" d="M916.883 201.884H919.324V212.627H916.883V201.884Z" fill="white"/>
<path opacity="0.5" d="M908.472 201.884H910.913V212.627H908.472V201.884Z" fill="white"/>
<path opacity="0.5" d="M900.061 201.884H902.502V212.627H900.061V201.884Z" fill="white"/>
<path opacity="0.5" d="M891.65 201.884H894.092V212.627H891.65V201.884Z" fill="white"/>
<path opacity="0.5" d="M883.239 201.884H885.681V212.627H883.239V201.884Z" fill="white"/>
<path opacity="0.5" d="M874.844 201.884H877.286V212.627H874.844V201.884Z" fill="white"/>
<path opacity="0.5" d="M866.434 201.884H868.875V212.627H866.434V201.884Z" fill="white"/>
<path opacity="0.5" d="M858.022 201.884H860.464V212.627H858.022V201.884Z" fill="white"/>
<path opacity="0.5" d="M849.612 201.884H852.053V212.627H849.612V201.884Z" fill="white"/>
<path opacity="0.5" d="M841.201 201.884H843.642V212.627H841.201V201.884Z" fill="white"/>
<path opacity="0.5" d="M900.061 216.851H902.502V227.594H900.061V216.851Z" fill="white"/>
<path opacity="0.5" d="M891.65 216.851H894.092V227.594H891.65V216.851Z" fill="white"/>
<path opacity="0.5" d="M883.239 216.851H885.681V227.594H883.239V216.851Z" fill="white"/>
<path opacity="0.5" d="M874.844 216.851H877.286V227.594H874.844V216.851Z" fill="white"/>
<path opacity="0.5" d="M866.434 216.851H868.875V227.594H866.434V216.851Z" fill="white"/>
<path opacity="0.5" d="M858.022 216.851H860.464V227.594H858.022V216.851Z" fill="white"/>
<path opacity="0.5" d="M849.612 216.851H852.053V227.594H849.612V216.851Z" fill="white"/>
<path opacity="0.5" d="M841.201 216.851H843.642V227.594H841.201V216.851Z" fill="white"/>
<path opacity="0.5" d="M891.65 232.646H894.092V243.389H891.65V232.646Z" fill="white"/>
<path opacity="0.5" d="M883.239 232.646H885.681V243.389H883.239V232.646Z" fill="white"/>
<path opacity="0.5" d="M874.844 232.646H877.286V243.389H874.844V232.646Z" fill="white"/>
<path opacity="0.5" d="M866.434 232.646H868.875V243.389H866.434V232.646Z" fill="white"/>
<path opacity="0.5" d="M858.022 232.646H860.464V243.389H858.022V232.646Z" fill="white"/>
<path opacity="0.5" d="M849.612 232.646H852.053V243.389H849.612V232.646Z" fill="white"/>
<path opacity="0.5" d="M841.201 232.646H843.642V243.389H841.201V232.646Z" fill="white"/>
<path opacity="0.33" d="M759.408 198.637H765.173V210.27H759.408V198.637Z" fill="white"/>
<path opacity="0.33" d="M759.408 220.9H765.173V232.533H759.408V220.9Z" fill="white"/>
<path opacity="0.33" d="M759.408 243.151H765.173V254.784H759.408V243.151Z" fill="white"/>
<path opacity="0.33" d="M759.408 265.414H765.173V277.047H759.408V265.414Z" fill="white"/>
<path opacity="0.33" d="M759.408 286.398H765.173V298.031H759.408V286.398Z" fill="white"/>
<path opacity="0.33" d="M759.408 308.648H765.173V320.281H759.408V308.648Z" fill="white"/>
<path opacity="0.33" d="M734.68 198.637H740.444V210.27H734.68V198.637Z" fill="white"/>
<path opacity="0.33" d="M734.68 220.9H740.444V232.533H734.68V220.9Z" fill="white"/>
<path opacity="0.33" d="M734.68 243.151H740.444V254.784H734.68V243.151Z" fill="white"/>
<path opacity="0.33" d="M734.68 265.414H740.444V277.047H734.68V265.414Z" fill="white"/>
<path opacity="0.33" d="M734.68 286.398H740.444V298.031H734.68V286.398Z" fill="white"/>
<path opacity="0.33" d="M734.68 308.648H740.444V320.281H734.68V308.648Z" fill="white"/>
<path opacity="0.33" d="M709.967 198.637H715.731V210.27H709.967V198.637Z" fill="white"/>
<path opacity="0.33" d="M709.967 220.9H715.731V232.533H709.967V220.9Z" fill="white"/>
<path opacity="0.33" d="M709.967 243.151H715.731V254.784H709.967V243.151Z" fill="white"/>
<path opacity="0.33" d="M709.967 265.414H715.731V277.047H709.967V265.414Z" fill="white"/>
<path opacity="0.33" d="M709.967 286.398H715.731V298.031H709.967V286.398Z" fill="white"/>
<path opacity="0.33" d="M709.967 308.648H715.731V320.281H709.967V308.648Z" fill="white"/>
<path opacity="0.33" d="M685.254 198.637H691.019V210.27H685.254V198.637Z" fill="white"/>
<path opacity="0.33" d="M685.254 220.9H691.019V232.533H685.254V220.9Z" fill="white"/>
<path opacity="0.33" d="M685.254 243.151H691.019V254.784H685.254V243.151Z" fill="white"/>
<path opacity="0.33" d="M685.254 265.414H691.019V277.047H685.254V265.414Z" fill="white"/>
<path opacity="0.33" d="M685.254 286.398H691.019V298.031H685.254V286.398Z" fill="white"/>
<path opacity="0.33" d="M685.254 308.648H691.019V320.281H685.254V308.648Z" fill="white"/>
<path opacity="0.5" d="M853.219 36.3655H858.022V46.5443H853.219V36.3655Z" fill="white"/>
<path opacity="0.5" d="M841.374 36.3655H846.178V46.5443H841.374V36.3655Z" fill="white"/>
<path opacity="0.5" d="M829.546 36.3655H834.35V46.5443H829.546V36.3655Z" fill="white"/>
<path opacity="0.5" d="M817.717 36.3655H822.521V46.5443H817.717V36.3655Z" fill="white"/>
<path opacity="0.5" d="M853.219 53.3259H858.022V63.5047H853.219V53.3259Z" fill="white"/>
<path opacity="0.5" d="M841.374 53.3259H846.178V63.5047H841.374V53.3259Z" fill="white"/>
<path opacity="0.5" d="M829.546 53.3259H834.35V63.5047H829.546V53.3259Z" fill="white"/>
<path opacity="0.5" d="M817.717 53.3259H822.521V63.5047H817.717V53.3259Z" fill="white"/>
<path opacity="0.5" d="M853.219 70.2864H858.022V80.4652H853.219V70.2864Z" fill="white"/>
<path opacity="0.5" d="M841.374 70.2864H846.178V80.4652H841.374V70.2864Z" fill="white"/>
<path opacity="0.5" d="M804.281 36.3655H809.085V46.5443H804.281V36.3655Z" fill="white"/>
<path opacity="0.4" d="M1174.37 139.532H1177.43V148.871H1174.37V139.532Z" fill="white"/>
<path opacity="0.4" d="M1163.62 139.532H1166.67V148.871H1163.62V139.532Z" fill="white"/>
<path opacity="0.4" d="M1151.03 139.532H1154.09V148.871H1151.03V139.532Z" fill="white"/>
<path opacity="0.4" d="M1140.26 139.532H1143.31V148.871H1140.26V139.532Z" fill="white"/>
<path opacity="0.4" d="M1198.28 139.532H1201.34V148.871H1198.28V139.532Z" fill="white"/>
<path opacity="0.4" d="M1187.53 139.532H1190.58V148.871H1187.53V139.532Z" fill="white"/>
<path opacity="0.4" d="M1174.37 155.741H1177.43V165.08H1174.37V155.741Z" fill="white"/>
<path opacity="0.4" d="M1163.62 155.741H1166.67V165.08H1163.62V155.741Z" fill="white"/>
<path opacity="0.4" d="M1151.03 155.741H1154.09V165.08H1151.03V155.741Z" fill="white"/>
<path opacity="0.4" d="M1140.26 155.741H1143.31V165.08H1140.26V155.741Z" fill="white"/>
<path opacity="0.4" d="M1198.28 155.741H1201.34V165.08H1198.28V155.741Z" fill="white"/>
<path opacity="0.4" d="M1187.53 155.741H1190.58V165.08H1187.53V155.741Z" fill="white"/>
<path opacity="0.4" d="M1174.37 171.949H1177.43V181.288H1174.37V171.949Z" fill="white"/>
<path opacity="0.4" d="M1163.62 171.949H1166.67V181.288H1163.62V171.949Z" fill="white"/>
<path opacity="0.4" d="M1151.03 171.949H1154.09V181.288H1151.03V171.949Z" fill="white"/>
<path opacity="0.4" d="M1140.26 171.949H1143.31V181.288H1140.26V171.949Z" fill="white"/>
<path opacity="0.4" d="M1198.28 171.949H1201.34V181.288H1198.28V171.949Z" fill="white"/>
<path opacity="0.4" d="M1187.53 171.949H1190.58V181.288H1187.53V171.949Z" fill="white"/>
<path opacity="0.5" d="M603.477 211.072H608.202V225.551H603.477V211.072Z" fill="white"/>
<path opacity="0.5" d="M589.018 211.072H593.743V225.551H589.018V211.072Z" fill="white"/>
<path opacity="0.5" d="M575.409 211.072H580.135V225.551H575.409V211.072Z" fill="white"/>
<path opacity="0.33" d="M278.967 214.081H282.559V222.216H278.967V214.081Z" fill="white"/>
<path opacity="0.33" d="M267.721 214.081H271.312V222.216H267.721V214.081Z" fill="white"/>
<path opacity="0.33" d="M278.967 214.081H282.559V222.216H278.967V214.081Z" fill="white"/>
<path opacity="0.33" d="M267.721 214.081H271.312V222.216H267.721V214.081Z" fill="white"/>
<path opacity="0.33" d="M257.105 214.081H260.696V222.216H257.105V214.081Z" fill="white"/>
<path opacity="0.33" d="M245.859 214.081H249.451V222.216H245.859V214.081Z" fill="white"/>
<path opacity="0.33" d="M278.967 228.685H282.559V236.82H278.967V228.685Z" fill="white"/>
<path opacity="0.33" d="M267.721 228.685H271.312V236.82H267.721V228.685Z" fill="white"/>
<path opacity="0.33" d="M278.967 228.685H282.559V236.82H278.967V228.685Z" fill="white"/>
<path opacity="0.33" d="M267.721 228.685H271.312V236.82H267.721V228.685Z" fill="white"/>
<path opacity="0.33" d="M257.105 228.685H260.696V236.82H257.105V228.685Z" fill="white"/>
<path opacity="0.33" d="M245.859 228.685H249.451V236.82H245.859V228.685Z" fill="white"/>
<path opacity="0.33" d="M278.967 244.229H282.559V252.364H278.967V244.229Z" fill="white"/>
<path opacity="0.33" d="M267.721 244.229H271.312V252.364H267.721V244.229Z" fill="white"/>
<path opacity="0.33" d="M278.967 244.229H282.559V252.364H278.967V244.229Z" fill="white"/>
<path opacity="0.33" d="M267.721 244.229H271.312V252.364H267.721V244.229Z" fill="white"/>
<path opacity="0.33" d="M257.105 244.229H260.696V252.364H257.105V244.229Z" fill="white"/>
<path opacity="0.33" d="M245.859 244.229H249.451V252.364H245.859V244.229Z" fill="white"/>
<path opacity="0.33" d="M233.574 214.081H237.165V222.216H233.574V214.081Z" fill="white"/>
<path opacity="0.33" d="M233.574 228.685H237.165V236.82H233.574V228.685Z" fill="white"/>
<path opacity="0.33" d="M222.328 214.081H225.919V222.216H222.328V214.081Z" fill="white"/>
<path opacity="0.33" d="M558.871 189.925H562.73V202.623H558.871V189.925Z" fill="white"/>
<path opacity="0.33" d="M539.687 189.925H543.546V202.623H539.687V189.925Z" fill="white"/>
<path opacity="0.33" d="M520.519 189.925H524.377V202.623H520.519V189.925Z" fill="white"/>
<path opacity="0.33" d="M501.35 189.925H505.209V202.623H501.35V189.925Z" fill="white"/>
<path opacity="0.33" d="M558.871 216.049H562.73V228.747H558.871V216.049Z" fill="white"/>
<path opacity="0.33" d="M539.687 216.049H543.546V228.747H539.687V216.049Z" fill="white"/>
<path opacity="0.33" d="M520.519 216.049H524.377V228.747H520.519V216.049Z" fill="white"/>
<path opacity="0.33" d="M501.35 216.049H505.209V228.747H501.35V216.049Z" fill="white"/>
<path opacity="0.33" d="M558.871 242.825H562.73V255.523H558.871V242.825Z" fill="white"/>
<path opacity="0.33" d="M539.687 242.825H543.546V255.523H539.687V242.825Z" fill="white"/>
<path opacity="0.33" d="M520.519 242.825H524.377V255.523H520.519V242.825Z" fill="white"/>
<path opacity="0.33" d="M501.35 242.825H505.209V255.523H501.35V242.825Z" fill="white"/>
<path opacity="0.33" d="M558.871 269.601H562.73V282.299H558.871V269.601Z" fill="white"/>
<path opacity="0.33" d="M539.687 269.601H543.546V282.299H539.687V269.601Z" fill="white"/>
<path opacity="0.33" d="M520.519 269.601H524.377V282.299H520.519V269.601Z" fill="white"/>
<path opacity="0.33" d="M501.35 269.601H505.209V282.299H501.35V269.601Z" fill="white"/>
<path opacity="0.33" d="M558.871 293.919H562.73V306.618H558.871V293.919Z" fill="white"/>
<path opacity="0.33" d="M539.687 293.919H543.546V306.618H539.687V293.919Z" fill="white"/>
<path opacity="0.33" d="M520.519 293.919H524.377V306.618H520.519V293.919Z" fill="white"/>
<path opacity="0.33" d="M558.871 321.046H562.73V333.745H558.871V321.046Z" fill="white"/>
<path opacity="0.33" d="M539.687 321.046H543.546V333.745H539.687V321.046Z" fill="white"/>
<path opacity="0.33" d="M520.519 321.046H524.377V333.745H520.519V321.046Z" fill="white"/>
<path opacity="0.33" d="M501.35 293.919H505.209V306.618H501.35V293.919Z" fill="white"/>
<path opacity="0.33" d="M122.894 257.027H126.832V264.31H122.894V257.027Z" fill="white"/>
<path opacity="0.33" d="M122.894 268.798H126.832V276.081H122.894V268.798Z" fill="white"/>
<path opacity="0.33" d="M112.782 257.027H116.72V264.31H112.782V257.027Z" fill="white"/>
</g>
</svg>
