<svg width="14" height="12" viewBox="0 0 14 12" fill="none" xmlns="http://www.w3.org/2000/svg">
<path d="M5.86868 10.6712H2.80257V7.5895V7.56899L2.78758 7.55499L2.30725 7.10675L2.78758 6.65851L2.80257 6.64452V6.62401V3.55066H4.96507H5.86868H5.9601H6.00729V3.50346V1V0.952806H5.9601H4.96507H4.91788V1V2.46124H2.75538H2.49673H1.75868H1.71148V2.50843V6.52943H1H0.952806V6.57663V7.57166V7.61885H1H1.71148V11.7051V11.7523H1.75868H2.43169V11.7606H2.47889H5.86868H5.91587V11.7134V10.7184V10.6712H5.86868Z" fill="white" stroke="white" stroke-width="0.0943871"/>
<path d="M13.0472 6.57663V6.52943H13H12.2885V2.50843V2.46124H12.2413H11.5033H11.2446H9.08214V1V0.952806H9.03495H8.03992H7.99272V1V3.50346V3.55066H8.03992H8.13134H9.03495H11.1974V6.62401V6.64451L11.2124 6.6585L11.6923 7.10675L11.2124 7.55501L11.1974 7.569V7.5895V10.6712H8.13134H8.08414V10.7184V11.7134V11.7606H8.13134H11.5211H11.5683V11.7523H12.2413H12.2885V11.7051V7.61885H13H13.0472V7.57166V6.57663Z" fill="white" stroke="white" stroke-width="0.0943871"/>
</svg>
