<svg width="14" height="14" viewBox="0 0 16 14" fill="none" xmlns="http://www.w3.org/2000/svg">
<path d="M6.9362 11.8327H3.19196V8.3809V8.3566L3.1735 8.3408L2.5894 7.8402L3.1735 7.3396L3.19196 7.3238V7.2995V3.85709H5.83412H6.9362H7.0477H7.10056V3.80423V1.00013V0.947266H7.0477H5.83412H5.78126V1.00013V2.63685H3.1391H2.82363H1.92348H1.87062V2.68971V7.1936H0.998172H0.945312V7.2464V8.3609V8.4138H0.998172H1.87062V12.9907V13.0436H1.92348H2.74902V13.053H2.80188H6.9362H6.98906V13.0001V11.8856V11.8327H6.9362Z" fill="white" stroke="white" stroke-width="0.35"/>
<path d="M15.0536 7.2464V7.1936H15.0008H14.1283V2.68971V2.63685H14.0755H13.1753H12.8598H10.2177V1.00013V0.947266H10.1648H8.95124H8.89844V1.00013V3.80423V3.85709H8.95124H9.06274H10.1648H12.807V7.2995V7.3238L12.8254 7.3396L13.4089 7.8402L12.8254 8.3408L12.807 8.3566V8.3809V11.8327H9.06274H9.00994V11.8856V13.0001V13.053H9.06274H13.1971H13.2499V13.0436H14.0755H14.1283V12.9907V8.4138H15.0008H15.0536V8.3609V7.2464Z" fill="white" stroke="white" stroke-width="0.35"/>
</svg>
