<svg width="20" height="20" viewBox="0 0 20 20" fill="none" xmlns="http://www.w3.org/2000/svg">
<path fill-rule="evenodd" clip-rule="evenodd" d="M0 10C0 4.47715 4.47715 0 10 0C15.5228 0 20 4.47715 20 10C20 15.5228 15.5228 20 10 20C4.47715 20 0 15.5228 0 10ZM8.11704 6.07521H6.05341H5.81186H5.12259V10.2392H4.41406V11.2577H5.12259V15.4884H5.7952V15.497H8.96093V14.4785H6.05341V11.2759L5.5703 10.7818L6.05341 10.2877V7.09367H8.11704H8.96093H9.0463V4.53125H8.11704V6.07521ZM14.8776 10.2392H15.5861V11.2577H14.8776V15.4884H14.205V15.497H11.0392V14.4785H13.9467V11.2759L14.4293 10.7818L13.9467 10.2877V7.09367H11.8831H11.0392H10.9539V4.53125H11.8831V6.07521H13.9467H14.1883H14.8776V10.2392Z" fill="white"/>
</svg>