<svg width="4090" height="1037" viewBox="0 0 4090 1037" fill="none" xmlns="http://www.w3.org/2000/svg">
<mask id="mask0_718_16" style="mask-type:luminance" maskUnits="userSpaceOnUse" x="225" y="381" width="490" height="428">
<path d="M353.831 760.467L405.063 684.999V492.341H477.463V578.24L611.258 381.019L714.451 534.83L671.233 608.342L611.181 519.184L415.762 808.094H225.635L353.831 760.467Z" fill="white"/>
</mask>
<g mask="url(#mask0_718_16)">
<path d="M714.451 381.019H225.635V808.094H714.451V381.019Z" fill="#17375F"/>
</g>
<mask id="mask1_718_16" style="mask-type:luminance" maskUnits="userSpaceOnUse" x="423" y="531" width="245" height="278">
<path d="M611.147 582.192L457.987 808.097H423.551L611.262 531.229L667.403 614.864L651.412 642.091L611.147 582.192Z" fill="white"/>
</mask>
<g mask="url(#mask1_718_16)">
<path d="M667.403 531.229H423.551V808.059H667.403V531.229Z" fill="#17375F"/>
</g>
<mask id="mask2_718_16" style="mask-type:luminance" maskUnits="userSpaceOnUse" x="397" y="447" width="89" height="45">
<path d="M485.019 447.054H397.471V491.077H485.019V447.054Z" fill="white"/>
</mask>
<g mask="url(#mask2_718_16)">
<path d="M485.019 447.054H397.471V491.077H485.019V447.054Z" fill="#17375F"/>
</g>
<mask id="mask3_718_16" style="mask-type:luminance" maskUnits="userSpaceOnUse" x="1373" y="381" width="493" height="428">
<path d="M1737.49 760.467L1865.68 808.094H1675.56L1480.14 519.184L1416.44 613.749L1373.26 540.199L1480.06 381.019L1613.85 578.24V492.341H1686.25V684.999L1737.49 760.467Z" fill="white"/>
</mask>
<g mask="url(#mask3_718_16)">
<path d="M1865.64 381.019H1373.26V808.094H1865.64V381.019Z" fill="#17375F"/>
</g>
<mask id="mask4_718_16" style="mask-type:luminance" maskUnits="userSpaceOnUse" x="1420" y="531" width="248" height="278">
<path d="M1480.17 582.192L1436.27 647.536L1420.28 620.271L1480.06 531.229L1667.77 808.097H1633.33L1480.17 582.192Z" fill="white"/>
</mask>
<g mask="url(#mask4_718_16)">
<path d="M1667.77 531.229H1420.28V808.059H1667.77V531.229Z" fill="#17375F"/>
</g>
<mask id="mask5_718_16" style="mask-type:luminance" maskUnits="userSpaceOnUse" x="1606" y="447" width="88" height="45">
<path d="M1693.85 447.054H1606.3V491.077H1693.85V447.054Z" fill="white"/>
</mask>
<g mask="url(#mask5_718_16)">
<path d="M1693.85 447.054H1606.3V491.077H1693.85V447.054Z" fill="#17375F"/>
</g>
<mask id="mask6_718_16" style="mask-type:luminance" maskUnits="userSpaceOnUse" x="268" y="394" width="438" height="407">
<path d="M358.777 766.758L268.009 800.466H363.494H411.697L611.218 505.574L670.81 594.08L705.477 535.101L611.218 394.635L469.87 603.015V499.937H412.655V687.341L358.777 766.758Z" fill="white"/>
</mask>
<g mask="url(#mask6_718_16)">
<path d="M705.477 394.635H268.009V800.466H705.477V394.635Z" fill="#17375F"/>
</g>
<mask id="mask7_718_16" style="mask-type:luminance" maskUnits="userSpaceOnUse" x="437" y="544" width="222" height="257">
<path d="M437.928 800.465L611.221 544.841L658.426 615.132L650.949 627.825L611.182 568.578L453.958 800.465H437.928Z" fill="white"/>
</mask>
<g mask="url(#mask7_718_16)">
<path d="M658.426 544.841H437.928V800.465H658.426V544.841Z" fill="#17375F"/>
</g>
<mask id="mask8_718_16" style="mask-type:luminance" maskUnits="userSpaceOnUse" x="1382" y="394" width="442" height="407">
<path d="M1732.54 766.758L1823.3 800.466H1727.82H1679.62L1480.1 505.574L1416.86 599.487L1382.23 540.47L1480.1 394.635L1621.44 603.015V499.937H1678.66V687.341L1732.54 766.758Z" fill="white"/>
</mask>
<g mask="url(#mask8_718_16)">
<path d="M1823.3 394.635H1382.23V800.466H1823.3V394.635Z" fill="#17375F"/>
</g>
<mask id="mask9_718_16" style="mask-type:luminance" maskUnits="userSpaceOnUse" x="1429" y="544" width="225" height="257">
<path d="M1653.39 800.465L1480.1 544.841L1429.25 620.578L1436.69 633.271L1480.14 568.578L1637.36 800.465H1653.39Z" fill="white"/>
</mask>
<g mask="url(#mask9_718_16)">
<path d="M1653.39 544.841H1429.25V800.465H1653.39V544.841Z" fill="#17375F"/>
</g>
<mask id="mask10_718_16" style="mask-type:luminance" maskUnits="userSpaceOnUse" x="312" y="408" width="1467" height="385">
<path d="M312.302 792.528H407.48L611.22 491.347L670.352 579.163L696.083 535.408L611.182 408.9L461.895 628.938V507.913H420.633V689.757L363.956 773.316L312.302 792.528ZM413.041 462.625V475.471H469.45V462.625H413.041ZM1670.68 507.913H1629.42V628.938L1480.14 408.862L1391.63 540.777L1417.32 584.57L1480.06 491.386L1683.8 792.567H1778.98L1727.36 773.393L1670.68 689.834V507.913V507.913ZM1678.28 462.625H1621.87V475.471H1678.28V462.625Z" fill="white"/>
</mask>
<g mask="url(#mask10_718_16)">
<path d="M1778.98 408.862H312.302V792.528H1778.98V408.862Z" fill="#17375F"/>
</g>
<mask id="mask11_718_16" style="mask-type:luminance" maskUnits="userSpaceOnUse" x="579" y="0" width="930" height="809">
<path d="M973.146 340.832H1115.38L1042.82 209.876L973.146 340.832ZM1232.99 461.205L1045.66 136.402L858.334 461.205H888.705L851.125 526.28H742.141L1045.66 0L1347.26 526.28H971.076L1008.66 461.205H1013.07C1086.35 461.205 1159.67 461.205 1232.99 461.205ZM748.545 651.562L695.818 743.02H747.318L787.506 673.343C833.063 594.309 878.658 515.313 924.292 436.317L924.253 436.279L958.996 375.997H1132.33L1169.83 441.072H998.954L915.088 586.524H1154.95L1192.53 651.6H877.584L787.315 808.096H579.663L707.437 586.524H816.459L778.917 651.6H748.545V651.562ZM1344 743.02H1395.51L1342.78 651.562H1312.98L1275.44 586.486H1379.63L1434.12 677.715L1508.82 808.058H1304.05L1152.11 544.611H1229.58L1344 743.02Z" fill="white"/>
</mask>
<g mask="url(#mask11_718_16)">
<path d="M1508.82 -0.0422363H579.627V808.092H1508.82V-0.0422363Z" fill="#17375F"/>
</g>
<mask id="mask12_718_16" style="mask-type:luminance" maskUnits="userSpaceOnUse" x="592" y="15" width="904" height="786">
<path d="M1334.14 518.649H984.261L1013.02 468.797C1090.71 468.797 1168.41 468.797 1246.14 468.797L1104.9 223.872L1045.65 121.177L845.174 468.797H875.546L846.785 518.649H816.452H755.365L1045.69 15.2231L1334.14 518.649ZM592.771 800.464L711.764 594.117H772.851H803.222L788.689 619.272L774.423 643.968H744.091L682.581 750.651H751.683L794.057 677.177C865.767 553.008 877.578 532.377 934.677 433.479L934.639 433.441L963.361 383.666H975.441H1023.3H1068.05H1117.13H1127.95L1156.71 433.517H1117.17H1096.81H994.576L901.929 594.155H1150.57L1179.33 644.006H873.168L782.898 800.502H776.916H722.999H653.897H645.346H592.771V800.464ZM1288.59 594.117H1318.38H1375.29L1427.48 681.51L1447.77 716.905L1495.62 800.464H1461.72H1437.41H1368.31H1330.15H1308.41L1165.26 552.241H1225.16L1339.59 750.651H1408.69L1347.18 643.968H1317.38L1288.59 594.117Z" fill="white"/>
</mask>
<g mask="url(#mask12_718_16)">
<path d="M1495.66 15.2231H592.771V800.464H1495.66V15.2231Z" fill="#17375F"/>
</g>
<mask id="mask13_718_16" style="mask-type:luminance" maskUnits="userSpaceOnUse" x="1179" y="560" width="303" height="233">
<path d="M1302.39 602.095L1321.99 635.994H1351.75L1422.46 758.591H1334.99L1220.56 560.181H1179.03L1313.02 792.529H1481.94L1420.66 685.616L1370.81 602.095H1302.39Z" fill="white"/>
</mask>
<g mask="url(#mask13_718_16)">
<path d="M1481.9 560.181H1179.03V792.49H1481.9V560.181Z" fill="#17375F"/>
</g>
<mask id="mask14_718_16" style="mask-type:luminance" maskUnits="userSpaceOnUse" x="606" y="253" width="560" height="540">
<path d="M1004.39 325.492H1084.16L1043.47 253.284L1004.39 325.492ZM606.576 792.526H778.296L868.566 636.03H1165.53L1145.93 602.131H888.123L989.974 425.541H1142.94L1123.38 391.641H968.039L945.644 430.449L945.683 430.487L941.656 437.467C894.757 518.686 847.897 599.945 801.036 681.165L756.361 758.626H668.891L739.604 636.03H769.936L789.532 602.131H716.442L606.576 792.526Z" fill="white"/>
</mask>
<g mask="url(#mask14_718_16)">
<path d="M1165.53 253.284H606.576V792.526H1165.53V253.284Z" fill="#17375F"/>
</g>
<mask id="mask15_718_16" style="mask-type:luminance" maskUnits="userSpaceOnUse" x="769" y="31" width="552" height="480">
<path d="M1320.42 510.675L1045.62 31.1782L769.094 510.675H842.146L861.741 476.737H831.37L1045.62 105.227L1259.9 476.737H1246.14C1169.98 476.737 1093.82 476.737 1017.62 476.737L998.028 510.675H1320.42Z" fill="white"/>
</mask>
<g mask="url(#mask15_718_16)">
<path d="M1320.42 31.2173H769.094V510.714H1320.42V31.2173Z" fill="#17375F"/>
</g>
<mask id="mask16_718_16" style="mask-type:luminance" maskUnits="userSpaceOnUse" x="329" y="899" width="1734" height="138">
<path d="M403.684 998.759C467.072 1004.36 531.381 1006.12 595.191 1005.62C667.514 1005.09 739.914 1001.71 811.854 996.688C976.173 985.184 1140.38 965.166 1302.28 942.503C1436.88 923.674 1574.78 908.182 1711.83 902.046C1807.24 897.751 1907.82 897.713 2002.27 909.256L2015.58 910.866L2062.02 924.94L2011.82 929.618L1998.4 928.621C1948.89 924.901 1898.7 923.981 1848.92 924.671C1789.56 925.515 1730.2 928.621 1671.18 933.146C1524.31 944.382 1377.44 964.016 1233.41 986.794L1233.02 986.833C1145.48 998.95 1057.51 1009.76 969.117 1018.43C893.419 1025.83 817.146 1031.74 740.834 1034.81C677.446 1037.34 613.329 1038.03 549.979 1035C499.13 1032.54 447.208 1027.63 398.123 1017.86L385.699 1015.36L354.445 1004.09L329.903 990.591L390.914 997.608L403.684 998.759Z" fill="white"/>
</mask>
<g mask="url(#mask16_718_16)">
<path d="M2061.98 897.675H329.864V1038.03H2061.98V897.675Z" fill="#17375F"/>
</g>
<path fill-rule="evenodd" clip-rule="evenodd" d="M1230.34 977.245C856.455 1029.01 572.914 1042.55 401.961 1008.46C641.556 1029.67 958.153 1000.71 1305.01 952.09C1620.87 907.99 1844.82 899.899 1999.9 918.881C1816.91 905.076 1558.79 925.285 1230.34 977.245Z" fill="#17375F"/>
<mask id="mask17_718_16" style="mask-type:luminance" maskUnits="userSpaceOnUse" x="0" y="822" width="2065" height="160">
<path d="M60.2822 837.624C118.494 856.261 180.885 869.376 243.276 879.078C320.93 891.119 400.578 898.175 479.842 902.278C576.631 907.263 674.148 907.915 771.129 905.997C887.053 903.658 1002.98 897.599 1118.33 889.163C1214.77 882.107 1311.41 875.933 1408.16 871.37C1490.37 867.535 1572.9 864.812 1655.31 864.544C1721.72 864.314 1788.95 865.579 1855.02 870.564C1904.22 874.284 1956.18 880.19 2003 891.656L2015.5 894.723L2064.86 915.661L2008.1 912.517L1995.22 910.407C1939.5 901.204 1879.29 898.328 1822.19 897.638C1747 896.756 1671.14 899.862 1596.29 904.579C1506.48 910.254 1416.86 918.46 1327.7 927.856C1226.89 938.478 1126.38 950.749 1026.14 963.864L1025.79 963.902L1025.45 963.94C917.463 974.179 808.173 980.737 699.189 981.005C609.61 981.235 519.416 977.17 431.14 966.395C291.939 949.407 158.298 915.546 45.9403 854.267L36.1617 848.936L0 822.63L49.0081 834.058L60.2822 837.624Z" fill="white"/>
</mask>
<g mask="url(#mask17_718_16)">
<path d="M2064.9 822.545H0V981.151H2064.9V822.545Z" fill="#17375F"/>
</g>
<mask id="mask18_718_16" style="mask-type:luminance" maskUnits="userSpaceOnUse" x="54" y="846" width="1945" height="126">
<path d="M1023.61 954.2C549.099 999.22 247.611 951.823 54.5317 846.521C267.629 914.741 617.664 933.991 1119.82 898.865C1531.75 867.152 1843.06 862.818 1998.48 900.859C1802.22 868.494 1443.9 899.287 1023.61 954.2Z" fill="white"/>
</mask>
<g mask="url(#mask18_718_16)">
<path d="M1998.44 846.521H54.4924V999.22H1998.44V846.521Z" fill="#17375F"/>
</g>
<path fill-rule="evenodd" clip-rule="evenodd" d="M2239.52 883.563L2323.31 321.121C2323.54 319.548 2324.88 318.398 2326.45 318.398L2532.76 318.091C2534.33 318.091 2535.64 319.203 2535.91 320.737L2632.16 876.967C2632.35 878.156 2631.93 879.23 2631.01 879.997L2623.3 886.209C2622.72 886.669 2622.07 886.899 2621.31 886.899L2489.77 887.206C2488.12 887.206 2486.78 886.017 2486.59 884.368L2471.52 750.382C2471.33 748.772 2469.99 747.544 2468.34 747.544H2390.3C2388.61 747.544 2387.19 748.887 2387.12 750.574L2381.44 877.389C2381.4 878.309 2381.02 879.076 2380.33 879.652L2372.43 886.4C2371.82 886.899 2371.16 887.167 2370.36 887.167H2242.66C2241.7 887.167 2240.86 886.784 2240.25 886.055C2239.63 885.404 2239.4 884.521 2239.52 883.563ZM2649.57 318.398H2775.81C2777.57 318.398 2778.99 319.817 2778.99 321.581V751.609C2778.99 767.447 2781.33 778.031 2785.93 783.399C2790.49 788.768 2799.93 791.491 2814.31 791.491C2828.42 791.491 2837.85 788.73 2842.57 783.399C2847.29 778.031 2849.63 767.447 2849.63 751.609V321.581C2849.63 319.817 2851.04 318.398 2852.81 318.398H2973.53C2975.29 318.398 2976.71 319.817 2976.71 321.581V703.752C2976.71 748.196 2974.37 780.753 2969.77 801.307C2965.21 821.823 2957.61 839.348 2946.88 853.613C2935.37 868.531 2919.69 879 2899.94 885.135C2880.19 891.271 2850.51 894.3 2811.01 894.3C2770.59 894.3 2740.8 891.309 2721.43 885.135C2701.95 879 2686.65 868.531 2675.41 853.613C2664.94 839.885 2657.51 822.897 2653.06 802.611C2648.61 782.479 2646.38 749.538 2646.38 703.752V321.581C2646.38 319.855 2647.8 318.398 2649.57 318.398ZM3222.09 743.518C3222.09 723.922 3218.45 710.424 3211.24 702.985C3203.92 695.545 3190.19 691.864 3170.33 691.864H3151.54C3149.77 691.864 3148.35 693.283 3148.35 695.047V884.023C3148.35 885.787 3146.93 887.206 3145.17 887.206H3018.93C3017.17 887.206 3015.75 885.787 3015.75 884.023V321.581C3015.75 319.817 3017.17 318.398 3018.93 318.398H3153.68C3235.55 318.398 3289.55 328.713 3315.97 349.383C3342.24 370.167 3355.47 408.476 3355.47 464.31V529.424C3355.47 562.365 3348.26 587.482 3334.03 604.738C3321.99 619.08 3303.74 629.549 3279.08 636.068C3277.66 636.452 3276.7 637.717 3276.7 639.175C3276.74 640.67 3277.74 641.897 3279.16 642.242C3301.67 647.496 3318.92 656.776 3330.73 670.006C3345.11 686.073 3352.44 708.852 3352.44 738.149V884.023C3352.44 885.787 3351.02 887.206 3349.25 887.206H3225.24C3223.48 887.206 3222.06 885.787 3222.06 884.023V743.518H3222.09ZM3180.64 418.83H3151.54C3149.77 418.83 3148.35 420.249 3148.35 422.013V591.394C3148.35 593.157 3149.77 594.576 3151.54 594.576H3180.64C3197.78 594.576 3209.29 591.7 3215.04 585.948C3220.79 580.196 3223.67 569.612 3223.67 554.043V459.747C3223.67 443.909 3220.79 433.21 3215.04 427.458C3209.25 421.706 3197.74 418.83 3180.64 418.83ZM3727.28 734.506C3727.28 773.621 3725.06 801.461 3720.73 818.18C3716.39 834.938 3708.84 849.05 3698.1 860.554C3686.6 873.094 3672.22 881.876 3654.81 886.822C3637.55 891.808 3604.73 894.262 3556.33 894.262C3507.82 894.262 3474.88 891.769 3457.62 886.822C3440.21 881.837 3425.72 873.094 3414.22 860.554C3403.48 848.782 3395.92 834.286 3391.32 817.03C3386.76 799.774 3384.38 772.317 3384.38 734.506V471.558C3384.38 433.785 3386.61 406.29 3391.05 389.187C3395.5 372.046 3403.36 357.666 3414.22 345.893C3425.99 333.085 3441.56 324.189 3460.77 319.088C3480.13 313.988 3512.04 311.38 3556.37 311.38C3600.58 311.38 3632.22 313.988 3651.16 319.088C3670.26 324.189 3685.68 333.085 3697.45 345.893C3708.3 357.666 3716.16 372.046 3720.61 389.187C3725.06 406.329 3727.28 433.785 3727.28 471.558V734.506ZM3591.57 753.181V453.228C3591.57 437.39 3589.23 426.806 3584.52 421.438C3579.8 416.069 3570.52 413.346 3556.52 413.346C3542.26 413.346 3532.71 416.107 3528.03 421.438C3523.31 426.806 3520.97 437.39 3520.97 453.228V753.181C3520.97 769.249 3523.31 779.986 3528.03 785.202C3532.75 790.417 3542.3 793.063 3556.52 793.063C3570.52 793.063 3579.8 790.455 3584.52 785.202C3589.19 779.986 3591.57 769.287 3591.57 753.181ZM3874.23 700.53V752.53C3874.23 767.293 3877.22 777.762 3883.13 783.898C3889 790.033 3898.97 793.063 3913.08 793.063C3928.38 793.063 3938.69 790.187 3944.06 784.32C3949.43 778.414 3952.15 767.332 3952.15 750.957V710.693C3952.15 698.536 3951.39 689.41 3949.81 683.543C3949.81 683.504 3949.81 683.504 3949.81 683.466C3948.4 677.599 3945.79 672.422 3942.3 667.858C3942.26 667.82 3942.22 667.782 3942.22 667.743C3933.44 657.313 3913.46 648.57 3882.13 641.782C3867.75 638.638 3856.67 636.03 3848.81 633.691H3848.77C3811.92 623.222 3786.68 608.573 3772.8 589.745C3759.07 570.916 3752.13 541.35 3752.13 500.97V448.396C3752.13 397.394 3762.07 361.846 3781.81 341.56C3801.56 321.427 3835.81 311.342 3884.59 311.342H3923.81C3954.42 311.342 3979.53 313.95 3999.28 319.203C4018.88 324.419 4034.29 332.817 4045.57 344.283L4045.61 344.321C4054.62 353.217 4060.75 364.568 4064.43 378.412C4067.96 392.14 4069.8 414.228 4069.8 444.561V485.44C4069.8 487.204 4068.38 488.622 4066.62 488.622H3955.45C3953.69 488.622 3952.27 487.204 3952.27 485.44V453.036C3952.27 435.128 3949.93 423.24 3945.21 417.334C3940.38 411.467 3930.83 408.591 3916.18 408.591C3902.07 408.591 3892.52 411.352 3887.54 416.836C3882.55 422.32 3880.1 432.52 3880.1 447.706V484.443C3880.1 512.283 3903.87 532.147 3951.46 544.188H3951.5C3964.96 547.831 3975.66 550.707 3983.64 553.084C4020.11 563.285 4045.22 577.665 4058.84 595.957C4072.56 614.402 4079.35 643.546 4079.35 683.427V760.046C4079.35 807.635 4068.12 841.764 4045.49 862.817C4022.87 883.755 3985.98 894.185 3935.01 894.185H3899.69C3843.48 894.185 3804.9 884.637 3783.85 865.425C3762.79 846.327 3752.21 810.894 3752.21 759.24V700.454C3752.21 698.69 3753.63 697.271 3755.39 697.271H3871.16C3872.77 697.348 3874.23 698.805 3874.23 700.53ZM2402.76 652.634H2455.8C2456.72 652.634 2457.52 652.289 2458.18 651.561C2458.79 650.87 2459.06 650.027 2458.98 649.107L2434.28 420.862C2434.09 419.252 2432.75 418.025 2431.1 418.025H2429.22C2427.61 418.025 2426.23 419.214 2426.04 420.824L2399.58 649.068C2399.47 649.988 2399.73 650.832 2400.39 651.561C2401 652.289 2401.8 652.634 2402.76 652.634Z" fill="#17375F"/>
<mask id="mask19_718_16" style="mask-type:luminance" maskUnits="userSpaceOnUse" x="2249" y="302" width="1841" height="584">
<path d="M2249.37 875.166L2333.16 312.723C2333.39 311.151 2334.74 310.001 2336.31 310.001H2542.81C2544.38 310.001 2545.72 311.151 2545.95 312.723L2631.93 875.166C2632.08 876.124 2631.81 877.006 2631.2 877.735C2630.59 878.464 2629.74 878.847 2628.78 878.847H2499.59C2497.94 878.847 2496.6 877.62 2496.41 876.009L2481.34 742.023C2481.15 740.413 2479.8 739.186 2478.15 739.186H2399.89C2398.24 739.186 2396.9 740.413 2396.7 742.023L2381.63 876.009C2381.44 877.62 2380.1 878.847 2378.45 878.847H2252.4C2251.44 878.847 2250.6 878.464 2249.99 877.735C2249.49 876.968 2249.22 876.086 2249.37 875.166ZM2659.38 310.001H2785.62C2787.39 310.001 2788.81 311.42 2788.81 313.184V743.212C2788.81 759.05 2791.15 769.633 2795.75 775.002C2800.31 780.371 2809.75 783.093 2824.13 783.093C2838.24 783.093 2847.67 780.332 2852.39 775.002C2857.1 769.633 2859.44 759.05 2859.44 743.212V313.184C2859.44 311.42 2860.86 310.001 2862.63 310.001H2983.34C2985.11 310.001 2986.53 311.42 2986.53 313.184V695.354C2986.53 739.799 2984.19 772.356 2979.59 792.91C2975.02 813.426 2967.43 830.951 2956.69 845.216C2945.19 860.133 2929.5 870.564 2909.76 876.738C2890.01 882.873 2860.33 885.903 2820.83 885.903C2780.41 885.903 2750.61 882.912 2731.25 876.738C2711.77 870.602 2696.47 860.133 2685.23 845.216C2674.76 831.488 2667.32 814.5 2662.87 794.214C2658.43 774.082 2656.2 741.141 2656.2 695.354V313.184C2656.2 311.42 2657.66 310.001 2659.38 310.001ZM3231.91 735.082C3231.91 715.448 3228.27 701.988 3221.06 694.549C3213.74 687.11 3200.01 683.428 3180.14 683.428H3161.35C3159.59 683.428 3158.17 684.847 3158.17 686.611V875.587C3158.17 877.351 3156.75 878.77 3154.99 878.77H3028.79C3027.02 878.77 3025.6 877.351 3025.6 875.587V313.184C3025.6 311.42 3027.02 310.001 3028.79 310.001H3163.54C3245.41 310.001 3299.4 320.316 3325.83 340.985C3352.09 361.77 3365.32 400.079 3365.32 455.913V521.027C3365.32 553.967 3358.11 579.085 3343.89 596.341C3331.85 610.683 3313.59 621.152 3288.94 627.671C3287.52 628.055 3286.56 629.32 3286.56 630.777C3286.6 632.273 3287.59 633.5 3289.01 633.845C3311.52 639.099 3328.78 648.379 3340.59 661.609C3354.97 677.715 3362.29 700.455 3362.29 729.752V875.626C3362.29 877.39 3360.87 878.809 3359.11 878.809H3235.1C3233.33 878.809 3231.91 877.39 3231.91 875.626V735.082V735.082ZM3190.46 410.394H3161.35C3159.59 410.394 3158.17 411.813 3158.17 413.577V582.958C3158.17 584.722 3159.59 586.141 3161.35 586.141H3190.46C3207.6 586.141 3219.1 583.265 3224.86 577.513C3230.61 571.76 3233.48 561.177 3233.48 545.608V451.311C3233.48 435.474 3230.61 424.775 3224.86 419.023C3219.1 413.27 3207.6 410.394 3190.46 410.394ZM3737.14 726.071C3737.14 765.185 3734.92 793.025 3730.58 809.745C3726.25 826.503 3718.7 840.614 3707.96 852.119C3696.45 864.658 3682.07 873.44 3664.66 878.387C3647.41 883.372 3614.58 885.826 3566.19 885.826C3517.68 885.826 3484.74 883.334 3467.44 878.387C3450.03 873.402 3435.54 864.658 3424.03 852.119C3413.3 840.346 3405.74 825.851 3401.14 808.594C3396.58 791.338 3394.2 763.881 3394.2 726.071V463.122C3394.2 425.35 3396.42 397.855 3400.87 380.752C3405.32 363.61 3413.18 349.23 3424.03 337.458C3435.81 324.649 3451.37 315.753 3470.59 310.653C3489.95 305.552 3521.86 302.945 3566.19 302.945C3610.4 302.945 3642.04 305.552 3660.98 310.653C3680.08 315.753 3695.49 324.649 3707.27 337.458C3718.12 349.23 3725.98 363.61 3730.43 380.752C3734.88 397.893 3737.1 425.35 3737.1 463.122V726.071H3737.14ZM3601.39 744.784V444.83C3601.39 428.993 3599.05 418.409 3594.33 413.04C3589.62 407.672 3580.34 404.949 3566.34 404.949C3552.08 404.949 3542.53 407.71 3537.85 413.04C3533.13 418.409 3530.79 428.993 3530.79 444.83V744.784C3530.79 760.852 3533.13 771.589 3537.85 776.804C3542.57 782.02 3552.11 784.666 3566.34 784.666C3580.34 784.666 3589.62 782.058 3594.33 776.804C3599.05 771.589 3601.39 760.852 3601.39 744.784ZM3884.05 692.133V744.132C3884.05 758.896 3887.04 769.365 3892.95 775.501C3898.81 781.636 3908.78 784.666 3922.9 784.666C3938.2 784.666 3948.51 781.789 3953.88 775.922C3959.25 770.017 3961.97 758.935 3961.97 742.56V702.295C3961.97 690.177 3961.2 681.012 3959.63 675.145C3959.63 675.107 3959.63 675.107 3959.63 675.069C3958.21 669.201 3955.61 664.024 3952.12 659.461C3952.08 659.423 3952.08 659.384 3952.04 659.346C3943.26 648.916 3923.28 640.172 3891.95 633.385C3877.57 630.24 3866.49 627.633 3858.62 625.294H3858.59C3821.73 614.825 3796.5 600.176 3782.62 581.347C3768.89 562.519 3761.95 532.953 3761.95 492.573V439.999C3761.95 388.996 3771.88 353.448 3791.63 333.163C3811.38 313.03 3845.63 302.945 3894.4 302.945H3933.63C3964.23 302.945 3989.35 305.552 4009.1 310.806C4028.7 316.021 4044.11 324.419 4055.39 335.885L4055.42 335.924C4064.44 344.82 4070.57 356.171 4074.25 370.014C4077.78 383.743 4079.62 405.831 4079.62 436.164V477.042C4079.62 478.806 4078.2 480.225 4076.44 480.225H3965.15C3963.39 480.225 3961.97 478.806 3961.97 477.042V444.677C3961.97 426.769 3959.63 414.881 3954.92 408.976C3950.08 403.108 3940.54 400.232 3925.89 400.232C3911.77 400.232 3902.23 402.993 3897.24 408.477C3892.26 413.961 3889.8 424.161 3889.8 439.347V476.084C3889.8 503.924 3913.58 523.788 3961.17 535.829C3961.2 535.829 3961.2 535.829 3961.2 535.829C3974.66 539.472 3985.36 542.348 3993.34 544.726C4029.81 554.926 4054.93 569.306 4068.54 587.598C4082.27 606.043 4089.05 635.187 4089.05 675.069V751.687C4089.05 799.276 4077.82 833.405 4055.19 854.458C4032.57 875.396 3995.72 885.826 3944.71 885.826H3909.4C3853.18 885.826 3814.6 876.278 3793.55 857.066C3772.5 837.969 3761.91 802.536 3761.91 750.882V692.095C3761.91 690.331 3763.33 688.912 3765.1 688.912H3880.87C3882.63 688.95 3884.05 690.369 3884.05 692.133ZM2412.58 644.199H2465.62C2466.54 644.199 2467.34 643.854 2467.99 643.125C2468.61 642.435 2468.87 641.591 2468.8 640.671L2444.1 412.427C2443.91 410.816 2442.57 409.589 2440.92 409.589H2439.04C2437.43 409.589 2436.05 410.778 2435.86 412.388L2409.4 640.633C2409.28 641.553 2409.55 642.397 2410.16 643.125C2410.82 643.854 2411.62 644.199 2412.58 644.199Z" fill="white"/>
</mask>
<g mask="url(#mask19_718_16)">
<path d="M4089.09 302.903H2249.21V885.861H4089.09V302.903Z" fill="#17375F"/>
</g>
<mask id="mask20_718_16" style="mask-type:luminance" maskUnits="userSpaceOnUse" x="2268" y="318" width="1806" height="552">
<path d="M2392.14 651.257L2421.21 400.733C2421.67 396.706 2425.05 393.677 2429.11 393.677H2450.93C2455.03 393.677 2458.41 396.706 2458.83 400.771L2485.94 651.295C2486.21 653.634 2485.52 655.743 2483.95 657.469C2482.38 659.194 2480.38 660.115 2478 660.115H2400.04C2397.7 660.115 2395.67 659.194 2394.1 657.43C2392.57 655.705 2391.88 653.596 2392.14 651.257ZM2276.53 862.896H2360.05C2364.11 862.896 2367.49 859.867 2367.95 855.84L2382.06 730.329C2382.52 726.264 2385.89 723.273 2389.96 723.273H2488.13C2492.19 723.273 2495.57 726.303 2496.03 730.329L2510.14 855.84C2510.6 859.905 2513.97 862.896 2518.04 862.896H2604.59C2607 862.896 2609.08 861.937 2610.61 860.135C2612.18 858.294 2612.8 856.109 2612.45 853.731L2532.88 332.666C2532.27 328.755 2528.97 325.917 2525.02 325.917H2354.14C2350.15 325.917 2346.86 328.793 2346.28 332.704L2268.67 853.731C2268.32 856.109 2268.93 858.294 2270.51 860.097C2272.08 861.937 2274.11 862.896 2276.53 862.896ZM2672.16 333.855V695.318C2672.16 714.607 2672.5 734.01 2673.81 753.299C2674.65 765.609 2675.8 778.685 2678.48 790.765C2682.01 806.794 2687.99 822.401 2697.97 835.555C2707.74 848.478 2720.71 856.645 2736.12 861.516C2760.47 869.223 2795.48 869.914 2820.91 869.914C2846.45 869.914 2880.58 869.108 2905.08 861.477C2920.61 856.645 2934.15 848.554 2944.08 835.516C2954.32 822.056 2960.42 805.797 2964.1 789.384C2966.78 777.266 2968.05 764.266 2968.93 751.919C2970.27 733.128 2970.65 714.146 2970.65 695.318V333.855C2970.65 329.483 2967.09 325.878 2962.68 325.878H2883.34C2878.97 325.878 2875.36 329.445 2875.36 333.855V743.214C2875.36 757.057 2873.9 774.62 2864.35 785.511C2854.54 796.708 2838.24 799.048 2824.13 799.048C2809.98 799.048 2793.41 796.785 2783.63 785.358C2774.31 774.467 2772.9 756.981 2772.9 743.252V333.855C2772.9 329.483 2769.33 325.878 2764.92 325.878H2680.1C2675.72 325.917 2672.16 329.483 2672.16 333.855ZM3236.09 588.789C3224.71 600.178 3205.72 602.095 3190.46 602.095H3150.2C3145.83 602.095 3142.22 598.529 3142.22 594.119V402.458C3142.22 398.087 3145.79 394.482 3150.2 394.482H3190.46C3205.72 394.482 3224.74 396.399 3236.09 407.789C3247.18 418.871 3249.4 436.396 3249.4 451.351V545.648C3249.4 560.488 3247.14 577.744 3236.09 588.789ZM3041.48 333.855V854.92C3041.48 859.292 3045.05 862.896 3049.46 862.896H3134.28C3138.65 862.896 3142.26 859.33 3142.26 854.92V675.492C3142.26 671.121 3145.83 667.516 3150.23 667.516H3180.18C3197.94 667.516 3219.45 670.047 3232.53 683.43C3245.38 696.622 3247.91 717.521 3247.91 735.084V854.92C3247.91 859.292 3251.47 862.896 3255.88 862.896H3338.48C3342.85 862.896 3346.46 859.33 3346.46 854.92V729.715C3346.46 709.545 3342.7 687.725 3328.82 672.194C3314.67 656.395 3292.01 649.684 3271.72 646.77C3271.64 646.77 3271.6 646.77 3271.53 646.732C3252.28 643.472 3251.86 618.431 3271.03 615.325C3292.47 611.414 3317.28 603.514 3331.73 586.143C3346.19 568.771 3349.49 542.772 3349.49 521.029V455.915C3349.49 422.361 3344.66 375.96 3316.09 353.489C3283.76 328.064 3202.73 325.917 3163.66 325.917H3049.57C3045.09 325.917 3041.48 329.483 3041.48 333.855ZM3617.31 744.786C3617.31 758.706 3615.93 776.653 3606.15 787.467C3596.33 798.396 3580.22 800.581 3566.34 800.581C3552.38 800.581 3535.9 798.472 3526 787.467C3516.26 776.614 3514.84 758.668 3514.84 744.786V444.832C3514.84 430.989 3516.3 413.426 3525.85 402.535C3535.7 391.299 3552.19 388.998 3566.3 388.998C3580.34 388.998 3596.45 391.376 3606.26 402.535C3615.81 413.426 3617.27 430.95 3617.27 444.832V744.786H3617.31ZM3721.19 726.072V463.124C3721.19 447.286 3720.85 431.296 3719.58 415.458C3718.77 405.373 3717.59 394.559 3715.05 384.742C3711.49 371.052 3705.24 358.704 3695.61 348.235C3685.14 336.846 3671.72 329.982 3656.92 326.032C3645.8 323.041 3633.26 321.699 3621.79 320.74C3603.39 319.244 3584.71 318.861 3566.23 318.861C3547.63 318.861 3528.88 319.244 3510.36 320.74C3498.7 321.699 3486.04 323.041 3474.73 326.032C3459.89 329.943 3446.32 336.807 3435.85 348.235C3426.22 358.666 3419.97 371.013 3416.4 384.742C3413.87 394.559 3412.68 405.373 3411.88 415.458C3410.61 431.257 3410.27 447.248 3410.27 463.124V726.072C3410.27 741.91 3410.61 757.901 3411.96 773.7C3412.8 783.824 3414.07 794.676 3416.67 804.531C3420.32 818.221 3426.34 830.914 3435.92 841.422C3445.78 852.197 3457.97 859.138 3471.97 863.126C3482.52 866.156 3495.52 867.306 3506.44 868.15C3526.31 869.645 3546.4 869.99 3566.3 869.99C3586.13 869.99 3606.22 869.684 3626.01 868.15C3636.94 867.306 3649.86 866.156 3660.41 863.126C3674.44 859.1 3686.49 852.082 3696.38 841.345C3705.77 831.183 3711.83 819.18 3715.28 805.797C3717.82 796.018 3718.93 785.089 3719.73 775.081C3720.88 758.821 3721.19 742.37 3721.19 726.072ZM3860.16 704.866H3785.81C3781.43 704.866 3777.83 708.433 3777.83 712.843V750.96C3777.83 779.835 3781.24 824.395 3804.25 845.371C3828.22 867.153 3878.95 869.99 3909.4 869.99H3944.72C3976.74 869.99 4019.69 865.772 4044.38 842.84C4068.31 820.637 4073.14 782.597 4073.14 751.727V675.109C4073.14 651.18 4070.61 617.127 4055.77 597.148C4041.28 577.668 4011.48 566.432 3989.05 560.066C3978.42 557.075 3967.76 554.122 3957.37 551.323C3957.33 551.323 3957.3 551.285 3957.22 551.285C3919.45 541.736 3873.89 521.642 3873.89 476.085V439.348C3873.89 425.352 3875.65 408.632 3885.47 397.818C3895.52 386.736 3911.74 384.358 3925.93 384.358C3940.65 384.358 3957.45 386.851 3967.34 399.007C3976.81 410.703 3977.96 430.298 3977.96 444.717V456.413C3977.96 460.785 3981.53 464.389 3985.94 464.389H4055.73C4060.11 464.389 4063.71 460.823 4063.71 456.413V436.242C4063.71 417.682 4063.56 392.104 4058.88 374.081C4056.23 363.957 4051.78 354.677 4044.27 347.276L4044.04 347.046C4033.57 336.309 4019.34 330.02 4005.04 326.185C3982.53 320.203 3956.87 318.861 3933.67 318.861H3894.44C3865.8 318.861 3824.42 322.427 3803.06 344.285C3781.24 366.603 3777.91 410.703 3777.91 440V492.575C3777.91 517.002 3780.51 551.477 3795.47 571.954C3810.12 591.971 3840.07 603.437 3863 609.995C3873.62 613.024 3884.55 615.517 3895.33 617.856C3917.26 622.611 3949.28 631.278 3964.31 649.224L3964.43 649.378C3964.5 649.454 3964.54 649.531 3964.62 649.608L3964.73 649.761C3969.68 656.165 3973.21 663.451 3975.09 671.005C3975.09 671.044 3975.13 671.082 3975.13 671.159C3977.66 680.746 3978 692.48 3978 702.374V742.639C3978 757.364 3976.12 775.31 3965.73 786.7C3955.15 798.319 3937.85 800.658 3922.97 800.658C3908.13 800.658 3892.22 797.782 3881.52 786.585C3870.86 775.426 3868.21 759.051 3868.21 744.172V712.881C3868.14 708.433 3864.53 704.866 3860.16 704.866Z" fill="white"/>
</mask>
<g mask="url(#mask20_718_16)">
<path d="M4073.14 318.861H2268.28V869.952H4073.14V318.861Z" fill="#17375F"/>
</g>
</svg>
