<svg width="209" height="191" viewBox="0 0 209 191" fill="none" xmlns="http://www.w3.org/2000/svg">
<g clip-path="url(#clip0_2859_205)">
<mask id="mask0_2859_205" style="mask-type:luminance" maskUnits="userSpaceOnUse" x="23" y="38" width="50" height="44">
<path d="M35.9591 76.8412L41.1365 69.2146V49.7451H48.4531V58.4258L61.974 38.4951L72.4025 54.0389L68.035 61.4679L61.9663 52.4578L42.2177 81.6543H23.0039L35.9591 76.8412Z" fill="white"/>
</mask>
<g mask="url(#mask0_2859_205)">
<path d="M72.4025 38.4951H23.0039V81.6544H72.4025V38.4951Z" fill="#17375F"/>
</g>
<mask id="mask1_2859_205" style="mask-type:luminance" maskUnits="userSpaceOnUse" x="43" y="53" width="25" height="29">
<path d="M61.9619 58.8249L46.4839 81.6543H43.0039L61.9735 53.6746L67.647 62.1267L66.031 64.8781L61.9619 58.8249Z" fill="white"/>
</mask>
<g mask="url(#mask1_2859_205)">
<path d="M67.647 53.6746H43.0039V81.6505H67.647V53.6746Z" fill="#17375F"/>
</g>
<mask id="mask2_2859_205" style="mask-type:luminance" maskUnits="userSpaceOnUse" x="40" y="45" width="10" height="5">
<path d="M49.2145 45.1682H40.3672V49.6171H49.2145V45.1682Z" fill="white"/>
</mask>
<g mask="url(#mask2_2859_205)">
<path d="M49.2145 45.1682H40.3672V49.6171H49.2145V45.1682Z" fill="#17375F"/>
</g>
<mask id="mask3_2859_205" style="mask-type:luminance" maskUnits="userSpaceOnUse" x="138" y="38" width="51" height="44">
<path d="M175.787 76.8412L188.742 81.6543H169.529L149.78 52.4578L143.343 62.0143L138.98 54.5814L149.772 38.4951L163.293 58.4258V49.7451H170.61V69.2146L175.787 76.8412Z" fill="white"/>
</mask>
<g mask="url(#mask3_2859_205)">
<path d="M188.738 38.4951H138.98V81.6544H188.738V38.4951Z" fill="#17375F"/>
</g>
<mask id="mask4_2859_205" style="mask-type:luminance" maskUnits="userSpaceOnUse" x="143" y="53" width="26" height="29">
<path d="M149.783 58.8249L145.346 65.4284L143.73 62.6731L149.771 53.6746L168.741 81.6543H165.261L149.783 58.8249Z" fill="white"/>
</mask>
<g mask="url(#mask4_2859_205)">
<path d="M168.741 53.6746H143.73V81.6505H168.741V53.6746Z" fill="#17375F"/>
</g>
<mask id="mask5_2859_205" style="mask-type:luminance" maskUnits="userSpaceOnUse" x="162" y="45" width="10" height="5">
<path d="M171.374 45.1682H162.527V49.6171H171.374V45.1682Z" fill="white"/>
</mask>
<g mask="url(#mask5_2859_205)">
<path d="M171.374 45.1682H162.527V49.6171H171.374V45.1682Z" fill="#17375F"/>
</g>
<mask id="mask6_2859_205" style="mask-type:luminance" maskUnits="userSpaceOnUse" x="27" y="39" width="45" height="42">
<path d="M36.4581 77.4768L27.2852 80.8833H36.9348H41.806L61.9692 51.0821L67.9915 60.0263L71.4948 54.0661L61.9692 39.8708L47.6849 60.9292V50.5125H41.9029V69.451L36.4581 77.4768Z" fill="white"/>
</mask>
<g mask="url(#mask6_2859_205)">
<path d="M71.4948 39.8708H27.2852V80.8833H71.4948V39.8708Z" fill="#17375F"/>
</g>
<mask id="mask7_2859_205" style="mask-type:luminance" maskUnits="userSpaceOnUse" x="44" y="55" width="23" height="26">
<path d="M44.457 80.8831L61.9695 55.0503L66.74 62.1537L65.9843 63.4364L61.9656 57.4491L46.0768 80.8831H44.457Z" fill="white"/>
</mask>
<g mask="url(#mask7_2859_205)">
<path d="M66.74 55.0503H44.457V80.8831H66.74V55.0503Z" fill="#17375F"/>
</g>
<mask id="mask8_2859_205" style="mask-type:luminance" maskUnits="userSpaceOnUse" x="139" y="39" width="46" height="42">
<path d="M175.288 77.4768L184.461 80.8833H174.812H169.94L149.777 51.0821L143.387 60.5728L139.887 54.6087L149.777 39.8708L164.062 60.9292V50.5125H169.844V69.451L175.288 77.4768Z" fill="white"/>
</mask>
<g mask="url(#mask8_2859_205)">
<path d="M184.461 39.8708H139.887V80.8833H184.461V39.8708Z" fill="#17375F"/>
</g>
<mask id="mask9_2859_205" style="mask-type:luminance" maskUnits="userSpaceOnUse" x="144" y="55" width="24" height="26">
<path d="M167.289 80.8831L149.776 55.0503L144.637 62.704L145.389 63.9867L149.78 57.4491L165.669 80.8831H167.289Z" fill="white"/>
</mask>
<g mask="url(#mask9_2859_205)">
<path d="M167.289 55.0503H144.637V80.8831H167.289V55.0503Z" fill="#17375F"/>
</g>
<mask id="mask10_2859_205" style="mask-type:luminance" maskUnits="userSpaceOnUse" x="31" y="41" width="149" height="40">
<path d="M31.7617 80.0811H41.3802L61.9697 49.6444L67.9454 58.5188L70.5458 54.0971L61.9658 41.3125L46.8793 63.549V51.3185H42.7094V69.6952L36.9817 78.1395L31.7617 80.0811ZM41.9421 46.7418V48.04H47.6427V46.7418H41.9421ZM169.036 51.3185H164.867V63.549L149.78 41.3086L140.836 54.6397L143.432 59.0653L149.772 49.6483L170.362 80.0849H179.98L174.764 78.1473L169.036 69.703V51.3185ZM169.804 46.7418H164.103V48.04H169.804V46.7418Z" fill="white"/>
</mask>
<g mask="url(#mask10_2859_205)">
<path d="M179.98 41.3086H31.7617V80.0811H179.98V41.3086Z" fill="#17375F"/>
</g>
<mask id="mask11_2859_205" style="mask-type:luminance" maskUnits="userSpaceOnUse" x="58" y="-1" width="95" height="83">
<path d="M98.5418 34.4337H112.915L105.583 21.1995L98.5418 34.4337ZM124.801 46.5983L105.87 13.7745L86.9391 46.5983H90.0084L86.2106 53.1747H75.197L105.87 -0.0100098L136.349 53.1747H98.3325L102.13 46.5983H102.576C109.982 46.5983 117.391 46.5983 124.801 46.5983ZM75.8441 65.8353L70.5156 75.0779H75.7201L79.7814 68.0365C84.3853 60.0495 88.9931 52.0664 93.6047 44.0832L93.6008 44.0794L97.1118 37.9874H114.628L118.418 44.5638H101.15L92.6746 59.2628H116.915L120.712 65.8392H88.8845L79.7621 81.6543H58.7773L71.6898 59.2628H82.7073L78.9134 65.8392H75.8441V65.8353ZM136.02 75.0779H141.224L135.896 65.8353H132.885L129.091 59.2589H139.62L145.127 68.4783L152.676 81.6505H131.982L116.628 55.0271H124.456L136.02 75.0779Z" fill="white"/>
</mask>
<g mask="url(#mask11_2859_205)">
<path d="M152.676 -0.0141602H58.7734V81.6541H152.676V-0.0141602Z" fill="#17375F"/>
</g>
<mask id="mask12_2859_205" style="mask-type:luminance" maskUnits="userSpaceOnUse" x="60" y="1" width="92" height="80">
<path d="M135.027 52.4036H99.6685L102.575 47.3657C110.426 47.3657 118.278 47.3657 126.133 47.3657L111.86 22.6141L105.873 12.2361L85.6128 47.3657H88.682L85.7755 52.4036H82.7102H76.5368L105.877 1.52856L135.027 52.4036ZM60.1055 80.8833L72.1306 60.0302H78.3039H81.3732L79.9044 62.5724L78.4628 65.0681H75.3975L69.1815 75.8492H76.1648L80.447 68.4241C87.6938 55.8759 88.8874 53.791 94.6577 43.7966L94.6539 43.7927L97.5565 38.7625H98.7772H103.614H108.136H113.096H114.189L117.096 43.8004H113.1H111.043H100.711L91.3482 60.0341H116.476L119.382 65.072H88.4417L79.3193 80.8871H78.7147H73.266H66.2827H65.4185H60.1055V80.8833ZM130.423 60.0302H133.434H139.185L144.459 68.8621L146.509 72.439L151.346 80.8833H147.92H145.463H138.48H134.624H132.426L117.96 55.7984H124.013L135.577 75.8492H142.56L136.344 65.0681H133.333L130.423 60.0302Z" fill="white"/>
</mask>
<g mask="url(#mask12_2859_205)">
<path d="M151.35 1.52856H60.1055V80.8833H151.35V1.52856Z" fill="#17375F"/>
</g>
<mask id="mask13_2859_205" style="mask-type:luminance" maskUnits="userSpaceOnUse" x="119" y="56" width="31" height="25">
<path d="M131.819 60.8363L133.799 64.262H136.807L143.953 76.6514H135.113L123.549 56.6006H119.352L132.893 80.081H149.963L143.771 69.2767L138.733 60.8363H131.819Z" fill="white"/>
</mask>
<g mask="url(#mask13_2859_205)">
<path d="M149.959 56.6006H119.352V80.0772H149.959V56.6006Z" fill="#17375F"/>
</g>
<mask id="mask14_2859_205" style="mask-type:luminance" maskUnits="userSpaceOnUse" x="61" y="25" width="57" height="56">
<path d="M101.702 32.8836H109.763L105.651 25.5864L101.702 32.8836ZM61.5 80.081H78.8537L87.9761 64.2658H117.986L116.006 60.8401H89.9525L100.245 42.9943H115.704L113.727 39.5685H98.0287L95.7655 43.4903L95.7694 43.4942L95.3625 44.1995C90.623 52.4074 85.8873 60.6192 81.1517 68.8271L76.637 76.6552H67.7974L74.9435 64.2658H78.0088L79.9891 60.8401H72.6028L61.5 80.081Z" fill="white"/>
</mask>
<g mask="url(#mask14_2859_205)">
<path d="M117.986 25.5864H61.5V80.081H117.986V25.5864Z" fill="#17375F"/>
</g>
<mask id="mask15_2859_205" style="mask-type:luminance" maskUnits="userSpaceOnUse" x="77" y="3" width="57" height="49">
<path d="M133.637 51.5975L105.867 3.14062L77.9219 51.5975H85.3044L87.2846 48.1678H84.2154L105.867 10.6238L127.522 48.1678H126.131C118.435 48.1678 110.738 48.1678 103.038 48.1678L101.058 51.5975H133.637Z" fill="white"/>
</mask>
<g mask="url(#mask15_2859_205)">
<path d="M133.638 3.14453H77.9219V51.6014H133.638V3.14453Z" fill="#17375F"/>
</g>
<path fill-rule="evenodd" clip-rule="evenodd" d="M13.2997 168.492L21.7673 111.653C21.7905 111.494 21.9262 111.378 22.0851 111.378L42.9342 111.347C43.0931 111.347 43.225 111.459 43.2521 111.614L52.979 167.826C52.9985 167.946 52.9558 168.054 52.8629 168.132L52.0839 168.76C52.0257 168.806 51.9599 168.829 51.8824 168.829L38.59 168.86C38.4234 168.86 38.2878 168.74 38.2684 168.574L36.7455 155.033C36.7261 154.871 36.5903 154.747 36.4237 154.747H28.5375C28.367 154.747 28.2236 154.882 28.2158 155.053L27.6423 167.868C27.6384 167.961 27.5996 168.039 27.5299 168.097L26.7316 168.779C26.6696 168.829 26.6037 168.856 26.5223 168.856H13.6175C13.5206 168.856 13.4354 168.818 13.3734 168.744C13.3114 168.678 13.2881 168.589 13.2997 168.492ZM54.7385 111.378H67.4959C67.6742 111.378 67.8176 111.521 67.8176 111.7V155.157C67.8176 156.758 68.0541 157.827 68.5191 158.37C68.9803 158.912 69.9335 159.188 71.3867 159.188C72.8129 159.188 73.7663 158.909 74.2429 158.37C74.7196 157.827 74.9559 156.758 74.9559 155.157V111.7C74.9559 111.521 75.0993 111.378 75.2775 111.378H87.4771C87.6553 111.378 87.7987 111.521 87.7987 111.7V150.321C87.7987 154.812 87.5624 158.103 87.0973 160.18C86.6362 162.253 85.8688 164.024 84.7838 165.466C83.6212 166.973 82.0361 168.031 80.0404 168.651C78.0446 169.271 75.0451 169.577 71.0535 169.577C66.969 169.577 63.9579 169.275 62.0008 168.651C60.0322 168.031 58.4859 166.973 57.3505 165.466C56.2925 164.078 55.5407 162.361 55.0912 160.311C54.6416 158.277 54.4169 154.948 54.4169 150.321V111.7C54.4169 111.525 54.5602 111.378 54.7385 111.378ZM112.597 154.34C112.597 152.359 112.228 150.995 111.5 150.243C110.76 149.492 109.372 149.12 107.365 149.12H105.466C105.288 149.12 105.144 149.263 105.144 149.441V168.539C105.144 168.717 105.001 168.86 104.823 168.86H92.0655C91.8872 168.86 91.7438 168.717 91.7438 168.539V111.7C91.7438 111.521 91.8872 111.378 92.0655 111.378H105.683C113.957 111.378 119.413 112.42 122.083 114.509C124.738 116.61 126.075 120.481 126.075 126.123V132.704C126.075 136.033 125.346 138.571 123.909 140.315C122.692 141.764 120.847 142.822 118.355 143.481C118.212 143.52 118.115 143.648 118.115 143.795C118.119 143.946 118.22 144.07 118.363 144.105C120.638 144.636 122.382 145.574 123.575 146.911C125.029 148.534 125.769 150.836 125.769 153.797V168.539C125.769 168.717 125.625 168.86 125.447 168.86H112.914C112.736 168.86 112.593 168.717 112.593 168.539V154.34H112.597ZM108.407 121.527H105.466C105.288 121.527 105.144 121.671 105.144 121.849V138.966C105.144 139.145 105.288 139.288 105.466 139.288H108.407C110.14 139.288 111.302 138.997 111.883 138.416C112.465 137.835 112.755 136.765 112.755 135.192V125.662C112.755 124.062 112.465 122.981 111.883 122.399C111.298 121.818 110.136 121.527 108.407 121.527ZM163.65 153.429C163.65 157.382 163.425 160.195 162.987 161.885C162.549 163.578 161.786 165.004 160.701 166.167C159.538 167.434 158.085 168.322 156.326 168.822C154.582 169.325 151.264 169.573 146.374 169.573C141.471 169.573 138.143 169.322 136.399 168.822C134.639 168.318 133.174 167.434 132.012 166.167C130.927 164.977 130.163 163.512 129.698 161.769C129.237 160.025 128.997 157.25 128.997 153.429V126.856C128.997 123.039 129.222 120.26 129.671 118.532C130.121 116.8 130.915 115.346 132.012 114.157C133.202 112.862 134.775 111.963 136.716 111.448C138.673 110.932 141.898 110.669 146.378 110.669C150.846 110.669 154.043 110.932 155.957 111.448C157.887 111.963 159.445 112.862 160.635 114.157C161.732 115.346 162.526 116.8 162.976 118.532C163.425 120.264 163.65 123.039 163.65 126.856V153.429ZM149.935 155.316V125.004C149.935 123.403 149.699 122.333 149.222 121.791C148.745 121.248 147.808 120.973 146.393 120.973C144.951 120.973 143.987 121.252 143.514 121.791C143.037 122.333 142.801 123.403 142.801 125.004V155.316C142.801 156.94 143.037 158.025 143.514 158.552C143.99 159.079 144.955 159.347 146.393 159.347C147.808 159.347 148.745 159.083 149.222 158.552C149.695 158.025 149.935 156.944 149.935 155.316ZM178.5 149.995V155.25C178.5 156.742 178.802 157.8 179.399 158.42C179.992 159.04 181 159.347 182.426 159.347C183.972 159.347 185.014 159.056 185.557 158.463C186.099 157.866 186.375 156.746 186.375 155.091V151.022C186.375 149.794 186.297 148.872 186.138 148.279C186.138 148.275 186.138 148.275 186.138 148.271C185.995 147.678 185.731 147.155 185.379 146.694C185.375 146.69 185.371 146.686 185.371 146.682C184.483 145.628 182.464 144.744 179.298 144.058C177.845 143.741 176.725 143.477 175.931 143.241H175.927C172.203 142.183 169.653 140.702 168.25 138.8C166.862 136.897 166.161 133.909 166.161 129.828V124.515C166.161 119.361 167.165 115.769 169.161 113.719C171.156 111.684 174.617 110.665 179.546 110.665H183.511C186.603 110.665 189.142 110.928 191.137 111.459C193.118 111.986 194.676 112.835 195.815 113.994L195.819 113.998C196.729 114.897 197.35 116.044 197.722 117.443C198.078 118.83 198.264 121.062 198.264 124.128V128.259C198.264 128.437 198.121 128.58 197.942 128.58H186.708C186.53 128.58 186.386 128.437 186.386 128.259V124.984C186.386 123.174 186.15 121.973 185.673 121.376C185.185 120.783 184.22 120.493 182.74 120.493C181.313 120.493 180.349 120.772 179.845 121.326C179.341 121.88 179.093 122.911 179.093 124.445V128.158C179.093 130.972 181.496 132.979 186.305 134.196H186.309C187.669 134.564 188.75 134.855 189.556 135.095C193.242 136.126 195.78 137.579 197.156 139.427C198.543 141.291 199.229 144.237 199.229 148.267V156.01C199.229 160.819 198.094 164.268 195.807 166.396C193.521 168.512 189.793 169.566 184.642 169.566H181.073C175.392 169.566 171.493 168.601 169.366 166.659C167.238 164.729 166.169 161.149 166.169 155.928V149.988C166.169 149.809 166.312 149.666 166.49 149.666H178.19C178.353 149.674 178.5 149.821 178.5 149.995ZM29.7969 145.155H35.1565C35.2495 145.155 35.3309 145.12 35.3967 145.047C35.4588 144.977 35.4859 144.892 35.4781 144.799L32.9825 121.733C32.9631 121.57 32.8274 121.446 32.6608 121.446H32.4709C32.3081 121.446 32.1686 121.566 32.1492 121.729L29.4753 144.795C29.4637 144.888 29.4908 144.973 29.5567 145.047C29.6187 145.12 29.7 145.155 29.7969 145.155Z" fill="#17375F"/>
<mask id="mask16_2859_205" style="mask-type:luminance" maskUnits="userSpaceOnUse" x="14" y="109" width="187" height="60">
<path d="M14.2934 167.644L22.761 110.804C22.7842 110.646 22.9198 110.529 23.0787 110.529H43.9473C44.1061 110.529 44.2418 110.646 44.265 110.804L52.9535 167.644C52.969 167.74 52.9418 167.83 52.8798 167.903C52.8178 167.977 52.7326 168.016 52.6357 168.016H39.5798C39.4132 168.016 39.2775 167.892 39.2581 167.729L37.7351 154.188C37.7158 154.026 37.5801 153.902 37.4135 153.902H29.504C29.3374 153.902 29.2017 154.026 29.1823 154.188L27.6593 167.729C27.64 167.892 27.5043 168.016 27.3377 168.016H14.5996C14.5027 168.016 14.4174 167.977 14.3554 167.903C14.305 167.826 14.2779 167.737 14.2934 167.644ZM55.7282 110.529H68.4857C68.664 110.529 68.8074 110.673 68.8074 110.851V154.309C68.8074 155.909 69.0437 156.979 69.5088 157.521C69.9699 158.064 70.9233 158.339 72.3765 158.339C73.8026 158.339 74.756 158.06 75.2326 157.521C75.7093 156.979 75.9457 155.909 75.9457 154.309V110.851C75.9457 110.673 76.0891 110.529 76.2673 110.529H88.4668C88.6451 110.529 88.7884 110.673 88.7884 110.851V149.472C88.7884 153.964 88.552 157.254 88.087 159.331C87.6258 161.404 86.8585 163.175 85.7734 164.617C84.6109 166.124 83.0259 167.179 81.0301 167.802C79.0343 168.422 76.0348 168.729 72.0432 168.729C67.9587 168.729 64.9475 168.426 62.9905 167.802C61.0219 167.182 59.4756 166.124 58.3401 164.617C57.2822 163.23 56.5304 161.513 56.0808 159.463C55.6313 157.428 55.4065 154.099 55.4065 149.472V110.851C55.4065 110.673 55.5538 110.529 55.7282 110.529ZM113.587 153.487C113.587 151.503 113.218 150.143 112.49 149.391C111.75 148.639 110.362 148.267 108.355 148.267H106.456C106.278 148.267 106.134 148.41 106.134 148.589V167.686C106.134 167.864 105.991 168.008 105.813 168.008H93.059C92.8808 168.008 92.7374 167.864 92.7374 167.686V110.851C92.7374 110.673 92.8808 110.529 93.059 110.529H106.677C114.951 110.529 120.407 111.572 123.077 113.661C125.732 115.761 127.069 119.632 127.069 125.275V131.855C127.069 135.184 126.34 137.722 124.903 139.466C123.686 140.916 121.841 141.974 119.349 142.632C119.206 142.671 119.109 142.799 119.109 142.946C119.113 143.097 119.214 143.221 119.357 143.256C121.632 143.787 123.376 144.725 124.569 146.062C126.022 147.69 126.763 149.988 126.763 152.948V167.69C126.763 167.868 126.619 168.012 126.441 168.012H113.908C113.73 168.012 113.587 167.868 113.587 167.69V153.487ZM109.397 120.675H106.456C106.278 120.675 106.134 120.818 106.134 120.996V138.114C106.134 138.292 106.278 138.435 106.456 138.435H109.397C111.13 138.435 112.292 138.145 112.874 137.563C113.455 136.982 113.746 135.913 113.746 134.339V124.81C113.746 123.209 113.455 122.128 112.874 121.547C112.292 120.965 111.13 120.675 109.397 120.675ZM164.644 152.576C164.644 156.529 164.419 159.343 163.981 161.032C163.543 162.726 162.78 164.152 161.695 165.314C160.532 166.582 159.079 167.469 157.319 167.969C155.576 168.473 152.258 168.721 147.368 168.721C142.465 168.721 139.137 168.469 137.389 167.969C135.629 167.465 134.165 166.582 133.002 165.314C131.917 164.125 131.153 162.66 130.688 160.916C130.227 159.172 129.987 156.397 129.987 152.576V126.003C129.987 122.186 130.212 119.408 130.661 117.679C131.111 115.947 131.905 114.494 133.002 113.304C134.192 112.01 135.765 111.111 137.707 110.595C139.664 110.08 142.888 109.816 147.368 109.816C151.836 109.816 155.033 110.08 156.947 110.595C158.877 111.111 160.435 112.01 161.625 113.304C162.722 114.494 163.516 115.947 163.966 117.679C164.415 119.411 164.64 122.186 164.64 126.003V152.576H164.644ZM150.925 154.468V124.155C150.925 122.554 150.689 121.485 150.212 120.942C149.735 120.4 148.798 120.125 147.383 120.125C145.942 120.125 144.977 120.404 144.504 120.942C144.027 121.485 143.791 122.554 143.791 124.155V154.468C143.791 156.091 144.027 157.176 144.504 157.703C144.98 158.23 145.945 158.498 147.383 158.498C148.798 158.498 149.735 158.234 150.212 157.703C150.689 157.176 150.925 156.091 150.925 154.468ZM179.49 149.147V154.402C179.49 155.894 179.792 156.952 180.389 157.572C180.982 158.192 181.99 158.498 183.416 158.498C184.962 158.498 186.004 158.207 186.547 157.614C187.09 157.017 187.365 155.898 187.365 154.243V150.174C187.365 148.949 187.287 148.023 187.128 147.43C187.128 147.426 187.128 147.426 187.128 147.422C186.985 146.829 186.721 146.306 186.369 145.845C186.365 145.841 186.365 145.837 186.361 145.833C185.474 144.779 183.455 143.896 180.288 143.21C178.835 142.892 177.715 142.628 176.921 142.392H176.917C173.193 141.334 170.643 139.854 169.24 137.951C167.853 136.048 167.151 133.06 167.151 128.98V123.667C167.151 118.512 168.155 114.92 170.151 112.87C172.146 110.835 175.607 109.816 180.536 109.816H184.501C187.593 109.816 190.132 110.08 192.127 110.611C194.108 111.138 195.666 111.986 196.805 113.145L196.809 113.149C197.72 114.048 198.34 115.195 198.712 116.594C199.068 117.981 199.254 120.214 199.254 123.279V127.41C199.254 127.588 199.111 127.732 198.933 127.732H187.686C187.508 127.732 187.365 127.588 187.365 127.41V124.139C187.365 122.33 187.128 121.128 186.652 120.531C186.163 119.939 185.198 119.648 183.718 119.648C182.292 119.648 181.327 119.927 180.823 120.481C180.319 121.035 180.071 122.066 180.071 123.601V127.313C180.071 130.127 182.474 132.134 187.283 133.351C187.287 133.351 187.287 133.351 187.287 133.351C188.647 133.719 189.729 134.01 190.535 134.25C194.22 135.281 196.758 136.734 198.134 138.583C199.522 140.447 200.207 143.392 200.207 147.422V155.165C200.207 159.974 199.072 163.423 196.786 165.551C194.499 167.667 190.775 168.721 185.621 168.721H182.052C176.37 168.721 172.472 167.756 170.344 165.814C168.217 163.885 167.147 160.304 167.147 155.084V149.143C167.147 148.965 167.291 148.821 167.469 148.821H179.168C179.347 148.825 179.49 148.968 179.49 149.147ZM30.7867 144.303H36.1463C36.2393 144.303 36.3207 144.268 36.3865 144.194C36.4485 144.124 36.4757 144.039 36.4679 143.946L33.9722 120.88C33.9528 120.717 33.8172 120.593 33.6506 120.593H33.4607C33.2979 120.593 33.1584 120.714 33.139 120.876L30.4651 143.942C30.4534 144.035 30.4806 144.12 30.5426 144.194C30.6085 144.268 30.6898 144.303 30.7867 144.303Z" fill="white"/>
</mask>
<g mask="url(#mask16_2859_205)">
<path d="M200.21 109.812H14.2773V168.725H200.21V109.812Z" fill="#17375F"/>
</g>
<mask id="mask17_2859_205" style="mask-type:luminance" maskUnits="userSpaceOnUse" x="16" y="111" width="183" height="57">
<path d="M28.7223 145.016L31.6598 119.698C31.7063 119.291 32.0473 118.985 32.4581 118.985H34.6631C35.0778 118.985 35.4188 119.291 35.4614 119.702L38.2013 145.019C38.2284 145.256 38.1587 145.469 37.9998 145.643C37.8409 145.818 37.6394 145.911 37.3991 145.911H29.5206C29.2842 145.911 29.0788 145.818 28.9199 145.64C28.7649 145.465 28.6952 145.252 28.7223 145.016ZM17.0382 166.403H25.4786C25.8894 166.403 26.2305 166.097 26.277 165.69L27.7031 153.006C27.7496 152.596 28.0906 152.293 28.5014 152.293H38.4222C38.833 152.293 39.174 152.6 39.2205 153.006L40.6466 165.69C40.6931 166.101 41.0341 166.403 41.4449 166.403H50.1915C50.4356 166.403 50.6449 166.307 50.7999 166.124C50.9588 165.938 51.0208 165.717 50.9859 165.477L42.9447 112.82C42.8826 112.424 42.5494 112.137 42.1502 112.137H24.8818C24.4788 112.137 24.1455 112.428 24.0874 112.823L16.2438 165.477C16.2089 165.717 16.2709 165.938 16.4298 166.121C16.5887 166.307 16.7941 166.403 17.0382 166.403ZM57.0198 112.94V149.468C57.0198 151.418 57.0546 153.379 57.1864 155.328C57.2717 156.572 57.3879 157.893 57.6592 159.114C58.0157 160.734 58.6203 162.311 59.6279 163.64C60.6161 164.946 61.9259 165.772 63.4838 166.264C65.9446 167.043 69.4828 167.113 72.0521 167.113C74.633 167.113 78.0821 167.031 80.5584 166.26C82.1279 165.772 83.4959 164.954 84.4996 163.636C85.5343 162.276 86.1505 160.633 86.5225 158.974C86.7938 157.75 86.9216 156.436 87.0108 155.188C87.1464 153.289 87.1852 151.371 87.1852 149.468V112.94C87.1852 112.498 86.8248 112.134 86.3791 112.134H78.3611C77.9193 112.134 77.555 112.494 77.555 112.94V154.309C77.555 155.708 77.4078 157.482 76.4428 158.583C75.4507 159.715 73.8037 159.951 72.3776 159.951C70.9476 159.951 69.2735 159.722 68.2853 158.568C67.3436 157.467 67.2002 155.7 67.2002 154.312V112.94C67.2002 112.498 66.8398 112.134 66.3941 112.134H57.822C57.3802 112.137 57.0198 112.498 57.0198 112.94ZM114.01 138.703C112.859 139.854 110.941 140.047 109.398 140.047H105.329C104.888 140.047 104.523 139.687 104.523 139.241V119.873C104.523 119.431 104.884 119.067 105.329 119.067H109.398C110.941 119.067 112.863 119.26 114.01 120.411C115.13 121.531 115.355 123.302 115.355 124.814V134.343C115.355 135.843 115.126 137.587 114.01 138.703ZM94.3429 112.94V165.597C94.3429 166.039 94.7033 166.403 95.1489 166.403H103.721C104.163 166.403 104.527 166.043 104.527 165.597V147.465C104.527 147.023 104.888 146.659 105.333 146.659H108.36C110.154 146.659 112.328 146.914 113.65 148.267C114.948 149.6 115.204 151.712 115.204 153.487V165.597C115.204 166.039 115.564 166.403 116.01 166.403H124.357C124.799 166.403 125.163 166.043 125.163 165.597V152.944C125.163 150.906 124.783 148.701 123.381 147.132C121.951 145.535 119.66 144.857 117.61 144.562C117.602 144.562 117.599 144.562 117.591 144.558C115.645 144.229 115.603 141.698 117.54 141.384C119.707 140.989 122.214 140.191 123.675 138.435C125.136 136.68 125.469 134.052 125.469 131.855V125.275C125.469 121.884 124.981 117.195 122.094 114.924C118.827 112.355 110.639 112.137 106.69 112.137H95.1605C94.7071 112.137 94.3429 112.498 94.3429 112.94ZM152.534 154.467C152.534 155.874 152.395 157.688 151.407 158.781C150.415 159.885 148.787 160.106 147.384 160.106C145.974 160.106 144.307 159.893 143.307 158.781C142.323 157.684 142.18 155.87 142.18 154.467V124.155C142.18 122.756 142.327 120.981 143.292 119.88C144.288 118.745 145.954 118.512 147.38 118.512C148.799 118.512 150.426 118.753 151.418 119.88C152.383 120.981 152.531 122.752 152.531 124.155V154.467H152.534ZM163.033 152.576V126.003C163.033 124.403 162.998 122.787 162.87 121.186C162.789 120.167 162.668 119.074 162.413 118.082C162.052 116.699 161.421 115.451 160.448 114.393C159.39 113.242 158.034 112.548 156.538 112.149C155.414 111.847 154.147 111.711 152.988 111.614C151.128 111.463 149.24 111.424 147.373 111.424C145.493 111.424 143.598 111.463 141.726 111.614C140.548 111.711 139.269 111.847 138.126 112.149C136.626 112.544 135.254 113.238 134.197 114.393C133.224 115.447 132.592 116.695 132.232 118.082C131.976 119.074 131.856 120.167 131.774 121.186C131.647 122.783 131.612 124.399 131.612 126.003V152.576C131.612 154.177 131.647 155.793 131.782 157.389C131.867 158.413 131.995 159.509 132.259 160.505C132.627 161.889 133.235 163.171 134.204 164.233C135.2 165.322 136.433 166.024 137.847 166.427C138.913 166.733 140.226 166.849 141.331 166.934C143.338 167.085 145.369 167.12 147.38 167.12C149.384 167.12 151.414 167.089 153.414 166.934C154.519 166.849 155.825 166.733 156.89 166.427C158.309 166.02 159.526 165.311 160.525 164.225C161.475 163.199 162.087 161.986 162.436 160.633C162.692 159.645 162.804 158.54 162.885 157.529C163.002 155.886 163.033 154.223 163.033 152.576ZM177.077 150.433H169.563C169.121 150.433 168.756 150.794 168.756 151.239V155.091C168.756 158.009 169.101 162.513 171.427 164.632C173.849 166.834 178.976 167.12 182.053 167.12H185.622C188.858 167.12 193.198 166.694 195.694 164.377C198.112 162.133 198.6 158.289 198.6 155.169V147.426C198.6 145.008 198.344 141.567 196.845 139.548C195.38 137.579 192.369 136.443 190.102 135.8C189.028 135.498 187.951 135.199 186.901 134.917C186.897 134.917 186.893 134.913 186.885 134.913C183.068 133.948 178.464 131.917 178.464 127.313V123.601C178.464 122.186 178.642 120.497 179.634 119.404C180.65 118.284 182.289 118.043 183.723 118.043C185.211 118.043 186.908 118.295 187.908 119.524C188.865 120.706 188.982 122.686 188.982 124.143V125.325C188.982 125.767 189.342 126.131 189.788 126.131H196.841C197.283 126.131 197.647 125.771 197.647 125.325V123.287C197.647 121.411 197.631 118.826 197.159 117.005C196.891 115.982 196.442 115.044 195.682 114.296L195.659 114.273C194.601 113.188 193.163 112.552 191.718 112.165C189.443 111.56 186.85 111.424 184.506 111.424H180.541C177.646 111.424 173.465 111.785 171.306 113.994C169.101 116.249 168.764 120.706 168.764 123.667V128.98C168.764 131.448 169.028 134.932 170.539 137.001C172.019 139.024 175.046 140.183 177.364 140.846C178.437 141.152 179.541 141.404 180.63 141.64C182.847 142.121 186.083 142.997 187.602 144.81L187.614 144.826C187.621 144.833 187.625 144.841 187.633 144.849L187.645 144.864C188.145 145.512 188.501 146.248 188.691 147.011C188.691 147.015 188.695 147.019 188.695 147.027C188.951 147.996 188.986 149.182 188.986 150.181V154.25C188.986 155.739 188.796 157.552 187.746 158.703C186.676 159.877 184.928 160.114 183.425 160.114C181.925 160.114 180.317 159.823 179.235 158.692C178.158 157.564 177.891 155.909 177.891 154.405V151.243C177.883 150.794 177.519 150.433 177.077 150.433Z" fill="white"/>
</mask>
<g mask="url(#mask17_2859_205)">
<path d="M198.598 111.424H16.2031V167.116H198.598V111.424Z" fill="#17375F"/>
</g>
<mask id="mask18_2859_205" style="mask-type:luminance" maskUnits="userSpaceOnUse" x="33" y="90" width="176" height="15">
<path d="M40.9952 100.922C47.4011 101.488 53.9 101.666 60.3485 101.616C67.6573 101.562 74.9739 101.221 82.2439 100.713C98.8496 99.5506 115.444 97.5277 131.805 95.2374C145.408 93.3346 159.343 91.769 173.194 91.149C182.835 90.7149 193 90.711 202.545 91.8775L203.89 92.0403L208.583 93.4625L203.51 93.9353L202.154 93.8345C197.151 93.4586 192.078 93.3656 187.048 93.4354C181.049 93.5206 175.05 93.8345 169.086 94.2918C154.243 95.4273 139.401 97.4114 124.845 99.7134L124.807 99.7172C115.959 100.942 107.069 102.035 98.1366 102.91C90.4867 103.658 82.7787 104.255 75.0669 104.565C68.661 104.821 62.1815 104.891 55.7795 104.585C50.6408 104.337 45.3937 103.84 40.4333 102.852L39.1777 102.6L36.0193 101.461L33.5391 100.097L39.7047 100.806L40.9952 100.922Z" fill="white"/>
</mask>
<g mask="url(#mask18_2859_205)">
<path d="M208.579 90.7073H33.5352V104.891H208.579V90.7073Z" fill="#17375F"/>
</g>
<path fill-rule="evenodd" clip-rule="evenodd" d="M124.534 98.7483C86.7505 103.98 58.0964 105.348 40.8203 101.903C65.0332 104.046 97.0278 101.12 132.08 96.2061C164 91.7495 186.632 90.9318 202.304 92.8501C183.811 91.455 157.726 93.4973 124.534 98.7483Z" fill="#17375F"/>
<mask id="mask19_2859_205" style="mask-type:luminance" maskUnits="userSpaceOnUse" x="0" y="83" width="209" height="17">
<path d="M6.2912 84.6382C12.174 86.5216 18.4791 87.847 24.7842 88.8274C32.6317 90.0443 40.6807 90.7573 48.691 91.172C58.4722 91.6758 68.3272 91.7417 78.1278 91.5479C89.8429 91.3115 101.558 90.6992 113.215 89.8466C122.961 89.1336 132.727 88.5097 142.504 88.0485C150.813 87.661 159.152 87.3858 167.48 87.3587C174.192 87.3354 180.986 87.4633 187.663 87.9671C192.635 88.343 197.886 88.9398 202.618 90.0985L203.881 90.4086L208.869 92.5245L203.133 92.2067L201.831 91.9935C196.2 91.0635 190.116 90.7728 184.346 90.7031C176.746 90.6139 169.081 90.9278 161.516 91.4045C152.44 91.9781 143.384 92.8074 134.374 93.7568C124.186 94.8303 114.028 96.0704 103.898 97.3957L103.863 97.3996L103.829 97.4035C92.916 98.4382 81.8713 99.1009 70.8577 99.128C61.805 99.1512 52.6903 98.7406 43.7693 97.6516C29.702 95.9348 16.1965 92.5128 4.84184 86.3201L3.85364 85.7814L0.199219 83.123L5.15187 84.2778L6.2912 84.6382Z" fill="white"/>
</mask>
<g mask="url(#mask19_2859_205)">
<path d="M208.873 83.1152H0.199219V99.1435H208.873V83.1152Z" fill="#17375F"/>
</g>
<mask id="mask20_2859_205" style="mask-type:luminance" maskUnits="userSpaceOnUse" x="5" y="85" width="198" height="14">
<path d="M103.644 96.4193C55.6907 100.969 25.2231 96.179 5.71094 85.5374C27.246 92.4316 62.6198 94.377 113.367 90.8272C154.995 87.6223 186.455 87.1844 202.162 91.0287C182.328 87.7579 146.117 90.8698 103.644 96.4193Z" fill="white"/>
</mask>
<g mask="url(#mask20_2859_205)">
<path d="M202.157 85.5374H5.70703V100.969H202.157V85.5374Z" fill="#17375F"/>
</g>
</g>
<defs>
<clipPath id="clip0_2859_205">
<rect width="209" height="191" fill="white"/>
</clipPath>
</defs>
</svg>
