<svg width="309" height="81" viewBox="0 0 309 81" fill="none" xmlns="http://www.w3.org/2000/svg">
<path fill-rule="evenodd" clip-rule="evenodd" d="M165.863 54.023L172.347 10.4951C172.365 10.3734 172.469 10.2844 172.59 10.2844L188.557 10.2606C188.679 10.2606 188.78 10.3467 188.8 10.4654L196.249 53.5126C196.264 53.6046 196.232 53.6877 196.16 53.747L195.564 54.2278C195.519 54.2634 195.469 54.2812 195.409 54.2812L185.23 54.305C185.102 54.305 184.999 54.213 184.984 54.0854L183.817 43.716C183.803 43.5914 183.699 43.4964 183.571 43.4964H177.532C177.401 43.4964 177.291 43.6003 177.285 43.7309L176.846 53.5452C176.843 53.6165 176.814 53.6758 176.76 53.7203L176.149 54.2426C176.101 54.2812 176.051 54.302 175.989 54.302H166.106C166.032 54.302 165.966 54.2723 165.919 54.2159C165.871 54.1655 165.854 54.0972 165.863 54.023ZM197.597 10.2844H207.367C207.503 10.2844 207.613 10.3942 207.613 10.5307V43.811C207.613 45.0367 207.794 45.8558 208.15 46.2713C208.503 46.6868 209.233 46.8975 210.346 46.8975C211.438 46.8975 212.168 46.6838 212.533 46.2713C212.898 45.8558 213.079 45.0367 213.079 43.811V10.5307C213.079 10.3942 213.189 10.2844 213.326 10.2844H222.668C222.805 10.2844 222.915 10.3942 222.915 10.5307V40.1073C222.915 43.5469 222.734 46.0665 222.377 47.6572C222.024 49.245 221.437 50.6012 220.606 51.7052C219.715 52.8597 218.502 53.6699 216.973 54.1447C215.445 54.6196 213.148 54.854 210.091 54.854C206.963 54.854 204.657 54.6225 203.158 54.1447C201.651 53.6699 200.467 52.8597 199.597 51.7052C198.787 50.6428 198.211 49.3281 197.867 47.7581C197.523 46.2001 197.35 43.6508 197.35 40.1073V10.5307C197.35 10.3971 197.46 10.2844 197.597 10.2844ZM241.905 43.1848C241.905 41.6683 241.623 40.6236 241.065 40.0479C240.498 39.4722 239.436 39.1873 237.899 39.1873H236.445C236.308 39.1873 236.198 39.2971 236.198 39.4336V54.0586C236.198 54.1952 236.088 54.305 235.952 54.305H226.182C226.046 54.305 225.936 54.1952 225.936 54.0586V10.5307C225.936 10.3942 226.046 10.2844 226.182 10.2844H236.611C242.947 10.2844 247.125 11.0827 249.17 12.6823C251.203 14.2908 252.227 17.2556 252.227 21.5766V26.6159C252.227 29.1652 251.669 31.109 250.568 32.4445C249.636 33.5545 248.224 34.3647 246.315 34.8692C246.205 34.8989 246.131 34.9968 246.131 35.1096C246.134 35.2253 246.211 35.3203 246.321 35.347C248.063 35.7536 249.399 36.4718 250.313 37.4956C251.426 38.7391 251.993 40.502 251.993 42.7693V54.0586C251.993 54.1952 251.883 54.305 251.746 54.305H242.149C242.012 54.305 241.902 54.1952 241.902 54.0586V43.1848H241.905ZM238.697 18.0569H236.445C236.308 18.0569 236.198 18.1667 236.198 18.3032V31.4118C236.198 31.5483 236.308 31.6581 236.445 31.6581H238.697C240.024 31.6581 240.914 31.4355 241.359 30.9903C241.804 30.5452 242.027 29.7261 242.027 28.5212V21.2235C242.027 19.9978 241.804 19.1698 241.359 18.7246C240.911 18.2795 240.021 18.0569 238.697 18.0569ZM281.002 42.4874C281.002 45.5145 280.83 47.6691 280.495 48.963C280.16 50.2599 279.575 51.3521 278.744 52.2424C277.854 53.2128 276.741 53.8925 275.393 54.2753C274.058 54.6611 271.517 54.851 267.772 54.851C264.018 54.851 261.469 54.6581 260.133 54.2753C258.786 53.8895 257.664 53.2128 256.774 52.2424C255.943 51.3313 255.358 50.2095 255.002 48.874C254.649 47.5385 254.465 45.4136 254.465 42.4874V22.1375C254.465 19.2143 254.637 17.0864 254.981 15.7628C255.325 14.4362 255.934 13.3233 256.774 12.4122C257.685 11.421 258.89 10.7325 260.376 10.3378C261.875 9.94306 264.344 9.74125 267.775 9.74125C271.197 9.74125 273.645 9.94306 275.111 10.3378C276.589 10.7325 277.782 11.421 278.693 12.4122C279.533 13.3233 280.142 14.4362 280.486 15.7628C280.83 17.0894 281.002 19.2143 281.002 22.1375V42.4874ZM270.499 43.9327V20.719C270.499 19.4933 270.318 18.6742 269.953 18.2587C269.588 17.8432 268.87 17.6325 267.787 17.6325C266.683 17.6325 265.944 17.8462 265.582 18.2587C265.217 18.6742 265.036 19.4933 265.036 20.719V43.9327C265.036 45.1762 265.217 46.0072 265.582 46.4108C265.947 46.8144 266.686 47.0192 267.787 47.0192C268.87 47.0192 269.588 46.8174 269.953 46.4108C270.315 46.0072 270.499 45.1791 270.499 43.9327ZM292.375 39.858V43.8822C292.375 45.0248 292.606 45.835 293.063 46.3099C293.517 46.7847 294.289 47.0192 295.381 47.0192C296.565 47.0192 297.364 46.7966 297.779 46.3425C298.195 45.8855 298.405 45.0278 298.405 43.7606V40.6444C298.405 39.7036 298.346 38.9973 298.224 38.5433C298.224 38.5403 298.224 38.5403 298.224 38.5373C298.114 38.0833 297.913 37.6826 297.643 37.3294C297.64 37.3265 297.637 37.3235 297.637 37.3205C296.957 36.5133 295.411 35.8367 292.986 35.3114C291.873 35.068 291.016 34.8662 290.407 34.6852H290.404C287.552 33.875 285.599 32.7413 284.525 31.2841C283.463 29.827 282.925 27.5388 282.925 24.4138V20.345C282.925 16.3979 283.694 13.6468 285.222 12.0769C286.751 10.5188 289.401 9.73828 293.176 9.73828H296.212C298.58 9.73828 300.524 9.94009 302.053 10.3467C303.569 10.7503 304.762 11.4002 305.635 12.2876L305.638 12.2905C306.335 12.9791 306.81 13.8575 307.095 14.9289C307.368 15.9913 307.51 17.7008 307.51 20.0482V23.2119C307.51 23.3484 307.4 23.4582 307.264 23.4582H298.66C298.524 23.4582 298.414 23.3484 298.414 23.2119V20.7041C298.414 19.3182 298.233 18.3982 297.868 17.9411C297.494 17.4871 296.755 17.2645 295.621 17.2645C294.529 17.2645 293.79 17.4782 293.405 17.9026C293.019 18.327 292.829 19.1164 292.829 20.2916V23.1347C292.829 25.2893 294.669 26.8266 298.352 27.7585H298.355C299.396 28.0404 300.224 28.263 300.842 28.447C303.664 29.2364 305.608 30.3493 306.661 31.7649C307.724 33.1924 308.249 35.4479 308.249 38.5344V44.4639C308.249 48.1469 307.38 50.7882 305.629 52.4175C303.878 54.0379 301.023 54.8451 297.079 54.8451H294.345C289.995 54.8451 287.009 54.1061 285.38 52.6193C283.75 51.1414 282.931 48.3992 282.931 44.4016V39.852C282.931 39.7155 283.041 39.6057 283.178 39.6057H292.137C292.262 39.6116 292.375 39.7244 292.375 39.858ZM178.496 36.1512H182.601C182.672 36.1512 182.734 36.1245 182.785 36.0682C182.832 36.0147 182.853 35.9494 182.847 35.8782L180.936 18.2142C180.921 18.0895 180.817 17.9946 180.689 17.9946H180.544C180.419 17.9946 180.313 18.0866 180.298 18.2112L178.25 35.8753C178.241 35.9465 178.262 36.0118 178.312 36.0682C178.36 36.1245 178.422 36.1512 178.496 36.1512Z" fill="white"/>
<mask id="mask0_838_141" style="mask-type:luminance" maskUnits="userSpaceOnUse" x="166" y="9" width="143" height="46">
<path d="M166.625 53.3729L173.11 9.84491C173.127 9.72323 173.231 9.6342 173.353 9.6342H189.334C189.456 9.6342 189.56 9.72323 189.578 9.84491L196.231 53.3729C196.243 53.4471 196.223 53.5154 196.175 53.5717C196.128 53.6281 196.062 53.6578 195.988 53.6578H185.99C185.862 53.6578 185.758 53.5628 185.743 53.4382L184.577 43.0689C184.562 42.9442 184.458 42.8493 184.331 42.8493H178.274C178.146 42.8493 178.042 42.9442 178.027 43.0689L176.861 53.4382C176.846 53.5628 176.742 53.6578 176.615 53.6578H166.86C166.785 53.6578 166.72 53.6281 166.673 53.5717C166.634 53.5124 166.613 53.4441 166.625 53.3729ZM198.356 9.6342H208.126C208.263 9.6342 208.372 9.744 208.372 9.88052V43.1609C208.372 44.3865 208.554 45.2056 208.91 45.6211C209.263 46.0366 209.993 46.2473 211.106 46.2473C212.198 46.2473 212.928 46.0336 213.293 45.6211C213.658 45.2056 213.839 44.3865 213.839 43.1609V9.88052C213.839 9.744 213.949 9.6342 214.085 9.6342H223.428C223.564 9.6342 223.674 9.744 223.674 9.88052V39.4571C223.674 42.8967 223.493 45.4163 223.137 47.0071C222.784 48.5948 222.196 49.9511 221.365 51.0551C220.475 52.2095 219.261 53.0168 217.733 53.4946C216.204 53.9694 213.907 54.2038 210.851 54.2038C207.723 54.2038 205.417 53.9724 203.918 53.4946C202.41 53.0197 201.226 52.2095 200.357 51.0551C199.546 49.9926 198.971 48.6779 198.626 47.108C198.282 45.5499 198.11 43.0006 198.11 39.4571V9.88052C198.11 9.744 198.223 9.6342 198.356 9.6342ZM242.665 42.5317C242.665 41.0122 242.383 39.9705 241.825 39.3948C241.258 38.819 240.196 38.5341 238.658 38.5341H237.204C237.068 38.5341 236.958 38.6439 236.958 38.7805V53.4055C236.958 53.542 236.848 53.6519 236.712 53.6519H226.945C226.808 53.6519 226.698 53.542 226.698 53.4055V9.88052C226.698 9.744 226.808 9.6342 226.945 9.6342H237.373C243.709 9.6342 247.888 10.4325 249.933 12.0321C251.966 13.6407 252.99 16.6054 252.99 20.9265V25.9657C252.99 28.515 252.432 30.4589 251.331 31.7944C250.399 32.9043 248.986 33.7145 247.078 34.219C246.968 34.2487 246.894 34.3466 246.894 34.4594C246.897 34.5752 246.974 34.6701 247.084 34.6968C248.826 35.1034 250.161 35.8216 251.075 36.8455C252.188 38.092 252.755 39.8518 252.755 42.1192V53.4085C252.755 53.545 252.645 53.6548 252.509 53.6548H242.911C242.775 53.6548 242.665 53.545 242.665 53.4085V42.5317ZM239.457 17.4038H237.204C237.068 17.4038 236.958 17.5136 236.958 17.6501V30.7586C236.958 30.8952 237.068 31.005 237.204 31.005H239.457C240.783 31.005 241.674 30.7824 242.119 30.3372C242.564 29.8921 242.787 29.073 242.787 27.8681V20.5703C242.787 19.3447 242.564 18.5167 242.119 18.0715C241.674 17.6263 240.783 17.4038 239.457 17.4038ZM281.765 41.8343C281.765 44.8614 281.593 47.016 281.257 48.3099C280.922 49.6068 280.337 50.6989 279.506 51.5893C278.616 52.5597 277.503 53.2393 276.156 53.6222C274.82 54.008 272.28 54.1979 268.535 54.1979C264.781 54.1979 262.231 54.005 260.893 53.6222C259.545 53.2364 258.424 52.5597 257.533 51.5893C256.702 50.6782 256.118 49.5564 255.762 48.2209C255.408 46.8854 255.224 44.7605 255.224 41.8343V21.4844C255.224 18.5612 255.396 16.4333 255.741 15.1097C256.085 13.7831 256.693 12.6702 257.533 11.7591C258.444 10.7679 259.649 10.0794 261.136 9.68465C262.635 9.28994 265.104 9.08813 268.535 9.08813C271.957 9.08813 274.405 9.28994 275.871 9.68465C277.349 10.0794 278.542 10.7679 279.453 11.7591C280.293 12.6702 280.901 13.7831 281.246 15.1097C281.59 16.4363 281.762 18.5612 281.762 21.4844V41.8343H281.765ZM271.259 43.2825V20.0688C271.259 18.8431 271.078 18.024 270.713 17.6085C270.348 17.1931 269.63 16.9823 268.547 16.9823C267.443 16.9823 266.704 17.196 266.342 17.6085C265.977 18.024 265.795 18.8431 265.795 20.0688V43.2825C265.795 44.526 265.977 45.357 266.342 45.7606C266.707 46.1642 267.446 46.369 268.547 46.369C269.63 46.369 270.348 46.1672 270.713 45.7606C271.078 45.357 271.259 44.526 271.259 43.2825ZM293.134 39.2078V43.2321C293.134 44.3747 293.366 45.1849 293.823 45.6597C294.277 46.1345 295.049 46.369 296.141 46.369C297.325 46.369 298.123 46.1464 298.539 45.6923C298.954 45.2353 299.165 44.3776 299.165 43.1104V39.9943C299.165 39.0565 299.105 38.3472 298.984 37.8931C298.984 37.8901 298.984 37.8901 298.984 37.8872C298.874 37.4331 298.672 37.0325 298.402 36.6793C298.399 36.6763 298.399 36.6734 298.396 36.6704C297.717 35.8632 296.17 35.1865 293.746 34.6612C292.633 34.4179 291.775 34.2161 291.167 34.035H291.164C288.312 33.2248 286.359 32.0912 285.285 30.634C284.222 29.1768 283.685 26.8887 283.685 23.7637V19.6949C283.685 15.7478 284.454 12.9967 285.982 11.4267C287.51 9.86865 290.161 9.08813 293.936 9.08813H296.972C299.34 9.08813 301.284 9.28994 302.812 9.69652C304.329 10.1001 305.522 10.7501 306.394 11.6374L306.397 11.6404C307.095 12.3289 307.57 13.2074 307.854 14.2787C308.127 15.3412 308.27 17.0506 308.27 19.3981V22.5617C308.27 22.6982 308.16 22.808 308.024 22.808H299.411C299.275 22.808 299.165 22.6982 299.165 22.5617V20.0569C299.165 18.671 298.984 17.751 298.619 17.294C298.245 16.8399 297.506 16.6173 296.372 16.6173C295.28 16.6173 294.541 16.831 294.155 17.2554C293.769 17.6798 293.58 18.4692 293.58 19.6444V22.4875C293.58 24.6421 295.42 26.1794 299.103 27.1113C299.105 27.1113 299.105 27.1113 299.105 27.1113C300.147 27.3932 300.975 27.6158 301.592 27.7998C304.415 28.5892 306.359 29.7021 307.412 31.1177C308.475 32.5452 309 34.8007 309 37.8872V43.8167C309 47.4997 308.13 50.141 306.379 51.7703C304.628 53.3907 301.776 54.1979 297.829 54.1979H295.096C290.745 54.1979 287.76 53.459 286.13 51.9721C284.501 50.4942 283.682 47.752 283.682 43.7544V39.2049C283.682 39.0683 283.792 38.9585 283.928 38.9585H292.888C293.025 38.9615 293.134 39.0713 293.134 39.2078ZM179.256 35.4981H183.36C183.432 35.4981 183.494 35.4714 183.544 35.415C183.592 35.3616 183.613 35.2963 183.607 35.2251L181.695 17.5611C181.681 17.4364 181.577 17.3414 181.449 17.3414H181.304C181.179 17.3414 181.072 17.4334 181.057 17.5581L179.01 35.2221C179.001 35.2934 179.021 35.3587 179.069 35.415C179.119 35.4714 179.182 35.4981 179.256 35.4981Z" fill="white"/>
</mask>
<g mask="url(#mask0_838_141)">
<path d="M309.003 9.08521H166.613V54.2009H309.003V9.08521Z" fill="white"/>
</g>
<mask id="mask1_838_141" style="mask-type:luminance" maskUnits="userSpaceOnUse" x="168" y="60" width="141" height="12">
<path d="M306.498 69.4641H303.346L302.759 71.1794H301.578L304.459 63.3683H305.391L308.273 71.1794H307.092L306.498 69.4641ZM299.583 71.1794H298.488V63.3683H299.583V71.1794ZM291.6 63.3624H293.603C294.054 63.3624 294.449 63.4544 294.793 63.6443C295.135 63.8283 295.402 64.0925 295.589 64.4367C295.779 64.778 295.871 65.1727 295.871 65.6209C295.871 66.069 295.776 66.4637 295.586 66.805C295.396 67.1463 295.129 67.4104 294.787 67.5974C294.663 67.6656 294.532 67.7191 294.396 67.7606L296.197 71.1794H294.897L293.229 67.8763H291.597V71.1794H290.502V63.3624H290.98H291.6ZM291.6 66.8347H293.645C293.853 66.8347 294.037 66.7842 294.2 66.6833C294.36 66.5824 294.485 66.44 294.574 66.256C294.66 66.072 294.704 65.8612 294.704 65.6209C294.704 65.3805 294.66 65.1668 294.574 64.9858C294.485 64.8017 294.36 64.6563 294.203 64.5584C294.045 64.4575 293.858 64.407 293.648 64.407H291.603V66.8347H291.6ZM284.658 62.199L286.142 60.8813L286.849 61.6174L285.264 62.8312L284.658 62.199ZM286.38 68.4224L285.16 64.8759L283.943 68.4224H286.38ZM284.697 63.3683H285.629L288.511 71.1794H287.329L286.742 69.4641H283.59L283.002 71.1794H281.821L284.697 63.3683ZM279.824 71.1794H278.729V63.3683H279.824V71.1794ZM271.609 63.3683H272.704V70.1378H276.625V71.1794H272.704H272.155H271.606V63.3683H271.609ZM268.864 71.1794H267.769V63.3683H268.864V71.1794ZM260.946 63.3683H262.935C263.439 63.3683 263.863 63.4544 264.202 63.6265C264.543 63.7986 264.798 64.042 264.967 64.3566C265.134 64.6712 265.22 65.0481 265.22 65.4873C265.22 65.7544 265.169 66.0067 265.062 66.2411C264.959 66.4756 264.801 66.6744 264.588 66.8436C264.374 67.0098 264.11 67.1225 263.795 67.1789C264.11 67.2264 264.383 67.3392 264.611 67.5143C264.84 67.6923 265.018 67.9149 265.137 68.1791C265.258 68.4461 265.321 68.7311 265.321 69.0397V69.0575C265.321 69.4789 265.226 69.8499 265.039 70.1734C264.855 70.4969 264.585 70.7461 264.24 70.9183C263.893 71.0934 263.49 71.1824 263.027 71.1824H260.946H260.501H259.857V63.3713H260.501H260.946V63.3683ZM260.946 66.6774H262.887C263.291 66.6774 263.596 66.5824 263.801 66.3925C264.009 66.2025 264.11 65.9206 264.11 65.5496C264.11 65.1579 263.994 64.867 263.766 64.6741C263.537 64.4812 263.193 64.3833 262.736 64.3833H260.946V66.6774ZM260.946 70.1645H262.617C263.172 70.1645 263.579 70.0606 263.831 69.8469C264.086 69.6362 264.214 69.3394 264.214 68.9566V68.9388C264.214 68.6747 264.169 68.4462 264.077 68.2562C263.985 68.0663 263.84 67.9209 263.644 67.817C263.445 67.7161 263.196 67.6656 262.887 67.6656H260.946V70.1645ZM254.524 71.2596C253.981 71.2596 253.5 71.1409 253.082 70.9005C252.666 70.6631 252.346 70.3277 252.12 69.8914C251.892 69.4582 251.779 68.9536 251.779 68.3809V66.1669C251.779 65.5941 251.892 65.0896 252.12 64.6534C252.349 64.2201 252.669 63.8817 253.082 63.6443C253.497 63.4069 253.978 63.2882 254.524 63.2882C255.067 63.2882 255.548 63.4069 255.963 63.6443C256.379 63.8817 256.699 64.2201 256.928 64.6534C257.156 65.0867 257.269 65.5912 257.269 66.1669V68.3809C257.269 68.9536 257.156 69.4582 256.928 69.8914C256.699 70.3277 256.379 70.6631 255.963 70.9005C255.548 71.1409 255.067 71.2596 254.524 71.2596ZM254.524 70.1793C254.844 70.1793 255.129 70.1051 255.376 69.9597C255.622 69.8143 255.809 69.6095 255.943 69.3424C256.079 69.0753 256.144 68.7696 256.144 68.4165V66.1283C256.144 65.7782 256.079 65.4695 255.943 65.2024C255.809 64.9353 255.619 64.7305 255.376 64.5851C255.129 64.4397 254.844 64.3655 254.524 64.3655C254.2 64.3655 253.919 64.4397 253.672 64.5851C253.426 64.7305 253.239 64.9353 253.102 65.2024C252.966 65.4695 252.901 65.7782 252.901 66.1283V68.4165C252.901 68.7696 252.966 69.0753 253.102 69.3424C253.236 69.6095 253.426 69.8143 253.672 69.9597C253.919 70.1081 254.203 70.1793 254.524 70.1793ZM248.17 63.3683H249.194V71.1794H248.125V65.33L248.182 65.6743L246.259 70.0933H245.496L243.573 65.7811L243.626 65.33V71.1794H242.558V63.3683H243.585L245.879 68.5263L248.17 63.3683ZM239.81 71.1794H238.715V63.3683H239.81V71.1794ZM303.705 68.4224H306.142L304.922 64.8759L303.705 68.4224ZM233.07 69.4641H229.918L229.331 71.1794H228.15L231.031 63.3683H231.963L234.845 71.1794H233.664L233.07 69.4641ZM222.226 63.3624H224.229C224.68 63.3624 225.075 63.4544 225.419 63.6443C225.761 63.8283 226.025 64.0925 226.215 64.4367C226.405 64.778 226.497 65.1727 226.497 65.6209C226.497 66.069 226.402 66.4637 226.212 66.805C226.022 67.1463 225.755 67.4104 225.413 67.5974C225.289 67.6656 225.158 67.7191 225.022 67.7606L226.823 71.1794H225.523L223.855 67.8763H222.223V71.1794H221.128V63.3624H221.606H222.226ZM222.226 66.8347H224.271C224.478 66.8347 224.662 66.7842 224.826 66.6833C224.986 66.5824 225.111 66.44 225.2 66.256C225.286 66.072 225.33 65.8612 225.33 65.6209C225.33 65.3805 225.286 65.1668 225.2 64.9858C225.111 64.8017 224.986 64.6563 224.829 64.5584C224.671 64.4575 224.484 64.407 224.274 64.407H222.229V66.8347H222.226ZM215.801 71.2596C215.255 71.2596 214.777 71.1409 214.358 70.9005C213.943 70.6631 213.622 70.3277 213.397 69.8914C213.168 69.4582 213.056 68.9536 213.056 68.3809V66.1669C213.056 65.5941 213.168 65.0896 213.397 64.6534C213.625 64.2201 213.946 63.8817 214.358 63.6443C214.774 63.4069 215.255 63.2882 215.801 63.2882C216.344 63.2882 216.825 63.4069 217.24 63.6443C217.656 63.8817 217.976 64.2201 218.205 64.6534C218.433 65.0867 218.546 65.5912 218.546 66.1669V68.3809C218.546 68.9536 218.433 69.4582 218.205 69.8914C217.976 70.3277 217.656 70.6631 217.24 70.9005C216.825 71.1409 216.344 71.2596 215.801 71.2596ZM215.801 70.1793C216.121 70.1793 216.406 70.1051 216.652 69.9597C216.899 69.8143 217.086 69.6095 217.219 69.3424C217.356 69.0753 217.421 68.7696 217.421 68.4165V66.1283C217.421 65.7782 217.356 65.4695 217.219 65.2024C217.086 64.9353 216.896 64.7305 216.652 64.5851C216.406 64.4397 216.121 64.3655 215.801 64.3655C215.477 64.3655 215.195 64.4397 214.949 64.5851C214.703 64.7305 214.516 64.9353 214.379 65.2024C214.243 65.4695 214.177 65.7782 214.177 66.1283V68.4165C214.177 68.7696 214.243 69.0753 214.379 69.3424C214.513 69.6095 214.703 69.8143 214.949 69.9597C215.195 70.1081 215.48 70.1793 215.801 70.1793ZM209.337 64.413V71.1794H208.242V64.413H206.034V63.3683H211.545V64.413H209.337ZM199.719 63.3683H200.25H200.814H204.734V64.413H200.814V66.7812H204.146V67.8229H200.817V70.1378H204.737V71.1794H200.817H200.253H199.721V63.3683H199.719ZM192.833 63.3624H194.837C195.288 63.3624 195.682 63.4544 196.027 63.6443C196.368 63.8283 196.635 64.0925 196.822 64.4367C197.012 64.778 197.104 65.1727 197.104 65.6209C197.104 66.069 197.009 66.4637 196.819 66.805C196.629 67.1463 196.362 67.4104 196.021 67.5974C195.896 67.6656 195.765 67.7191 195.629 67.7606L197.43 71.1794H196.13L194.463 67.8763H192.83V71.1794H191.735V63.3624H192.213H192.833ZM192.833 66.8347H194.878C195.086 66.8347 195.27 66.7842 195.433 66.6833C195.593 66.5824 195.718 66.44 195.807 66.256C195.893 66.072 195.938 65.8612 195.938 65.6209C195.938 65.3805 195.893 65.1668 195.807 64.9858C195.718 64.8017 195.593 64.6563 195.436 64.5584C195.279 64.4575 195.092 64.407 194.881 64.407H192.836V66.8347H192.833ZM184.85 63.3624H186.853C187.304 63.3624 187.699 63.4544 188.043 63.6443C188.385 63.8283 188.652 64.0925 188.839 64.4367C189.029 64.778 189.121 65.1727 189.121 65.6209C189.121 66.069 189.026 66.4637 188.836 66.805C188.646 67.1463 188.379 67.4104 188.037 67.5974C187.913 67.6656 187.782 67.7191 187.646 67.7606L189.447 71.1794H188.147L186.479 67.8763H184.847V71.1794H183.752V63.3624H184.23H184.85ZM184.85 66.8347H186.895C187.103 66.8347 187.287 66.7842 187.45 66.6833C187.61 66.5824 187.735 66.44 187.824 66.256C187.91 66.072 187.954 65.8612 187.954 65.6209C187.954 65.3805 187.91 65.1668 187.824 64.9858C187.735 64.8017 187.61 64.6563 187.453 64.5584C187.296 64.4575 187.109 64.407 186.898 64.407H184.853V66.8347H184.85ZM178.425 71.2596C177.882 71.2596 177.401 71.1409 176.983 70.9005C176.567 70.6631 176.247 70.3277 176.021 69.8914C175.793 69.4582 175.68 68.9536 175.68 68.3809V66.1669C175.68 65.5941 175.793 65.0896 176.021 64.6534C176.25 64.2201 176.57 63.8817 176.983 63.6443C177.398 63.4069 177.879 63.2882 178.425 63.2882C178.968 63.2882 179.449 63.4069 179.864 63.6443C180.28 63.8817 180.6 64.2201 180.829 64.6534C181.057 65.0867 181.17 65.5912 181.17 66.1669V68.3809C181.17 68.9536 181.057 69.4582 180.829 69.8914C180.6 70.3277 180.28 70.6631 179.864 70.9005C179.449 71.1409 178.968 71.2596 178.425 71.2596ZM178.425 70.1793C178.745 70.1793 179.03 70.1051 179.277 69.9597C179.523 69.8143 179.71 69.6095 179.846 69.3424C179.983 69.0753 180.048 68.7696 180.048 68.4165V66.1283C180.048 65.7782 179.983 65.4695 179.846 65.2024C179.713 64.9353 179.523 64.7305 179.277 64.5851C179.03 64.4397 178.745 64.3655 178.425 64.3655C178.101 64.3655 177.819 64.4397 177.573 64.5851C177.327 64.7305 177.14 64.9353 177.006 65.2024C176.87 65.4695 176.805 65.7782 176.805 66.1283V68.4165C176.805 68.7696 176.87 69.0753 177.006 69.3424C177.14 69.6095 177.33 69.8143 177.573 69.9597C177.819 70.1081 178.101 70.1793 178.425 70.1793ZM170.78 71.2596C170.24 71.2596 169.765 71.1409 169.352 70.9005C168.943 70.6601 168.625 70.3188 168.4 69.8796C168.174 69.4403 168.062 68.9269 168.062 68.3482V66.2055C168.062 65.6268 168.174 65.1134 168.4 64.6741C168.625 64.2349 168.943 63.8936 169.352 63.6503C169.762 63.4069 170.237 63.2882 170.78 63.2882C171.228 63.2882 171.641 63.3861 172.015 63.5761C172.391 63.766 172.703 64.039 172.958 64.3892C173.211 64.7394 173.383 65.146 173.472 65.609H172.347C172.279 65.3656 172.166 65.146 172.006 64.9561C171.845 64.7632 171.658 64.6178 171.445 64.5109C171.231 64.407 171.008 64.3566 170.78 64.3566C170.459 64.3566 170.183 64.4338 169.943 64.5881C169.703 64.7424 169.516 64.959 169.385 65.235C169.255 65.514 169.186 65.8375 169.186 66.2055V68.3482C169.186 68.7132 169.252 69.0367 169.385 69.3157C169.516 69.5976 169.703 69.8113 169.943 69.9627C170.183 70.114 170.462 70.1912 170.78 70.1912C171.011 70.1912 171.234 70.1437 171.448 70.0458C171.661 69.9478 171.845 69.8054 172.006 69.6155C172.166 69.4255 172.279 69.2 172.347 68.9388H173.472C173.383 69.4018 173.211 69.8083 172.955 70.1585C172.703 70.5117 172.386 70.7818 172.012 70.9717C171.635 71.1646 171.222 71.2596 170.78 71.2596ZM230.274 68.4224H232.711L231.491 64.8759L230.274 68.4224Z" fill="white"/>
</mask>
<g mask="url(#mask1_838_141)">
<path d="M308.27 60.8813H168.062V71.2596H308.27V60.8813Z" fill="white"/>
</g>
<mask id="mask2_838_141" style="mask-type:luminance" maskUnits="userSpaceOnUse" x="168" y="10" width="140" height="43">
<path d="M177.674 36.0445L179.924 16.6562C179.959 16.3446 180.221 16.1101 180.535 16.1101H182.224C182.541 16.1101 182.802 16.3446 182.835 16.6592L184.933 36.0475C184.954 36.2285 184.901 36.3917 184.779 36.5253C184.657 36.6588 184.503 36.7301 184.319 36.7301H178.286C178.105 36.7301 177.947 36.6588 177.826 36.5223C177.707 36.3888 177.653 36.2256 177.674 36.0445ZM168.726 52.4235H175.19C175.505 52.4235 175.766 52.1891 175.802 51.8775L176.894 42.164C176.929 41.8494 177.19 41.618 177.505 41.618H185.102C185.417 41.618 185.678 41.8524 185.714 42.164L186.806 51.8775C186.842 52.192 187.103 52.4235 187.417 52.4235H194.116C194.302 52.4235 194.463 52.3493 194.581 52.2099C194.703 52.0674 194.751 51.8982 194.724 51.7142L188.566 11.3885C188.518 11.0857 188.263 10.8661 187.957 10.8661H174.733C174.425 10.8661 174.169 11.0887 174.125 11.3914L168.118 51.7142C168.091 51.8982 168.139 52.0674 168.261 52.2069C168.382 52.3493 168.539 52.4235 168.726 52.4235ZM199.345 11.4805V39.4545C199.345 40.9472 199.371 42.4489 199.472 43.9417C199.538 44.8944 199.627 45.9063 199.834 46.8412C200.107 48.0817 200.57 49.2896 201.342 50.3075C202.099 51.3077 203.102 51.9398 204.295 52.3167C206.179 52.9132 208.889 52.9666 210.857 52.9666C212.833 52.9666 215.474 52.9043 217.371 52.3137C218.573 51.9398 219.62 51.3136 220.389 50.3046C221.181 49.2629 221.653 48.0045 221.938 46.7343C222.146 45.7965 222.244 44.7905 222.312 43.8349C222.416 42.3807 222.446 40.9116 222.446 39.4545V11.4805C222.446 11.1421 222.17 10.8632 221.828 10.8632H215.688C215.35 10.8632 215.071 11.1392 215.071 11.4805V43.1612C215.071 44.2325 214.958 45.5918 214.219 46.4346C213.459 47.3012 212.198 47.4822 211.106 47.4822C210.011 47.4822 208.729 47.3071 207.972 46.4227C207.251 45.5799 207.141 44.2266 207.141 43.1642V11.4805C207.141 11.1421 206.865 10.8632 206.524 10.8632H199.959C199.621 10.8661 199.345 11.1421 199.345 11.4805ZM242.988 31.2101C242.107 32.0915 240.638 32.2399 239.457 32.2399H236.341C236.002 32.2399 235.723 31.9639 235.723 31.6226V16.7898C235.723 16.4514 235.999 16.1725 236.341 16.1725H239.457C240.638 16.1725 242.11 16.3209 242.988 17.2023C243.846 18.06 244.018 19.4162 244.018 20.5736V27.8713C244.018 29.0199 243.843 30.3553 242.988 31.2101ZM227.927 11.4805V51.8062C227.927 52.1446 228.203 52.4235 228.544 52.4235H235.109C235.447 52.4235 235.726 52.1475 235.726 51.8062V37.9201C235.726 37.5818 236.002 37.3028 236.344 37.3028H238.661C240.036 37.3028 241.7 37.4987 242.712 38.5345C243.707 39.5554 243.902 41.1728 243.902 42.532V51.8062C243.902 52.1446 244.178 52.4235 244.52 52.4235H250.912C251.251 52.4235 251.53 52.1475 251.53 51.8062V42.1165C251.53 40.5555 251.239 38.8668 250.164 37.6649C249.069 36.4422 247.315 35.9228 245.745 35.6973C245.74 35.6973 245.737 35.6973 245.731 35.6943C244.241 35.4421 244.208 33.5041 245.692 33.2637C247.351 32.961 249.271 32.3497 250.39 31.0053C251.509 29.6609 251.764 27.6488 251.764 25.966V20.9268C251.764 18.33 251.39 14.739 249.179 12.9999C246.677 11.0323 240.406 10.8661 237.382 10.8661H228.553C228.206 10.8661 227.927 11.1421 227.927 11.4805ZM272.491 43.2829C272.491 44.3601 272.384 45.7491 271.627 46.586C270.867 47.4318 269.621 47.6009 268.547 47.6009C267.466 47.6009 266.19 47.4377 265.425 46.586C264.671 45.7461 264.561 44.3572 264.561 43.2829V20.0691C264.561 18.9978 264.674 17.6385 265.413 16.7957C266.175 15.9261 267.452 15.7481 268.544 15.7481C269.63 15.7481 270.876 15.9321 271.636 16.7957C272.375 17.6385 272.488 18.9948 272.488 20.0691V43.2829H272.491ZM280.53 41.8346V21.4847C280.53 20.2591 280.504 19.0215 280.406 17.7958C280.343 17.0153 280.251 16.1784 280.056 15.4187C279.78 14.3592 279.296 13.4036 278.551 12.5934C277.741 11.7119 276.702 11.1807 275.557 10.875C274.696 10.6436 273.725 10.5397 272.838 10.4655C271.414 10.3497 269.968 10.3201 268.538 10.3201C267.098 10.3201 265.647 10.3497 264.214 10.4655C263.312 10.5397 262.332 10.6436 261.457 10.875C260.308 11.1777 259.258 11.709 258.447 12.5934C257.703 13.4006 257.219 14.3562 256.943 15.4187C256.747 16.1784 256.655 17.0153 256.593 17.7958C256.495 19.0185 256.468 20.2561 256.468 21.4847V41.8346C256.468 43.0603 256.495 44.2978 256.599 45.5205C256.664 46.304 256.762 47.1439 256.964 47.9066C257.245 48.9661 257.711 49.9484 258.453 50.7616C259.216 51.5955 260.16 52.1327 261.243 52.4413C262.059 52.6758 263.065 52.7648 263.911 52.8301C265.448 52.9459 267.003 52.9726 268.544 52.9726C270.078 52.9726 271.633 52.9488 273.164 52.8301C274.01 52.7648 275.01 52.6758 275.827 52.4413C276.913 52.1297 277.845 51.5866 278.61 50.7556C279.337 49.9692 279.806 49.0403 280.073 48.0046C280.269 47.2478 280.355 46.402 280.418 45.6274C280.507 44.3691 280.53 43.0959 280.53 41.8346ZM291.286 40.1934H285.531C285.193 40.1934 284.914 40.4694 284.914 40.8107V43.7607C284.914 45.9954 285.178 49.4439 286.959 51.0673C288.813 52.753 292.74 52.9726 295.096 52.9726H297.829C300.308 52.9726 303.631 52.6461 305.543 50.8714C307.395 49.1531 307.768 46.2091 307.768 43.82V37.8905C307.768 36.0386 307.573 33.4032 306.424 31.857C305.302 30.3494 302.996 29.4799 301.26 28.9872C300.438 28.7557 299.613 28.5272 298.809 28.3106C298.806 28.3106 298.803 28.3076 298.797 28.3076C295.874 27.5686 292.348 26.0135 292.348 22.4878V19.6447C292.348 18.5615 292.485 17.2676 293.244 16.4307C294.022 15.573 295.277 15.389 296.375 15.389C297.515 15.389 298.815 15.5819 299.58 16.5227C300.313 17.4278 300.403 18.9443 300.403 20.0602V20.9654C300.403 21.3037 300.678 21.5827 301.02 21.5827H306.421C306.759 21.5827 307.038 21.3067 307.038 20.9654V19.4043C307.038 17.968 307.027 15.9885 306.664 14.5936C306.46 13.8101 306.115 13.0919 305.534 12.5192L305.516 12.5014C304.706 11.6704 303.605 11.1837 302.498 10.8869C300.756 10.4239 298.77 10.3201 296.975 10.3201H293.939C291.722 10.3201 288.52 10.5961 286.867 12.2877C285.178 14.0149 284.92 17.4278 284.92 19.6952V23.764C284.92 25.6544 285.122 28.3224 286.279 29.9072C287.413 31.4564 289.73 32.3437 291.505 32.8512C292.327 33.0857 293.173 33.2786 294.007 33.4596C295.705 33.8276 298.183 34.4983 299.346 35.8872L299.355 35.8991C299.361 35.905 299.364 35.911 299.37 35.9169L299.379 35.9288C299.761 36.4244 300.035 36.9883 300.18 37.5729C300.18 37.5759 300.183 37.5788 300.183 37.5848C300.379 38.3267 300.405 39.2348 300.405 40.0005V43.1167C300.405 44.2563 300.26 45.6452 299.456 46.5266C298.637 47.4258 297.298 47.6069 296.147 47.6069C294.998 47.6069 293.767 47.3843 292.939 46.5177C292.114 45.6541 291.909 44.3869 291.909 43.2354V40.8137C291.903 40.4694 291.624 40.1934 291.286 40.1934Z" fill="white"/>
</mask>
<g mask="url(#mask2_838_141)">
<path d="M307.768 10.3201H168.088V52.9696H307.768V10.3201Z" fill="white"/>
</g>
<mask id="mask3_838_141" style="mask-type:luminance" maskUnits="userSpaceOnUse" x="17" y="29" width="39" height="34">
<path d="M27.3833 58.8534L31.3483 53.0129V38.1029H36.9514V44.7507L47.3059 29.4875L55.2921 41.3912L51.9474 47.0804L47.2999 40.1803L32.1763 62.5394H17.4622L27.3833 58.8534Z" fill="white"/>
</mask>
<g mask="url(#mask3_838_141)">
<path d="M55.2921 29.4875H17.4622V62.5394H55.2921V29.4875Z" fill="white"/>
</g>
<mask id="mask4_838_141" style="mask-type:luminance" maskUnits="userSpaceOnUse" x="32" y="41" width="20" height="22">
<path d="M47.297 45.0564L35.4439 62.5395H32.7788L47.3059 41.1123L51.6507 47.585L50.4132 49.6921L47.297 45.0564Z" fill="white"/>
</mask>
<g mask="url(#mask4_838_141)">
<path d="M51.6507 41.1123H32.7788V62.5365H51.6507V41.1123Z" fill="white"/>
</g>
<mask id="mask5_838_141" style="mask-type:luminance" maskUnits="userSpaceOnUse" x="30" y="34" width="8" height="5">
<path d="M37.5359 34.5981H30.7605V38.0051H37.5359V34.5981Z" fill="white"/>
</mask>
<g mask="url(#mask5_838_141)">
<path d="M37.5359 34.5981H30.7605V38.0051H37.5359V34.5981Z" fill="white"/>
</g>
<mask id="mask6_838_141" style="mask-type:luminance" maskUnits="userSpaceOnUse" x="106" y="29" width="39" height="34">
<path d="M134.466 58.8534L144.387 62.5394H129.673L114.549 40.1803L109.62 47.4988L106.278 41.8067L114.543 29.4875L124.898 44.7507V38.1029H130.501V53.0129L134.466 58.8534Z" fill="white"/>
</mask>
<g mask="url(#mask6_838_141)">
<path d="M144.384 29.4875H106.278V62.5394H144.384V29.4875Z" fill="white"/>
</g>
<mask id="mask7_838_141" style="mask-type:luminance" maskUnits="userSpaceOnUse" x="109" y="41" width="21" height="22">
<path d="M114.552 45.0564L111.154 50.1135L109.917 48.0034L114.543 41.1123L129.07 62.5395H126.405L114.552 45.0564Z" fill="white"/>
</mask>
<g mask="url(#mask7_838_141)">
<path d="M129.07 41.1123H109.917V62.5365H129.07V41.1123Z" fill="white"/>
</g>
<mask id="mask8_838_141" style="mask-type:luminance" maskUnits="userSpaceOnUse" x="124" y="34" width="8" height="5">
<path d="M131.088 34.5981H124.313V38.0051H131.088V34.5981Z" fill="white"/>
</mask>
<g mask="url(#mask8_838_141)">
<path d="M131.088 34.5981H124.313V38.0051H131.088V34.5981Z" fill="white"/>
</g>
<mask id="mask9_838_141" style="mask-type:luminance" maskUnits="userSpaceOnUse" x="20" y="30" width="35" height="32">
<path d="M27.7664 59.3401L20.7417 61.9487H28.1314H31.8619L47.3031 39.1267L51.9149 45.9763L54.5978 41.4119L47.3031 30.541L36.3639 46.6678V38.6905H31.9361V53.1939L27.7664 59.3401Z" fill="white"/>
</mask>
<g mask="url(#mask9_838_141)">
<path d="M54.5978 30.541H20.7417V61.9487H54.5978V30.541Z" fill="white"/>
</g>
<mask id="mask10_838_141" style="mask-type:luminance" maskUnits="userSpaceOnUse" x="33" y="42" width="18" height="20">
<path d="M33.8916 61.9488L47.3029 42.1658L50.9562 47.6057L50.3775 48.588L47.2999 44.0028L35.1321 61.9488H33.8916Z" fill="white"/>
</mask>
<g mask="url(#mask10_838_141)">
<path d="M50.9562 42.1658H33.8916V61.9488H50.9562V42.1658Z" fill="white"/>
</g>
<mask id="mask11_838_141" style="mask-type:luminance" maskUnits="userSpaceOnUse" x="106" y="30" width="36" height="32">
<path d="M134.083 59.3401L141.108 61.9487H133.718H129.988L114.546 39.1267L109.653 46.3947L106.973 41.8274L114.546 30.541L125.485 46.6678V38.6905H129.913V53.1939L134.083 59.3401Z" fill="white"/>
</mask>
<g mask="url(#mask11_838_141)">
<path d="M141.108 30.541H106.973V61.9487H141.108V30.541Z" fill="white"/>
</g>
<mask id="mask12_838_141" style="mask-type:luminance" maskUnits="userSpaceOnUse" x="110" y="42" width="18" height="20">
<path d="M127.958 61.9488L114.546 42.1658L110.611 48.0271L111.187 49.0094L114.549 44.0028L126.717 61.9488H127.958Z" fill="white"/>
</mask>
<g mask="url(#mask12_838_141)">
<path d="M127.958 42.1658H110.611V61.9488H127.958V42.1658Z" fill="white"/>
</g>
<mask id="mask13_838_141" style="mask-type:luminance" maskUnits="userSpaceOnUse" x="24" y="31" width="114" height="31">
<path d="M24.1692 61.3347H31.5351L47.3028 38.026L51.8791 44.8221L53.8704 41.4359L47.2998 31.6453L35.7464 48.6742V39.308H32.5531V53.3811L28.1667 59.8478L24.1692 61.3347ZM31.9655 35.8031V36.7973H36.331V35.8031H31.9655ZM129.296 39.308H126.102V48.6742L114.549 31.6423L107.699 41.8514L109.688 45.2406L114.543 38.0289L130.311 61.3376H137.677L133.682 59.8538L129.296 53.387V39.308ZM129.883 35.8031H125.518V36.7973H129.883V35.8031Z" fill="white"/>
</mask>
<g mask="url(#mask13_838_141)">
<path d="M137.677 31.6423H24.1692V61.3347H137.677V31.6423Z" fill="white"/>
</g>
<mask id="mask14_838_141" style="mask-type:luminance" maskUnits="userSpaceOnUse" x="44" y="0" width="73" height="63">
<path d="M75.3127 26.3774H86.3201L80.7051 16.2425L75.3127 26.3774ZM95.4221 35.6931L80.9247 10.5563L66.4272 35.6931H68.7777L65.8693 40.7294H57.435L80.9247 0L104.266 40.7294H75.1524L78.0608 35.6931H78.4021C84.0735 35.6931 89.7478 35.6931 95.4221 35.6931ZM57.9306 50.425L53.8499 57.5031H57.8356L60.9458 52.1107C64.4715 45.9942 68.0001 39.8806 71.5318 33.7671L71.5288 33.7641L74.2176 29.0988H87.6318L90.5343 34.1351H77.31L70.8195 45.3917H89.3828L92.2912 50.428H67.917L60.931 62.5394H44.8606L54.7491 45.3917H63.1864L60.281 50.428H57.9306V50.425ZM104.014 57.5031H107.999L103.919 50.425H101.613L98.7074 45.3888H106.771L110.988 52.449L116.769 62.5364H100.921L89.1632 42.148H95.158L104.014 57.5031Z" fill="white"/>
</mask>
<g mask="url(#mask14_838_141)">
<path d="M116.769 -0.00292969H44.8577V62.5394H116.769V-0.00292969Z" fill="white"/>
</g>
<mask id="mask15_838_141" style="mask-type:luminance" maskUnits="userSpaceOnUse" x="45" y="1" width="71" height="61">
<path d="M103.251 40.1388H76.1732L78.3991 36.2808C84.4117 36.2808 90.4244 36.2808 96.44 36.2808L85.5098 17.3257L80.9246 9.37811L65.4092 36.2808H67.7597L65.5339 40.1388H63.1864H58.4587L80.9276 1.17822L103.251 40.1388ZM45.8755 61.9488L55.0844 45.9794H59.812H62.1625L61.0377 47.9262L59.9337 49.8375H57.5862L52.826 58.0937H58.1738L61.4532 52.4075C67.0029 42.7979 67.917 41.2013 72.3359 33.5475L72.333 33.5445L74.5558 29.6924H75.4907H79.1944H82.6578H86.4565H87.2934L89.5192 33.5504H86.4595H84.8836H76.9716L69.8015 45.9823H89.0444L91.2702 49.8404H67.5757L60.5896 61.9518H60.1266H55.954H50.6061H49.9443H45.8755V61.9488ZM99.7253 45.9794H102.031H106.435L110.474 52.7429L112.044 55.4821L115.748 61.9488H113.125H111.243H105.895H102.942H101.26L90.181 42.7386H94.8166L103.672 58.0937H109.02L104.26 49.8375H101.954L99.7253 45.9794Z" fill="white"/>
</mask>
<g mask="url(#mask15_838_141)">
<path d="M115.751 1.17822H45.8755V61.9488H115.751V1.17822Z" fill="white"/>
</g>
<mask id="mask16_838_141" style="mask-type:luminance" maskUnits="userSpaceOnUse" x="91" y="43" width="24" height="19">
<path d="M100.794 46.5965L102.31 49.22H104.613L110.086 58.7079H103.316L94.4604 43.3528H91.2463L101.616 61.3344H114.689L109.946 53.0603L106.088 46.5965H100.794Z" fill="white"/>
</mask>
<g mask="url(#mask16_838_141)">
<path d="M114.686 43.3528H91.2463V61.3314H114.686V43.3528Z" fill="white"/>
</g>
<mask id="mask17_838_141" style="mask-type:luminance" maskUnits="userSpaceOnUse" x="46" y="19" width="45" height="43">
<path d="M77.7313 25.1903H83.9042L80.7554 19.6021L77.7313 25.1903ZM46.9438 61.3345H60.2334L67.2195 49.2232H90.2018L88.6852 46.5997H68.7331L76.6154 32.9332H88.4538L86.9402 30.3097H74.9179L73.1847 33.3131L73.1877 33.316L72.876 33.8562C69.2465 40.1418 65.6199 46.4305 61.9933 52.7162L58.5359 58.7111H51.7664L57.239 49.2232H59.5865L61.103 46.5997H55.4464L46.9438 61.3345Z" fill="white"/>
</mask>
<g mask="url(#mask17_838_141)">
<path d="M90.2018 19.6021H46.9438V61.3345H90.2018V19.6021Z" fill="white"/>
</g>
<mask id="mask18_838_141" style="mask-type:luminance" maskUnits="userSpaceOnUse" x="59" y="2" width="44" height="38">
<path d="M102.189 39.5216L80.9217 2.41284L59.5212 39.5216H65.1748L66.6913 36.8951H64.3409L80.9217 8.14356L97.5055 36.8951H96.44C90.5461 36.8951 84.6521 36.8951 78.7552 36.8951L77.2387 39.5216H102.189Z" fill="white"/>
</mask>
<g mask="url(#mask18_838_141)">
<path d="M102.189 2.41602H59.5212V39.5248H102.189V2.41602Z" fill="white"/>
</g>
<mask id="mask19_838_141" style="mask-type:luminance" maskUnits="userSpaceOnUse" x="25" y="69" width="135" height="12">
<path d="M31.2417 77.295C36.1474 77.7283 41.1243 77.8648 46.0626 77.8262C51.6598 77.7847 57.2629 77.5235 62.8304 77.1347C75.5472 76.2444 88.2551 74.6952 100.785 72.9413C111.202 71.4841 121.874 70.2852 132.481 69.8103C139.864 69.478 147.649 69.475 154.958 70.3683L155.988 70.4929L159.582 71.5821L155.697 71.9442L154.659 71.867C150.827 71.5791 146.942 71.5079 143.09 71.5613C138.496 71.6266 133.902 71.867 129.335 72.2172C117.968 73.0867 106.602 74.6062 95.4549 76.3691L95.4252 76.372C88.6498 77.3098 81.8418 78.1467 75.0012 78.8175C69.1428 79.3902 63.24 79.8473 57.3341 80.0847C52.4285 80.2806 47.4664 80.334 42.5637 80.0995C38.6284 79.9096 34.6101 79.5297 30.8114 78.7729L29.8498 78.58L27.4311 77.7075L25.5317 76.6629L30.2534 77.206L31.2417 77.295Z" fill="white"/>
</mask>
<g mask="url(#mask19_838_141)">
<path d="M159.579 69.4719H25.5286V80.3339H159.579V69.4719Z" fill="white"/>
</g>
<path fill-rule="evenodd" clip-rule="evenodd" d="M95.2175 75.6301C66.2819 79.6366 44.3384 80.6842 31.1082 78.0459C49.6507 79.687 74.1524 77.4464 100.996 73.6833C125.441 70.2703 142.773 69.6441 154.774 71.1132C140.612 70.0448 120.636 71.6088 95.2175 75.6301Z" fill="white"/>
<mask id="mask20_838_141" style="mask-type:luminance" maskUnits="userSpaceOnUse" x="0" y="63" width="160" height="13">
<path d="M4.6653 64.8247C9.17035 66.267 13.9989 67.282 18.8274 68.0328C24.8371 68.9647 31.0011 69.5108 37.1355 69.8283C44.6261 70.2141 52.173 70.2646 59.6785 70.1162C68.65 69.9352 77.6215 69.4662 86.5485 68.8133C94.0124 68.2673 101.491 67.7895 108.979 67.4363C115.342 67.1395 121.728 66.9288 128.106 66.9081C133.246 66.8902 138.448 66.9882 143.562 67.374C147.37 67.6619 151.391 68.1189 155.014 69.0063L155.982 69.2437L159.801 70.8641L155.409 70.6207L154.412 70.4575C150.1 69.7452 145.441 69.5226 141.022 69.4692C135.202 69.401 129.332 69.6414 123.539 70.0064C116.588 70.4456 109.652 71.0807 102.752 71.8078C94.9502 72.6299 87.1717 73.5796 79.414 74.5945L79.3873 74.5975L79.3606 74.6005C71.0034 75.3928 62.5453 75.9003 54.111 75.9211C47.1783 75.9389 40.1982 75.6243 33.3664 74.7904C22.5935 73.4757 12.2509 70.8552 3.55536 66.1127L2.79859 65.7002L0 63.6643L3.79279 64.5487L4.6653 64.8247Z" fill="white"/>
</mask>
<g mask="url(#mask20_838_141)">
<path d="M159.804 63.6584H0V75.9331H159.804V63.6584Z" fill="white"/>
</g>
<mask id="mask21_838_141" style="mask-type:luminance" maskUnits="userSpaceOnUse" x="4" y="65" width="151" height="11">
<path d="M79.2182 73.8464C42.4953 77.3305 19.1628 73.6624 4.22021 65.5129C20.712 70.7926 47.8016 72.2824 86.6643 69.5639C118.544 67.1096 142.636 66.7742 154.664 69.7182C139.475 67.2135 111.745 69.5966 79.2182 73.8464Z" fill="white"/>
</mask>
<g mask="url(#mask21_838_141)">
<path d="M154.661 65.5129H4.21704V77.3305H154.661V65.5129Z" fill="white"/>
</g>
</svg>
