<svg width="320" height="320" viewBox="0 0 320 320" fill="none" xmlns="http://www.w3.org/2000/svg">
<rect width="320" height="320" fill="#051D3B"/>
<path d="M190.138 82.7559V104.372H236.095V162.691H247V163.691L246.994 177.949V178.948H236.095V238.215H225.768V238.34H175.196V222.05H219.831V177.792L220.147 177.495L226.761 171.293L220.147 165.092L219.831 164.796V120.657H173.88V82.7559H190.138ZM100.163 222.044H144.771V238.34H94.1943V238.215H83.873V178.948H73V162.691H83.873V104.372H129.824V82.7559H146.082V120.668H100.163V164.797L99.8457 165.094L93.209 171.294L99.8457 177.494L100.163 177.791V222.044Z" fill="white" stroke="white" stroke-width="2"/>
<path d="M152.809 70.5922H167.159V84.9418H152.809V70.5922Z" fill="white"/>
<path d="M164.294 65.3398V50.9902H178.644V65.3398H164.294Z" fill="white"/>
<path d="M153.21 32H167.559V46.3496H153.21V32Z" fill="white"/>
<path d="M152.809 70.5922H167.159V84.9418H152.809V70.5922Z" stroke="white"/>
<path d="M164.294 65.3398V50.9902H178.644V65.3398H164.294Z" stroke="white"/>
<path d="M153.21 32H167.559V46.3496H153.21V32Z" stroke="white"/>
</svg>
