<svg width="2065" height="1037" viewBox="0 0 2065 1037" fill="none" xmlns="http://www.w3.org/2000/svg">
<mask id="mask0_870_17" style="mask-type:luminance" maskUnits="userSpaceOnUse" x="225" y="381" width="490" height="428">
<path d="M353.831 760.467L405.063 684.999V492.341H477.463V578.24L611.258 381.019L714.451 534.83L671.233 608.342L611.181 519.184L415.762 808.094H225.635L353.831 760.467Z" fill="white"/>
</mask>
<g mask="url(#mask0_870_17)">
<path d="M714.451 381.019H225.635V808.094H714.451V381.019Z" fill="white"/>
</g>
<mask id="mask1_870_17" style="mask-type:luminance" maskUnits="userSpaceOnUse" x="423" y="531" width="245" height="278">
<path d="M611.147 582.192L457.987 808.097H423.551L611.262 531.229L667.403 614.864L651.412 642.091L611.147 582.192Z" fill="white"/>
</mask>
<g mask="url(#mask1_870_17)">
<path d="M667.403 531.229H423.551V808.059H667.403V531.229Z" fill="white"/>
</g>
<mask id="mask2_870_17" style="mask-type:luminance" maskUnits="userSpaceOnUse" x="397" y="447" width="89" height="45">
<path d="M485.019 447.055H397.471V491.078H485.019V447.055Z" fill="white"/>
</mask>
<g mask="url(#mask2_870_17)">
<path d="M485.019 447.055H397.471V491.078H485.019V447.055Z" fill="white"/>
</g>
<mask id="mask3_870_17" style="mask-type:luminance" maskUnits="userSpaceOnUse" x="1373" y="381" width="493" height="428">
<path d="M1737.49 760.467L1865.68 808.094H1675.56L1480.14 519.184L1416.44 613.749L1373.26 540.199L1480.06 381.019L1613.85 578.24V492.341H1686.25V684.999L1737.49 760.467Z" fill="white"/>
</mask>
<g mask="url(#mask3_870_17)">
<path d="M1865.64 381.019H1373.26V808.094H1865.64V381.019Z" fill="white"/>
</g>
<mask id="mask4_870_17" style="mask-type:luminance" maskUnits="userSpaceOnUse" x="1420" y="531" width="248" height="278">
<path d="M1480.17 582.192L1436.27 647.536L1420.28 620.271L1480.06 531.229L1667.77 808.097H1633.33L1480.17 582.192Z" fill="white"/>
</mask>
<g mask="url(#mask4_870_17)">
<path d="M1667.77 531.229H1420.28V808.059H1667.77V531.229Z" fill="white"/>
</g>
<mask id="mask5_870_17" style="mask-type:luminance" maskUnits="userSpaceOnUse" x="1606" y="447" width="88" height="45">
<path d="M1693.85 447.055H1606.3V491.078H1693.85V447.055Z" fill="white"/>
</mask>
<g mask="url(#mask5_870_17)">
<path d="M1693.85 447.055H1606.3V491.078H1693.85V447.055Z" fill="white"/>
</g>
<mask id="mask6_870_17" style="mask-type:luminance" maskUnits="userSpaceOnUse" x="268" y="394" width="438" height="407">
<path d="M358.777 766.758L268.009 800.465H363.494H411.697L611.218 505.573L670.81 594.079L705.477 535.101L611.218 394.634L469.87 603.014V499.936H412.655V687.34L358.777 766.758Z" fill="white"/>
</mask>
<g mask="url(#mask6_870_17)">
<path d="M705.477 394.634H268.009V800.465H705.477V394.634Z" fill="white"/>
</g>
<mask id="mask7_870_17" style="mask-type:luminance" maskUnits="userSpaceOnUse" x="437" y="544" width="222" height="257">
<path d="M437.928 800.465L611.221 544.841L658.426 615.132L650.949 627.825L611.182 568.578L453.958 800.465H437.928Z" fill="white"/>
</mask>
<g mask="url(#mask7_870_17)">
<path d="M658.426 544.841H437.928V800.465H658.426V544.841Z" fill="white"/>
</g>
<mask id="mask8_870_17" style="mask-type:luminance" maskUnits="userSpaceOnUse" x="1382" y="394" width="442" height="407">
<path d="M1732.54 766.758L1823.3 800.465H1727.82H1679.62L1480.1 505.573L1416.86 599.486L1382.23 540.47L1480.1 394.634L1621.44 603.014V499.936H1678.66V687.34L1732.54 766.758Z" fill="white"/>
</mask>
<g mask="url(#mask8_870_17)">
<path d="M1823.3 394.634H1382.23V800.465H1823.3V394.634Z" fill="white"/>
</g>
<mask id="mask9_870_17" style="mask-type:luminance" maskUnits="userSpaceOnUse" x="1429" y="544" width="225" height="257">
<path d="M1653.39 800.465L1480.1 544.841L1429.25 620.578L1436.69 633.271L1480.14 568.578L1637.36 800.465H1653.39Z" fill="white"/>
</mask>
<g mask="url(#mask9_870_17)">
<path d="M1653.39 544.841H1429.25V800.465H1653.39V544.841Z" fill="white"/>
</g>
<mask id="mask10_870_17" style="mask-type:luminance" maskUnits="userSpaceOnUse" x="312" y="408" width="1467" height="385">
<path d="M312.302 792.528H407.48L611.22 491.347L670.352 579.163L696.083 535.408L611.182 408.9L461.895 628.938V507.913H420.633V689.757L363.956 773.316L312.302 792.528ZM413.041 462.625V475.471H469.45V462.625H413.041ZM1670.68 507.913H1629.42V628.938L1480.14 408.862L1391.63 540.777L1417.32 584.57L1480.06 491.386L1683.8 792.567H1778.98L1727.36 773.393L1670.68 689.834V507.913V507.913ZM1678.28 462.625H1621.87V475.471H1678.28V462.625Z" fill="white"/>
</mask>
<g mask="url(#mask10_870_17)">
<path d="M1778.98 408.862H312.302V792.528H1778.98V408.862Z" fill="white"/>
</g>
<mask id="mask11_870_17" style="mask-type:luminance" maskUnits="userSpaceOnUse" x="579" y="0" width="930" height="809">
<path d="M973.146 340.832H1115.38L1042.82 209.876L973.146 340.832ZM1232.99 461.205L1045.66 136.402L858.334 461.205H888.705L851.125 526.28H742.141L1045.66 0L1347.26 526.28H971.076L1008.66 461.205H1013.07C1086.35 461.205 1159.67 461.205 1232.99 461.205ZM748.545 651.562L695.818 743.02H747.318L787.506 673.343C833.063 594.309 878.658 515.313 924.292 436.317L924.253 436.279L958.996 375.997H1132.33L1169.83 441.072H998.954L915.088 586.524H1154.95L1192.53 651.6H877.584L787.315 808.096H579.663L707.437 586.524H816.459L778.917 651.6H748.545V651.562ZM1344 743.02H1395.51L1342.78 651.562H1312.98L1275.44 586.486H1379.63L1434.12 677.715L1508.82 808.058H1304.05L1152.11 544.611H1229.58L1344 743.02Z" fill="white"/>
</mask>
<g mask="url(#mask11_870_17)">
<path d="M1508.82 -0.0424805H579.627V808.092H1508.82V-0.0424805Z" fill="white"/>
</g>
<mask id="mask12_870_17" style="mask-type:luminance" maskUnits="userSpaceOnUse" x="592" y="15" width="904" height="786">
<path d="M1334.14 518.649H984.261L1013.02 468.797C1090.71 468.797 1168.41 468.797 1246.14 468.797L1104.9 223.872L1045.65 121.177L845.174 468.797H875.546L846.785 518.649H816.452H755.365L1045.69 15.2231L1334.14 518.649ZM592.771 800.464L711.764 594.117H772.851H803.222L788.689 619.272L774.423 643.968H744.091L682.581 750.651H751.683L794.057 677.177C865.767 553.008 877.578 532.377 934.677 433.479L934.639 433.441L963.361 383.666H975.441H1023.3H1068.05H1117.13H1127.95L1156.71 433.517H1117.17H1096.81H994.576L901.929 594.155H1150.57L1179.33 644.006H873.168L782.898 800.502H776.916H722.999H653.897H645.346H592.771V800.464ZM1288.59 594.117H1318.38H1375.29L1427.48 681.51L1447.77 716.905L1495.62 800.464H1461.72H1437.41H1368.31H1330.15H1308.41L1165.26 552.241H1225.16L1339.59 750.651H1408.69L1347.18 643.968H1317.38L1288.59 594.117Z" fill="white"/>
</mask>
<g mask="url(#mask12_870_17)">
<path d="M1495.66 15.2231H592.771V800.464H1495.66V15.2231Z" fill="white"/>
</g>
<mask id="mask13_870_17" style="mask-type:luminance" maskUnits="userSpaceOnUse" x="1179" y="560" width="303" height="233">
<path d="M1302.39 602.095L1321.99 635.995H1351.75L1422.46 758.591H1334.99L1220.56 560.182H1179.03L1313.02 792.529H1481.94L1420.66 685.616L1370.81 602.095H1302.39Z" fill="white"/>
</mask>
<g mask="url(#mask13_870_17)">
<path d="M1481.9 560.182H1179.03V792.49H1481.9V560.182Z" fill="white"/>
</g>
<mask id="mask14_870_17" style="mask-type:luminance" maskUnits="userSpaceOnUse" x="606" y="253" width="560" height="540">
<path d="M1004.39 325.492H1084.16L1043.47 253.284L1004.39 325.492ZM606.576 792.526H778.296L868.566 636.03H1165.53L1145.93 602.131H888.123L989.974 425.541H1142.94L1123.38 391.641H968.039L945.644 430.449L945.683 430.487L941.656 437.467C894.757 518.686 847.897 599.945 801.036 681.165L756.361 758.626H668.891L739.604 636.03H769.936L789.532 602.131H716.442L606.576 792.526Z" fill="white"/>
</mask>
<g mask="url(#mask14_870_17)">
<path d="M1165.53 253.284H606.576V792.526H1165.53V253.284Z" fill="white"/>
</g>
<mask id="mask15_870_17" style="mask-type:luminance" maskUnits="userSpaceOnUse" x="769" y="31" width="552" height="480">
<path d="M1320.42 510.675L1045.62 31.1782L769.094 510.675H842.146L861.741 476.737H831.37L1045.62 105.227L1259.9 476.737H1246.14C1169.98 476.737 1093.82 476.737 1017.62 476.737L998.028 510.675H1320.42Z" fill="white"/>
</mask>
<g mask="url(#mask15_870_17)">
<path d="M1320.42 31.2173H769.094V510.714H1320.42V31.2173Z" fill="white"/>
</g>
<mask id="mask16_870_17" style="mask-type:luminance" maskUnits="userSpaceOnUse" x="329" y="899" width="1734" height="138">
<path d="M403.684 998.759C467.072 1004.36 531.381 1006.12 595.191 1005.62C667.514 1005.09 739.914 1001.71 811.854 996.688C976.173 985.184 1140.38 965.166 1302.28 942.503C1436.88 923.674 1574.78 908.182 1711.83 902.046C1807.24 897.751 1907.82 897.713 2002.27 909.256L2015.58 910.866L2062.02 924.94L2011.82 929.618L1998.4 928.621C1948.89 924.901 1898.7 923.981 1848.92 924.671C1789.56 925.515 1730.2 928.621 1671.18 933.146C1524.31 944.382 1377.44 964.016 1233.41 986.794L1233.02 986.833C1145.48 998.95 1057.51 1009.76 969.117 1018.43C893.419 1025.83 817.146 1031.74 740.834 1034.81C677.446 1037.34 613.329 1038.03 549.979 1035C499.13 1032.54 447.208 1027.63 398.123 1017.86L385.699 1015.36L354.445 1004.09L329.903 990.591L390.914 997.608L403.684 998.759Z" fill="white"/>
</mask>
<g mask="url(#mask16_870_17)">
<path d="M2061.98 897.675H329.864V1038.03H2061.98V897.675Z" fill="white"/>
</g>
<path fill-rule="evenodd" clip-rule="evenodd" d="M1230.34 977.245C856.455 1029.01 572.914 1042.55 401.961 1008.46C641.556 1029.67 958.153 1000.71 1305.01 952.09C1620.87 907.99 1844.82 899.899 1999.9 918.881C1816.91 905.076 1558.79 925.285 1230.34 977.245Z" fill="white"/>
<mask id="mask17_870_17" style="mask-type:luminance" maskUnits="userSpaceOnUse" x="0" y="822" width="2065" height="160">
<path d="M60.2822 837.624C118.494 856.261 180.885 869.375 243.276 879.077C320.93 891.118 400.578 898.174 479.842 902.277C576.631 907.263 674.148 907.915 771.129 905.997C887.053 903.658 1002.98 897.599 1118.33 889.163C1214.77 882.107 1311.41 875.933 1408.16 871.369C1490.37 867.535 1572.9 864.812 1655.31 864.544C1721.72 864.314 1788.95 865.579 1855.02 870.564C1904.22 874.284 1956.18 880.189 2003 891.655L2015.5 894.723L2064.86 915.661L2008.1 912.516L1995.22 910.407C1939.5 901.204 1879.29 898.328 1822.19 897.637C1747 896.755 1671.14 899.862 1596.29 904.578C1506.48 910.254 1416.86 918.46 1327.7 927.855C1226.89 938.478 1126.38 950.749 1026.14 963.863L1025.79 963.902L1025.45 963.94C917.463 974.179 808.173 980.736 699.189 981.005C609.61 981.235 519.416 977.17 431.14 966.394C291.939 949.407 158.298 915.546 45.9403 854.267L36.1617 848.936L0 822.63L49.0081 834.057L60.2822 837.624Z" fill="white"/>
</mask>
<g mask="url(#mask17_870_17)">
<path d="M2064.9 822.545H0V981.151H2064.9V822.545Z" fill="white"/>
</g>
<mask id="mask18_870_17" style="mask-type:luminance" maskUnits="userSpaceOnUse" x="54" y="846" width="1945" height="126">
<path d="M1023.61 954.2C549.099 999.22 247.611 951.823 54.5317 846.521C267.629 914.741 617.664 933.991 1119.82 898.865C1531.75 867.152 1843.06 862.818 1998.48 900.859C1802.22 868.494 1443.9 899.287 1023.61 954.2Z" fill="white"/>
</mask>
<g mask="url(#mask18_870_17)">
<path d="M1998.44 846.521H54.4924V999.22H1998.44V846.521Z" fill="white"/>
</g>
</svg>
