<svg width="209" height="191" viewBox="0 0 209 191" fill="none" xmlns="http://www.w3.org/2000/svg">
<mask id="mask0_556_16" style="mask-type:luminance" maskUnits="userSpaceOnUse" x="23" y="38" width="50" height="44">
<path d="M35.9575 76.8412L41.1349 69.2146V49.7451H48.4515V58.4258L61.9724 38.4951L72.4009 54.0389L68.0334 61.4679L61.9647 52.4578L42.2161 81.6543H23.0023L35.9575 76.8412Z" fill="white"/>
</mask>
<g mask="url(#mask0_556_16)">
<path d="M72.4009 38.4951H23.0023V81.6544H72.4009V38.4951Z" fill="url(#paint0_linear_556_16)"/>
</g>
<mask id="mask1_556_16" style="mask-type:luminance" maskUnits="userSpaceOnUse" x="43" y="53" width="25" height="29">
<path d="M61.9608 58.8249L46.4828 81.6543H43.0028L61.9724 53.6746L67.6459 62.1267L66.0299 64.8781L61.9608 58.8249Z" fill="white"/>
</mask>
<g mask="url(#mask1_556_16)">
<path d="M67.6459 53.6746H43.0028V81.6505H67.6459V53.6746Z" fill="url(#paint1_linear_556_16)"/>
</g>
<mask id="mask2_556_16" style="mask-type:luminance" maskUnits="userSpaceOnUse" x="40" y="45" width="10" height="5">
<path d="M49.2149 45.1683H40.3676V49.6172H49.2149V45.1683Z" fill="white"/>
</mask>
<g mask="url(#mask2_556_16)">
<path d="M49.2149 45.1683H40.3676V49.6172H49.2149V45.1683Z" fill="url(#paint2_linear_556_16)"/>
</g>
<mask id="mask3_556_16" style="mask-type:luminance" maskUnits="userSpaceOnUse" x="138" y="38" width="51" height="44">
<path d="M175.786 76.8412L188.741 81.6543H169.528L149.779 52.4578L143.342 62.0143L138.979 54.5814L149.771 38.4951L163.292 58.4258V49.7451H170.609V69.2146L175.786 76.8412Z" fill="white"/>
</mask>
<g mask="url(#mask3_556_16)">
<path d="M188.737 38.4951H138.979V81.6544H188.737V38.4951Z" fill="url(#paint3_linear_556_16)"/>
</g>
<mask id="mask4_556_16" style="mask-type:luminance" maskUnits="userSpaceOnUse" x="143" y="53" width="26" height="29">
<path d="M149.783 58.8249L145.346 65.4284L143.73 62.6731L149.771 53.6746L168.741 81.6543H165.261L149.783 58.8249Z" fill="white"/>
</mask>
<g mask="url(#mask4_556_16)">
<path d="M168.741 53.6746H143.73V81.6505H168.741V53.6746Z" fill="url(#paint4_linear_556_16)"/>
</g>
<mask id="mask5_556_16" style="mask-type:luminance" maskUnits="userSpaceOnUse" x="162" y="45" width="10" height="5">
<path d="M171.376 45.1683H162.529V49.6172H171.376V45.1683Z" fill="white"/>
</mask>
<g mask="url(#mask5_556_16)">
<path d="M171.376 45.1683H162.529V49.6172H171.376V45.1683Z" fill="url(#paint5_linear_556_16)"/>
</g>
<mask id="mask6_556_16" style="mask-type:luminance" maskUnits="userSpaceOnUse" x="27" y="39" width="45" height="42">
<path d="M36.4574 77.4768L27.2845 80.8832H36.9341H41.8053L61.9685 51.0821L67.9908 60.0263L71.4941 54.066L61.9685 39.8708L47.6842 60.9292V50.5124H41.9022V69.451L36.4574 77.4768Z" fill="white"/>
</mask>
<g mask="url(#mask6_556_16)">
<path d="M71.4941 39.8708H27.2845V80.8832H71.4941V39.8708Z" fill="url(#paint6_linear_556_16)"/>
</g>
<mask id="mask7_556_16" style="mask-type:luminance" maskUnits="userSpaceOnUse" x="44" y="55" width="23" height="26">
<path d="M44.4561 80.8832L61.9686 55.0504L66.7391 62.1538L65.9834 63.4365L61.9647 57.4492L46.0759 80.8832H44.4561Z" fill="white"/>
</mask>
<g mask="url(#mask7_556_16)">
<path d="M66.7391 55.0504H44.4561V80.8832H66.7391V55.0504Z" fill="url(#paint7_linear_556_16)"/>
</g>
<mask id="mask8_556_16" style="mask-type:luminance" maskUnits="userSpaceOnUse" x="139" y="39" width="46" height="42">
<path d="M175.286 77.4768L184.459 80.8832H174.81H169.938L149.775 51.0821L143.385 60.5727L139.885 54.6086L149.775 39.8708L164.06 60.9292V50.5124H169.842V69.451L175.286 77.4768Z" fill="white"/>
</mask>
<g mask="url(#mask8_556_16)">
<path d="M184.459 39.8708H139.885V80.8832H184.459V39.8708Z" fill="url(#paint8_linear_556_16)"/>
</g>
<mask id="mask9_556_16" style="mask-type:luminance" maskUnits="userSpaceOnUse" x="144" y="55" width="24" height="26">
<path d="M167.288 80.8832L149.775 55.0504L144.636 62.7041L145.388 63.9868L149.779 57.4492L165.668 80.8832H167.288Z" fill="white"/>
</mask>
<g mask="url(#mask9_556_16)">
<path d="M167.288 55.0504H144.636V80.8832H167.288V55.0504Z" fill="url(#paint9_linear_556_16)"/>
</g>
<mask id="mask10_556_16" style="mask-type:luminance" maskUnits="userSpaceOnUse" x="31" y="41" width="149" height="40">
<path d="M31.7605 80.081H41.379L61.9685 49.6443L67.9442 58.5187L70.5446 54.097L61.9646 41.3124L46.8781 63.5489V51.3184H42.7082V69.6951L36.9805 78.1394L31.7605 80.081ZM41.9409 46.7417V48.0399H47.6415V46.7417H41.9409ZM169.035 51.3184H164.866V63.5489L149.779 41.3085L140.835 54.6396L143.431 59.0652L149.771 49.6482L170.361 80.0848H179.979L174.763 78.1472L169.035 69.7029V51.3184V51.3184ZM169.803 46.7417H164.102V48.0399H169.803V46.7417Z" fill="white"/>
</mask>
<g mask="url(#mask10_556_16)">
<path d="M179.979 41.3085H31.7605V80.081H179.979V41.3085Z" fill="url(#paint10_linear_556_16)"/>
</g>
<mask id="mask11_556_16" style="mask-type:luminance" maskUnits="userSpaceOnUse" x="58" y="-1" width="95" height="83">
<path d="M98.5437 34.4337H112.917L105.585 21.1995L98.5437 34.4337ZM124.803 46.5983L105.872 13.7745L86.941 46.5983H90.0103L86.2125 53.1747H75.1989L105.872 -0.0100098L136.351 53.1747H98.3344L102.132 46.5983H102.578C109.984 46.5983 117.393 46.5983 124.803 46.5983ZM75.846 65.8353L70.5175 75.0779H75.722L79.7833 68.0365C84.3872 60.0495 88.995 52.0664 93.6066 44.0832L93.6027 44.0794L97.1137 37.9874H114.63L118.42 44.5638H101.152L92.6765 59.2628H116.917L120.714 65.8392H88.8864L79.764 81.6543H58.7792L71.6917 59.2628H82.7092L78.9153 65.8392H75.846V65.8353ZM136.022 75.0779H141.226L135.898 65.8353H132.887L129.093 59.2589H139.622L145.129 68.4783L152.678 81.6505H131.984L116.63 55.0271H124.458L136.022 75.0779Z" fill="white"/>
</mask>
<g mask="url(#mask11_556_16)">
<path d="M152.678 -0.0140686H58.7751V81.6542H152.678V-0.0140686Z" fill="url(#paint11_linear_556_16)"/>
</g>
<mask id="mask12_556_16" style="mask-type:luminance" maskUnits="userSpaceOnUse" x="60" y="1" width="92" height="80">
<path d="M135.026 52.4035H99.6675L102.574 47.3656C110.425 47.3656 118.277 47.3656 126.132 47.3656L111.859 22.614L105.872 12.236L85.6118 47.3656H88.681L85.7745 52.4035H82.7092H76.5358L105.876 1.5285L135.026 52.4035ZM60.1045 80.8832L72.1296 60.0301H78.3029H81.3722L79.9034 62.5723L78.4618 65.068H75.3965L69.1805 75.8491H76.1638L80.446 68.424C87.6928 55.8758 88.8864 53.7909 94.6567 43.7965L94.6529 43.7926L97.5555 38.7624H98.7762H103.613H108.135H113.095H114.188L117.095 43.8003H113.099H111.042H100.71L91.3472 60.034H116.475L119.381 65.0719H88.4407L79.3183 80.887H78.7137H73.265H66.2817H65.4175H60.1045V80.8832ZM130.422 60.0301H133.433H139.184L144.458 68.862L146.508 72.4389L151.345 80.8832H147.919H145.462H138.479H134.623H132.425L117.959 55.7983H124.012L135.576 75.8491H142.559L136.343 65.068H133.332L130.422 60.0301Z" fill="white"/>
</mask>
<g mask="url(#mask12_556_16)">
<path d="M151.349 1.5285H60.1045V80.8832H151.349V1.5285Z" fill="url(#paint12_linear_556_16)"/>
</g>
<mask id="mask13_556_16" style="mask-type:luminance" maskUnits="userSpaceOnUse" x="119" y="56" width="31" height="25">
<path d="M131.817 60.8362L133.797 64.2619H136.805L143.951 76.6513H135.111L123.547 56.6005H119.35L132.891 80.0809H149.961L143.769 69.2766L138.731 60.8362H131.817Z" fill="white"/>
</mask>
<g mask="url(#mask13_556_16)">
<path d="M149.957 56.6005H119.35V80.0771H149.957V56.6005Z" fill="url(#paint13_linear_556_16)"/>
</g>
<mask id="mask14_556_16" style="mask-type:luminance" maskUnits="userSpaceOnUse" x="61" y="25" width="57" height="56">
<path d="M101.702 32.8836H109.763L105.651 25.5864L101.702 32.8836ZM61.4996 80.081H78.8533L87.9757 64.2658H117.986L116.006 60.8401H89.9521L100.245 42.9943H115.704L113.727 39.5685H98.0283L95.7651 43.4903L95.769 43.4942L95.3621 44.1995C90.6226 52.4074 85.8869 60.6192 81.1513 68.8271L76.6366 76.6552H67.797L74.9431 64.2658H78.0084L79.9887 60.8401H72.6024L61.4996 80.081Z" fill="white"/>
</mask>
<g mask="url(#mask14_556_16)">
<path d="M117.986 25.5864H61.4996V80.081H117.986V25.5864Z" fill="url(#paint14_linear_556_16)"/>
</g>
<mask id="mask15_556_16" style="mask-type:luminance" maskUnits="userSpaceOnUse" x="77" y="3" width="57" height="49">
<path d="M133.638 51.5975L105.868 3.14062L77.9231 51.5975H85.3056L87.2858 48.1678H84.2166L105.868 10.6238L127.523 48.1678H126.132C118.436 48.1678 110.739 48.1678 103.039 48.1678L101.059 51.5975H133.638Z" fill="white"/>
</mask>
<g mask="url(#mask15_556_16)">
<path d="M133.639 3.14453H77.9232V51.6014H133.639V3.14453Z" fill="url(#paint15_linear_556_16)"/>
</g>
<mask id="mask16_556_16" style="mask-type:luminance" maskUnits="userSpaceOnUse" x="16" y="177" width="184" height="14">
<path d="M196.942 188.655H192.826L192.059 190.895H190.516L194.279 180.696H195.496L199.259 190.895H197.717L196.942 188.655ZM187.912 190.895H186.482V180.696H187.912V190.895ZM177.488 180.688H180.103C180.692 180.688 181.208 180.808 181.657 181.056C182.103 181.296 182.452 181.641 182.696 182.091C182.944 182.536 183.064 183.052 183.064 183.637C183.064 184.222 182.94 184.738 182.692 185.183C182.444 185.629 182.095 185.974 181.65 186.218C181.487 186.307 181.316 186.377 181.138 186.431L183.49 190.895H181.793L179.615 186.582H177.484V190.895H176.054V180.688H176.678H177.488V180.688ZM177.488 185.222H180.158C180.429 185.222 180.669 185.156 180.882 185.024C181.092 184.893 181.254 184.707 181.371 184.466C181.483 184.226 181.541 183.951 181.541 183.637C181.541 183.323 181.483 183.044 181.371 182.808C181.254 182.567 181.092 182.377 180.886 182.25C180.681 182.118 180.437 182.052 180.162 182.052H177.491V185.222H177.488ZM168.423 179.169L170.361 177.448L171.283 178.409L169.214 179.994L168.423 179.169ZM170.671 187.295L169.078 182.664L167.489 187.295H170.671ZM168.474 180.696H169.69L173.453 190.895H171.911L171.144 188.655H167.028L166.261 190.895H164.718L168.474 180.696ZM162.11 190.895H160.68V180.696H162.11V190.895ZM151.384 180.696H152.813V189.535H157.933V190.895H152.813H152.097H151.38V180.696H151.384ZM147.799 190.895H146.369V180.696H147.799V190.895ZM137.46 180.696H140.056C140.715 180.696 141.269 180.808 141.711 181.033C142.156 181.257 142.49 181.575 142.711 181.986C142.928 182.397 143.04 182.889 143.04 183.463C143.04 183.811 142.974 184.141 142.835 184.447C142.699 184.753 142.494 185.013 142.215 185.234C141.936 185.451 141.591 185.598 141.18 185.671C141.591 185.733 141.947 185.881 142.246 186.109C142.544 186.342 142.776 186.633 142.931 186.977C143.09 187.326 143.172 187.698 143.172 188.101V188.125C143.172 188.675 143.048 189.159 142.804 189.582C142.563 190.004 142.211 190.33 141.761 190.554C141.308 190.783 140.781 190.899 140.176 190.899H137.46H136.878H136.037V180.699H136.878H137.46V180.696ZM137.46 185.017H139.994C140.521 185.017 140.92 184.893 141.188 184.645C141.459 184.396 141.591 184.028 141.591 183.544C141.591 183.032 141.439 182.653 141.141 182.401C140.843 182.149 140.393 182.021 139.796 182.021H137.46V185.017ZM137.46 189.57H139.641C140.366 189.57 140.897 189.434 141.226 189.155C141.56 188.88 141.726 188.493 141.726 187.993V187.97C141.726 187.625 141.668 187.326 141.548 187.078C141.428 186.83 141.238 186.64 140.982 186.505C140.723 186.373 140.397 186.307 139.994 186.307H137.46V189.57ZM129.073 191C128.364 191 127.736 190.845 127.19 190.531C126.647 190.221 126.229 189.783 125.934 189.214C125.636 188.648 125.489 187.989 125.489 187.241V184.35C125.489 183.602 125.636 182.943 125.934 182.374C126.233 181.808 126.651 181.366 127.19 181.056C127.733 180.746 128.36 180.591 129.073 180.591C129.783 180.591 130.41 180.746 130.953 181.056C131.495 181.366 131.914 181.808 132.212 182.374C132.511 182.939 132.658 183.598 132.658 184.35V187.241C132.658 187.989 132.511 188.648 132.212 189.214C131.914 189.783 131.495 190.221 130.953 190.531C130.41 190.845 129.783 191 129.073 191ZM129.073 189.589C129.492 189.589 129.864 189.493 130.186 189.303C130.507 189.113 130.751 188.845 130.926 188.497C131.104 188.148 131.189 187.749 131.189 187.287V184.3C131.189 183.842 131.104 183.439 130.926 183.091C130.751 182.742 130.503 182.474 130.186 182.284C129.864 182.095 129.492 181.998 129.073 181.998C128.651 181.998 128.283 182.095 127.961 182.284C127.64 182.474 127.395 182.742 127.217 183.091C127.039 183.439 126.954 183.842 126.954 184.3V187.287C126.954 187.749 127.039 188.148 127.217 188.497C127.391 188.845 127.64 189.113 127.961 189.303C128.283 189.496 128.655 189.589 129.073 189.589ZM120.776 180.696H122.113V190.895H120.718V183.257L120.792 183.707L118.281 189.477H117.285L114.773 183.846L114.843 183.257V190.895H113.448V180.696H114.789L117.785 187.431L120.776 180.696ZM109.86 190.895H108.43V180.696H109.86V190.895ZM193.295 187.295H196.477L194.884 182.664L193.295 187.295ZM101.059 188.655H96.9432L96.1759 190.895H94.6335L98.3964 180.696H99.6133L103.376 190.895H101.834L101.059 188.655ZM86.8984 180.688H89.5142C90.1033 180.688 90.6187 180.808 91.0682 181.056C91.5139 181.296 91.8588 181.641 92.1068 182.091C92.3548 182.536 92.475 183.052 92.475 183.637C92.475 184.222 92.351 184.738 92.1029 185.183C91.8549 185.629 91.5061 185.974 91.0605 186.218C90.8977 186.307 90.7272 186.377 90.5489 186.431L92.9012 190.895H91.2039L89.0259 186.582H86.8945V190.895H85.4645V180.688H86.0885H86.8984V180.688ZM86.8984 185.222H89.5685C89.8398 185.222 90.08 185.156 90.2932 185.024C90.5024 184.893 90.6652 184.707 90.7815 184.466C90.8938 184.226 90.952 183.951 90.952 183.637C90.952 183.323 90.8938 183.044 90.7815 182.808C90.6652 182.567 90.5024 182.377 90.297 182.25C90.0916 182.118 89.8475 182.052 89.5724 182.052H86.9023V185.222H86.8984ZM78.5084 191C77.7953 191 77.1714 190.845 76.625 190.531C76.0824 190.221 75.6639 189.783 75.3694 189.214C75.071 188.648 74.9237 187.989 74.9237 187.241V184.35C74.9237 183.602 75.071 182.943 75.3694 182.374C75.6678 181.808 76.0863 181.366 76.625 181.056C77.1675 180.746 77.7953 180.591 78.5084 180.591C79.2175 180.591 79.8453 180.746 80.3879 181.056C80.9304 181.366 81.349 181.808 81.6474 182.374C81.9458 182.939 82.093 183.598 82.093 184.35V187.241C82.093 187.989 81.9458 188.648 81.6474 189.214C81.349 189.783 80.9304 190.221 80.3879 190.531C79.8453 190.845 79.2175 191 78.5084 191ZM78.5084 189.589C78.9269 189.589 79.2989 189.493 79.6206 189.303C79.9422 189.113 80.1864 188.845 80.3607 188.497C80.539 188.148 80.6243 187.749 80.6243 187.287V184.3C80.6243 183.842 80.539 183.439 80.3607 183.091C80.1864 182.742 79.9383 182.474 79.6206 182.284C79.2989 182.095 78.9269 181.998 78.5084 181.998C78.0859 181.998 77.7178 182.095 77.3961 182.284C77.0745 182.474 76.8304 182.742 76.6521 183.091C76.4738 183.439 76.3886 183.842 76.3886 184.3V187.287C76.3886 187.749 76.4738 188.148 76.6521 188.497C76.8265 188.845 77.0745 189.113 77.3961 189.303C77.7178 189.496 78.0898 189.589 78.5084 189.589ZM70.0679 182.06V190.895H68.6379V182.06H65.7547V180.696H72.9512V182.06H70.0679ZM57.5081 180.696H58.2017H58.9381H64.0573V182.06H58.9381V185.152H63.29V186.512H58.9419V189.535H64.0612V190.895H58.9419H58.2056H57.5119V180.696H57.5081ZM48.5174 180.688H51.1332C51.7222 180.688 52.2376 180.808 52.6872 181.056C53.1328 181.296 53.4816 181.641 53.7258 182.091C53.9738 182.536 54.0939 183.052 54.0939 183.637C54.0939 184.222 53.9699 184.738 53.7219 185.183C53.4739 185.629 53.1251 185.974 52.6794 186.218C52.5167 186.307 52.3462 186.377 52.1679 186.431L54.5202 190.895H52.8228L50.6449 186.582H48.5135V190.895H47.0835V180.688H47.7074H48.5174V180.688ZM48.5174 185.222H51.1874C51.4587 185.222 51.699 185.156 51.9121 185.024C52.1214 184.893 52.2841 184.707 52.4004 184.466C52.5128 184.226 52.5709 183.951 52.5709 183.637C52.5709 183.323 52.5128 183.044 52.4004 182.808C52.2841 182.567 52.1214 182.377 51.916 182.25C51.7106 182.118 51.4665 182.052 51.1913 182.052H48.5212V185.222H48.5174ZM38.0928 180.688H40.7086C41.2977 180.688 41.8131 180.808 42.2626 181.056C42.7083 181.296 43.057 181.641 43.3012 182.091C43.5492 182.536 43.6693 183.052 43.6693 183.637C43.6693 184.222 43.5453 184.738 43.2973 185.183C43.0493 185.629 42.7005 185.974 42.2549 186.218C42.0921 186.307 41.9216 186.377 41.7433 186.431L44.0956 190.895H42.3982L40.2203 186.582H38.0889V190.895H36.6589V180.688H37.2828H38.0928V180.688ZM38.0928 185.222H40.7629C41.0341 185.222 41.2744 185.156 41.4875 185.024C41.6968 184.893 41.8596 184.707 41.9758 184.466C42.0882 184.226 42.1463 183.951 42.1463 183.637C42.1463 183.323 42.0882 183.044 41.9758 182.808C41.8596 182.567 41.6968 182.377 41.4914 182.25C41.286 182.118 41.0419 182.052 40.7667 182.052H38.0967V185.222H38.0928ZM29.7027 191C28.9936 191 28.3658 190.845 27.8193 190.531C27.2768 190.221 26.8583 189.783 26.5637 189.214C26.2653 188.648 26.1181 187.989 26.1181 187.241V184.35C26.1181 183.602 26.2653 182.943 26.5637 182.374C26.8621 181.808 27.2807 181.366 27.8193 181.056C28.3619 180.746 28.9897 180.591 29.7027 180.591C30.4119 180.591 31.0397 180.746 31.5823 181.056C32.1248 181.366 32.5433 181.808 32.8417 182.374C33.1401 182.939 33.2874 183.598 33.2874 184.35V187.241C33.2874 187.989 33.1401 188.648 32.8417 189.214C32.5433 189.783 32.1248 190.221 31.5823 190.531C31.0397 190.845 30.4119 191 29.7027 191ZM29.7027 189.589C30.1213 189.589 30.4933 189.493 30.8149 189.303C31.1366 189.113 31.3807 188.845 31.559 188.497C31.7373 188.148 31.8225 187.749 31.8225 187.287V184.3C31.8225 183.842 31.7373 183.439 31.559 183.091C31.3846 182.742 31.1366 182.474 30.8149 182.284C30.4933 182.095 30.1213 181.998 29.7027 181.998C29.2803 181.998 28.9122 182.095 28.5905 182.284C28.2689 182.474 28.0247 182.742 27.8503 183.091C27.6721 183.439 27.5868 183.842 27.5868 184.3V187.287C27.5868 187.749 27.6721 188.148 27.8503 188.497C28.0247 188.845 28.2728 189.113 28.5905 189.303C28.9122 189.496 29.2803 189.589 29.7027 189.589ZM19.7199 191C19.0146 191 18.3946 190.845 17.8559 190.531C17.3211 190.217 16.9065 189.772 16.612 189.198C16.3174 188.624 16.1702 187.954 16.1702 187.198V184.4C16.1702 183.645 16.3174 182.974 16.612 182.401C16.9065 181.827 17.3211 181.382 17.8559 181.064C18.3907 180.746 19.0108 180.591 19.7199 180.591C20.3051 180.591 20.8438 180.719 21.3321 180.967C21.8242 181.215 22.2311 181.571 22.5644 182.029C22.8938 182.486 23.1186 183.017 23.2348 183.621H21.7661C21.677 183.304 21.5297 183.017 21.3204 182.769C21.1112 182.517 20.867 182.327 20.588 182.188C20.309 182.052 20.0183 181.986 19.7199 181.986C19.3014 181.986 18.941 182.087 18.6271 182.288C18.3132 182.49 18.0691 182.773 17.8985 183.133C17.728 183.497 17.6389 183.92 17.6389 184.4V187.198C17.6389 187.675 17.7242 188.097 17.8985 188.462C18.0691 188.83 18.3132 189.109 18.6271 189.307C18.941 189.504 19.3053 189.605 19.7199 189.605C20.0222 189.605 20.3129 189.543 20.5919 189.415C20.8709 189.287 21.1112 189.101 21.3204 188.853C21.5297 188.605 21.677 188.311 21.7661 187.97H23.2348C23.1186 188.574 22.8938 189.105 22.5605 189.562C22.2311 190.023 21.8165 190.376 21.3282 190.624C20.836 190.876 20.2974 191 19.7199 191ZM97.4082 187.295H100.59L98.9971 182.664L97.4082 187.295Z" fill="white"/>
</mask>
<g mask="url(#mask16_556_16)">
<path d="M199.255 177.448H16.1702V191H199.255V177.448Z" fill="white"/>
</g>
<path fill-rule="evenodd" clip-rule="evenodd" d="M13.2985 168.492L21.7661 111.653C21.7893 111.494 21.925 111.378 22.0839 111.378L42.933 111.347C43.0919 111.347 43.2237 111.459 43.2508 111.614L52.9778 167.826C52.9972 167.946 52.9546 168.054 52.8616 168.132L52.0826 168.76C52.0245 168.806 51.9586 168.829 51.8811 168.829L38.5888 168.86C38.4222 168.86 38.2865 168.74 38.2671 168.574L36.7442 155.033C36.7248 154.871 36.5891 154.747 36.4225 154.747H28.5363C28.3657 154.747 28.2224 154.882 28.2146 155.053L27.6411 167.868C27.6372 167.961 27.5984 168.039 27.5287 168.097L26.7304 168.779C26.6684 168.829 26.6025 168.856 26.5211 168.856H13.6163C13.5194 168.856 13.4342 168.818 13.3722 168.744C13.3102 168.678 13.2869 168.589 13.2985 168.492ZM54.7372 111.378H67.4947C67.673 111.378 67.8164 111.521 67.8164 111.7V155.157C67.8164 156.758 68.0528 157.827 68.5178 158.37C68.979 158.912 69.9323 159.188 71.3855 159.188C72.8116 159.188 73.765 158.909 74.2416 158.37C74.7183 157.827 74.9547 156.758 74.9547 155.157V111.7C74.9547 111.521 75.0981 111.378 75.2763 111.378H87.4758C87.6541 111.378 87.7974 111.521 87.7974 111.7V150.321C87.7974 154.812 87.5611 158.103 87.096 160.18C86.6349 162.253 85.8675 164.024 84.7825 165.466C83.6199 166.973 82.0349 168.031 80.0391 168.651C78.0433 169.271 75.0438 169.577 71.0522 169.577C66.9677 169.577 63.9566 169.275 61.9995 168.651C60.0309 168.031 58.4846 166.973 57.3492 165.466C56.2912 164.078 55.5394 162.361 55.0899 160.311C54.6403 158.277 54.4156 154.948 54.4156 150.321V111.7C54.4156 111.525 54.5589 111.378 54.7372 111.378ZM112.596 154.34C112.596 152.359 112.227 150.995 111.499 150.243C110.759 149.492 109.371 149.12 107.364 149.12H105.465C105.287 149.12 105.143 149.263 105.143 149.441V168.539C105.143 168.717 105 168.86 104.822 168.86H92.0642C91.8859 168.86 91.7425 168.717 91.7425 168.539V111.7C91.7425 111.521 91.8859 111.378 92.0642 111.378H105.682C113.956 111.378 119.412 112.42 122.082 114.509C124.737 116.61 126.074 120.481 126.074 126.123V132.704C126.074 136.033 125.345 138.571 123.908 140.315C122.691 141.764 120.846 142.822 118.354 143.481C118.211 143.52 118.114 143.648 118.114 143.795C118.118 143.946 118.219 144.07 118.362 144.105C120.637 144.636 122.381 145.574 123.574 146.911C125.028 148.534 125.768 150.836 125.768 153.797V168.539C125.768 168.717 125.624 168.86 125.446 168.86H112.913C112.735 168.86 112.592 168.717 112.592 168.539V154.34H112.596ZM108.406 121.527H105.465C105.287 121.527 105.143 121.671 105.143 121.849V138.966C105.143 139.145 105.287 139.288 105.465 139.288H108.406C110.139 139.288 111.301 138.997 111.882 138.416C112.464 137.835 112.754 136.765 112.754 135.192V125.662C112.754 124.062 112.464 122.981 111.882 122.399C111.297 121.818 110.135 121.527 108.406 121.527ZM163.649 153.429C163.649 157.382 163.424 160.195 162.986 161.885C162.548 163.578 161.785 165.004 160.7 166.167C159.537 167.434 158.084 168.322 156.325 168.822C154.581 169.325 151.263 169.573 146.373 169.573C141.47 169.573 138.142 169.322 136.398 168.822C134.638 168.318 133.173 167.434 132.011 166.167C130.926 164.977 130.162 163.512 129.697 161.769C129.236 160.025 128.996 157.25 128.996 153.429V126.856C128.996 123.039 129.221 120.26 129.67 118.532C130.12 116.8 130.914 115.346 132.011 114.157C133.201 112.862 134.774 111.963 136.715 111.448C138.672 110.932 141.897 110.669 146.377 110.669C150.845 110.669 154.042 110.932 155.956 111.448C157.886 111.963 159.444 112.862 160.634 114.157C161.731 115.346 162.525 116.8 162.975 118.532C163.424 120.264 163.649 123.039 163.649 126.856V153.429ZM149.934 155.316V125.004C149.934 123.403 149.698 122.333 149.221 121.791C148.744 121.248 147.807 120.973 146.392 120.973C144.95 120.973 143.986 121.252 143.513 121.791C143.036 122.333 142.8 123.403 142.8 125.004V155.316C142.8 156.94 143.036 158.025 143.513 158.552C143.989 159.079 144.954 159.347 146.392 159.347C147.807 159.347 148.744 159.083 149.221 158.552C149.694 158.025 149.934 156.944 149.934 155.316ZM178.499 149.995V155.25C178.499 156.742 178.801 157.8 179.398 158.42C179.991 159.04 180.999 159.347 182.425 159.347C183.971 159.347 185.013 159.056 185.556 158.463C186.098 157.866 186.374 156.746 186.374 155.091V151.022C186.374 149.794 186.296 148.872 186.137 148.279C186.137 148.275 186.137 148.275 186.137 148.271C185.994 147.678 185.73 147.155 185.378 146.694C185.374 146.69 185.37 146.686 185.37 146.682C184.482 145.628 182.463 144.744 179.297 144.058C177.844 143.741 176.724 143.477 175.93 143.241H175.926C172.202 142.183 169.652 140.702 168.249 138.8C166.861 136.897 166.16 133.909 166.16 129.828V124.515C166.16 119.361 167.164 115.769 169.16 113.719C171.155 111.684 174.616 110.665 179.545 110.665H183.51C186.602 110.665 189.141 110.928 191.136 111.459C193.117 111.986 194.675 112.835 195.814 113.994L195.818 113.998C196.728 114.897 197.349 116.044 197.721 117.443C198.077 118.83 198.263 121.062 198.263 124.128V128.259C198.263 128.437 198.12 128.58 197.941 128.58H186.707C186.529 128.58 186.385 128.437 186.385 128.259V124.984C186.385 123.174 186.149 121.973 185.672 121.376C185.184 120.783 184.219 120.493 182.739 120.493C181.312 120.493 180.348 120.772 179.844 121.326C179.34 121.88 179.092 122.911 179.092 124.445V128.158C179.092 130.972 181.495 132.979 186.304 134.196H186.308C187.668 134.564 188.749 134.855 189.555 135.095C193.241 136.126 195.779 137.579 197.155 139.427C198.542 141.291 199.228 144.237 199.228 148.267V156.01C199.228 160.819 198.093 164.268 195.806 166.396C193.52 168.512 189.792 169.566 184.641 169.566H181.072C175.391 169.566 171.492 168.601 169.365 166.659C167.237 164.729 166.168 161.149 166.168 155.928V149.988C166.168 149.809 166.311 149.666 166.489 149.666H178.189C178.352 149.674 178.499 149.821 178.499 149.995ZM29.7957 145.155H35.1553C35.2483 145.155 35.3297 145.12 35.3955 145.047C35.4576 144.977 35.4847 144.892 35.4769 144.799L32.9812 121.733C32.9618 121.57 32.8262 121.446 32.6596 121.446H32.4697C32.3069 121.446 32.1674 121.566 32.148 121.729L29.4741 144.795C29.4625 144.888 29.4896 144.973 29.5555 145.047C29.6175 145.12 29.6988 145.155 29.7957 145.155Z" fill="black"/>
<mask id="mask17_556_16" style="mask-type:luminance" maskUnits="userSpaceOnUse" x="14" y="109" width="187" height="60">
<path d="M14.2945 167.644L22.7621 110.804C22.7853 110.646 22.9209 110.529 23.0798 110.529H43.9484C44.1072 110.529 44.2429 110.646 44.2661 110.804L52.9546 167.644C52.9701 167.74 52.9429 167.83 52.8809 167.903C52.8189 167.977 52.7337 168.016 52.6368 168.016H39.5809C39.4143 168.016 39.2786 167.892 39.2592 167.729L37.7362 154.188C37.7169 154.026 37.5812 153.902 37.4146 153.902H29.5051C29.3385 153.902 29.2028 154.026 29.1834 154.188L27.6604 167.729C27.6411 167.892 27.5054 168.016 27.3388 168.016H14.6007C14.5038 168.016 14.4185 167.977 14.3565 167.903C14.3061 167.826 14.279 167.737 14.2945 167.644ZM55.7293 110.529H68.4868C68.6651 110.529 68.8085 110.673 68.8085 110.851V154.309C68.8085 155.909 69.0448 156.979 69.5099 157.521C69.971 158.064 70.9244 158.339 72.3776 158.339C73.8037 158.339 74.7571 158.06 75.2337 157.521C75.7104 156.979 75.9468 155.909 75.9468 154.309V110.851C75.9468 110.673 76.0902 110.529 76.2684 110.529H88.4679C88.6462 110.529 88.7895 110.673 88.7895 110.851V149.472C88.7895 153.964 88.5531 157.254 88.0881 159.331C87.6269 161.404 86.8596 163.175 85.7745 164.617C84.612 166.124 83.027 167.179 81.0312 167.802C79.0354 168.422 76.0359 168.729 72.0443 168.729C67.9598 168.729 64.9486 168.426 62.9916 167.802C61.023 167.182 59.4767 166.124 58.3412 164.617C57.2833 163.23 56.5315 161.513 56.0819 159.463C55.6324 157.428 55.4076 154.099 55.4076 149.472V110.851C55.4076 110.673 55.5549 110.529 55.7293 110.529ZM113.588 153.487C113.588 151.503 113.219 150.143 112.491 149.391C111.751 148.639 110.363 148.267 108.356 148.267H106.457C106.279 148.267 106.135 148.41 106.135 148.589V167.686C106.135 167.864 105.992 168.008 105.814 168.008H93.0601C92.8819 168.008 92.7385 167.864 92.7385 167.686V110.851C92.7385 110.673 92.8819 110.529 93.0601 110.529H106.678C114.952 110.529 120.408 111.572 123.078 113.661C125.733 115.761 127.07 119.632 127.07 125.275V131.855C127.07 135.184 126.341 137.722 124.904 139.466C123.687 140.916 121.842 141.974 119.35 142.632C119.207 142.671 119.11 142.799 119.11 142.946C119.114 143.097 119.215 143.221 119.358 143.256C121.633 143.787 123.377 144.725 124.57 146.062C126.023 147.69 126.764 149.988 126.764 152.948V167.69C126.764 167.868 126.62 168.012 126.442 168.012H113.909C113.731 168.012 113.588 167.868 113.588 167.69V153.487V153.487ZM109.398 120.675H106.457C106.279 120.675 106.135 120.818 106.135 120.996V138.114C106.135 138.292 106.279 138.435 106.457 138.435H109.398C111.131 138.435 112.293 138.145 112.875 137.563C113.456 136.982 113.747 135.913 113.747 134.339V124.81C113.747 123.209 113.456 122.128 112.875 121.547C112.293 120.965 111.131 120.675 109.398 120.675ZM164.645 152.576C164.645 156.529 164.42 159.343 163.982 161.032C163.544 162.726 162.781 164.152 161.696 165.314C160.533 166.582 159.08 167.469 157.32 167.969C155.577 168.473 152.259 168.721 147.369 168.721C142.466 168.721 139.138 168.469 137.39 167.969C135.63 167.465 134.166 166.582 133.003 165.314C131.918 164.125 131.154 162.66 130.689 160.916C130.228 159.172 129.988 156.397 129.988 152.576V126.003C129.988 122.186 130.213 119.408 130.662 117.679C131.112 115.947 131.906 114.494 133.003 113.304C134.193 112.01 135.766 111.111 137.708 110.595C139.665 110.08 142.889 109.816 147.369 109.816C151.837 109.816 155.034 110.08 156.948 110.595C158.878 111.111 160.436 112.01 161.626 113.304C162.723 114.494 163.517 115.947 163.967 117.679C164.416 119.411 164.641 122.186 164.641 126.003V152.576H164.645ZM150.926 154.468V124.155C150.926 122.554 150.69 121.485 150.213 120.942C149.736 120.4 148.799 120.125 147.384 120.125C145.943 120.125 144.978 120.404 144.505 120.942C144.028 121.485 143.792 122.554 143.792 124.155V154.468C143.792 156.091 144.028 157.176 144.505 157.703C144.981 158.23 145.946 158.498 147.384 158.498C148.799 158.498 149.736 158.234 150.213 157.703C150.69 157.176 150.926 156.091 150.926 154.468ZM179.491 149.147V154.402C179.491 155.894 179.793 156.952 180.39 157.572C180.983 158.192 181.991 158.498 183.417 158.498C184.963 158.498 186.005 158.207 186.548 157.614C187.091 157.017 187.366 155.898 187.366 154.243V150.174C187.366 148.949 187.288 148.023 187.129 147.43C187.129 147.426 187.129 147.426 187.129 147.422C186.986 146.829 186.722 146.306 186.37 145.845C186.366 145.841 186.366 145.837 186.362 145.833C185.475 144.779 183.456 143.896 180.289 143.21C178.836 142.892 177.716 142.628 176.922 142.392H176.918C173.194 141.334 170.644 139.854 169.241 137.951C167.854 136.048 167.152 133.06 167.152 128.98V123.667C167.152 118.512 168.156 114.92 170.152 112.87C172.147 110.835 175.608 109.816 180.537 109.816H184.502C187.594 109.816 190.133 110.08 192.128 110.611C194.109 111.138 195.667 111.986 196.806 113.145L196.81 113.149C197.721 114.048 198.341 115.195 198.713 116.594C199.069 117.981 199.255 120.214 199.255 123.279V127.41C199.255 127.588 199.112 127.732 198.934 127.732H187.687C187.509 127.732 187.366 127.588 187.366 127.41V124.139C187.366 122.33 187.129 121.128 186.653 120.531C186.164 119.939 185.199 119.648 183.719 119.648C182.293 119.648 181.328 119.927 180.824 120.481C180.32 121.035 180.072 122.066 180.072 123.601V127.313C180.072 130.127 182.475 132.134 187.284 133.351C187.288 133.351 187.288 133.351 187.288 133.351C188.648 133.719 189.73 134.01 190.536 134.25C194.221 135.281 196.759 136.734 198.135 138.583C199.523 140.447 200.208 143.392 200.208 147.422V155.165C200.208 159.974 199.073 163.423 196.787 165.551C194.5 167.667 190.776 168.721 185.622 168.721H182.053C176.371 168.721 172.473 167.756 170.345 165.814C168.218 163.885 167.148 160.304 167.148 155.084V149.143C167.148 148.965 167.292 148.821 167.47 148.821H179.169C179.348 148.825 179.491 148.968 179.491 149.147ZM30.7878 144.303H36.1474C36.2404 144.303 36.3218 144.268 36.3876 144.194C36.4496 144.124 36.4768 144.039 36.469 143.946L33.9733 120.88C33.9539 120.717 33.8183 120.593 33.6517 120.593H33.4618C33.299 120.593 33.1595 120.714 33.1401 120.876L30.4662 143.942C30.4545 144.035 30.4817 144.12 30.5437 144.194C30.6096 144.268 30.6909 144.303 30.7878 144.303Z" fill="white"/>
</mask>
<g mask="url(#mask17_556_16)">
<path d="M200.212 109.812H14.2789V168.725H200.212V109.812Z" fill="url(#paint16_linear_556_16)"/>
</g>
<mask id="mask18_556_16" style="mask-type:luminance" maskUnits="userSpaceOnUse" x="16" y="111" width="183" height="57">
<path d="M28.7223 145.016L31.6598 119.698C31.7063 119.291 32.0473 118.985 32.4581 118.985H34.6631C35.0778 118.985 35.4188 119.291 35.4614 119.702L38.2013 145.019C38.2284 145.256 38.1587 145.469 37.9998 145.643C37.8409 145.818 37.6394 145.911 37.3991 145.911H29.5206C29.2842 145.911 29.0788 145.818 28.9199 145.64C28.7649 145.465 28.6952 145.252 28.7223 145.016ZM17.0382 166.403H25.4786C25.8894 166.403 26.2305 166.097 26.277 165.69L27.7031 153.006C27.7496 152.596 28.0906 152.293 28.5014 152.293H38.4222C38.833 152.293 39.174 152.6 39.2205 153.006L40.6466 165.69C40.6931 166.101 41.0341 166.403 41.4449 166.403H50.1915C50.4356 166.403 50.6449 166.307 50.7999 166.124C50.9588 165.938 51.0208 165.717 50.9859 165.477L42.9447 112.82C42.8826 112.424 42.5494 112.137 42.1502 112.137H24.8818C24.4788 112.137 24.1455 112.428 24.0874 112.823L16.2438 165.477C16.2089 165.717 16.2709 165.938 16.4298 166.121C16.5887 166.307 16.7941 166.403 17.0382 166.403ZM57.0198 112.94V149.468C57.0198 151.418 57.0546 153.379 57.1864 155.328C57.2717 156.572 57.3879 157.893 57.6592 159.114C58.0157 160.734 58.6203 162.311 59.6279 163.64C60.6161 164.946 61.9259 165.772 63.4838 166.264C65.9446 167.043 69.4828 167.113 72.0521 167.113C74.633 167.113 78.0821 167.031 80.5584 166.26C82.1279 165.772 83.4959 164.954 84.4996 163.636C85.5343 162.276 86.1505 160.633 86.5225 158.974C86.7938 157.75 86.9216 156.436 87.0108 155.188C87.1464 153.289 87.1852 151.371 87.1852 149.468V112.94C87.1852 112.498 86.8248 112.134 86.3791 112.134H78.3611C77.9193 112.134 77.555 112.494 77.555 112.94V154.309C77.555 155.708 77.4078 157.482 76.4428 158.583C75.4507 159.715 73.8037 159.951 72.3776 159.951C70.9476 159.951 69.2735 159.722 68.2853 158.568C67.3436 157.467 67.2002 155.7 67.2002 154.312V112.94C67.2002 112.498 66.8398 112.134 66.3941 112.134H57.822C57.3802 112.137 57.0198 112.498 57.0198 112.94ZM114.01 138.703C112.859 139.854 110.941 140.047 109.398 140.047H105.329C104.888 140.047 104.523 139.687 104.523 139.241V119.873C104.523 119.431 104.884 119.067 105.329 119.067H109.398C110.941 119.067 112.863 119.26 114.01 120.411C115.13 121.531 115.355 123.302 115.355 124.814V134.343C115.355 135.843 115.126 137.587 114.01 138.703ZM94.3429 112.94V165.597C94.3429 166.039 94.7033 166.403 95.1489 166.403H103.721C104.163 166.403 104.527 166.043 104.527 165.597V147.465C104.527 147.023 104.888 146.659 105.333 146.659H108.36C110.154 146.659 112.328 146.914 113.65 148.267C114.948 149.6 115.204 151.712 115.204 153.487V165.597C115.204 166.039 115.564 166.403 116.01 166.403H124.357C124.799 166.403 125.163 166.043 125.163 165.597V152.944C125.163 150.906 124.783 148.701 123.381 147.132C121.951 145.535 119.66 144.857 117.61 144.562C117.602 144.562 117.599 144.562 117.591 144.558C115.645 144.229 115.603 141.698 117.54 141.384C119.707 140.989 122.214 140.191 123.675 138.435C125.136 136.68 125.469 134.052 125.469 131.855V125.275C125.469 121.884 124.981 117.195 122.094 114.924C118.827 112.355 110.639 112.137 106.69 112.137H95.1605C94.7071 112.137 94.3429 112.498 94.3429 112.94ZM152.534 154.467C152.534 155.874 152.395 157.688 151.407 158.781C150.415 159.885 148.787 160.106 147.384 160.106C145.974 160.106 144.307 159.893 143.307 158.781C142.323 157.684 142.18 155.87 142.18 154.467V124.155C142.18 122.756 142.327 120.981 143.292 119.88C144.288 118.745 145.954 118.512 147.38 118.512C148.799 118.512 150.426 118.753 151.418 119.88C152.383 120.981 152.531 122.752 152.531 124.155V154.467H152.534ZM163.033 152.576V126.003C163.033 124.403 162.998 122.787 162.87 121.186C162.789 120.167 162.668 119.074 162.413 118.082C162.052 116.699 161.421 115.451 160.448 114.393C159.39 113.242 158.034 112.548 156.538 112.149C155.414 111.847 154.147 111.711 152.988 111.614C151.128 111.463 149.24 111.424 147.373 111.424C145.493 111.424 143.598 111.463 141.726 111.614C140.548 111.711 139.269 111.847 138.126 112.149C136.626 112.544 135.254 113.238 134.197 114.393C133.224 115.447 132.592 116.695 132.232 118.082C131.976 119.074 131.856 120.167 131.774 121.186C131.647 122.783 131.612 124.399 131.612 126.003V152.576C131.612 154.177 131.647 155.793 131.782 157.389C131.867 158.413 131.995 159.509 132.259 160.505C132.627 161.889 133.235 163.171 134.204 164.233C135.2 165.322 136.433 166.024 137.847 166.427C138.913 166.733 140.226 166.849 141.331 166.934C143.338 167.085 145.369 167.12 147.38 167.12C149.384 167.12 151.414 167.089 153.414 166.934C154.519 166.849 155.825 166.733 156.89 166.427C158.309 166.02 159.526 165.311 160.525 164.225C161.475 163.199 162.087 161.986 162.436 160.633C162.692 159.645 162.804 158.54 162.885 157.529C163.002 155.886 163.033 154.223 163.033 152.576ZM177.077 150.433H169.563C169.121 150.433 168.756 150.794 168.756 151.239V155.091C168.756 158.009 169.101 162.513 171.427 164.632C173.849 166.834 178.976 167.12 182.053 167.12H185.622C188.858 167.12 193.198 166.694 195.694 164.377C198.112 162.133 198.6 158.289 198.6 155.169V147.426C198.6 145.008 198.344 141.567 196.845 139.548C195.38 137.579 192.369 136.443 190.102 135.8C189.028 135.498 187.951 135.199 186.901 134.917C186.897 134.917 186.893 134.913 186.885 134.913C183.068 133.948 178.464 131.917 178.464 127.313V123.601C178.464 122.186 178.642 120.497 179.634 119.404C180.65 118.284 182.289 118.043 183.723 118.043C185.211 118.043 186.908 118.295 187.908 119.524C188.865 120.706 188.982 122.686 188.982 124.143V125.325C188.982 125.767 189.342 126.131 189.788 126.131H196.841C197.283 126.131 197.647 125.771 197.647 125.325V123.287C197.647 121.411 197.631 118.826 197.159 117.005C196.891 115.982 196.442 115.044 195.682 114.296L195.659 114.273C194.601 113.188 193.163 112.552 191.718 112.165C189.443 111.56 186.85 111.424 184.506 111.424H180.541C177.646 111.424 173.465 111.785 171.306 113.994C169.101 116.249 168.764 120.706 168.764 123.667V128.98C168.764 131.448 169.028 134.932 170.539 137.001C172.019 139.024 175.046 140.183 177.364 140.846C178.437 141.152 179.541 141.404 180.63 141.64C182.847 142.121 186.083 142.997 187.602 144.81L187.614 144.826C187.621 144.833 187.625 144.841 187.633 144.849L187.645 144.864C188.145 145.512 188.501 146.248 188.691 147.011C188.691 147.015 188.695 147.019 188.695 147.027C188.951 147.996 188.986 149.182 188.986 150.181V154.25C188.986 155.739 188.796 157.552 187.746 158.703C186.676 159.877 184.928 160.114 183.425 160.114C181.925 160.114 180.317 159.823 179.235 158.692C178.158 157.564 177.891 155.909 177.891 154.405V151.243C177.883 150.794 177.519 150.433 177.077 150.433Z" fill="white"/>
</mask>
<g mask="url(#mask18_556_16)">
<path d="M198.6 111.424H16.205V167.116H198.6V111.424Z" fill="url(#paint17_linear_556_16)"/>
</g>
<mask id="mask19_556_16" style="mask-type:luminance" maskUnits="userSpaceOnUse" x="33" y="90" width="176" height="15">
<path d="M40.9953 100.922C47.4012 101.488 53.9001 101.666 60.3486 101.616C67.6574 101.562 74.974 101.221 82.244 100.713C98.8497 99.5505 115.444 97.5276 131.805 95.2373C145.408 93.3345 159.343 91.7689 173.194 91.1489C182.835 90.7148 193 90.7109 202.545 91.8774L203.89 92.0402L208.583 93.4624L203.51 93.9352L202.154 93.8344C197.151 93.4585 192.078 93.3655 187.048 93.4353C181.049 93.5205 175.05 93.8344 169.086 94.2917C154.243 95.4272 139.401 97.4113 124.845 99.7133L124.807 99.7171C115.959 100.942 107.069 102.035 98.1367 102.91C90.4868 103.658 82.7788 104.255 75.067 104.565C68.6611 104.821 62.1816 104.891 55.7796 104.585C50.6409 104.337 45.3938 103.84 40.4334 102.852L39.1778 102.6L36.0194 101.461L33.5392 100.097L39.7048 100.806L40.9953 100.922Z" fill="white"/>
</mask>
<g mask="url(#mask19_556_16)">
<path d="M208.579 90.7071H33.5354V104.891H208.579V90.7071Z" fill="url(#paint18_linear_556_16)"/>
</g>
<path fill-rule="evenodd" clip-rule="evenodd" d="M124.535 98.7483C86.7511 103.98 58.097 105.348 40.8209 101.903C65.0338 104.046 97.0284 101.12 132.081 96.2061C164.001 91.7495 186.633 90.9318 202.305 92.8501C183.812 91.455 157.727 93.4973 124.535 98.7483Z" fill="#DADADA"/>
<mask id="mask20_556_16" style="mask-type:luminance" maskUnits="userSpaceOnUse" x="0" y="83" width="209" height="17">
<path d="M6.29193 84.6383C12.1747 86.5217 18.4798 87.8471 24.7849 88.8275C32.6324 90.0444 40.6814 90.7574 48.6917 91.1721C58.4729 91.6759 68.3279 91.7418 78.1285 91.548C89.8436 91.3116 101.559 90.6993 113.216 89.8467C122.962 89.1337 132.728 88.5098 142.505 88.0486C150.814 87.6611 159.153 87.3859 167.481 87.3588C174.193 87.3355 180.987 87.4634 187.664 87.9672C192.636 88.3431 197.887 88.9399 202.619 90.0986L203.882 90.4087L208.87 92.5246L203.134 92.2068L201.832 91.9936C196.201 91.0636 190.117 90.7729 184.347 90.7032C176.747 90.614 169.082 90.9279 161.517 91.4046C152.441 91.9782 143.385 92.8075 134.375 93.7569C124.187 94.8304 114.029 96.0705 103.899 97.3958L103.864 97.3997L103.83 97.4036C92.9167 98.4383 81.872 99.101 70.8584 99.1281C61.8057 99.1513 52.691 98.7406 43.77 97.6516C29.7027 95.9348 16.1972 92.5129 4.84257 86.3202L3.85437 85.7815L0.199951 83.1231L5.1526 84.2779L6.29193 84.6383Z" fill="white"/>
</mask>
<g mask="url(#mask20_556_16)">
<path d="M208.874 83.1152H0.199951V99.1435H208.874V83.1152Z" fill="url(#paint19_linear_556_16)"/>
</g>
<mask id="mask21_556_16" style="mask-type:luminance" maskUnits="userSpaceOnUse" x="5" y="85" width="198" height="14">
<path d="M103.644 96.4193C55.6905 100.969 25.2229 96.179 5.71069 85.5374C27.2458 92.4316 62.6196 94.377 113.367 90.8272C154.995 87.6223 186.455 87.1844 202.162 91.0287C182.328 87.7579 146.117 90.8698 103.644 96.4193Z" fill="white"/>
</mask>
<g mask="url(#mask21_556_16)">
<path d="M202.157 85.5374H5.70654V100.969H202.157V85.5374Z" fill="url(#paint20_linear_556_16)"/>
</g>
<defs>
<linearGradient id="paint0_linear_556_16" x1="47.7026" y1="81.6532" x2="47.7026" y2="38.4954" gradientUnits="userSpaceOnUse">
<stop stop-color="#B6B1B0"/>
<stop offset="0.19" stop-color="#FBFAFA"/>
<stop offset="0.33" stop-color="#C8C5C4"/>
<stop offset="0.52" stop-color="white"/>
<stop offset="0.78" stop-color="#CECBCB"/>
<stop offset="1" stop-color="#FBFBFC"/>
</linearGradient>
<linearGradient id="paint1_linear_556_16" x1="55.3254" y1="81.6532" x2="55.3254" y2="53.6765" gradientUnits="userSpaceOnUse">
<stop stop-color="#B6B1B0"/>
<stop offset="0.19" stop-color="#FBFAFA"/>
<stop offset="0.33" stop-color="#C8C5C4"/>
<stop offset="0.52" stop-color="white"/>
<stop offset="0.78" stop-color="#CECBCB"/>
<stop offset="1" stop-color="#FBFBFC"/>
</linearGradient>
<linearGradient id="paint2_linear_556_16" x1="44.793" y1="49.6155" x2="44.793" y2="45.1682" gradientUnits="userSpaceOnUse">
<stop stop-color="#B6B1B0"/>
<stop offset="0.19" stop-color="#FBFAFA"/>
<stop offset="0.33" stop-color="#C8C5C4"/>
<stop offset="0.52" stop-color="white"/>
<stop offset="0.78" stop-color="#CECBCB"/>
<stop offset="1" stop-color="#FBFBFC"/>
</linearGradient>
<linearGradient id="paint3_linear_556_16" x1="163.86" y1="81.6532" x2="163.86" y2="38.4954" gradientUnits="userSpaceOnUse">
<stop stop-color="#B6B1B0"/>
<stop offset="0.19" stop-color="#FBFAFA"/>
<stop offset="0.33" stop-color="#C8C5C4"/>
<stop offset="0.52" stop-color="white"/>
<stop offset="0.78" stop-color="#CECBCB"/>
<stop offset="1" stop-color="#FBFBFC"/>
</linearGradient>
<linearGradient id="paint4_linear_556_16" x1="156.234" y1="81.6532" x2="156.234" y2="53.6765" gradientUnits="userSpaceOnUse">
<stop stop-color="#B6B1B0"/>
<stop offset="0.19" stop-color="#FBFAFA"/>
<stop offset="0.33" stop-color="#C8C5C4"/>
<stop offset="0.52" stop-color="white"/>
<stop offset="0.78" stop-color="#CECBCB"/>
<stop offset="1" stop-color="#FBFBFC"/>
</linearGradient>
<linearGradient id="paint5_linear_556_16" x1="166.951" y1="49.6155" x2="166.951" y2="45.1682" gradientUnits="userSpaceOnUse">
<stop stop-color="#B6B1B0"/>
<stop offset="0.19" stop-color="#FBFAFA"/>
<stop offset="0.33" stop-color="#C8C5C4"/>
<stop offset="0.52" stop-color="white"/>
<stop offset="0.78" stop-color="#CECBCB"/>
<stop offset="1" stop-color="#FBFBFC"/>
</linearGradient>
<linearGradient id="paint6_linear_556_16" x1="49.3885" y1="80.8842" x2="49.3885" y2="39.8703" gradientUnits="userSpaceOnUse">
<stop stop-color="#B6B1B0"/>
<stop offset="0.19" stop-color="#FBFAFA"/>
<stop offset="0.33" stop-color="#C8C5C4"/>
<stop offset="0.52" stop-color="white"/>
<stop offset="0.78" stop-color="#CECBCB"/>
<stop offset="1" stop-color="#FBFBFC"/>
</linearGradient>
<linearGradient id="paint7_linear_556_16" x1="55.5967" y1="80.8842" x2="55.5967" y2="55.0513" gradientUnits="userSpaceOnUse">
<stop stop-color="#FFEB6B"/>
<stop offset="0.25" stop-color="#F8D92B"/>
<stop offset="0.48" stop-color="#DCBB00"/>
<stop offset="0.71" stop-color="#FADA21"/>
<stop offset="1" stop-color="#FFEC6B"/>
</linearGradient>
<linearGradient id="paint8_linear_556_16" x1="162.173" y1="80.8842" x2="162.173" y2="39.8703" gradientUnits="userSpaceOnUse">
<stop stop-color="#B6B1B0"/>
<stop offset="0.19" stop-color="#FBFAFA"/>
<stop offset="0.33" stop-color="#C8C5C4"/>
<stop offset="0.52" stop-color="white"/>
<stop offset="0.78" stop-color="#CECBCB"/>
<stop offset="1" stop-color="#FBFBFC"/>
</linearGradient>
<linearGradient id="paint9_linear_556_16" x1="155.963" y1="80.8842" x2="155.963" y2="55.0513" gradientUnits="userSpaceOnUse">
<stop stop-color="#FFEB6B"/>
<stop offset="0.25" stop-color="#F8D92B"/>
<stop offset="0.48" stop-color="#DCBB00"/>
<stop offset="0.71" stop-color="#FADA21"/>
<stop offset="1" stop-color="#FFEC6B"/>
</linearGradient>
<linearGradient id="paint10_linear_556_16" x1="105.872" y1="80.0796" x2="105.872" y2="41.3088" gradientUnits="userSpaceOnUse">
<stop stop-color="#FFEB6B"/>
<stop offset="0.25" stop-color="#F8D92B"/>
<stop offset="0.48" stop-color="#DCBB00"/>
<stop offset="0.71" stop-color="#FADA21"/>
<stop offset="1" stop-color="#FFEC6B"/>
</linearGradient>
<linearGradient id="paint11_linear_556_16" x1="105.725" y1="81.653" x2="105.725" y2="-0.0145359" gradientUnits="userSpaceOnUse">
<stop stop-color="#B6B1B0"/>
<stop offset="0.19" stop-color="#FBFAFA"/>
<stop offset="0.33" stop-color="#C8C5C4"/>
<stop offset="0.52" stop-color="white"/>
<stop offset="0.78" stop-color="#CECBCB"/>
<stop offset="1" stop-color="#FBFBFC"/>
</linearGradient>
<linearGradient id="paint12_linear_556_16" x1="105.727" y1="80.8842" x2="105.727" y2="1.52847" gradientUnits="userSpaceOnUse">
<stop stop-color="#B6B1B0"/>
<stop offset="0.19" stop-color="#FBFAFA"/>
<stop offset="0.33" stop-color="#C8C5C4"/>
<stop offset="0.52" stop-color="white"/>
<stop offset="0.78" stop-color="#CECBCB"/>
<stop offset="1" stop-color="#FBFBFC"/>
</linearGradient>
<linearGradient id="paint13_linear_556_16" x1="134.656" y1="80.0795" x2="134.656" y2="56.6017" gradientUnits="userSpaceOnUse">
<stop stop-color="#FFEB6B"/>
<stop offset="0.25" stop-color="#F8D92B"/>
<stop offset="0.48" stop-color="#DCBB00"/>
<stop offset="0.71" stop-color="#FADA21"/>
<stop offset="1" stop-color="#FFEC6B"/>
</linearGradient>
<linearGradient id="paint14_linear_556_16" x1="89.7417" y1="80.0796" x2="89.7417" y2="39.5632" gradientUnits="userSpaceOnUse">
<stop stop-color="#FFEB6B"/>
<stop offset="0.25" stop-color="#F8D92B"/>
<stop offset="0.48" stop-color="#DCBB00"/>
<stop offset="0.71" stop-color="#FADA21"/>
<stop offset="1" stop-color="#FFEC6B"/>
</linearGradient>
<linearGradient id="paint15_linear_556_16" x1="105.781" y1="51.5987" x2="105.781" y2="3.14275" gradientUnits="userSpaceOnUse">
<stop stop-color="#FFEB6B"/>
<stop offset="0.25" stop-color="#F8D92B"/>
<stop offset="0.48" stop-color="#DCBB00"/>
<stop offset="0.71" stop-color="#FADA21"/>
<stop offset="1" stop-color="#FFEC6B"/>
</linearGradient>
<linearGradient id="paint16_linear_556_16" x1="107.245" y1="168.725" x2="107.245" y2="109.814" gradientUnits="userSpaceOnUse">
<stop stop-color="#B6B1B0"/>
<stop offset="0.19" stop-color="#FBFAFA"/>
<stop offset="0.33" stop-color="#C8C5C4"/>
<stop offset="0.52" stop-color="white"/>
<stop offset="0.78" stop-color="#CECBCB"/>
<stop offset="1" stop-color="#FBFBFC"/>
</linearGradient>
<linearGradient id="paint17_linear_556_16" x1="107.404" y1="167.116" x2="107.404" y2="111.423" gradientUnits="userSpaceOnUse">
<stop stop-color="#FFEB6B"/>
<stop offset="0.25" stop-color="#F8D92B"/>
<stop offset="0.48" stop-color="#DCBB00"/>
<stop offset="0.71" stop-color="#FADA21"/>
<stop offset="1" stop-color="#FFEC6B"/>
</linearGradient>
<linearGradient id="paint18_linear_556_16" x1="121.057" y1="104.79" x2="121.057" y2="90.8815" gradientUnits="userSpaceOnUse">
<stop stop-color="#B6B1B0"/>
<stop offset="0.19" stop-color="#FBFAFA"/>
<stop offset="0.33" stop-color="#C8C5C4"/>
<stop offset="0.52" stop-color="white"/>
<stop offset="0.78" stop-color="#CECBCB"/>
<stop offset="1" stop-color="#FBFBFC"/>
</linearGradient>
<linearGradient id="paint19_linear_556_16" x1="104.535" y1="99.1242" x2="104.535" y2="83.1153" gradientUnits="userSpaceOnUse">
<stop stop-color="#B6B1B0"/>
<stop offset="0.19" stop-color="#FBFAFA"/>
<stop offset="0.33" stop-color="#C8C5C4"/>
<stop offset="0.52" stop-color="white"/>
<stop offset="0.78" stop-color="#CECBCB"/>
<stop offset="1" stop-color="#FBFBFC"/>
</linearGradient>
<linearGradient id="paint20_linear_556_16" x1="103.932" y1="98.1361" x2="103.932" y2="85.5375" gradientUnits="userSpaceOnUse">
<stop stop-color="#FFEB6B"/>
<stop offset="0.25" stop-color="#F8D92B"/>
<stop offset="0.48" stop-color="#DCBB00"/>
<stop offset="0.71" stop-color="#FADA21"/>
<stop offset="1" stop-color="#FFEC6B"/>
</linearGradient>
</defs>
</svg>
