<svg width="209" height="191" viewBox="0 0 209 191" fill="none" xmlns="http://www.w3.org/2000/svg">
<mask id="mask0_556_16" style="mask-type:luminance" maskUnits="userSpaceOnUse" x="22" y="38" width="51" height="44">
<path d="M35.7575 76.8512L40.9349 69.2246V49.7551H48.2515V58.4358L61.7725 38.5051L72.2009 54.0489L67.8334 61.4779L61.7647 52.4678L42.0161 81.6644H22.8024L35.7575 76.8512Z" fill="white"/>
</mask>
<g mask="url(#mask0_556_16)">
<path d="M72.2009 38.5051H22.8024V81.6644H72.2009V38.5051Z" fill="url(#paint0_linear_556_16)"/>
</g>
<mask id="mask1_556_16" style="mask-type:luminance" maskUnits="userSpaceOnUse" x="42" y="53" width="26" height="29">
<path d="M61.7609 58.8349L46.2829 81.6643H42.8029L61.7725 53.6846L67.4459 62.1367L65.8299 64.8881L61.7609 58.8349Z" fill="white"/>
</mask>
<g mask="url(#mask1_556_16)">
<path d="M67.4459 53.6846H42.8029V81.6605H67.4459V53.6846Z" fill="url(#paint1_linear_556_16)"/>
</g>
<mask id="mask2_556_16" style="mask-type:luminance" maskUnits="userSpaceOnUse" x="40" y="45" width="10" height="5">
<path d="M49.0149 45.1783H40.1676V49.6272H49.0149V45.1783Z" fill="white"/>
</mask>
<g mask="url(#mask2_556_16)">
<path d="M49.0149 45.1783H40.1676V49.6272H49.0149V45.1783Z" fill="url(#paint2_linear_556_16)"/>
</g>
<mask id="mask3_556_16" style="mask-type:luminance" maskUnits="userSpaceOnUse" x="138" y="38" width="51" height="44">
<path d="M175.586 76.8512L188.541 81.6644H169.328L149.579 52.4678L143.142 62.0243L138.779 54.5915L149.571 38.5051L163.092 58.4358V49.7551H170.409V69.2246L175.586 76.8512Z" fill="white"/>
</mask>
<g mask="url(#mask3_556_16)">
<path d="M188.538 38.5051H138.779V81.6644H188.538V38.5051Z" fill="url(#paint3_linear_556_16)"/>
</g>
<mask id="mask4_556_16" style="mask-type:luminance" maskUnits="userSpaceOnUse" x="143" y="53" width="26" height="29">
<path d="M149.583 58.8349L145.146 65.4384L143.53 62.6831L149.571 53.6846L168.541 81.6643H165.061L149.583 58.8349Z" fill="white"/>
</mask>
<g mask="url(#mask4_556_16)">
<path d="M168.541 53.6846H143.53V81.6605H168.541V53.6846Z" fill="url(#paint4_linear_556_16)"/>
</g>
<mask id="mask5_556_16" style="mask-type:luminance" maskUnits="userSpaceOnUse" x="162" y="45" width="10" height="5">
<path d="M171.176 45.1783H162.329V49.6272H171.176V45.1783Z" fill="white"/>
</mask>
<g mask="url(#mask5_556_16)">
<path d="M171.176 45.1783H162.329V49.6272H171.176V45.1783Z" fill="url(#paint5_linear_556_16)"/>
</g>
<mask id="mask6_556_16" style="mask-type:luminance" maskUnits="userSpaceOnUse" x="27" y="39" width="45" height="42">
<path d="M36.2574 77.4868L27.0846 80.8932H36.7341H41.6054L61.7686 51.0921L67.7908 60.0363L71.2941 54.0761L61.7686 39.8808L47.4842 60.9392V50.5224H41.7023V69.461L36.2574 77.4868Z" fill="white"/>
</mask>
<g mask="url(#mask6_556_16)">
<path d="M71.2941 39.8808H27.0846V80.8932H71.2941V39.8808Z" fill="url(#paint6_linear_556_16)"/>
</g>
<mask id="mask7_556_16" style="mask-type:luminance" maskUnits="userSpaceOnUse" x="44" y="55" width="23" height="26">
<path d="M44.2561 80.8932L61.7686 55.0604L66.5391 62.1638L65.7834 63.4465L61.7647 57.4592L45.876 80.8932H44.2561Z" fill="white"/>
</mask>
<g mask="url(#mask7_556_16)">
<path d="M66.5391 55.0604H44.2561V80.8932H66.5391V55.0604Z" fill="url(#paint7_linear_556_16)"/>
</g>
<mask id="mask8_556_16" style="mask-type:luminance" maskUnits="userSpaceOnUse" x="139" y="39" width="46" height="42">
<path d="M175.086 77.4868L184.259 80.8932H174.61H169.738L149.575 51.0921L143.185 60.5827L139.685 54.6186L149.575 39.8808L163.86 60.9392V50.5224H169.642V69.461L175.086 77.4868Z" fill="white"/>
</mask>
<g mask="url(#mask8_556_16)">
<path d="M184.259 39.8808H139.685V80.8932H184.259V39.8808Z" fill="url(#paint8_linear_556_16)"/>
</g>
<mask id="mask9_556_16" style="mask-type:luminance" maskUnits="userSpaceOnUse" x="144" y="55" width="24" height="26">
<path d="M167.088 80.8932L149.575 55.0604L144.437 62.7141L145.188 63.9968L149.579 57.4592L165.468 80.8932H167.088Z" fill="white"/>
</mask>
<g mask="url(#mask9_556_16)">
<path d="M167.088 55.0604H144.437V80.8932H167.088V55.0604Z" fill="url(#paint9_linear_556_16)"/>
</g>
<mask id="mask10_556_16" style="mask-type:luminance" maskUnits="userSpaceOnUse" x="31" y="41" width="149" height="40">
<path d="M31.5605 80.091H41.1791L61.7686 49.6543L67.7443 58.5288L70.3446 54.107L61.7647 41.3224L46.6781 63.5589V51.3285H42.5083V69.7052L36.7806 78.1495L31.5605 80.091ZM41.741 46.7517V48.0499H47.4416V46.7517H41.741ZM168.836 51.3285H164.666V63.5589L149.579 41.3185L140.635 54.6496L143.231 59.0752L149.571 49.6582L170.161 80.0949H179.779L174.563 78.1572L168.836 69.7129V51.3285ZM169.603 46.7517H163.902V48.0499H169.603V46.7517Z" fill="white"/>
</mask>
<g mask="url(#mask10_556_16)">
<path d="M179.779 41.3185H31.5605V80.091H179.779V41.3185Z" fill="url(#paint10_linear_556_16)"/>
</g>
<mask id="mask11_556_16" style="mask-type:luminance" maskUnits="userSpaceOnUse" x="58" y="0" width="95" height="82">
<path d="M98.3438 34.4437H112.717L105.385 21.2096L98.3438 34.4437ZM124.603 46.6083L105.672 13.7845L86.7411 46.6083H89.8103L86.0125 53.1847H74.9989L105.672 0L136.151 53.1847H98.1345L101.932 46.6083H102.378C109.784 46.6083 117.193 46.6083 124.603 46.6083ZM75.6461 65.8453L70.3175 75.088H75.5221L79.5834 68.0465C84.1873 60.0595 88.795 52.0764 93.4066 44.0932L93.4027 44.0894L96.9138 37.9974H114.43L118.22 44.5738H100.952L92.4765 59.2728H116.717L120.514 65.8492H88.6865L79.564 81.6644H58.5792L71.4917 59.2728H82.5092L78.7153 65.8492H75.6461V65.8453ZM135.822 75.088H141.026L135.698 65.8453H132.687L128.893 59.2689H139.422L144.929 68.4883L152.478 81.6605H131.784L116.43 55.0371H124.258L135.822 75.088Z" fill="white"/>
</mask>
<g mask="url(#mask11_556_16)">
<path d="M152.478 -0.00402832H58.5752V81.6642H152.478V-0.00402832Z" fill="url(#paint11_linear_556_16)"/>
</g>
<mask id="mask12_556_16" style="mask-type:luminance" maskUnits="userSpaceOnUse" x="59" y="1" width="93" height="80">
<path d="M134.826 52.4135H99.4675L102.374 47.3756C110.225 47.3756 118.077 47.3756 125.932 47.3756L111.659 22.6241L105.672 12.246L85.4118 47.3756H88.4811L85.5746 52.4135H82.5092H76.3358L105.676 1.53851L134.826 52.4135ZM59.9045 80.8932L71.9296 60.0402H78.103H81.1722L79.7035 62.5824L78.2619 65.0781H75.1965L68.9805 75.8591H75.9638L80.246 68.4341C87.4928 55.8858 88.6864 53.8009 94.4568 43.8065L94.4529 43.8026L97.3555 38.7725H98.5762H103.413H107.935H112.895H113.988L116.895 43.8104H112.899H110.842H100.51L91.1473 60.044H116.275L119.181 65.0819H88.2408L79.1183 80.897H78.5138H73.0651H66.0818H65.2176H59.9045V80.8932ZM130.222 60.0402H133.233H138.984L144.258 68.872L146.308 72.4489L151.145 80.8932H147.719H145.262H138.279H134.423H132.226L117.759 55.8083H123.812L135.376 75.8591H142.359L136.143 65.0781H133.132L130.222 60.0402Z" fill="white"/>
</mask>
<g mask="url(#mask12_556_16)">
<path d="M151.149 1.53851H59.9045V80.8932H151.149V1.53851Z" fill="url(#paint12_linear_556_16)"/>
</g>
<mask id="mask13_556_16" style="mask-type:luminance" maskUnits="userSpaceOnUse" x="119" y="56" width="31" height="25">
<path d="M131.617 60.8462L133.597 64.272H136.605L143.751 76.6613H134.911L123.347 56.6105H119.15L132.691 80.091H149.761L143.569 69.2866L138.531 60.8462H131.617Z" fill="white"/>
</mask>
<g mask="url(#mask13_556_16)">
<path d="M149.757 56.6105H119.15V80.0871H149.757V56.6105Z" fill="url(#paint13_linear_556_16)"/>
</g>
<mask id="mask14_556_16" style="mask-type:luminance" maskUnits="userSpaceOnUse" x="61" y="25" width="57" height="56">
<path d="M101.502 32.8936H109.563L105.451 25.5964L101.502 32.8936ZM61.2997 80.0909H78.6533L87.7758 64.2758H117.786L115.806 60.8501H89.7522L100.045 43.0043H115.504L113.527 39.5785H97.8283L95.5651 43.5003L95.569 43.5042L95.1621 44.2095C90.4226 52.4174 85.687 60.6292 80.9514 68.8371L76.4366 76.6652H67.5971L74.7431 64.2758H77.8085L79.7888 60.8501H72.4024L61.2997 80.0909Z" fill="white"/>
</mask>
<g mask="url(#mask14_556_16)">
<path d="M117.786 25.5964H61.2997V80.0909H117.786V25.5964Z" fill="url(#paint14_linear_556_16)"/>
</g>
<mask id="mask15_556_16" style="mask-type:luminance" maskUnits="userSpaceOnUse" x="77" y="3" width="57" height="49">
<path d="M133.438 51.6075L105.668 3.15063L77.7231 51.6075H85.1056L87.0859 48.1778H84.0166L105.668 10.6338L127.323 48.1778H125.932C118.236 48.1778 110.539 48.1778 102.839 48.1778L100.859 51.6075H133.438Z" fill="white"/>
</mask>
<g mask="url(#mask15_556_16)">
<path d="M133.439 3.15454H77.7233V51.6114H133.439V3.15454Z" fill="url(#paint15_linear_556_16)"/>
</g>
<mask id="mask16_556_16" style="mask-type:luminance" maskUnits="userSpaceOnUse" x="15" y="177" width="185" height="15">
<path d="M196.742 188.665H192.626L191.859 190.905H190.316L194.079 180.706H195.296L199.059 190.905H197.517L196.742 188.665ZM187.712 190.905H186.282V180.706H187.712V190.905ZM177.288 180.698H179.903C180.492 180.698 181.008 180.818 181.457 181.066C181.903 181.306 182.252 181.651 182.496 182.101C182.744 182.546 182.864 183.062 182.864 183.647C182.864 184.232 182.74 184.748 182.492 185.193C182.244 185.639 181.895 185.984 181.45 186.228C181.287 186.317 181.116 186.387 180.938 186.441L183.29 190.905H181.593L179.415 186.592H177.284V190.905H175.854V180.698H176.478H177.288ZM177.288 185.232H179.958C180.229 185.232 180.469 185.166 180.682 185.034C180.892 184.903 181.054 184.717 181.171 184.476C181.283 184.236 181.341 183.961 181.341 183.647C181.341 183.333 181.283 183.054 181.171 182.818C181.054 182.577 180.892 182.387 180.686 182.26C180.481 182.128 180.237 182.062 179.962 182.062H177.292V185.232H177.288ZM168.223 179.179L170.161 177.458L171.083 178.419L169.014 180.004L168.223 179.179ZM170.471 187.305L168.878 182.674L167.289 187.305H170.471ZM168.274 180.706H169.491L173.253 190.905H171.711L170.944 188.665H166.828L166.061 190.905H164.518L168.274 180.706ZM161.91 190.905H160.48V180.706H161.91V190.905ZM151.184 180.706H152.614V189.545H157.733V190.905H152.614H151.897H151.18V180.706H151.184ZM147.599 190.905H146.169V180.706H147.599V190.905ZM137.26 180.706H139.856C140.515 180.706 141.069 180.818 141.511 181.043C141.956 181.267 142.29 181.585 142.511 181.996C142.728 182.407 142.84 182.899 142.84 183.473C142.84 183.821 142.774 184.151 142.635 184.457C142.499 184.763 142.294 185.023 142.015 185.244C141.736 185.461 141.391 185.608 140.98 185.681C141.391 185.743 141.747 185.891 142.046 186.119C142.344 186.352 142.576 186.643 142.732 186.987C142.89 187.336 142.972 187.708 142.972 188.111V188.135C142.972 188.685 142.848 189.169 142.604 189.592C142.363 190.014 142.011 190.34 141.561 190.564C141.108 190.793 140.581 190.909 139.976 190.909H137.26H136.678H135.837V180.709H136.678H137.26V180.706ZM137.26 185.027H139.794C140.321 185.027 140.72 184.903 140.988 184.655C141.259 184.406 141.391 184.038 141.391 183.554C141.391 183.042 141.24 182.663 140.941 182.411C140.643 182.159 140.193 182.031 139.596 182.031H137.26V185.027ZM137.26 189.58H139.441C140.166 189.58 140.697 189.444 141.026 189.165C141.36 188.89 141.526 188.503 141.526 188.003V187.98C141.526 187.635 141.468 187.336 141.348 187.088C141.228 186.84 141.038 186.65 140.782 186.515C140.523 186.383 140.197 186.317 139.794 186.317H137.26V189.58ZM128.873 191.01C128.164 191.01 127.536 190.855 126.99 190.541C126.447 190.231 126.029 189.793 125.734 189.224C125.436 188.658 125.289 187.999 125.289 187.251V184.36C125.289 183.612 125.436 182.953 125.734 182.384C126.033 181.818 126.451 181.376 126.99 181.066C127.533 180.756 128.16 180.601 128.873 180.601C129.583 180.601 130.21 180.756 130.753 181.066C131.295 181.376 131.714 181.818 132.012 182.384C132.311 182.949 132.458 183.608 132.458 184.36V187.251C132.458 187.999 132.311 188.658 132.012 189.224C131.714 189.793 131.295 190.231 130.753 190.541C130.21 190.855 129.583 191.01 128.873 191.01ZM128.873 189.599C129.292 189.599 129.664 189.503 129.986 189.313C130.307 189.123 130.551 188.855 130.726 188.507C130.904 188.158 130.989 187.759 130.989 187.297V184.31C130.989 183.852 130.904 183.449 130.726 183.101C130.551 182.752 130.303 182.484 129.986 182.294C129.664 182.105 129.292 182.008 128.873 182.008C128.451 182.008 128.083 182.105 127.761 182.294C127.44 182.484 127.195 182.752 127.017 183.101C126.839 183.449 126.754 183.852 126.754 184.31V187.297C126.754 187.759 126.839 188.158 127.017 188.507C127.192 188.855 127.44 189.123 127.761 189.313C128.083 189.506 128.455 189.599 128.873 189.599ZM120.576 180.706H121.913V190.905H120.518V183.267L120.592 183.717L118.081 189.487H117.085L114.574 183.856L114.643 183.267V190.905H113.248V180.706H114.589L117.585 187.441L120.576 180.706ZM109.66 190.905H108.23V180.706H109.66V190.905ZM193.095 187.305H196.277L194.684 182.674L193.095 187.305ZM100.859 188.665H96.7432L95.9759 190.905H94.4336L98.1965 180.706H99.4133L103.176 190.905H101.634L100.859 188.665ZM86.6984 180.698H89.3143C89.9033 180.698 90.4187 180.818 90.8683 181.066C91.3139 181.306 91.6588 181.651 91.9069 182.101C92.1549 182.546 92.275 183.062 92.275 183.647C92.275 184.232 92.151 184.748 91.903 185.193C91.655 185.639 91.3062 185.984 90.8605 186.228C90.6978 186.317 90.5272 186.387 90.349 186.441L92.7013 190.905H91.0039L88.826 186.592H86.6946V190.905H85.2646V180.698H85.8885H86.6984ZM86.6984 185.232H89.3685C89.6398 185.232 89.8801 185.166 90.0932 185.034C90.3025 184.903 90.4652 184.717 90.5815 184.476C90.6939 184.236 90.752 183.961 90.752 183.647C90.752 183.333 90.6939 183.054 90.5815 182.818C90.4652 182.577 90.3025 182.387 90.0971 182.26C89.8917 182.128 89.6476 182.062 89.3724 182.062H86.7023V185.232H86.6984ZM78.3084 191.01C77.5953 191.01 76.9714 190.855 76.425 190.541C75.8825 190.231 75.4639 189.793 75.1694 189.224C74.871 188.658 74.7237 187.999 74.7237 187.251V184.36C74.7237 183.612 74.871 182.953 75.1694 182.384C75.4678 181.818 75.8863 181.376 76.425 181.066C76.9675 180.756 77.5953 180.601 78.3084 180.601C79.0176 180.601 79.6454 180.756 80.1879 181.066C80.7305 181.376 81.149 181.818 81.4474 182.384C81.7458 182.949 81.8931 183.608 81.8931 184.36V187.251C81.8931 187.999 81.7458 188.658 81.4474 189.224C81.149 189.793 80.7305 190.231 80.1879 190.541C79.6454 190.855 79.0176 191.01 78.3084 191.01ZM78.3084 189.599C78.7269 189.599 79.099 189.503 79.4206 189.313C79.7423 189.123 79.9864 188.855 80.1608 188.507C80.3391 188.158 80.4243 187.759 80.4243 187.297V184.31C80.4243 183.852 80.3391 183.449 80.1608 183.101C79.9864 182.752 79.7384 182.484 79.4206 182.294C79.099 182.105 78.7269 182.008 78.3084 182.008C77.886 182.008 77.5178 182.105 77.1962 182.294C76.8745 182.484 76.6304 182.752 76.4521 183.101C76.2739 183.449 76.1886 183.852 76.1886 184.31V187.297C76.1886 187.759 76.2739 188.158 76.4521 188.507C76.6265 188.855 76.8745 189.123 77.1962 189.313C77.5178 189.506 77.8899 189.599 78.3084 189.599ZM69.868 182.07V190.905H68.438V182.07H65.5548V180.706H72.7512V182.07H69.868ZM57.3081 180.706H58.0018H58.7381H63.8574V182.07H58.7381V185.162H63.0901V186.522H58.742V189.545H63.8613V190.905H58.742H58.0057H57.312V180.706H57.3081ZM48.3174 180.698H50.9332C51.5223 180.698 52.0377 180.818 52.4872 181.066C52.9329 181.306 53.2817 181.651 53.5258 182.101C53.7738 182.546 53.894 183.062 53.894 183.647C53.894 184.232 53.77 184.748 53.5219 185.193C53.2739 185.639 52.9251 185.984 52.4795 186.228C52.3167 186.317 52.1462 186.387 51.9679 186.441L54.3203 190.905H52.6229L50.4449 186.592H48.3135V190.905H46.8835V180.698H47.5075H48.3174ZM48.3174 185.232H50.9875C51.2588 185.232 51.499 185.166 51.7122 185.034C51.9214 184.903 52.0842 184.717 52.2005 184.476C52.3128 184.236 52.371 183.961 52.371 183.647C52.371 183.333 52.3128 183.054 52.2005 182.818C52.0842 182.577 51.9214 182.387 51.716 182.26C51.5107 182.128 51.2665 182.062 50.9914 182.062H48.3213V185.232H48.3174ZM37.8928 180.698H40.5087C41.0977 180.698 41.6131 180.818 42.0627 181.066C42.5083 181.306 42.8571 181.651 43.1012 182.101C43.3493 182.546 43.4694 183.062 43.4694 183.647C43.4694 184.232 43.3454 184.748 43.0974 185.193C42.8493 185.639 42.5006 185.984 42.0549 186.228C41.8921 186.317 41.7216 186.387 41.5434 186.441L43.8957 190.905H42.1983L40.0204 186.592H37.889V190.905H36.459V180.698H37.0829H37.8928ZM37.8928 185.232H40.5629C40.8342 185.232 41.0745 185.166 41.2876 185.034C41.4969 184.903 41.6596 184.717 41.7759 184.476C41.8883 184.236 41.9464 183.961 41.9464 183.647C41.9464 183.333 41.8883 183.054 41.7759 182.818C41.6596 182.577 41.4969 182.387 41.2915 182.26C41.0861 182.128 40.8419 182.062 40.5668 182.062H37.8967V185.232H37.8928ZM29.5028 191.01C28.7936 191.01 28.1658 190.855 27.6194 190.541C27.0768 190.231 26.6583 189.793 26.3638 189.224C26.0654 188.658 25.9181 187.999 25.9181 187.251V184.36C25.9181 183.612 26.0654 182.953 26.3638 182.384C26.6622 181.818 27.0807 181.376 27.6194 181.066C28.1619 180.756 28.7897 180.601 29.5028 180.601C30.212 180.601 30.8398 180.756 31.3823 181.066C31.9249 181.376 32.3434 181.818 32.6418 182.384C32.9402 182.949 33.0874 183.608 33.0874 184.36V187.251C33.0874 187.999 32.9402 188.658 32.6418 189.224C32.3434 189.793 31.9249 190.231 31.3823 190.541C30.8398 190.855 30.212 191.01 29.5028 191.01ZM29.5028 189.599C29.9213 189.599 30.2933 189.503 30.615 189.313C30.9366 189.123 31.1808 188.855 31.3591 188.507C31.5373 188.158 31.6226 187.759 31.6226 187.297V184.31C31.6226 183.852 31.5373 183.449 31.3591 183.101C31.1847 182.752 30.9366 182.484 30.615 182.294C30.2933 182.105 29.9213 182.008 29.5028 182.008C29.0804 182.008 28.7122 182.105 28.3906 182.294C28.0689 182.484 27.8248 182.752 27.6504 183.101C27.4721 183.449 27.3869 183.852 27.3869 184.31V187.297C27.3869 187.759 27.4721 188.158 27.6504 188.507C27.8248 188.855 28.0728 189.123 28.3906 189.313C28.7122 189.506 29.0804 189.599 29.5028 189.599ZM19.52 191.01C18.8147 191.01 18.1946 190.855 17.656 190.541C17.1212 190.227 16.7065 189.782 16.412 189.208C16.1175 188.634 15.9702 187.964 15.9702 187.208V184.41C15.9702 183.655 16.1175 182.984 16.412 182.411C16.7065 181.837 17.1212 181.392 17.656 181.074C18.1908 180.756 18.8108 180.601 19.52 180.601C20.1052 180.601 20.6438 180.729 21.1321 180.977C21.6243 181.225 22.0312 181.581 22.3645 182.039C22.6939 182.496 22.9186 183.027 23.0349 183.631H21.5662C21.477 183.314 21.3298 183.027 21.1205 182.779C20.9112 182.527 20.6671 182.337 20.3881 182.198C20.109 182.062 19.8184 181.996 19.52 181.996C19.1015 181.996 18.7411 182.097 18.4272 182.298C18.1133 182.5 17.8691 182.783 17.6986 183.143C17.5281 183.507 17.439 183.93 17.439 184.41V187.208C17.439 187.685 17.5242 188.107 17.6986 188.472C17.8691 188.84 18.1133 189.119 18.4272 189.317C18.7411 189.514 19.1053 189.615 19.52 189.615C19.8223 189.615 20.1129 189.553 20.3919 189.425C20.671 189.297 20.9112 189.111 21.1205 188.863C21.3298 188.615 21.477 188.321 21.5662 187.98H23.0349C22.9186 188.584 22.6939 189.115 22.3606 189.572C22.0312 190.033 21.6165 190.386 21.1282 190.634C20.6361 190.886 20.0974 191.01 19.52 191.01ZM97.2083 187.305H100.39L98.7972 182.674L97.2083 187.305Z" fill="white"/>
</mask>
<g mask="url(#mask16_556_16)">
<path d="M199.055 177.458H15.9702V191.01H199.055V177.458Z" fill="white"/>
</g>
<path fill-rule="evenodd" clip-rule="evenodd" d="M13.0986 168.502L21.5661 111.663C21.5894 111.504 21.725 111.388 21.8839 111.388L42.7331 111.357C42.892 111.357 43.0237 111.469 43.0508 111.624L52.7779 167.836C52.7972 167.956 52.7546 168.064 52.6616 168.142L51.8827 168.77C51.8245 168.816 51.7587 168.839 51.6811 168.839L38.3888 168.87C38.2222 168.87 38.0866 168.75 38.0672 168.584L36.5442 155.043C36.5248 154.881 36.3892 154.756 36.2225 154.756H28.3363C28.1658 154.756 28.0224 154.892 28.0147 155.063L27.4411 167.878C27.4372 167.971 27.3985 168.049 27.3287 168.107L26.5304 168.789C26.4684 168.839 26.4025 168.866 26.3211 168.866H13.4164C13.3195 168.866 13.2342 168.828 13.1722 168.754C13.1102 168.688 13.087 168.599 13.0986 168.502ZM54.5372 111.388H67.2948C67.473 111.388 67.6164 111.531 67.6164 111.71V155.167C67.6164 156.768 67.8528 157.837 68.3178 158.38C68.779 158.922 69.7323 159.198 71.1856 159.198C72.6117 159.198 73.565 158.919 74.0417 158.38C74.5183 157.837 74.7547 156.768 74.7547 155.167V111.71C74.7547 111.531 74.8981 111.388 75.0764 111.388H87.2758C87.4541 111.388 87.5975 111.531 87.5975 111.71V150.331C87.5975 154.822 87.3611 158.112 86.8961 160.19C86.4349 162.263 85.6676 164.034 84.5825 165.476C83.4199 166.983 81.8349 168.041 79.8391 168.661C77.8434 169.281 74.8439 169.587 70.8523 169.587C66.7677 169.587 63.7566 169.285 61.7996 168.661C59.8309 168.041 58.2847 166.983 57.1492 165.476C56.0912 164.088 55.3394 162.371 54.8899 160.321C54.4404 158.287 54.2156 154.958 54.2156 150.331V111.71C54.2156 111.535 54.359 111.388 54.5372 111.388ZM112.396 154.35C112.396 152.369 112.027 151.005 111.299 150.253C110.559 149.502 109.171 149.13 107.164 149.13H105.265C105.087 149.13 104.943 149.273 104.943 149.451V168.549C104.943 168.727 104.8 168.87 104.622 168.87H91.8642C91.686 168.87 91.5426 168.727 91.5426 168.549V111.71C91.5426 111.531 91.686 111.388 91.8642 111.388H105.482C113.756 111.388 119.212 112.43 121.882 114.519C124.537 116.62 125.874 120.491 125.874 126.133V132.714C125.874 136.043 125.145 138.581 123.708 140.325C122.491 141.774 120.646 142.832 118.154 143.491C118.011 143.53 117.914 143.658 117.914 143.805C117.918 143.956 118.019 144.08 118.162 144.115C120.437 144.646 122.181 145.584 123.374 146.921C124.828 148.544 125.568 150.846 125.568 153.807V168.549C125.568 168.727 125.424 168.87 125.246 168.87H112.713C112.535 168.87 112.392 168.727 112.392 168.549V154.35H112.396ZM108.206 121.537H105.265C105.087 121.537 104.943 121.681 104.943 121.859V138.976C104.943 139.154 105.087 139.298 105.265 139.298H108.206C109.939 139.298 111.101 139.007 111.683 138.426C112.264 137.845 112.554 136.775 112.554 135.202V125.672C112.554 124.072 112.264 122.991 111.683 122.409C111.097 121.828 109.935 121.537 108.206 121.537ZM163.449 153.439C163.449 157.392 163.224 160.205 162.786 161.895C162.348 163.588 161.585 165.014 160.5 166.177C159.337 167.444 157.884 168.332 156.125 168.832C154.381 169.335 151.063 169.583 146.173 169.583C141.271 169.583 137.942 169.332 136.198 168.832C134.438 168.328 132.973 167.444 131.811 166.177C130.726 164.987 129.962 163.522 129.497 161.779C129.036 160.035 128.796 157.26 128.796 153.439V126.866C128.796 123.049 129.021 120.27 129.47 118.542C129.92 116.809 130.714 115.356 131.811 114.167C133.001 112.872 134.574 111.973 136.515 111.458C138.473 110.942 141.697 110.679 146.177 110.679C150.645 110.679 153.842 110.942 155.756 111.458C157.686 111.973 159.244 112.872 160.434 114.167C161.531 115.356 162.325 116.809 162.775 118.542C163.224 120.274 163.449 123.049 163.449 126.866V153.439ZM149.734 155.326V125.014C149.734 123.413 149.498 122.343 149.021 121.801C148.544 121.258 147.607 120.983 146.192 120.983C144.751 120.983 143.786 121.262 143.313 121.801C142.836 122.343 142.6 123.413 142.6 125.014V155.326C142.6 156.95 142.836 158.035 143.313 158.562C143.789 159.089 144.754 159.356 146.192 159.356C147.607 159.356 148.544 159.093 149.021 158.562C149.494 158.035 149.734 156.954 149.734 155.326ZM178.299 150.005V155.26C178.299 156.752 178.601 157.81 179.198 158.43C179.791 159.05 180.799 159.356 182.225 159.356C183.771 159.356 184.813 159.066 185.356 158.473C185.899 157.876 186.174 156.756 186.174 155.101V151.032C186.174 149.804 186.096 148.882 185.937 148.289C185.937 148.285 185.937 148.285 185.937 148.281C185.794 147.688 185.53 147.165 185.178 146.704C185.174 146.7 185.17 146.696 185.17 146.692C184.283 145.638 182.263 144.754 179.097 144.068C177.644 143.751 176.524 143.487 175.73 143.251H175.726C172.002 142.193 169.452 140.712 168.049 138.81C166.662 136.907 165.96 133.919 165.96 129.838V124.525C165.96 119.371 166.964 115.779 168.96 113.729C170.955 111.694 174.416 110.675 179.345 110.675H183.31C186.402 110.675 188.941 110.938 190.936 111.469C192.917 111.996 194.475 112.845 195.614 114.004L195.618 114.008C196.528 114.907 197.149 116.054 197.521 117.453C197.877 118.84 198.063 121.072 198.063 124.138V128.269C198.063 128.447 197.92 128.59 197.741 128.59H186.507C186.329 128.59 186.185 128.447 186.185 128.269V124.994C186.185 123.184 185.949 121.983 185.472 121.386C184.984 120.793 184.019 120.503 182.539 120.503C181.113 120.503 180.148 120.782 179.644 121.336C179.14 121.89 178.892 122.921 178.892 124.455V128.168C178.892 130.981 181.295 132.989 186.104 134.206H186.108C187.468 134.574 188.549 134.865 189.355 135.105C193.041 136.136 195.579 137.589 196.955 139.437C198.342 141.301 199.028 144.247 199.028 148.277V156.02C199.028 160.829 197.893 164.278 195.606 166.406C193.32 168.522 189.592 169.576 184.441 169.576H180.872C175.191 169.576 171.292 168.611 169.165 166.669C167.037 164.739 165.968 161.159 165.968 155.938V149.998C165.968 149.819 166.111 149.676 166.289 149.676H177.989C178.152 149.684 178.299 149.831 178.299 150.005ZM29.5958 145.165H34.9553C35.0483 145.165 35.1297 145.13 35.1956 145.057C35.2576 144.987 35.2847 144.902 35.277 144.809L32.7813 121.743C32.7619 121.58 32.6263 121.456 32.4596 121.456H32.2697C32.107 121.456 31.9675 121.576 31.9481 121.739L29.2741 144.805C29.2625 144.898 29.2896 144.983 29.3555 145.057C29.4175 145.13 29.4989 145.165 29.5958 145.165Z" fill="black"/>
<mask id="mask17_556_16" style="mask-type:luminance" maskUnits="userSpaceOnUse" x="14" y="109" width="187" height="60">
<path d="M14.0946 167.654L22.5621 110.814C22.5854 110.656 22.721 110.539 22.8799 110.539H43.7484C43.9073 110.539 44.0429 110.656 44.0662 110.814L52.7546 167.654C52.7701 167.75 52.743 167.84 52.681 167.913C52.619 167.987 52.5337 168.026 52.4368 168.026H39.3809C39.2143 168.026 39.0787 167.902 39.0593 167.739L37.5363 154.199C37.5169 154.036 37.3813 153.912 37.2146 153.912H29.3051C29.1385 153.912 29.0029 154.036 28.9835 154.199L27.4605 167.739C27.4411 167.902 27.3055 168.026 27.1388 168.026H14.4007C14.3038 168.026 14.2186 167.987 14.1566 167.913C14.1062 167.836 14.0791 167.747 14.0946 167.654ZM55.5293 110.539H68.2869C68.4651 110.539 68.6085 110.683 68.6085 110.861V154.319C68.6085 155.919 68.8449 156.989 69.3099 157.531C69.7711 158.074 70.7244 158.349 72.1777 158.349C73.6038 158.349 74.5571 158.07 75.0338 157.531C75.5104 156.989 75.7468 155.919 75.7468 154.319V110.861C75.7468 110.683 75.8902 110.539 76.0685 110.539H88.2679C88.4462 110.539 88.5896 110.683 88.5896 110.861V149.482C88.5896 153.974 88.3532 157.264 87.8882 159.341C87.427 161.414 86.6597 163.185 85.5746 164.627C84.412 166.134 82.827 167.189 80.8312 167.812C78.8354 168.433 75.836 168.739 71.8444 168.739C67.7598 168.739 64.7487 168.436 62.7917 167.812C60.823 167.192 59.2768 166.134 58.1413 164.627C57.0833 163.24 56.3315 161.523 55.882 159.473C55.4325 157.438 55.2077 154.109 55.2077 149.482V110.861C55.2077 110.683 55.355 110.539 55.5293 110.539ZM113.388 153.497C113.388 151.513 113.02 150.153 112.291 149.401C111.551 148.649 110.163 148.277 108.156 148.277H106.257C106.079 148.277 105.935 148.42 105.935 148.599V167.696C105.935 167.874 105.792 168.018 105.614 168.018H92.8602C92.6819 168.018 92.5385 167.874 92.5385 167.696V110.861C92.5385 110.683 92.6819 110.539 92.8602 110.539H106.478C114.752 110.539 120.208 111.582 122.878 113.671C125.533 115.771 126.87 119.642 126.87 125.285V131.865C126.87 135.194 126.141 137.732 124.704 139.476C123.487 140.926 121.642 141.984 119.15 142.642C119.007 142.681 118.91 142.809 118.91 142.956C118.914 143.107 119.015 143.231 119.158 143.266C121.433 143.797 123.177 144.735 124.37 146.072C125.824 147.7 126.564 149.998 126.564 152.958V167.7C126.564 167.878 126.42 168.022 126.242 168.022H113.709C113.531 168.022 113.388 167.878 113.388 167.7V153.497ZM109.198 120.685H106.257C106.079 120.685 105.935 120.828 105.935 121.006V138.124C105.935 138.302 106.079 138.445 106.257 138.445H109.198C110.931 138.445 112.093 138.155 112.675 137.573C113.256 136.992 113.547 135.923 113.547 134.349V124.82C113.547 123.219 113.256 122.138 112.675 121.557C112.093 120.975 110.931 120.685 109.198 120.685ZM164.445 152.586C164.445 156.539 164.22 159.353 163.782 161.042C163.344 162.736 162.581 164.162 161.496 165.324C160.333 166.592 158.88 167.479 157.121 167.979C155.377 168.483 152.059 168.731 147.169 168.731C142.266 168.731 138.938 168.479 137.19 167.979C135.43 167.475 133.966 166.592 132.803 165.324C131.718 164.135 130.954 162.67 130.489 160.926C130.028 159.182 129.788 156.407 129.788 152.586V126.013C129.788 122.196 130.013 119.418 130.462 117.689C130.912 115.957 131.706 114.504 132.803 113.314C133.993 112.02 135.566 111.121 137.508 110.605C139.465 110.09 142.689 109.826 147.169 109.826C151.637 109.826 154.834 110.09 156.748 110.605C158.678 111.121 160.236 112.02 161.426 113.314C162.523 114.504 163.317 115.957 163.767 117.689C164.216 119.421 164.441 122.196 164.441 126.013V152.586H164.445ZM150.726 154.478V124.165C150.726 122.564 150.49 121.495 150.013 120.952C149.537 120.41 148.599 120.135 147.184 120.135C145.743 120.135 144.778 120.414 144.305 120.952C143.828 121.495 143.592 122.564 143.592 124.165V154.478C143.592 156.101 143.828 157.186 144.305 157.713C144.782 158.24 145.746 158.508 147.184 158.508C148.599 158.508 149.537 158.244 150.013 157.713C150.49 157.186 150.726 156.101 150.726 154.478ZM179.291 149.157V154.412C179.291 155.904 179.593 156.962 180.19 157.582C180.783 158.202 181.791 158.508 183.217 158.508C184.763 158.508 185.806 158.217 186.348 157.624C186.891 157.027 187.166 155.908 187.166 154.253V150.184C187.166 148.959 187.088 148.033 186.929 147.44C186.929 147.436 186.929 147.436 186.929 147.432C186.786 146.839 186.522 146.316 186.17 145.855C186.166 145.851 186.166 145.847 186.162 145.843C185.275 144.789 183.256 143.906 180.089 143.22C178.636 142.902 177.516 142.638 176.722 142.402H176.718C172.994 141.344 170.444 139.864 169.041 137.961C167.654 136.058 166.952 133.07 166.952 128.99V123.677C166.952 118.522 167.956 114.93 169.952 112.88C171.947 110.845 175.408 109.826 180.337 109.826H184.302C187.394 109.826 189.933 110.09 191.929 110.621C193.909 111.148 195.467 111.996 196.606 113.155L196.61 113.159C197.521 114.058 198.141 115.205 198.513 116.604C198.869 117.992 199.055 120.224 199.055 123.289V127.42C199.055 127.598 198.912 127.742 198.734 127.742H187.487C187.309 127.742 187.166 127.598 187.166 127.42V124.149C187.166 122.34 186.929 121.138 186.453 120.541C185.964 119.949 184.999 119.658 183.519 119.658C182.093 119.658 181.128 119.937 180.624 120.491C180.12 121.045 179.872 122.076 179.872 123.611V127.323C179.872 130.137 182.275 132.144 187.084 133.361C187.088 133.361 187.088 133.361 187.088 133.361C188.448 133.729 189.53 134.02 190.336 134.26C194.021 135.291 196.56 136.744 197.935 138.593C199.323 140.457 200.009 143.402 200.009 147.432V155.175C200.009 159.984 198.873 163.433 196.587 165.561C194.3 167.677 190.576 168.731 185.422 168.731H181.853C176.172 168.731 172.273 167.766 170.145 165.824C168.018 163.895 166.948 160.314 166.948 155.094V149.153C166.948 148.975 167.092 148.831 167.27 148.831H178.97C179.148 148.835 179.291 148.978 179.291 149.157ZM30.5879 144.313H35.9474C36.0404 144.313 36.1218 144.278 36.1877 144.204C36.2497 144.134 36.2768 144.049 36.2691 143.956L33.7734 120.89C33.754 120.727 33.6184 120.603 33.4517 120.603H33.2618C33.0991 120.603 32.9596 120.724 32.9402 120.886L30.2662 143.952C30.2546 144.045 30.2817 144.13 30.3437 144.204C30.4096 144.278 30.491 144.313 30.5879 144.313Z" fill="white"/>
</mask>
<g mask="url(#mask17_556_16)">
<path d="M200.012 109.822H14.079V168.735H200.012V109.822Z" fill="url(#paint16_linear_556_16)"/>
</g>
<mask id="mask18_556_16" style="mask-type:luminance" maskUnits="userSpaceOnUse" x="16" y="111" width="183" height="57">
<path d="M28.5223 145.026L31.4598 119.708C31.5063 119.301 31.8473 118.995 32.2581 118.995H34.4632C34.8778 118.995 35.2189 119.301 35.2615 119.712L38.0013 145.029C38.0285 145.266 37.9587 145.479 37.7998 145.653C37.6409 145.828 37.4394 145.921 37.1991 145.921H29.3206C29.0842 145.921 28.8789 145.828 28.72 145.65C28.565 145.475 28.4952 145.262 28.5223 145.026ZM16.8383 166.413H25.2787C25.6895 166.413 26.0305 166.107 26.077 165.7L27.5031 153.016C27.5496 152.606 27.8906 152.303 28.3014 152.303H38.2222C38.633 152.303 38.974 152.61 39.0205 153.016L40.4466 165.7C40.4932 166.111 40.8342 166.413 41.245 166.413H49.9915C50.2357 166.413 50.4449 166.317 50.6 166.134C50.7588 165.948 50.8208 165.728 50.786 165.487L42.7447 112.83C42.6827 112.434 42.3494 112.148 41.9503 112.148H24.6819C24.2789 112.148 23.9456 112.438 23.8875 112.833L16.0438 165.487C16.009 165.728 16.071 165.948 16.2299 166.131C16.3887 166.317 16.5941 166.413 16.8383 166.413ZM56.8198 112.95V149.478C56.8198 151.428 56.8547 153.389 56.9865 155.338C57.0717 156.582 57.188 157.903 57.4592 159.124C57.8158 160.744 58.4203 162.321 59.4279 163.65C60.4161 164.956 61.726 165.782 63.2838 166.274C65.7446 167.053 69.2828 167.123 71.8521 167.123C74.4331 167.123 77.8821 167.041 80.3584 166.27C81.9279 165.782 83.2959 164.964 84.2996 163.646C85.3343 162.286 85.9505 160.643 86.3225 158.984C86.5938 157.76 86.7217 156.446 86.8108 155.198C86.9464 153.299 86.9852 151.381 86.9852 149.478V112.95C86.9852 112.508 86.6248 112.144 86.1791 112.144H78.1611C77.7194 112.144 77.3551 112.504 77.3551 112.95V154.319C77.3551 155.718 77.2078 157.492 76.2429 158.593C75.2508 159.725 73.6038 159.961 72.1777 159.961C70.7477 159.961 69.0735 159.732 68.0853 158.578C67.1436 157.477 67.0002 155.71 67.0002 154.322V112.95C67.0002 112.508 66.6399 112.144 66.1942 112.144H57.622C57.1802 112.147 56.8198 112.508 56.8198 112.95ZM113.81 138.713C112.659 139.864 110.741 140.057 109.198 140.057H105.129C104.688 140.057 104.323 139.697 104.323 139.251V119.883C104.323 119.441 104.684 119.077 105.129 119.077H109.198C110.741 119.077 112.663 119.27 113.81 120.421C114.93 121.541 115.155 123.312 115.155 124.824V134.353C115.155 135.853 114.926 137.597 113.81 138.713ZM94.1429 112.95V165.607C94.1429 166.049 94.5033 166.413 94.949 166.413H103.521C103.963 166.413 104.327 166.053 104.327 165.607V147.475C104.327 147.033 104.688 146.669 105.133 146.669H108.16C109.954 146.669 112.128 146.925 113.45 148.277C114.748 149.61 115.004 151.722 115.004 153.497V165.607C115.004 166.049 115.364 166.413 115.81 166.413H124.157C124.599 166.413 124.963 166.053 124.963 165.607V152.954C124.963 150.916 124.583 148.711 123.181 147.142C121.751 145.545 119.46 144.867 117.41 144.572C117.402 144.572 117.399 144.572 117.391 144.568C115.445 144.239 115.403 141.708 117.34 141.394C119.507 140.999 122.014 140.201 123.475 138.445C124.936 136.69 125.269 134.062 125.269 131.865V125.285C125.269 121.894 124.781 117.205 121.894 114.934C118.627 112.365 110.439 112.148 106.49 112.148H94.9606C94.5072 112.148 94.1429 112.508 94.1429 112.95ZM152.335 154.477C152.335 155.884 152.195 157.698 151.207 158.791C150.215 159.895 148.587 160.116 147.184 160.116C145.774 160.116 144.107 159.903 143.107 158.791C142.123 157.694 141.98 155.88 141.98 154.477V124.165C141.98 122.766 142.127 120.991 143.092 119.89C144.088 118.755 145.754 118.522 147.18 118.522C148.599 118.522 150.226 118.763 151.218 119.89C152.183 120.991 152.331 122.762 152.331 124.165V154.477H152.335ZM162.833 152.586V126.013C162.833 124.413 162.798 122.797 162.67 121.196C162.589 120.177 162.468 119.084 162.213 118.092C161.852 116.709 161.221 115.461 160.248 114.403C159.19 113.252 157.834 112.558 156.338 112.159C155.214 111.857 153.947 111.721 152.788 111.624C150.928 111.473 149.04 111.434 147.173 111.434C145.293 111.434 143.398 111.473 141.526 111.624C140.348 111.721 139.069 111.857 137.926 112.159C136.426 112.554 135.055 113.248 133.997 114.403C133.024 115.457 132.392 116.705 132.032 118.092C131.776 119.084 131.656 120.177 131.574 121.196C131.447 122.793 131.412 124.409 131.412 126.013V152.586C131.412 154.187 131.447 155.803 131.582 157.399C131.667 158.423 131.795 159.519 132.059 160.515C132.427 161.899 133.035 163.181 134.004 164.243C135 165.332 136.233 166.034 137.647 166.437C138.713 166.743 140.027 166.859 141.131 166.944C143.138 167.095 145.169 167.13 147.18 167.13C149.184 167.13 151.215 167.099 153.214 166.944C154.319 166.859 155.625 166.743 156.69 166.437C158.109 166.03 159.326 165.321 160.325 164.235C161.275 163.209 161.887 161.996 162.236 160.643C162.492 159.655 162.604 158.55 162.685 157.539C162.802 155.896 162.833 154.233 162.833 152.586ZM176.877 150.443H169.363C168.921 150.443 168.557 150.804 168.557 151.249V155.101C168.557 158.02 168.901 162.523 171.227 164.642C173.649 166.844 178.776 167.13 181.853 167.13H185.422C188.658 167.13 192.998 166.704 195.494 164.387C197.912 162.143 198.4 158.299 198.4 155.179V147.436C198.4 145.018 198.145 141.577 196.645 139.558C195.18 137.589 192.169 136.453 189.902 135.81C188.828 135.508 187.751 135.209 186.701 134.927C186.697 134.927 186.693 134.923 186.685 134.923C182.868 133.958 178.264 131.927 178.264 127.323V123.611C178.264 122.196 178.442 120.507 179.435 119.414C180.45 118.294 182.089 118.053 183.523 118.053C185.011 118.053 186.708 118.305 187.708 119.534C188.666 120.716 188.782 122.696 188.782 124.153V125.335C188.782 125.777 189.142 126.141 189.588 126.141H196.641C197.083 126.141 197.447 125.781 197.447 125.335V123.297C197.447 121.421 197.431 118.836 196.959 117.015C196.691 115.992 196.242 115.054 195.482 114.306L195.459 114.283C194.401 113.198 192.963 112.562 191.518 112.175C189.243 111.57 186.65 111.434 184.306 111.434H180.341C177.446 111.434 173.265 111.795 171.106 114.004C168.901 116.259 168.564 120.716 168.564 123.677V128.99C168.564 131.458 168.828 134.942 170.339 137.011C171.82 139.034 174.846 140.193 177.164 140.856C178.237 141.162 179.342 141.414 180.43 141.65C182.647 142.131 185.883 143.007 187.402 144.82L187.414 144.836C187.422 144.843 187.425 144.851 187.433 144.859L187.445 144.874C187.945 145.522 188.301 146.258 188.491 147.021C188.491 147.025 188.495 147.029 188.495 147.037C188.751 148.006 188.786 149.192 188.786 150.191V154.26C188.786 155.749 188.596 157.562 187.546 158.713C186.476 159.887 184.728 160.124 183.225 160.124C181.725 160.124 180.117 159.833 179.035 158.702C177.958 157.574 177.691 155.919 177.691 154.415V151.253C177.683 150.804 177.319 150.443 176.877 150.443Z" fill="white"/>
</mask>
<g mask="url(#mask18_556_16)">
<path d="M198.4 111.434H16.005V167.126H198.4V111.434Z" fill="url(#paint17_linear_556_16)"/>
</g>
<mask id="mask19_556_16" style="mask-type:luminance" maskUnits="userSpaceOnUse" x="33" y="90" width="176" height="15">
<path d="M40.7953 100.932C47.2012 101.498 53.7001 101.676 60.1486 101.626C67.4574 101.572 74.774 101.231 82.0441 100.723C98.6498 99.5606 115.244 97.5376 131.605 95.2473C145.208 93.3446 159.143 91.7789 172.994 91.1589C182.635 90.7249 192.8 90.721 202.345 91.8875L203.69 92.0502L208.383 93.4724L203.31 93.9452L201.954 93.8445C196.951 93.4686 191.878 93.3756 186.848 93.4453C180.849 93.5306 174.85 93.8445 168.886 94.3018C154.043 95.4372 139.201 97.4214 124.645 99.7233L124.607 99.7272C115.759 100.952 106.869 102.045 97.9367 102.92C90.2869 103.668 82.5789 104.265 74.867 104.575C68.4611 104.831 61.9816 104.901 55.5796 104.595C50.441 104.347 45.1938 103.851 40.2334 102.862L38.9778 102.61L35.8194 101.471L33.3392 100.107L39.5048 100.816L40.7953 100.932Z" fill="white"/>
</mask>
<g mask="url(#mask19_556_16)">
<path d="M208.379 90.7171H33.3354V104.901H208.379V90.7171Z" fill="url(#paint18_linear_556_16)"/>
</g>
<path fill-rule="evenodd" clip-rule="evenodd" d="M124.335 98.7583C86.5511 103.99 57.8971 105.358 40.621 101.913C64.8339 104.056 96.8284 101.13 131.881 96.2161C163.801 91.7595 186.433 90.9418 202.105 92.8601C183.612 91.465 157.527 93.5073 124.335 98.7583Z" fill="#DADADA"/>
<mask id="mask20_556_16" style="mask-type:luminance" maskUnits="userSpaceOnUse" x="0" y="83" width="209" height="17">
<path d="M6.09198 84.6484C11.9747 86.5318 18.2798 87.8571 24.5849 88.8376C32.4324 90.0544 40.4815 90.7675 48.4917 91.1821C58.273 91.6859 68.1279 91.7518 77.9286 91.558C89.6436 91.3216 101.359 90.7093 113.016 89.8568C122.762 89.1437 132.528 88.5198 142.305 88.0586C150.614 87.6711 158.953 87.396 167.281 87.3688C173.994 87.3456 180.787 87.4735 187.464 87.9773C192.436 88.3532 197.687 88.95 202.419 90.1087L203.682 90.4187L208.67 92.5346L202.934 92.2168L201.632 92.0037C196.001 91.0736 189.917 90.783 184.147 90.7132C176.547 90.6241 168.882 90.938 161.317 91.4146C152.241 91.9882 143.185 92.8175 134.175 93.767C123.987 94.8404 113.829 96.0805 103.699 97.4059L103.664 97.4097L103.63 97.4136C92.7167 98.4483 81.6721 99.111 70.6585 99.1381C61.6058 99.1614 52.491 98.7506 43.5701 97.6616C29.5027 95.9449 15.9973 92.523 4.64262 86.3302L3.65441 85.7916L0 83.1331L4.95264 84.288L6.09198 84.6484Z" fill="white"/>
</mask>
<g mask="url(#mask20_556_16)">
<path d="M208.674 83.1252H0V99.1535H208.674V83.1252Z" fill="url(#paint19_linear_556_16)"/>
</g>
<mask id="mask21_556_16" style="mask-type:luminance" maskUnits="userSpaceOnUse" x="5" y="85" width="197" height="14">
<path d="M103.444 96.4293C55.4906 100.979 25.0229 96.189 5.51074 85.5474C27.0458 92.4416 62.4196 94.387 113.167 90.8372C154.795 87.6323 186.255 87.1944 201.962 91.0387C182.128 87.768 145.917 90.8799 103.444 96.4293Z" fill="white"/>
</mask>
<g mask="url(#mask21_556_16)">
<path d="M201.958 85.5474H5.50659V100.979H201.958V85.5474Z" fill="url(#paint20_linear_556_16)"/>
</g>
<defs>
<linearGradient id="paint0_linear_556_16" x1="47.5026" y1="81.6632" x2="47.5026" y2="38.5054" gradientUnits="userSpaceOnUse">
<stop stop-color="#B6B1B0"/>
<stop offset="0.19" stop-color="#FBFAFA"/>
<stop offset="0.33" stop-color="#C8C5C4"/>
<stop offset="0.52" stop-color="white"/>
<stop offset="0.78" stop-color="#CECBCB"/>
<stop offset="1" stop-color="#FBFBFC"/>
</linearGradient>
<linearGradient id="paint1_linear_556_16" x1="55.1255" y1="81.6632" x2="55.1255" y2="53.6865" gradientUnits="userSpaceOnUse">
<stop stop-color="#B6B1B0"/>
<stop offset="0.19" stop-color="#FBFAFA"/>
<stop offset="0.33" stop-color="#C8C5C4"/>
<stop offset="0.52" stop-color="white"/>
<stop offset="0.78" stop-color="#CECBCB"/>
<stop offset="1" stop-color="#FBFBFC"/>
</linearGradient>
<linearGradient id="paint2_linear_556_16" x1="44.593" y1="49.6255" x2="44.593" y2="45.1782" gradientUnits="userSpaceOnUse">
<stop stop-color="#B6B1B0"/>
<stop offset="0.19" stop-color="#FBFAFA"/>
<stop offset="0.33" stop-color="#C8C5C4"/>
<stop offset="0.52" stop-color="white"/>
<stop offset="0.78" stop-color="#CECBCB"/>
<stop offset="1" stop-color="#FBFBFC"/>
</linearGradient>
<linearGradient id="paint3_linear_556_16" x1="163.66" y1="81.6632" x2="163.66" y2="38.5054" gradientUnits="userSpaceOnUse">
<stop stop-color="#B6B1B0"/>
<stop offset="0.19" stop-color="#FBFAFA"/>
<stop offset="0.33" stop-color="#C8C5C4"/>
<stop offset="0.52" stop-color="white"/>
<stop offset="0.78" stop-color="#CECBCB"/>
<stop offset="1" stop-color="#FBFBFC"/>
</linearGradient>
<linearGradient id="paint4_linear_556_16" x1="156.034" y1="81.6632" x2="156.034" y2="53.6865" gradientUnits="userSpaceOnUse">
<stop stop-color="#B6B1B0"/>
<stop offset="0.19" stop-color="#FBFAFA"/>
<stop offset="0.33" stop-color="#C8C5C4"/>
<stop offset="0.52" stop-color="white"/>
<stop offset="0.78" stop-color="#CECBCB"/>
<stop offset="1" stop-color="#FBFBFC"/>
</linearGradient>
<linearGradient id="paint5_linear_556_16" x1="166.751" y1="49.6255" x2="166.751" y2="45.1782" gradientUnits="userSpaceOnUse">
<stop stop-color="#B6B1B0"/>
<stop offset="0.19" stop-color="#FBFAFA"/>
<stop offset="0.33" stop-color="#C8C5C4"/>
<stop offset="0.52" stop-color="white"/>
<stop offset="0.78" stop-color="#CECBCB"/>
<stop offset="1" stop-color="#FBFBFC"/>
</linearGradient>
<linearGradient id="paint6_linear_556_16" x1="49.1886" y1="80.8942" x2="49.1886" y2="39.8803" gradientUnits="userSpaceOnUse">
<stop stop-color="#B6B1B0"/>
<stop offset="0.19" stop-color="#FBFAFA"/>
<stop offset="0.33" stop-color="#C8C5C4"/>
<stop offset="0.52" stop-color="white"/>
<stop offset="0.78" stop-color="#CECBCB"/>
<stop offset="1" stop-color="#FBFBFC"/>
</linearGradient>
<linearGradient id="paint7_linear_556_16" x1="55.3968" y1="80.8942" x2="55.3968" y2="55.0613" gradientUnits="userSpaceOnUse">
<stop stop-color="#FFEB6B"/>
<stop offset="0.25" stop-color="#F8D92B"/>
<stop offset="0.48" stop-color="#DCBB00"/>
<stop offset="0.71" stop-color="#FADA21"/>
<stop offset="1" stop-color="#FFEC6B"/>
</linearGradient>
<linearGradient id="paint8_linear_556_16" x1="161.973" y1="80.8942" x2="161.973" y2="39.8803" gradientUnits="userSpaceOnUse">
<stop stop-color="#B6B1B0"/>
<stop offset="0.19" stop-color="#FBFAFA"/>
<stop offset="0.33" stop-color="#C8C5C4"/>
<stop offset="0.52" stop-color="white"/>
<stop offset="0.78" stop-color="#CECBCB"/>
<stop offset="1" stop-color="#FBFBFC"/>
</linearGradient>
<linearGradient id="paint9_linear_556_16" x1="155.763" y1="80.8942" x2="155.763" y2="55.0613" gradientUnits="userSpaceOnUse">
<stop stop-color="#FFEB6B"/>
<stop offset="0.25" stop-color="#F8D92B"/>
<stop offset="0.48" stop-color="#DCBB00"/>
<stop offset="0.71" stop-color="#FADA21"/>
<stop offset="1" stop-color="#FFEC6B"/>
</linearGradient>
<linearGradient id="paint10_linear_556_16" x1="105.672" y1="80.0896" x2="105.672" y2="41.3189" gradientUnits="userSpaceOnUse">
<stop stop-color="#FFEB6B"/>
<stop offset="0.25" stop-color="#F8D92B"/>
<stop offset="0.48" stop-color="#DCBB00"/>
<stop offset="0.71" stop-color="#FADA21"/>
<stop offset="1" stop-color="#FFEC6B"/>
</linearGradient>
<linearGradient id="paint11_linear_556_16" x1="105.525" y1="81.663" x2="105.525" y2="-0.00449563" gradientUnits="userSpaceOnUse">
<stop stop-color="#B6B1B0"/>
<stop offset="0.19" stop-color="#FBFAFA"/>
<stop offset="0.33" stop-color="#C8C5C4"/>
<stop offset="0.52" stop-color="white"/>
<stop offset="0.78" stop-color="#CECBCB"/>
<stop offset="1" stop-color="#FBFBFC"/>
</linearGradient>
<linearGradient id="paint12_linear_556_16" x1="105.527" y1="80.8942" x2="105.527" y2="1.53848" gradientUnits="userSpaceOnUse">
<stop stop-color="#B6B1B0"/>
<stop offset="0.19" stop-color="#FBFAFA"/>
<stop offset="0.33" stop-color="#C8C5C4"/>
<stop offset="0.52" stop-color="white"/>
<stop offset="0.78" stop-color="#CECBCB"/>
<stop offset="1" stop-color="#FBFBFC"/>
</linearGradient>
<linearGradient id="paint13_linear_556_16" x1="134.456" y1="80.0896" x2="134.456" y2="56.6117" gradientUnits="userSpaceOnUse">
<stop stop-color="#FFEB6B"/>
<stop offset="0.25" stop-color="#F8D92B"/>
<stop offset="0.48" stop-color="#DCBB00"/>
<stop offset="0.71" stop-color="#FADA21"/>
<stop offset="1" stop-color="#FFEC6B"/>
</linearGradient>
<linearGradient id="paint14_linear_556_16" x1="89.5418" y1="80.0896" x2="89.5418" y2="39.5732" gradientUnits="userSpaceOnUse">
<stop stop-color="#FFEB6B"/>
<stop offset="0.25" stop-color="#F8D92B"/>
<stop offset="0.48" stop-color="#DCBB00"/>
<stop offset="0.71" stop-color="#FADA21"/>
<stop offset="1" stop-color="#FFEC6B"/>
</linearGradient>
<linearGradient id="paint15_linear_556_16" x1="105.581" y1="51.6087" x2="105.581" y2="3.15276" gradientUnits="userSpaceOnUse">
<stop stop-color="#FFEB6B"/>
<stop offset="0.25" stop-color="#F8D92B"/>
<stop offset="0.48" stop-color="#DCBB00"/>
<stop offset="0.71" stop-color="#FADA21"/>
<stop offset="1" stop-color="#FFEC6B"/>
</linearGradient>
<linearGradient id="paint16_linear_556_16" x1="107.045" y1="168.735" x2="107.045" y2="109.824" gradientUnits="userSpaceOnUse">
<stop stop-color="#B6B1B0"/>
<stop offset="0.19" stop-color="#FBFAFA"/>
<stop offset="0.33" stop-color="#C8C5C4"/>
<stop offset="0.52" stop-color="white"/>
<stop offset="0.78" stop-color="#CECBCB"/>
<stop offset="1" stop-color="#FBFBFC"/>
</linearGradient>
<linearGradient id="paint17_linear_556_16" x1="107.204" y1="167.126" x2="107.204" y2="111.433" gradientUnits="userSpaceOnUse">
<stop stop-color="#FFEB6B"/>
<stop offset="0.25" stop-color="#F8D92B"/>
<stop offset="0.48" stop-color="#DCBB00"/>
<stop offset="0.71" stop-color="#FADA21"/>
<stop offset="1" stop-color="#FFEC6B"/>
</linearGradient>
<linearGradient id="paint18_linear_556_16" x1="120.857" y1="104.8" x2="120.857" y2="90.8916" gradientUnits="userSpaceOnUse">
<stop stop-color="#B6B1B0"/>
<stop offset="0.19" stop-color="#FBFAFA"/>
<stop offset="0.33" stop-color="#C8C5C4"/>
<stop offset="0.52" stop-color="white"/>
<stop offset="0.78" stop-color="#CECBCB"/>
<stop offset="1" stop-color="#FBFBFC"/>
</linearGradient>
<linearGradient id="paint19_linear_556_16" x1="104.335" y1="99.1342" x2="104.335" y2="83.1253" gradientUnits="userSpaceOnUse">
<stop stop-color="#B6B1B0"/>
<stop offset="0.19" stop-color="#FBFAFA"/>
<stop offset="0.33" stop-color="#C8C5C4"/>
<stop offset="0.52" stop-color="white"/>
<stop offset="0.78" stop-color="#CECBCB"/>
<stop offset="1" stop-color="#FBFBFC"/>
</linearGradient>
<linearGradient id="paint20_linear_556_16" x1="103.732" y1="98.1461" x2="103.732" y2="85.5475" gradientUnits="userSpaceOnUse">
<stop stop-color="#FFEB6B"/>
<stop offset="0.25" stop-color="#F8D92B"/>
<stop offset="0.48" stop-color="#DCBB00"/>
<stop offset="0.71" stop-color="#FADA21"/>
<stop offset="1" stop-color="#FFEC6B"/>
</linearGradient>
</defs>
</svg>
