<svg width="83" height="76" viewBox="0 0 83 76" fill="none" xmlns="http://www.w3.org/2000/svg">
<mask id="mask0_858_16" style="mask-type:luminance" maskUnits="userSpaceOnUse" x="9" y="15" width="20" height="18">
<path d="M14.2228 30.5682L16.2822 27.5346V19.7905H19.1924V23.2433L24.5705 15.3157L28.7185 21.4984L26.9813 24.4533L24.5674 20.8695L16.7123 32.4826H9.06982L14.2228 30.5682Z" fill="white"/>
</mask>
<g mask="url(#mask0_858_16)">
<path d="M28.7185 15.3157H9.06982V32.4826H28.7185V15.3157Z" fill="white"/>
</g>
<mask id="mask1_858_16" style="mask-type:luminance" maskUnits="userSpaceOnUse" x="17" y="21" width="10" height="12">
<path d="M24.5658 23.4021L18.4094 32.4827H17.0251L24.5705 21.3535L26.8271 24.7154L26.1843 25.8098L24.5658 23.4021Z" fill="white"/>
</mask>
<g mask="url(#mask1_858_16)">
<path d="M26.8271 21.3535H17.0251V32.4811H26.8271V21.3535Z" fill="white"/>
</g>
<mask id="mask2_858_16" style="mask-type:luminance" maskUnits="userSpaceOnUse" x="15" y="17" width="5" height="3">
<path d="M19.4959 17.9701H15.9768V19.7397H19.4959V17.9701Z" fill="white"/>
</mask>
<g mask="url(#mask2_858_16)">
<path d="M19.4959 17.9701H15.9768V19.7397H19.4959V17.9701Z" fill="white"/>
</g>
<mask id="mask3_858_16" style="mask-type:luminance" maskUnits="userSpaceOnUse" x="55" y="15" width="20" height="18">
<path d="M69.8407 30.5682L74.9937 32.4826H67.3513L59.4962 20.8695L56.9359 24.6706L55.2002 21.7142L59.4931 15.3157L64.8711 23.2433V19.7905H67.7814V27.5346L69.8407 30.5682Z" fill="white"/>
</mask>
<g mask="url(#mask3_858_16)">
<path d="M74.9922 15.3157H55.2002V32.4826H74.9922V15.3157Z" fill="white"/>
</g>
<mask id="mask4_858_16" style="mask-type:luminance" maskUnits="userSpaceOnUse" x="57" y="21" width="11" height="12">
<path d="M59.4978 23.4021L57.7329 26.0287L57.0901 24.9327L59.4932 21.3535L67.0385 32.4827H65.6543L59.4978 23.4021Z" fill="white"/>
</mask>
<g mask="url(#mask4_858_16)">
<path d="M67.0385 21.3535H57.0901V32.4811H67.0385V21.3535Z" fill="white"/>
</g>
<mask id="mask5_858_16" style="mask-type:luminance" maskUnits="userSpaceOnUse" x="64" y="17" width="5" height="3">
<path d="M68.0867 17.9701H64.5676V19.7397H68.0867V17.9701Z" fill="white"/>
</mask>
<g mask="url(#mask5_858_16)">
<path d="M68.0867 17.9701H64.5676V19.7397H68.0867V17.9701Z" fill="white"/>
</g>
<mask id="mask6_858_16" style="mask-type:luminance" maskUnits="userSpaceOnUse" x="10" y="15" width="19" height="18">
<path d="M14.4215 30.821L10.7729 32.1759H14.6111H16.5487L24.5688 20.3223L26.9642 23.8799L28.3576 21.5092L24.5688 15.8629L18.8871 24.2391V20.0957H16.5872V27.6287L14.4215 30.821Z" fill="white"/>
</mask>
<g mask="url(#mask6_858_16)">
<path d="M28.3576 15.8629H10.7729V32.1759H28.3576V15.8629Z" fill="white"/>
</g>
<mask id="mask7_858_16" style="mask-type:luminance" maskUnits="userSpaceOnUse" x="17" y="21" width="10" height="12">
<path d="M17.603 32.1758L24.5688 21.9006L26.4663 24.7261L26.1657 25.2363L24.5672 22.8548L18.2473 32.1758H17.603Z" fill="white"/>
</mask>
<g mask="url(#mask7_858_16)">
<path d="M26.4663 21.9006H17.603V32.1758H26.4663V21.9006Z" fill="white"/>
</g>
<mask id="mask8_858_16" style="mask-type:luminance" maskUnits="userSpaceOnUse" x="55" y="15" width="19" height="18">
<path d="M69.642 30.821L73.2906 32.1759H69.4524H67.5149L59.4948 20.3223L56.9529 24.0973L55.561 21.725L59.4948 15.8629L65.1765 24.2391V20.0957H67.4763V27.6287L69.642 30.821Z" fill="white"/>
</mask>
<g mask="url(#mask8_858_16)">
<path d="M73.2906 15.8629H55.561V32.1759H73.2906V15.8629Z" fill="white"/>
</g>
<mask id="mask9_858_16" style="mask-type:luminance" maskUnits="userSpaceOnUse" x="57" y="21" width="10" height="12">
<path d="M66.4604 32.1758L59.4946 21.9006L57.4507 24.945L57.7497 25.4552L59.4962 22.8548L65.816 32.1758H66.4604Z" fill="white"/>
</mask>
<g mask="url(#mask9_858_16)">
<path d="M66.4604 21.9006H57.4507V32.1758H66.4604V21.9006Z" fill="white"/>
</g>
<mask id="mask10_858_16" style="mask-type:luminance" maskUnits="userSpaceOnUse" x="12" y="16" width="60" height="16">
<path d="M12.5535 31.8569H16.3793L24.5689 19.7504L26.9458 23.2803L27.9801 21.5215L24.5674 16.4364L18.5666 25.2811V20.4163H16.908V27.7258L14.6298 31.0846L12.5535 31.8569ZM16.6028 18.5959V19.1123H18.8703V18.5959H16.6028ZM67.1557 20.4163H65.4971V25.2811L59.4963 16.4348L55.9386 21.7373L56.9714 23.4977L59.4932 19.752L67.6828 31.8584H71.5087L69.4339 31.0877L67.1557 27.7289V20.4163V20.4163ZM67.4609 18.5959H65.1934V19.1123H67.4609V18.5959Z" fill="white"/>
</mask>
<g mask="url(#mask10_858_16)">
<path d="M71.5087 16.4348H12.5535V31.8569H71.5087V16.4348Z" fill="white"/>
</g>
<mask id="mask11_858_16" style="mask-type:luminance" maskUnits="userSpaceOnUse" x="23" y="0" width="38" height="33">
<path d="M39.1169 13.7003H44.8341L41.9177 8.43626L39.1169 13.7003ZM49.5617 18.5388L42.0318 5.48288L34.5019 18.5388H35.7227L34.2121 21.1546H29.8313L42.0318 0L54.1552 21.1546H39.0337L40.5443 18.5388H40.7216C43.6673 18.5388 46.6145 18.5388 49.5617 18.5388ZM30.0888 26.1905L27.9693 29.8668H30.0394L31.6549 27.066C33.4861 23.8891 35.3188 20.7138 37.1532 17.5384L37.1516 17.5369L38.5481 15.1138H45.5154L47.023 17.7296H40.1543L36.7832 23.5762H46.4249L47.9355 26.192H35.2757L31.6472 32.4826H23.3003L28.4363 23.5762H32.8186L31.3096 26.192H30.0888V26.1905ZM54.0241 29.8668H56.0943L53.9748 26.1905H52.7771L51.2681 23.5747H55.4561L57.6465 27.2417L60.6492 32.4811H52.418L46.3108 21.8914H49.4245L54.0241 29.8668Z" fill="white"/>
</mask>
<g mask="url(#mask11_858_16)">
<path d="M60.6493 -0.00158691H23.2988V32.4826H60.6493V-0.00158691Z" fill="white"/>
</g>
<mask id="mask12_858_16" style="mask-type:luminance" maskUnits="userSpaceOnUse" x="23" y="0" width="38" height="33">
<path d="M53.6279 20.8479H39.5639L40.72 18.844C43.8429 18.844 46.9658 18.844 50.0903 18.844L44.4132 8.99888L42.0317 4.87092L33.9731 18.844H35.1939L34.0378 20.8479H32.8186H30.3631L42.0333 0.611938L53.6279 20.8479ZM23.8274 32.1759L28.6105 23.8814H31.066H32.2868L31.7026 24.8926L31.1292 25.8853H29.9099L27.4374 30.1735H30.2151L31.9184 27.2202C34.8009 22.229 35.2756 21.3997 37.5708 17.4244L37.5693 17.4228L38.7238 15.422H39.2094H41.1331H42.9319H44.9049H45.3396L46.4957 17.4259H44.9065H44.088H39.9785L36.2544 23.883H46.2491L47.4052 25.8868H35.0984L31.4698 32.1774H31.2294H29.0621H26.2844H25.9407H23.8274V32.1759ZM51.7967 23.8814H52.9944H55.2819L57.3798 27.3943L58.1952 28.8171L60.1189 32.1759H58.7563H57.779H55.0013H53.4676H52.5936L46.8394 22.1982H49.2472L53.8468 30.1735H56.6245L54.152 25.8853H52.9543L51.7967 23.8814Z" fill="white"/>
</mask>
<g mask="url(#mask12_858_16)">
<path d="M60.1204 0.611938H23.8274V32.1759H60.1204V0.611938Z" fill="white"/>
</g>
<mask id="mask13_858_16" style="mask-type:luminance" maskUnits="userSpaceOnUse" x="47" y="22" width="13" height="10">
<path d="M52.3516 24.2021L53.1393 25.5647H54.3354L57.1778 30.4927H53.6618L49.0622 22.5173H47.3928L52.7786 31.8569H59.5686L57.1054 27.5594L55.1015 24.2021H52.3516Z" fill="white"/>
</mask>
<g mask="url(#mask13_858_16)">
<path d="M59.5671 22.5173H47.3928V31.8553H59.5671V22.5173Z" fill="white" fill-opacity="0.95"/>
</g>
<mask id="mask14_858_16" style="mask-type:luminance" maskUnits="userSpaceOnUse" x="24" y="10" width="23" height="22">
<path d="M40.3731 13.0837H43.5793L41.9439 10.1812L40.3731 13.0837ZM24.3823 31.8568H31.2849L34.9134 25.5662H46.8503L46.0626 24.2036H35.6995L39.7936 17.1053H45.9423L45.1562 15.7426H38.9119L38.0117 17.3026L38.0132 17.3041L37.8514 17.5847C35.9662 20.8494 34.0826 24.1157 32.1989 27.3805L30.4032 30.4942H26.8872L29.7296 25.5662H30.9488L31.7365 24.2036H28.7985L24.3823 31.8568Z" fill="white"/>
</mask>
<g mask="url(#mask14_858_16)">
<path d="M46.8503 10.1812H24.3823V31.8568H46.8503V10.1812Z" fill="white"/>
</g>
<mask id="mask15_858_16" style="mask-type:luminance" maskUnits="userSpaceOnUse" x="30" y="1" width="24" height="20">
<path d="M53.0762 20.5273L42.0303 1.25317L30.915 20.5273H33.8515L34.6391 19.1631H33.4183L42.0303 4.22968L50.6438 19.1631H50.0905C47.0292 19.1631 43.9679 19.1631 40.9051 19.1631L40.1174 20.5273H53.0762Z" fill="white"/>
</mask>
<g mask="url(#mask15_858_16)">
<path d="M53.0762 1.25476H30.915V20.5288H53.0762V1.25476Z" fill="white"/>
</g>
<mask id="mask16_858_16" style="mask-type:luminance" maskUnits="userSpaceOnUse" x="13" y="36" width="70" height="6">
<path d="M16.2267 40.1466C18.7747 40.3717 21.3597 40.4426 23.9246 40.4225C26.8318 40.401 29.742 40.2653 32.6337 40.0634C39.2388 39.6009 45.8392 38.7963 52.3471 37.8853C57.7575 37.1285 63.3005 36.5058 68.8096 36.2591C72.6447 36.0865 76.6879 36.0849 80.4844 36.5489L81.0193 36.6137L82.886 37.1794L80.8682 37.3674L80.3287 37.3273C78.3388 37.1778 76.321 37.1408 74.3202 37.1686C71.9341 37.2025 69.548 37.3273 67.1757 37.5092C61.272 37.9609 55.3683 38.7501 49.5787 39.6657L49.5633 39.6672C46.0442 40.1543 42.5081 40.589 38.9551 40.9374C35.9123 41.2349 32.8464 41.4722 29.779 41.5956C27.231 41.6973 24.6537 41.725 22.1073 41.6033C20.0633 41.5046 17.9762 41.3073 16.0032 40.9143L15.5038 40.8141L14.2475 40.3609L13.261 39.8183L15.7134 40.1004L16.2267 40.1466Z" fill="white"/>
</mask>
<g mask="url(#mask16_858_16)">
<path d="M82.8845 36.0835H13.2595V41.7251H82.8845V36.0835Z" fill="white"/>
</g>
<path fill-rule="evenodd" clip-rule="evenodd" d="M49.4553 39.2818C34.4263 41.3628 23.0289 41.9069 16.1572 40.5366C25.7881 41.389 38.5142 40.2252 52.4564 38.2707C65.1532 36.498 74.1552 36.1728 80.3887 36.9358C73.033 36.3809 62.6576 37.1932 49.4553 39.2818Z" fill="white"/>
<mask id="mask17_858_16" style="mask-type:luminance" maskUnits="userSpaceOnUse" x="0" y="33" width="83" height="7">
<path d="M2.42313 33.6695C4.76303 34.4186 7.27094 34.9458 9.77885 35.3358C12.9003 35.8198 16.1018 36.1034 19.288 36.2683C23.1785 36.4687 27.0984 36.4949 30.9967 36.4178C35.6564 36.3238 40.3162 36.0803 44.9528 35.7412C48.8295 35.4575 52.7139 35.2094 56.603 35.0259C59.9078 34.8718 63.225 34.7623 66.5375 34.7516C69.2073 34.7423 71.9094 34.7932 74.5653 34.9936C76.5429 35.1431 78.6316 35.3805 80.5137 35.8414L81.0162 35.9647L83 36.8063L80.7187 36.6799L80.2008 36.5951C77.9611 36.2252 75.541 36.1096 73.2458 36.0818C70.2231 36.0464 67.1741 36.1712 64.1652 36.3608C60.5552 36.5889 56.9529 36.9188 53.369 37.2965C49.3166 37.7234 45.2765 38.2167 41.2472 38.7439L41.2333 38.7454L41.2195 38.7469C36.8788 39.1585 32.4857 39.4221 28.1049 39.4329C24.5042 39.4421 20.8787 39.2787 17.3303 38.8456C11.7349 38.1627 6.36304 36.8017 1.84664 34.3385L1.45357 34.1242L0 33.0668L1.96995 33.5261L2.42313 33.6695Z" fill="white"/>
</mask>
<g mask="url(#mask17_858_16)">
<path d="M83.0015 33.0634H0V39.4387H83.0015V33.0634Z" fill="white"/>
</g>
<mask id="mask18_858_16" style="mask-type:luminance" maskUnits="userSpaceOnUse" x="2" y="34" width="79" height="6">
<path d="M41.1455 38.3554C22.0718 40.1651 9.95301 38.2599 2.19189 34.0271C10.7576 36.7693 24.8278 37.5431 45.0129 36.1312C61.571 34.8564 74.0843 34.6822 80.3318 36.2113C72.4427 34.9103 58.0396 36.1481 41.1455 38.3554Z" fill="white"/>
</mask>
<g mask="url(#mask18_858_16)">
<path d="M80.3303 34.0271H2.19043V40.1651H80.3303V34.0271Z" fill="white"/>
</g>
<path fill-rule="evenodd" clip-rule="evenodd" d="M4.31194 67.9777L7.67997 45.3695C7.68922 45.3063 7.74317 45.2601 7.80637 45.2601L16.0993 45.2477C16.1625 45.2477 16.2149 45.2924 16.2257 45.3541L20.0947 67.7126C20.1024 67.7604 20.0854 67.8035 20.0484 67.8344L19.7386 68.0841C19.7155 68.1026 19.6893 68.1118 19.6584 68.1118L14.3713 68.1241C14.3051 68.1241 14.2511 68.0764 14.2434 68.0101L13.6376 62.6243C13.6299 62.5596 13.576 62.5102 13.5097 62.5102H10.3729C10.305 62.5102 10.248 62.5642 10.2449 62.632L10.0168 67.7295C10.0152 67.7665 9.99983 67.7974 9.97208 67.8205L9.65455 68.0918C9.62989 68.1118 9.60368 68.1226 9.57131 68.1226H4.43834C4.3998 68.1226 4.36589 68.1072 4.34123 68.0779C4.31656 68.0517 4.30732 68.0162 4.31194 67.9777ZM20.7945 45.2601H25.8689C25.9398 45.2601 25.9968 45.3171 25.9968 45.388V62.6736C25.9968 63.3103 26.0908 63.7357 26.2758 63.9515C26.4593 64.1673 26.8384 64.2767 27.4165 64.2767C27.9837 64.2767 28.3629 64.1657 28.5525 63.9515C28.7421 63.7357 28.8361 63.3103 28.8361 62.6736V45.388C28.8361 45.3171 28.8932 45.2601 28.9641 45.2601H33.8165C33.8874 45.2601 33.9445 45.3171 33.9445 45.388V60.7499C33.9445 62.5364 33.8504 63.8451 33.6655 64.6713C33.482 65.496 33.1768 66.2004 32.7452 66.7738C32.2828 67.3735 31.6523 67.7943 30.8585 68.0409C30.0647 68.2875 28.8716 68.4093 27.2839 68.4093C25.6592 68.4093 24.4616 68.2891 23.6831 68.0409C22.9001 67.7943 22.2851 67.3735 21.8334 66.7738C21.4126 66.222 21.1136 65.5392 20.9348 64.7237C20.7559 63.9145 20.6665 62.5904 20.6665 60.7499V45.388C20.6665 45.3186 20.7236 45.2601 20.7945 45.2601ZM43.8081 62.3484C43.8081 61.5607 43.6616 61.0181 43.3719 60.7191C43.0774 60.4201 42.5256 60.2721 41.7272 60.2721H40.9718C40.9009 60.2721 40.8439 60.3291 40.8439 60.4V67.9962C40.8439 68.0671 40.7869 68.1241 40.716 68.1241H35.6416C35.5707 68.1241 35.5136 68.0671 35.5136 67.9962V45.388C35.5136 45.3171 35.5707 45.2601 35.6416 45.2601H41.0582C44.3491 45.2601 46.5195 45.6747 47.5815 46.5055C48.6374 47.341 49.1692 48.8809 49.1692 51.1252V53.7426C49.1692 55.0667 48.8794 56.0763 48.3075 56.7699C47.8235 57.3464 47.0898 57.7673 46.0987 58.0293C46.0416 58.0447 46.0031 58.0956 46.0031 58.1542C46.0046 58.2143 46.0447 58.2636 46.1017 58.2775C47.0066 58.4886 47.7002 58.8617 48.175 59.3935C48.753 60.0393 49.0474 60.9549 49.0474 62.1326V67.9962C49.0474 68.0671 48.9904 68.1241 48.9195 68.1241H43.9345C43.8636 68.1241 43.8065 68.0671 43.8065 67.9962V62.3484H43.8081ZM42.1418 49.2971H40.9718C40.9009 49.2971 40.8439 49.3541 40.8439 49.425V56.2335C40.8439 56.3044 40.9009 56.3615 40.9718 56.3615H42.1418C42.8308 56.3615 43.2932 56.2459 43.5245 56.0146C43.7557 55.7834 43.8713 55.358 43.8713 54.7322V50.9418C43.8713 50.3052 43.7557 49.8751 43.5245 49.6439C43.2917 49.4127 42.8293 49.2971 42.1418 49.2971ZM64.1149 61.9862C64.1149 63.5584 64.0255 64.6775 63.8513 65.3496C63.6772 66.0232 63.3735 66.5904 62.9419 67.0528C62.4795 67.5569 61.9014 67.9099 61.2016 68.1087C60.508 68.3091 59.1885 68.4078 57.2432 68.4078C55.2933 68.4078 53.9692 68.3076 53.2756 68.1087C52.5758 67.9083 51.9931 67.5569 51.5307 67.0528C51.0991 66.5796 50.7954 65.997 50.6104 65.3033C50.427 64.6097 50.3314 63.506 50.3314 61.9862V51.4165C50.3314 49.8982 50.4208 48.793 50.5996 48.1056C50.7784 47.4165 51.0944 46.8385 51.5307 46.3653C52.0039 45.8504 52.6297 45.4928 53.402 45.2878C54.1804 45.0828 55.4629 44.978 57.2448 44.978C59.022 44.978 60.2937 45.0828 61.0552 45.2878C61.8228 45.4928 62.4425 45.8504 62.9157 46.3653C63.3519 46.8385 63.6679 47.4165 63.8467 48.1056C64.0255 48.7946 64.1149 49.8982 64.1149 51.4165V61.9862ZM58.6598 62.7368V50.6797C58.6598 50.0431 58.5658 49.6177 58.3762 49.4019C58.1866 49.1861 57.8135 49.0767 57.2509 49.0767C56.6775 49.0767 56.2937 49.1876 56.1056 49.4019C55.916 49.6177 55.822 50.0431 55.822 50.6797V62.7368C55.822 63.3827 55.916 63.8143 56.1056 64.0239C56.2952 64.2336 56.679 64.3399 57.2509 64.3399C57.8135 64.3399 58.1866 64.2351 58.3762 64.0239C58.5642 63.8143 58.6598 63.3842 58.6598 62.7368ZM70.0217 60.6204V62.7106C70.0217 63.3041 70.1419 63.7249 70.3793 63.9715C70.6151 64.2182 71.0159 64.3399 71.5832 64.3399C72.1982 64.3399 72.6128 64.2243 72.8286 63.9885C73.0444 63.7511 73.1539 63.3056 73.1539 62.6474V61.0289C73.1539 60.5403 73.1231 60.1734 73.0599 59.9376C73.0599 59.9361 73.0599 59.9361 73.0599 59.9345C73.0028 59.6987 72.898 59.4906 72.7577 59.3071C72.7562 59.3056 72.7547 59.3041 72.7547 59.3025C72.4017 58.8833 71.5986 58.5318 70.3392 58.259C69.7612 58.1326 69.3157 58.0278 68.9997 57.9337H68.9982C67.5169 57.5129 66.5026 56.9241 65.9446 56.1672C65.3928 55.4104 65.1138 54.222 65.1138 52.5988V50.4855C65.1138 48.4354 65.513 47.0065 66.3068 46.1911C67.1007 45.3818 68.4772 44.9764 70.4379 44.9764H72.0148C73.2448 44.9764 74.2545 45.0813 75.0483 45.2924C75.836 45.5021 76.4556 45.8396 76.9088 46.3005L76.9104 46.3021C77.2726 46.6597 77.5192 47.116 77.6672 47.6724C77.809 48.2242 77.883 49.1121 77.883 50.3314V51.9746C77.883 52.0455 77.826 52.1025 77.7551 52.1025H73.2864C73.2155 52.1025 73.1585 52.0455 73.1585 51.9746V50.672C73.1585 49.9522 73.0645 49.4743 72.8749 49.237C72.6807 49.0011 72.2968 48.8855 71.708 48.8855C71.1408 48.8855 70.757 48.9965 70.5566 49.2169C70.3562 49.4373 70.2575 49.8474 70.2575 50.4578V51.9345C70.2575 53.0536 71.2132 53.852 73.1261 54.336H73.1277C73.6687 54.4825 74.0988 54.5981 74.4194 54.6936C75.8853 55.1037 76.8949 55.6817 77.4422 56.417C77.994 57.1584 78.2668 58.3299 78.2668 59.933V63.0128C78.2668 64.9257 77.8152 66.2975 76.9057 67.1438C75.9963 67.9854 74.5134 68.4047 72.4649 68.4047H71.0452C68.7855 68.4047 67.2348 68.0209 66.3885 67.2486C65.5423 66.481 65.1168 65.0567 65.1168 62.9804V60.6174C65.1168 60.5465 65.1739 60.4894 65.2448 60.4894H69.8984C69.9631 60.4925 70.0217 60.5511 70.0217 60.6204ZM10.8738 58.6952H13.0056C13.0426 58.6952 13.075 58.6813 13.1012 58.652C13.1259 58.6243 13.1366 58.5904 13.1336 58.5534L12.1409 49.3788C12.1332 49.314 12.0792 49.2647 12.0129 49.2647H11.9374C11.8727 49.2647 11.8172 49.3125 11.8095 49.3772L10.7459 58.5518C10.7413 58.5888 10.752 58.6227 10.7783 58.652C10.8029 58.6813 10.8353 58.6952 10.8738 58.6952Z" fill="white"/>
<mask id="mask19_858_16" style="mask-type:luminance" maskUnits="userSpaceOnUse" x="4" y="44" width="75" height="25">
<path d="M4.70827 67.6401L8.0763 45.0319C8.08555 44.9687 8.1395 44.9224 8.2027 44.9224H16.5033C16.5665 44.9224 16.6205 44.9687 16.6297 45.0319L20.0856 67.6401C20.0918 67.6786 20.081 67.7141 20.0563 67.7433C20.0317 67.7726 19.9977 67.788 19.9592 67.788H14.7661C14.6998 67.788 14.6459 67.7387 14.6382 67.674L14.0324 62.2882C14.0247 62.2235 13.9707 62.1741 13.9045 62.1741H10.7584C10.6921 62.1741 10.6382 62.2235 10.6305 62.2882L10.0247 67.674C10.017 67.7387 9.96302 67.788 9.89674 67.788H4.83005C4.79151 67.788 4.7576 67.7726 4.73294 67.7433C4.7129 67.7125 4.70211 67.677 4.70827 67.6401ZM21.1893 44.9224H26.2637C26.3346 44.9224 26.3916 44.9794 26.3916 45.0504V62.336C26.3916 62.9726 26.4856 63.398 26.6706 63.6138C26.854 63.8296 27.2332 63.9391 27.8113 63.9391C28.3785 63.9391 28.7577 63.8281 28.9473 63.6138C29.1369 63.398 29.2309 62.9726 29.2309 62.336V45.0504C29.2309 44.9794 29.288 44.9224 29.3589 44.9224H34.2113C34.2822 44.9224 34.3392 44.9794 34.3392 45.0504V60.4123C34.3392 62.1988 34.2452 63.5075 34.0602 64.3337C33.8768 65.1583 33.5716 65.8628 33.14 66.4362C32.6776 67.0358 32.0471 67.4551 31.2533 67.7033C30.4595 67.9499 29.2664 68.0717 27.6787 68.0717C26.054 68.0717 24.8563 67.9514 24.0779 67.7033C23.2949 67.4566 22.6798 67.0358 22.2282 66.4362C21.8074 65.8844 21.5084 65.2015 21.3295 64.3861C21.1507 63.5768 21.0613 62.2527 21.0613 60.4123V45.0504C21.0613 44.9794 21.1199 44.9224 21.1893 44.9224ZM44.2029 62.0092C44.2029 61.22 44.0564 60.6789 43.7666 60.3799C43.4722 60.0809 42.9204 59.9329 42.1219 59.9329H41.3666C41.2957 59.9329 41.2387 59.9899 41.2387 60.0608V67.657C41.2387 67.7279 41.1817 67.785 41.1108 67.785H36.0379C35.967 67.785 35.91 67.7279 35.91 67.657V45.0504C35.91 44.9794 35.967 44.9224 36.0379 44.9224H41.4545C44.7455 44.9224 46.9158 45.3371 47.9778 46.1679C49.0337 47.0033 49.5655 48.5432 49.5655 50.7876V53.4049C49.5655 54.729 49.2757 55.7387 48.7039 56.4323C48.2198 57.0088 47.4861 57.4296 46.495 57.6916C46.4379 57.7071 46.3994 57.7579 46.3994 57.8165C46.401 57.8766 46.441 57.9259 46.4981 57.9398C47.4029 58.151 48.0965 58.524 48.5713 59.0558C49.1493 59.7032 49.4437 60.6173 49.4437 61.7949V67.6586C49.4437 67.7295 49.3867 67.7865 49.3158 67.7865H44.3308C44.2599 67.7865 44.2029 67.7295 44.2029 67.6586V62.0092V62.0092ZM42.5366 48.9579H41.3666C41.2957 48.9579 41.2387 49.0149 41.2387 49.0858V55.8943C41.2387 55.9652 41.2957 56.0223 41.3666 56.0223H42.5366C43.2256 56.0223 43.688 55.9067 43.9192 55.6755C44.1505 55.4442 44.2661 55.0188 44.2661 54.393V50.6026C44.2661 49.966 44.1505 49.5359 43.9192 49.3047C43.688 49.0735 43.2256 48.9579 42.5366 48.9579ZM64.5112 61.647C64.5112 63.2192 64.4218 64.3383 64.2477 65.0104C64.0735 65.684 63.7698 66.2512 63.3382 66.7137C62.8758 67.2177 62.2978 67.5707 61.5979 67.7695C60.9043 67.9699 59.5848 68.0686 57.6395 68.0686C55.6896 68.0686 54.3655 67.9684 53.6704 67.7695C52.9705 67.5692 52.3879 67.2177 51.9255 66.7137C51.4939 66.2404 51.1902 65.6578 51.0052 64.9641C50.8218 64.2705 50.7262 63.1668 50.7262 61.647V51.0774C50.7262 49.559 50.8156 48.4538 50.9944 47.7664C51.1732 47.0773 51.4892 46.4993 51.9255 46.0261C52.3987 45.5112 53.0245 45.1536 53.7967 44.9486C54.5752 44.7436 55.8576 44.6388 57.6395 44.6388C59.4168 44.6388 60.6885 44.7436 61.45 44.9486C62.2176 45.1536 62.8373 45.5112 63.3105 46.0261C63.7467 46.4993 64.0627 47.0773 64.2415 47.7664C64.4203 48.4554 64.5097 49.559 64.5097 51.0774V61.647H64.5112ZM59.0546 62.3992V50.3421C59.0546 49.7055 58.9605 49.28 58.771 49.0642C58.5814 48.8484 58.2083 48.739 57.6457 48.739C57.0723 48.739 56.6885 48.85 56.5004 49.0642C56.3108 49.28 56.2168 49.7055 56.2168 50.3421V62.3992C56.2168 63.045 56.3108 63.4767 56.5004 63.6863C56.69 63.8959 57.0738 64.0023 57.6457 64.0023C58.2083 64.0023 58.5814 63.8975 58.771 63.6863C58.9605 63.4767 59.0546 63.045 59.0546 62.3992ZM70.4165 60.2828V62.373C70.4165 62.9664 70.5367 63.3872 70.7741 63.6339C71.0099 63.8805 71.4107 64.0023 71.9779 64.0023C72.593 64.0023 73.0076 63.8867 73.2234 63.6508C73.4392 63.4134 73.5487 62.968 73.5487 62.3098V60.6913C73.5487 60.2042 73.5178 59.8358 73.4546 59.5999C73.4546 59.5984 73.4546 59.5984 73.4546 59.5969C73.3976 59.361 73.2928 59.1529 73.1525 58.9695C73.151 58.968 73.151 58.9664 73.1494 58.9649C72.7965 58.5456 71.9934 58.1942 70.734 57.9213C70.156 57.7949 69.7105 57.6901 69.3945 57.5961H69.393C67.9117 57.1753 66.8974 56.5864 66.3394 55.8296C65.7876 55.0728 65.5086 53.8843 65.5086 52.2612V50.1479C65.5086 48.0978 65.9078 46.6689 66.7016 45.8534C67.4955 45.0442 68.872 44.6388 70.8327 44.6388H72.4096C73.6396 44.6388 74.6493 44.7436 75.4431 44.9548C76.2308 45.1644 76.8504 45.502 77.3036 45.9629L77.3051 45.9644C77.6674 46.322 77.914 46.7783 78.062 47.3348C78.2038 47.8866 78.2778 48.7745 78.2778 49.9937V51.6369C78.2778 51.7078 78.2208 51.7648 78.1499 51.7648H73.6766C73.6057 51.7648 73.5487 51.7078 73.5487 51.6369V50.3359C73.5487 49.6161 73.4546 49.1382 73.2651 48.9009C73.0708 48.665 72.687 48.5494 72.0982 48.5494C71.5309 48.5494 71.1471 48.6604 70.9467 48.8808C70.7463 49.1012 70.6477 49.5113 70.6477 50.1217V51.5984C70.6477 52.7174 71.6034 53.5159 73.5163 53.9999C73.5178 53.9999 73.5178 53.9999 73.5178 53.9999C74.0589 54.1464 74.4889 54.262 74.8096 54.3575C76.2755 54.7675 77.2851 55.3456 77.8323 56.0808C78.3842 56.8223 78.657 57.9938 78.657 59.5969V62.6766C78.657 64.5896 78.2053 65.9614 77.2959 66.8077C76.3864 67.6493 74.9051 68.0686 72.855 68.0686H71.4354C69.1756 68.0686 67.6249 67.6848 66.7787 66.9125C65.9325 66.1449 65.507 64.7206 65.507 62.6443V60.2813C65.507 60.2103 65.5641 60.1533 65.635 60.1533H70.2885C70.3595 60.1549 70.4165 60.2119 70.4165 60.2828ZM11.2686 58.356H13.4004C13.4374 58.356 13.4698 58.3421 13.496 58.3128C13.5206 58.2851 13.5314 58.2512 13.5284 58.2142L12.5357 49.0396C12.528 48.9748 12.474 48.9255 12.4077 48.9255H12.3322C12.2675 48.9255 12.212 48.9733 12.2043 49.038L11.1407 58.2127C11.136 58.2496 11.1468 58.2836 11.1715 58.3128C11.1977 58.3421 11.2301 58.356 11.2686 58.356Z" fill="white"/>
</mask>
<g mask="url(#mask19_858_16)">
<path d="M78.6586 44.6372H4.70215V68.0701H78.6586V44.6372Z" fill="white"/>
</g>
<mask id="mask20_858_16" style="mask-type:luminance" maskUnits="userSpaceOnUse" x="4" y="70" width="75" height="6">
<path d="M77.3209 74.8193H75.6587L75.3488 75.7095H74.7259L76.2457 71.6559H76.7371L78.2569 75.7095H77.634L77.3209 74.8193ZM73.6741 75.7095H73.0966V71.6559H73.6741V75.7095ZM69.4638 71.6528H70.5203C70.7582 71.6528 70.9664 71.7005 71.1479 71.7991C71.3279 71.8946 71.4688 72.0317 71.5674 72.2103C71.6676 72.3874 71.7161 72.5923 71.7161 72.8248C71.7161 73.0574 71.666 73.2622 71.5658 73.4394C71.4657 73.6165 71.3248 73.7536 71.1448 73.8506C71.0791 73.886 71.0102 73.9137 70.9382 73.9353L71.8883 75.7095H71.2027L70.3231 73.9954H69.4622V75.7095H68.8847V71.6528H69.1367H69.4638V71.6528ZM69.4638 73.4548H70.5422C70.6518 73.4548 70.7488 73.4286 70.8349 73.3762C70.9194 73.3239 70.9852 73.2499 71.0321 73.1544C71.0775 73.059 71.101 72.9496 71.101 72.8248C71.101 72.7001 71.0775 72.5892 71.0321 72.4953C70.9852 72.3998 70.9194 72.3243 70.8365 72.2735C70.7535 72.2211 70.6549 72.1949 70.5438 72.1949H69.4654V73.4548H69.4638ZM65.8029 71.0491L66.5855 70.3652L66.958 70.7472L66.1222 71.3771L65.8029 71.0491ZM66.7107 74.2787L66.0674 72.4383L65.4257 74.2787H66.7107ZM65.8232 71.6559H66.3147L67.8345 75.7095H67.2115L66.9016 74.8193H65.2394L64.9295 75.7095H64.3066L65.8232 71.6559ZM63.2533 75.7095H62.6757V71.6559H63.2533V75.7095ZM58.9209 71.6559H59.4984V75.1689H61.566V75.7095H59.4984H59.2089H58.9193V71.6559H58.9209ZM57.4731 75.7095H56.8956V71.6559H57.4731V75.7095ZM53.2973 71.6559H54.3459C54.612 71.6559 54.8358 71.7005 55.0142 71.7899C55.1942 71.8792 55.3288 72.0055 55.418 72.1687C55.5057 72.332 55.5511 72.5276 55.5511 72.7555C55.5511 72.8942 55.5245 73.0251 55.4681 73.1467C55.4134 73.2684 55.3304 73.3716 55.2177 73.4594C55.105 73.5456 54.9657 73.6042 54.7998 73.6334C54.9657 73.6581 55.1097 73.7166 55.2302 73.8075C55.3507 73.8999 55.4447 74.0154 55.5073 74.1525C55.5714 74.2911 55.6043 74.4389 55.6043 74.5991V74.6083C55.6043 74.827 55.5542 75.0195 55.4556 75.1874C55.3586 75.3553 55.2161 75.4847 55.0346 75.574C54.8515 75.6649 54.6386 75.7111 54.3944 75.7111H53.2973H53.0625H52.7228V71.6574H53.0625H53.2973V71.6559ZM53.2973 73.3731H54.3209C54.5337 73.3731 54.6949 73.3239 54.8029 73.2253C54.9125 73.1267 54.9657 72.9804 54.9657 72.7879C54.9657 72.5846 54.9047 72.4337 54.7842 72.3335C54.6636 72.2334 54.4821 72.1826 54.241 72.1826H53.2973V73.3731ZM53.2973 75.1828H54.1784C54.4711 75.1828 54.6855 75.1289 54.8186 75.018C54.9532 74.9087 55.0205 74.7546 55.0205 74.556V74.5467C55.0205 74.4097 54.997 74.2911 54.9485 74.1925C54.9 74.0939 54.8233 74.0185 54.72 73.9646C54.6151 73.9122 54.4836 73.886 54.3209 73.886H53.2973V75.1828ZM49.9102 75.7511C49.6238 75.7511 49.3703 75.6895 49.1496 75.5648C48.9305 75.4415 48.7614 75.2675 48.6425 75.0411C48.5219 74.8163 48.4625 74.5544 48.4625 74.2572V73.1082C48.4625 72.811 48.5219 72.5492 48.6425 72.3228C48.763 72.0979 48.932 71.9223 49.1496 71.7991C49.3687 71.6759 49.6223 71.6143 49.9102 71.6143C50.1967 71.6143 50.4502 71.6759 50.6693 71.7991C50.8885 71.9223 51.0575 72.0979 51.178 72.3228C51.2985 72.5476 51.358 72.8094 51.358 73.1082V74.2572C51.358 74.5544 51.2985 74.8163 51.178 75.0411C51.0575 75.2675 50.8885 75.4415 50.6693 75.5648C50.4502 75.6895 50.1967 75.7511 49.9102 75.7511ZM49.9102 75.1905C50.0793 75.1905 50.2295 75.152 50.3594 75.0765C50.4893 75.0011 50.588 74.8948 50.6584 74.7562C50.7304 74.6176 50.7648 74.4589 50.7648 74.2757V73.0882C50.7648 72.9065 50.7304 72.7463 50.6584 72.6077C50.588 72.4691 50.4878 72.3628 50.3594 72.2873C50.2295 72.2119 50.0793 72.1734 49.9102 72.1734C49.7396 72.1734 49.5909 72.2119 49.461 72.2873C49.3311 72.3628 49.2325 72.4691 49.1605 72.6077C49.0885 72.7463 49.0541 72.9065 49.0541 73.0882V74.2757C49.0541 74.4589 49.0885 74.6176 49.1605 74.7562C49.231 74.8948 49.3311 75.0011 49.461 75.0765C49.5909 75.1535 49.7412 75.1905 49.9102 75.1905ZM46.5592 71.6559H47.0992V75.7095H46.5357V72.6739L46.5655 72.8526L45.5513 75.1458H45.149L44.1348 72.908L44.163 72.6739V75.7095H43.5995V71.6559H44.1411L45.3509 74.3326L46.5592 71.6559ZM42.1502 75.7095H41.5726V71.6559H42.1502V75.7095ZM75.8481 74.2787H77.1331L76.4898 72.4383L75.8481 74.2787ZM38.5957 74.8193H36.9335L36.6236 75.7095H36.0006L37.5204 71.6559H38.0119L39.5316 75.7095H38.9087L38.5957 74.8193ZM32.8766 71.6528H33.9331C34.171 71.6528 34.3791 71.7005 34.5607 71.7991C34.7407 71.8946 34.88 72.0317 34.9802 72.2103C35.0803 72.3874 35.1288 72.5923 35.1288 72.8248C35.1288 73.0574 35.0788 73.2622 34.9786 73.4394C34.8784 73.6165 34.7376 73.7536 34.5576 73.8506C34.4918 73.886 34.423 73.9137 34.351 73.9353L35.301 75.7095H34.6155L33.7358 73.9954H32.875V75.7095H32.2975V71.6528H32.5495H32.8766V71.6528ZM32.8766 73.4548H33.955C34.0645 73.4548 34.1616 73.4286 34.2477 73.3762C34.3322 73.3239 34.3979 73.2499 34.4449 73.1544C34.4903 73.059 34.5137 72.9496 34.5137 72.8248C34.5137 72.7001 34.4903 72.5892 34.4449 72.4953C34.3979 72.3998 34.3322 72.3243 34.2492 72.2735C34.1663 72.2211 34.0677 72.1949 33.9565 72.1949H32.8781V73.4548H32.8766ZM29.488 75.7511C29.2 75.7511 28.948 75.6895 28.7273 75.5648C28.5082 75.4415 28.3392 75.2675 28.2202 75.0411C28.0997 74.8163 28.0402 74.5544 28.0402 74.2572V73.1082C28.0402 72.811 28.0997 72.5492 28.2202 72.3228C28.3407 72.0979 28.5098 71.9223 28.7273 71.7991C28.9465 71.6759 29.2 71.6143 29.488 71.6143C29.7744 71.6143 30.028 71.6759 30.2471 71.7991C30.4662 71.9223 30.6353 72.0979 30.7558 72.3228C30.8763 72.5476 30.9358 72.8094 30.9358 73.1082V74.2572C30.9358 74.5544 30.8763 74.8163 30.7558 75.0411C30.6353 75.2675 30.4662 75.4415 30.2471 75.5648C30.028 75.6895 29.7744 75.7511 29.488 75.7511ZM29.488 75.1905C29.657 75.1905 29.8073 75.152 29.9372 75.0765C30.0671 75.0011 30.1657 74.8948 30.2361 74.7562C30.3081 74.6176 30.3426 74.4589 30.3426 74.2757V73.0882C30.3426 72.9065 30.3081 72.7463 30.2361 72.6077C30.1657 72.4691 30.0655 72.3628 29.9372 72.2873C29.8073 72.2119 29.657 72.1734 29.488 72.1734C29.3174 72.1734 29.1687 72.2119 29.0388 72.2873C28.9089 72.3628 28.8103 72.4691 28.7383 72.6077C28.6663 72.7463 28.6319 72.9065 28.6319 73.0882V74.2757C28.6319 74.4589 28.6663 74.6176 28.7383 74.7562C28.8087 74.8948 28.9089 75.0011 29.0388 75.0765C29.1687 75.1535 29.319 75.1905 29.488 75.1905ZM26.0791 72.198V75.7095H25.5015V72.198H24.337V71.6559H27.2436V72.198H26.0791ZM21.0064 71.6559H21.2865H21.5839H23.6515V72.198H21.5839V73.427H23.3416V73.9676H21.5855V75.1689H23.6531V75.7095H21.5855H21.2881H21.0079V71.6559H21.0064ZM17.3752 71.6528H18.4317C18.6696 71.6528 18.8778 71.7005 19.0593 71.7991C19.2393 71.8946 19.3802 72.0317 19.4788 72.2103C19.579 72.3874 19.6275 72.5923 19.6275 72.8248C19.6275 73.0574 19.5774 73.2622 19.4772 73.4394C19.377 73.6165 19.2362 73.7536 19.0562 73.8506C18.9905 73.886 18.9216 73.9137 18.8496 73.9353L19.7996 75.7095H19.1141L18.2345 73.9954H17.3736V75.7095H16.7961V71.6528H17.0481H17.3752V71.6528ZM17.3752 73.4548H18.4536C18.5632 73.4548 18.6602 73.4286 18.7463 73.3762C18.8308 73.3239 18.8965 73.2499 18.9435 73.1544C18.9889 73.059 19.0124 72.9496 19.0124 72.8248C19.0124 72.7001 18.9889 72.5892 18.9435 72.4953C18.8965 72.3998 18.8308 72.3243 18.7479 72.2735C18.6649 72.2211 18.5663 72.1949 18.4552 72.1949H17.3768V73.4548H17.3752ZM13.1649 71.6528H14.2214C14.4593 71.6528 14.6675 71.7005 14.849 71.7991C15.029 71.8946 15.1699 72.0317 15.2685 72.2103C15.3687 72.3874 15.4172 72.5923 15.4172 72.8248C15.4172 73.0574 15.3671 73.2622 15.2669 73.4394C15.1668 73.6165 15.0259 73.7536 14.8459 73.8506C14.7802 73.886 14.7113 73.9137 14.6393 73.9353L15.5894 75.7095H14.9038L14.0242 73.9954H13.1634V75.7095H12.5858V71.6528H12.8378H13.1649V71.6528ZM13.1649 73.4548H14.2433C14.3529 73.4548 14.4499 73.4286 14.536 73.3762C14.6205 73.3239 14.6863 73.2499 14.7332 73.1544C14.7786 73.059 14.8021 72.9496 14.8021 72.8248C14.8021 72.7001 14.7786 72.5892 14.7332 72.4953C14.6863 72.3998 14.6205 72.3243 14.5376 72.2735C14.4546 72.2211 14.356 72.1949 14.2449 72.1949H13.1665V73.4548H13.1649ZM9.77634 75.7511C9.48991 75.7511 9.23636 75.6895 9.01567 75.5648C8.79655 75.4415 8.62751 75.2675 8.50856 75.0411C8.38804 74.8163 8.32856 74.5544 8.32856 74.2572V73.1082C8.32856 72.811 8.38804 72.5492 8.50856 72.3228C8.62907 72.0979 8.79811 71.9223 9.01567 71.7991C9.23479 71.6759 9.48835 71.6143 9.77634 71.6143C10.0628 71.6143 10.3163 71.6759 10.5354 71.7991C10.7546 71.9223 10.9236 72.0979 11.0441 72.3228C11.1646 72.5476 11.2241 72.8094 11.2241 73.1082V74.2572C11.2241 74.5544 11.1646 74.8163 11.0441 75.0411C10.9236 75.2675 10.7546 75.4415 10.5354 75.5648C10.3163 75.6895 10.0628 75.7511 9.77634 75.7511ZM9.77634 75.1905C9.94538 75.1905 10.0956 75.152 10.2255 75.0765C10.3554 75.0011 10.4541 74.8948 10.5261 74.7562C10.598 74.6176 10.6325 74.4589 10.6325 74.2757V73.0882C10.6325 72.9065 10.598 72.7463 10.5261 72.6077C10.4556 72.4691 10.3554 72.3628 10.2255 72.2873C10.0956 72.2119 9.94538 72.1734 9.77634 72.1734C9.60574 72.1734 9.45705 72.2119 9.32714 72.2873C9.19723 72.3628 9.09862 72.4691 9.02819 72.6077C8.95619 72.7463 8.92176 72.9065 8.92176 73.0882V74.2757C8.92176 74.4589 8.95619 74.6176 9.02819 74.7562C9.09862 74.8948 9.19879 75.0011 9.32714 75.0765C9.45705 75.1535 9.60574 75.1905 9.77634 75.1905ZM5.74448 75.7511C5.45962 75.7511 5.20919 75.6895 4.99164 75.5648C4.77564 75.44 4.60817 75.2629 4.48922 75.035C4.37027 74.807 4.31079 74.5406 4.31079 74.2402V73.1283C4.31079 72.8279 4.37027 72.5615 4.48922 72.3335C4.60817 72.1056 4.77564 71.9285 4.99164 71.8022C5.20763 71.6759 5.45806 71.6143 5.74448 71.6143C5.98082 71.6143 6.19838 71.6651 6.39559 71.7637C6.59436 71.8623 6.75871 72.0039 6.89331 72.1857C7.02635 72.3674 7.11713 72.5784 7.16408 72.8187H6.57089C6.53489 72.6924 6.47541 72.5784 6.39089 72.4799C6.30637 72.3797 6.20777 72.3043 6.09508 72.2488C5.98238 72.1949 5.865 72.1687 5.74448 72.1687C5.57544 72.1687 5.42988 72.2088 5.3031 72.2889C5.17633 72.369 5.07772 72.4814 5.00885 72.6246C4.93999 72.7694 4.90399 72.9373 4.90399 73.1283V74.2402C4.90399 74.4297 4.93842 74.5976 5.00885 74.7423C5.07772 74.8886 5.17633 74.9995 5.3031 75.0781C5.42988 75.1566 5.57701 75.1967 5.74448 75.1967C5.86656 75.1967 5.98395 75.172 6.09664 75.1212C6.20933 75.0704 6.30637 74.9965 6.39089 74.8979C6.47541 74.7993 6.53489 74.6823 6.57089 74.5467H7.16408C7.11713 74.787 7.02635 74.998 6.89174 75.1797C6.7587 75.363 6.59123 75.5032 6.39402 75.6017C6.19525 75.7018 5.97769 75.7511 5.74448 75.7511ZM37.1213 74.2787H38.4063L37.763 72.4383L37.1213 74.2787Z" fill="white"/>
</mask>
<g mask="url(#mask20_858_16)">
<path d="M80.03 70.1219H3.16357V77.2489H80.03V70.1219Z" fill="white"/>
</g>
</svg>
