<svg width="116" height="58" viewBox="0 0 116 58" fill="none" xmlns="http://www.w3.org/2000/svg">
<mask id="mask0_720_16" style="mask-type:luminance" maskUnits="userSpaceOnUse" x="12" y="21" width="28" height="25">
<path d="M19.7272 42.3987L22.5835 38.1911V27.4498H26.6201V32.2389L34.0796 21.2432L39.8329 29.8187L37.4234 33.9172L34.0753 28.9464L23.18 45.0541H12.5798L19.7272 42.3987Z" fill="white"/>
</mask>
<g mask="url(#mask0_720_16)">
<path d="M39.8329 21.2432H12.5798V45.0541H39.8329V21.2432Z" fill="#17375F"/>
</g>
<mask id="mask1_720_16" style="mask-type:luminance" maskUnits="userSpaceOnUse" x="23" y="29" width="15" height="17">
<path d="M34.0736 32.4591L25.5344 45.054H23.6145L34.08 29.6177L37.21 34.2806L36.3185 35.7986L34.0736 32.4591Z" fill="white"/>
</mask>
<g mask="url(#mask1_720_16)">
<path d="M37.21 29.6177H23.6145V45.0519H37.21V29.6177Z" fill="#17375F"/>
</g>
<mask id="mask2_720_16" style="mask-type:luminance" maskUnits="userSpaceOnUse" x="22" y="24" width="6" height="4">
<path d="M27.0415 24.9248H22.1604V27.3792H27.0415V24.9248Z" fill="white"/>
</mask>
<g mask="url(#mask2_720_16)">
<path d="M27.0415 24.9248H22.1604V27.3792H27.0415V24.9248Z" fill="#17375F"/>
</g>
<mask id="mask3_720_16" style="mask-type:luminance" maskUnits="userSpaceOnUse" x="76" y="21" width="29" height="25">
<path d="M96.8707 42.3987L104.018 45.0541H93.4178L82.5226 28.9464L78.9714 34.2187L76.564 30.118L82.5183 21.2432L89.9778 32.2389V27.4498H94.0143V38.1911L96.8707 42.3987Z" fill="white"/>
</mask>
<g mask="url(#mask3_720_16)">
<path d="M104.016 21.2432H76.564V45.0541H104.016V21.2432Z" fill="#17375F"/>
</g>
<mask id="mask4_720_16" style="mask-type:luminance" maskUnits="userSpaceOnUse" x="79" y="29" width="14" height="17">
<path d="M82.5246 32.4591L80.0766 36.1022L79.1851 34.5821L82.5182 29.6177L92.9837 45.054H91.0638L82.5246 32.4591Z" fill="white"/>
</mask>
<g mask="url(#mask4_720_16)">
<path d="M92.9837 29.6177H79.1851V45.0519H92.9837V29.6177Z" fill="#17375F"/>
</g>
<mask id="mask5_720_16" style="mask-type:luminance" maskUnits="userSpaceOnUse" x="89" y="24" width="6" height="4">
<path d="M94.4377 24.9248H89.5566V27.3792H94.4377V24.9248Z" fill="white"/>
</mask>
<g mask="url(#mask5_720_16)">
<path d="M94.4377 24.9248H89.5566V27.3792H94.4377V24.9248Z" fill="#17375F"/>
</g>
<mask id="mask6_720_16" style="mask-type:luminance" maskUnits="userSpaceOnUse" x="14" y="22" width="26" height="23">
<path d="M20.003 42.7494L14.9424 44.6287H20.266H22.9535L34.0775 28.1874L37.3999 33.1219L39.3327 29.8337L34.0775 22.0022L26.1968 33.6201V27.8731H23.0069V38.3216L20.003 42.7494Z" fill="white"/>
</mask>
<g mask="url(#mask6_720_16)">
<path d="M39.3327 22.0022H14.9424V44.6287H39.3327V22.0022Z" fill="#17375F"/>
</g>
<mask id="mask7_720_16" style="mask-type:luminance" maskUnits="userSpaceOnUse" x="24" y="30" width="13" height="15">
<path d="M24.416 44.6286L34.0776 30.3767L36.7095 34.2957L36.2926 35.0033L34.0755 31.7001L25.3097 44.6286H24.416Z" fill="white"/>
</mask>
<g mask="url(#mask7_720_16)">
<path d="M36.7095 30.3767H24.416V44.6286H36.7095V30.3767Z" fill="#17375F"/>
</g>
<mask id="mask8_720_16" style="mask-type:luminance" maskUnits="userSpaceOnUse" x="77" y="22" width="25" height="23">
<path d="M96.5948 42.7494L101.655 44.6287H96.3319H93.6444L82.5204 28.1874L78.9948 33.4234L77.0642 30.133L82.5204 22.0022L90.4011 33.6201V27.8731H93.591V38.3216L96.5948 42.7494Z" fill="white"/>
</mask>
<g mask="url(#mask8_720_16)">
<path d="M101.655 22.0022H77.0642V44.6287H101.655V22.0022Z" fill="#17375F"/>
</g>
<mask id="mask9_720_16" style="mask-type:luminance" maskUnits="userSpaceOnUse" x="79" y="30" width="14" height="15">
<path d="M92.1822 44.6286L82.5205 30.3767L79.6855 34.5993L80.1003 35.3069L82.5227 31.7001L91.2885 44.6286H92.1822Z" fill="white"/>
</mask>
<g mask="url(#mask9_720_16)">
<path d="M92.1822 30.3767H79.6855V44.6286H92.1822V30.3767Z" fill="#17375F"/>
</g>
<mask id="mask10_720_16" style="mask-type:luminance" maskUnits="userSpaceOnUse" x="17" y="22" width="83" height="23">
<path d="M17.4119 44.1861H22.7184L34.0776 27.3942L37.3744 32.2903L38.809 29.8508L34.0754 22.7975L25.7522 35.0654V28.3179H23.4517V38.4563L20.2918 43.115L17.4119 44.1861ZM23.0284 25.7929V26.5091H26.1734V25.7929H23.0284ZM93.1462 28.3179H90.8457V35.0654L82.5225 22.7954L77.588 30.1501L79.0205 32.5917L82.5182 27.3964L93.8774 44.1882H99.1839L96.3062 43.1192L93.1462 38.4605V28.3179V28.3179ZM93.5696 25.7929H90.4246V26.5091H93.5696V25.7929Z" fill="white"/>
</mask>
<g mask="url(#mask10_720_16)">
<path d="M99.184 22.7954H17.4119V44.1861H99.184V22.7954Z" fill="#17375F"/>
</g>
<mask id="mask11_720_16" style="mask-type:luminance" maskUnits="userSpaceOnUse" x="32" y="0" width="53" height="46">
<path d="M54.2561 19.0025H62.186L58.1409 11.7013L54.2561 19.0025ZM68.7432 25.7137L58.2991 7.60487L47.855 25.7137H49.5483L47.453 29.3419H41.3768L58.2991 0L75.1145 29.3419H54.1407L56.2359 25.7137H56.4818C60.5675 25.7137 64.6554 25.7137 68.7432 25.7137ZM41.7339 36.3268L38.7941 41.4259H41.6654L43.9061 37.5411C46.446 33.1347 48.9881 28.7304 51.5323 24.3262L51.5302 24.324L53.4672 20.9631H63.131L65.2219 24.5913H55.695L51.0192 32.7007H64.3924L66.4876 36.3289H48.9282L43.8954 45.0541H32.3181L39.4419 32.7007H45.5203L43.4272 36.3289H41.7339V36.3268ZM74.9327 41.4259H77.8041L74.8643 36.3268H73.2031L71.11 32.6986H76.9189L79.957 37.7849L84.1219 45.0519H72.7049L64.2342 30.3639H68.5529L74.9327 41.4259Z" fill="white"/>
</mask>
<g mask="url(#mask11_720_16)">
<path d="M84.1221 -0.00244141H32.3162V45.0538H84.1221V-0.00244141Z" fill="#17375F"/>
</g>
<mask id="mask12_720_16" style="mask-type:luminance" maskUnits="userSpaceOnUse" x="33" y="0" width="51" height="45">
<path d="M74.383 28.9165H54.8759L56.4794 26.1371C60.811 26.1371 65.1426 26.1371 69.4763 26.1371L61.6021 12.4817L58.2989 6.75617L47.1214 26.1371H48.8147L47.2112 28.9165H45.52H42.1142L58.301 0.848877L74.383 28.9165ZM33.0491 44.6287L39.6833 33.1241H43.0891H44.7824L43.9721 34.5267L43.1768 35.9035H41.4856L38.0563 41.8514H41.9089L44.2714 37.755C48.2695 30.8322 48.928 29.6819 52.1115 24.168L52.1093 24.1659L53.7107 21.3908H54.3842H57.0524H59.5474H62.2841H62.887L64.4905 24.1702H62.2862H61.1509H55.451L50.2856 33.1263H64.1484L65.7519 35.9057H48.6821L43.6493 44.6308H43.3157H40.3097H36.457H35.9803H33.0491V44.6287ZM71.8431 33.1241H73.5043H76.6771L79.5869 37.9966L80.7179 39.97L83.3862 44.6287H81.4962H80.1407H76.288H74.1607H72.9484L64.9673 30.7894H68.3068L74.6866 41.8514H78.5393L75.11 35.9035H73.4487L71.8431 33.1241Z" fill="white"/>
</mask>
<g mask="url(#mask12_720_16)">
<path d="M83.3883 0.848877H33.0491V44.6287H83.3883V0.848877Z" fill="#17375F"/>
</g>
<mask id="mask13_720_16" style="mask-type:luminance" maskUnits="userSpaceOnUse" x="65" y="31" width="18" height="14">
<path d="M72.6128 33.5688L73.7053 35.4588H75.3644L79.3069 42.2939H74.4301L68.0503 31.2319H65.7349L73.205 44.1861H82.6229L79.2064 38.2253L76.427 33.5688H72.6128Z" fill="white"/>
</mask>
<g mask="url(#mask13_720_16)">
<path d="M82.6208 31.2319H65.7349V44.1839H82.6208V31.2319Z" fill="#17375F"/>
</g>
<mask id="mask14_720_16" style="mask-type:luminance" maskUnits="userSpaceOnUse" x="33" y="14" width="32" height="31">
<path d="M55.9982 18.1474H60.4453L58.1768 14.1216L55.9982 18.1474ZM33.8186 44.1861H43.3926L48.4254 35.461H64.9821L63.8896 33.571H49.5158L55.1943 23.7255H63.7228L62.6324 21.8355H53.9714L52.7228 23.9991L52.7249 24.0013L52.5005 24.3904C49.8857 28.9187 47.273 33.4491 44.6604 37.9774L42.1696 42.2962H37.2929L41.2353 35.461H42.9265L44.019 33.571H39.944L33.8186 44.1861Z" fill="white"/>
</mask>
<g mask="url(#mask14_720_16)">
<path d="M64.9821 14.1216H33.8186V44.1861H64.9821V14.1216Z" fill="#17375F"/>
</g>
<mask id="mask15_720_16" style="mask-type:luminance" maskUnits="userSpaceOnUse" x="42" y="1" width="32" height="28">
<path d="M73.6177 28.4718L58.2968 1.73828L42.8796 28.4718H46.9525L48.045 26.5797H46.3517L58.2968 5.86676L70.2439 26.5797H69.4764C65.2303 26.5797 60.9842 26.5797 56.736 26.5797L55.6435 28.4718H73.6177Z" fill="white"/>
</mask>
<g mask="url(#mask15_720_16)">
<path d="M73.6177 1.74072H42.8796V28.4743H73.6177V1.74072Z" fill="#17375F"/>
</g>
<mask id="mask16_720_16" style="mask-type:luminance" maskUnits="userSpaceOnUse" x="18" y="50" width="97" height="8">
<path d="M22.5068 55.6843C26.0409 55.9965 29.6264 56.0948 33.184 56.067C37.2163 56.0371 41.2528 55.849 45.2637 55.5689C54.425 54.9275 63.5799 53.8114 72.6066 52.5479C80.111 51.4981 87.7992 50.6344 95.4404 50.2923C100.76 50.0528 106.368 50.0507 111.634 50.6942L112.376 50.784L114.965 51.5687L112.166 51.8295L111.418 51.7739C108.658 51.5665 105.859 51.5152 103.084 51.5537C99.7741 51.6008 96.4645 51.7739 93.1741 52.0262C84.9856 52.6526 76.7971 53.7473 68.7667 55.0173L68.7454 55.0194C63.8643 55.695 58.9597 56.2979 54.0316 56.7811C49.8112 57.1938 45.5587 57.523 41.3041 57.6941C37.77 57.8352 34.1953 57.8736 30.6633 57.7047C27.8283 57.5679 24.9335 57.2943 22.1968 56.7491L21.5041 56.6101L19.7616 55.9815L18.3933 55.2289L21.7949 55.6202L22.5068 55.6843Z" fill="white"/>
</mask>
<g mask="url(#mask16_720_16)">
<path d="M114.962 50.0486H18.3911V57.8737H114.962V50.0486Z" fill="#17375F"/>
</g>
<path fill-rule="evenodd" clip-rule="evenodd" d="M68.5957 54.4849C47.7502 57.3712 31.9419 58.1259 22.4106 56.2252C35.7689 57.4075 53.4202 55.7933 72.7584 53.0823C90.3691 50.6236 102.855 50.1725 111.501 51.2308C101.299 50.4611 86.9077 51.5879 68.5957 54.4849Z" fill="#17375F"/>
<mask id="mask17_720_16" style="mask-type:luminance" maskUnits="userSpaceOnUse" x="0" y="45" width="116" height="10">
<path d="M3.36094 46.7002C6.60642 47.7393 10.0849 48.4705 13.5635 49.0114C17.8929 49.6827 22.3336 50.0761 26.7528 50.3049C32.1491 50.5828 37.586 50.6192 42.993 50.5123C49.4562 50.3818 55.9194 50.044 62.3505 49.5737C67.7276 49.1803 73.1153 48.8361 78.5095 48.5817C83.0934 48.3679 87.6943 48.2161 92.2889 48.2011C95.9919 48.1883 99.7398 48.2588 103.424 48.5368C106.167 48.7441 109.064 49.0734 111.674 49.7127L112.371 49.8837L115.123 51.051L111.959 50.8757L111.24 50.7581C108.134 50.245 104.777 50.0847 101.593 50.0462C97.4009 49.997 93.1719 50.1702 88.9985 50.4332C83.9913 50.7496 78.9948 51.2071 74.024 51.7309C68.4032 52.3232 62.7995 53.0073 57.2108 53.7385L57.1915 53.7406L57.1723 53.7428C51.1516 54.3136 45.0584 54.6792 38.9822 54.6942C33.9878 54.707 28.9592 54.4804 24.0375 53.8796C16.2766 52.9325 8.82567 51.0446 2.56132 47.6281L2.01613 47.3309L0 45.8643L2.73237 46.5014L3.36094 46.7002Z" fill="white"/>
</mask>
<g mask="url(#mask17_720_16)">
<path d="M115.125 45.8596H0V54.7024H115.125V45.8596Z" fill="#17375F"/>
</g>
<mask id="mask18_720_16" style="mask-type:luminance" maskUnits="userSpaceOnUse" x="3" y="47" width="109" height="8">
<path d="M57.0697 53.1998C30.6141 55.7098 13.8051 53.0672 3.04028 47.1963C14.9212 50.9998 34.4368 52.0731 62.4339 50.1147C85.4003 48.3465 102.757 48.1049 111.422 50.2258C100.48 48.4214 80.5022 50.1382 57.0697 53.1998Z" fill="white"/>
</mask>
<g mask="url(#mask18_720_16)">
<path d="M111.42 47.1963H3.03809V55.7098H111.42V47.1963Z" fill="#17375F"/>
</g>
</svg>
